<mxfile host="app.diagrams.net" modified="2021-09-15T13:52:59.670Z" agent="5.0 (Windows NT 10.0; Win64; x64) AppleWebKit/537.36 (KHTML, like Gecko) Chrome/93.0.4577.63 Safari/537.36" etag="W3Ux_7DOsutP-El0jDuy" version="15.2.7" type="github">
  <diagram id="PMZsgqbRBLL4Pa6EiNwC" name="Page-1">
    <mxGraphModel dx="1003" dy="457" grid="1" gridSize="10" guides="1" tooltips="1" connect="1" arrows="1" fold="1" page="1" pageScale="1" pageWidth="827" pageHeight="1169" math="0" shadow="0">
      <root>
        <mxCell id="0" />
        <mxCell id="1" parent="0" />
        <mxCell id="Pqy_H1DcKUiUlErftP3T-5" value="" style="shape=image;verticalLabelPosition=bottom;labelBackgroundColor=#ffffff;verticalAlign=top;aspect=fixed;imageAspect=0;image=data:image/png,iVBORw0KGgoAAAANSUhEUgAAAq8AAAGECAYAAAAY4sn1AAAgAElEQVR4Aezdh5ccRZYw+v333nu73+7Ojmeww2CHYfDee+89wtvBCSuE994IEFbCCBBCQl7qrsqsbsU7v4gOVNSUybLd8636nDpVXZUZeW/cGzeuj38Lc38btxbhu3VTYfX66V2vXXMQeQA/bJtuhKKcjf9/v2tedq2NJh74/qfp8MOG6VDOzIZN28pd8qNpbnbJ0bSPkCF4A4/gFTyza252zUErD9TL2bjX7NJBdvFGK29899NUWLe5nlXVn9//LX/apbzuYpp/YppdyuuujbaLQrZLed0lM1plRuv/u5TXhckjDInmVyvdJv3/LuV1YfLJpPmg3fP+5ZTXHzdNhw3bp8PGqemwftt0WLdlOqzZuIvA7Yg7ru+qeF4znTbXEq38Py54do27sOZ2l/K6sOixENfHLuV14fGIfZSc9m5f/Wlr+n8++WeX8rrw+GQ++aH52f8yymu2Bj/8YjrcfG893HZ/PTz3Wj18/OV0+G5dshabEdv1eXxM3015/WF9Enpffj8dHn26Fq6+pR7+8Wg9rPh2OqzdvItO/xv4cpfyOr61938L/+xSXhcWj3AIvfx2LZx7WRHOvLgezruiCFcuKsJ7n9SiQmv/nQ/e26W8dp/3HzcmJx5H3v82J96/jPK6fut0WPFdLVx+Yz3sfkAZjj61CH89pgz7HlqGex+pR0txvhbYMIsazJS6bPH+K+DQSXmNuGyZDs+8UgvHnFaEg44qw+EnFeGP+5XhjIuK8NEXtegtH2a+dt3bXZj1Oz9oRuiNku/mQ3mFg3U0alz6nc9d11fjz13Ka7V5mgQ/2Xu++HY6XHp9EffWMy8qwsXXFmHPg8pw+oVJbot0TgKW1mfsUl7bzzvPOIPjmx+nw0tv18Kzr9aiE8/3o5TlrfRYSP//SyiviIEor7xTC3/5exkOPLIM7yyvhSdfqIf9DivDUacUkYAW4b8S4cC6au10+Pyb6eiZ/HZtwhOuC9mKaqe8wgXMH3w+HQXe7geW4Z5H6uGbNdPhln/Uw96HlOHkc5Ilv3F7+wW5kBbG/wZY0CuvGYqfMOEo1s+klVd44LNPv06FPwzdDXOeCLD8b6DlvxqOu5TXhcGX1jsl6IHH61FZPeHsIixfWQsrvpsOp5xXhD/tX4a7HqpHxWg+9qRdyusv+QS9yOxln9XCzffUw7FnFNGBx9A49/IiLPt0Ovy0Zf7TPSYhj/4llFcu8Y9WTIfzLi/CXw4rI9G+Wp022xvuLMJv926E868owtc//Gt5XjZNT4fX3quFY08vwkFHluG4M4pw8TVFePHNZEXNh7CownTtlFewUrrvf7weDQyC7+3ltSgYpXVccHUR/viXMlx3ez2gnQVY5VkL8RqKHoHvRVEahcI3aTzRCx0W3V2Pxp8w4Qtv1qIBMizfTVJ5XbtpOnz2zXS44c56NGqtpctvLMKTL9TCVz8kb+yk53bY5+EnhgRvFx7Db8OOudDu36W8LgyaWuvWz3lX1MMf9i3DjXfWU67r5unw6ru1cMTJRfjzoWV44vkkyyfNR7uU11/yCXpxcl14dRH+a7dGuOTaZGzYdzn1Dj+xCE+/VIvyQkrBpOk1yecteOWVIKcULXm+HvY4sAyHnViGZZ+l7yi1b31YCyefW0SF6e6H6olom6bDQm/fhAmjV/KelAZx6vlFuHtxPRxweBn2P7wMz79eC5vmQjULDZd2yusPcwvFovrV7o2opP7YFMZ9+6OUSrDXwWV4+Kl69IxNktGHeZb5p5BRuCkVH6+cDg8+WQt3L66F517bGa75V/DywYUyxKCwUbHYRS689v5rGa65tR6+XjOc538SymukyfrpsHl6Oix9sRb+/Lcy/P2EItxybz3s9/cyyoolL6R0otXzlK83CM+RC+hDcbjzwVpY/GQtfPB5LfLdGi2lunR5GOR583XPLuV1/hULvOZ114P1uH7OuqQIH3yWvosG04bpcMMdad/lVBHZcP0keWaX8prm27o39/Shx5+th0OOLcORIs5v1cLWepIZ0vXoDtL1fM/wnSStJv2snsrr5m1lUITz48bavLx+2lILn39TC1ffnNzj195ahFU/1sKGbQmeTVO18NjT9ejVO+a0Mnz2dS24Z77grfrcLbVaeOqlxGxHnFyGdz6qh7WbamHRXUXceC+8qh4+/aoW1m9deLjgh+21Rigbs3GewQ3vF9+sx1zkvx1XhqdfqocN22sRJ/TwuufhJCRPu6AI738yh9vcvVXnbb6ug+O3a2th8dJ6QC9C4q9Hl1Ho3/GgsFotbNzOc7nw6NU8Z2s3Jxh598HPWn9zWT3mI59wVhHTcB54oh7WbBh8HbnXfDVmZsOW7Y2xyY91m2vhi1W1cMl1RdjjgDLccm8R+fDRp4tIHyE1xu3m6YVNE/TBN/BZvb4WHlySvCh/2q8RjQt4vP5++t01C53Hmvmt02cyBG/gEbyCZzpdu+v78cwNmYyfhJv/4w+NGNG0n6KH14+bauH9T+rhpHPKwOnw0JJ6XEvxtwnJuaIxG/ea+dRBFgr/oddXq2sxneN3fy7DvQ8X4Sf6waakD1lDdz9UxD2JLOcw+leQfYPOL0V+/dYid3X9+f3nPq9TtUbQ63XTtvl5basVYfnnZTj7kjIWaC1eUoR1m4qwZSrBs71ehE9WluHsS8uw/2FluOuBMqzdUISttfmBt9c8bd5WhM3bi7DmpzJcfXMZfrdPGa66KX0H19XriljxKYRz90Nl2LQ9/dZr3En+jh/qxWxozOyIfJFpsejOMm62l11fhq+/L8LmORpFHKaKsGZ9ES66ugy/2bsMt95Ths1TZZyLScI+yLPQC58tfV6BYCMceXIZ3v6gDJ99WcRCtD0OKsMd95eRpmg4yDMmdc9UvQgrV5Xh2NPThvTI0iJs3FqG6bIIPuO7k88pwzer0xqDe7+wbZzj8ZnZHWGqPjMW+ZFoUobFS/BcI5xyXhk+XlEE879hSxEuuLKIa+vWe8kDvNY/Hv3iPcz1W6eL8NOmIty7uIxRpJPOKcI7HxXhqReSgSTi9PayMs5lXm/DPG/S96LXtnpaR+AnQ/AGHvEbnpk0TP+rnze3r3z5bRlOuyBFKh5ZWkY5l9e8NYMvb7mnDL/dpwyXXleGNevnZPYAcmGQ+bbH2GvmUwcZBO5R37NlOuk9Dy0pw8FHKaQrw0efJ3rlZ1lXG7YW4Yobk+y7alEZVq8rIw0zTfO1/ze8kxlbpxs/K635w8/Kq43g27VTMWwqHDjpl9QAodlDj1O5XoYX3qiF7+ZO8MlhWiGOJ1+sRcXp0OPL8P6nKa1g0rBWeR7XuvCzNlIHH12E488sYt6r79dsSu5/YdC/HVfESv3nXtuZH1pl/Elcgx8wjRO2PE84Qyssyf7yjyX/y9drhgV+0j9URf79hDIcckwZljzPi5RCIc3XLrTPMRyyYTp2uvivPzXC5TcUMSlevuuHX6R0CErfg0tYwPO3VqrMG5jfWFYL+xySlKK3PqgFudfSIbTF0RVCEeQdD9RiDrnUjyrjNl8jJcGcOT2JYjxy+TEXOv98VfIa/f7PZbjp7npYN9e1w7NfezfRZf/Di/D4szu7XDTDuZA+r92SCs50UaEokA/bypTfdvv9Kb3jrIuLWNyJVgsJ9l6w/LhpKqzbMhWWr0g8Jmfvx03bw8a5E7bQC8/0GmfX76ObI6k09lHy+MhTUq6ksDM+RA9z7Z18fu3d6XDi2Smacf9jO1tnTYIe0gbsNSOXIfOgywwzX/bOL1alIrrd9i9j+0n04X3M40Z6bZiO7UNPv6gMf/hLGVuKxhSQOZrma/9veP923VRYu2kBn7Clyf1jz9RSWsDpZfjkKyGNX+ZyqCz+aEUtnHNpyn21kamWRHAEXUiv5Oqejrl5vK5CNiu/q0Um9Ft61cI1txThf/ZoxJYlOd9loeDRnPMaFw9l4b1aOOrUIlqFEsbb5du41sarevV3+zRiVwLtzwjIhYJbKxyZJpQhoRjt2R59uh7zEvGXXN/FT6ZcZTlIeiUyuNzXOtZ8/y+Bn5IAfmkP8Hn/053wwueZV+ox9xWe736cci37hZtghP+4joeV+2l8Ru3Rp8qDL8LSl5Jc8D1+IrCvuqkefr1nGS69PuXxLkSamFvwmjPKg3n/+/FlzHllADIs0AGOOq08/lw9Kh0Lec1kfsl00E2FAg43bQ4Zf8tXTodaowgzs7uOh83zNcl3tCELtJmUIynf9d3ltbhumuGwZhiFKtt/s1cjnHNZEWs1JsV/u3JepwNDg2zmlJPruufBZSyule/fTCuf0YuD4qmX0nrj9CNX3D8pmrXCNK7/e+a8ctdTVsYFQLdxEULbB8rOr/dqRK9QbifVfJ/NDGF4ZRVrxDy+D2rR+9d83UL4DE7CQL9aeUZXLCqispMZK+K8NW3Mh5+YNjKeWN/na+Ybj2blFUxowsA49PginHBW2ngpqe3g9L2DJijtfz6kDLfeW48bd7YO290zn9/BD2yEt41XVf6nXyVaZJq45qqb6zEdQn/EL7+f8ygvMMMJ332+ajosuqseDjiCElEPn3y108hjcDj0A2109bjtvnpw2ES/tJmU8qqYSd6uzhZvLEsRCjTJdHn5nVrs4EFpeuzZZHAslDXUzNPoInJx3W2JLtKIPvkybTgMdQV09z5ajy1xGBwKuOar72Yz3N0+owG+yUatgrpFdxfRQ37gEVLAivDS642wI8zGSBSe6TbeQvkt42Vf6nddLBQcwAH2VT9OhyturAdpT9feWg8rv2+/x1CGFAAdfVoR1DOIZKyeK2AdN07DKK/WOtitlfyy/6DhuOEe5fgitYq7H3i8Fg2NU88rokHLSdLuOfCLetODyUl0yrm/3LPa3bOQv4MPWrbK7gWtvAKW1X7FonrY669luPaWelSU2gkNhNRomXKhavrGO4tYzNHu2vkiFCJ42ZjOvrQIex4oPJs2Vd9nuHwWrr3j/nr47T6NcObFqQ1Yq8c5Xz/p92bl1fxqUUbRYTRceFURe9B1m3eC5OmXU+iaZSiMHb1pC8wDiw54cMW3teglRguGFPgzvSKtNqX0gdMvSk2+0W0hWroEt/6AeI/yeteDtV8opxHfDSmUuN/hcqtSoRB8++GxsSuvc6kmN92VwukXXWOtJ1q10uX623lfG7G1jKK6VgHYD17julbfYwd4ONBDYYy2RODMuGSjgpdZx5WHl9ajN2Yh4pLnCP+Lksm/Y6TygtuApxrT4cW3GLplOPCIRnjyuUZUXm3Q+d6F+p5bDzEArSPFgtbUvwLsrXOKPugh1Ut3GKcgduq/jQ+9yDWFQlKL3GuM1nFH/f+gyit4KefPvlaLJ3LqmsD7LzJm3fwr0Ywiai2RcyJmusSQd932WL+5Jh/qdNkNCt2T42zUNBrXeGhofXmB3b7ic8Z7wSqvAAekauHTL0inNd33aOdmyVGQb0hH3HGts+5VVLdzrY9rsnuNCycvC+i4M4vwt2NZsf+svBqHIHn1PXl7qfXFQ08m3BfComtWXgmwld9Nx/60jAYeSt66LOjbzQm6UnhzLp8TXWwI0j/aXT9f3+EpC0abNgUz2klpYUaYNMOEphS8J55P4fgjTkq9et0f+XKBeGDB+OayWuwFKFT4zKupH2AzjIxABiODiSKFRv325R238moNeDGU9DrU45VQQ4dMF5/hgl5HnlzEPOsnX0yt9JrxzdfP13uOGj3zavKs/v345FVpNhgYrYR37kJw3BllrCRuvma+4O/0XOkO+gbv+7eU3/7GByrm03oA9/Ov1aJxlHKS63Gd5E2p05jz+T2ewXNowNsvCkMBl+fulKOFIJerzo+1AR/pKEedUkZnj/qD3Jqx3ThoZt+K9QrHltH5IO1g3GtpEOUVn+ElCrk9Sa9aETEGO7knxQjcC5nfmmlg7qV3cfTA5+mX65Hfes29NcgxJKeZ0rt4aS18v+5fA++8nqSySAMlw/XwfvCJZATTFb5fPxXWbV6AOa8WGMUIoQ47QR/KMjz3WvfNJ2voGNXJIKwtSlKeiGaGmI/PmA1eijGEX1QU6+cIPt83w5QFDGJJ0BaO/+zrZHk0Xzcfn5uVV3POwjv+rDLmJRPu7fBphdOCVCBEIRRSfHhpCkUJobZeO1//E25SIm65J53kpn3Zh5+35yf0kv/KAy2X2bGKX84dpNFK2/nCJyoUb9TCnw4ow8FHl7HYrNVgwKOUz5x/KeRu03JvVbjHrbyCUfs8vZEdfBG9Rk3e8AynebfBMqgUdcnXa5d2lK+fj3cy7pMvU36uzfWam+uxaXyrV8v/jEJt5iLOj1RbZ/OBk/WfD8DgKT7/yhQ5ykYf+iXDoh4OPqoRFQqRGN8vRIUir1/5oQodHSZDzl10dfL8kwsMvta1NB9zX+WZ6GMdPP5c2oeOP7OMBY5o0ul+xcTSV0QK0ZT3VaqLsHyne0bxfb/KKx7yevMDaQ5l2PvgMqa06YX63OsMpp0KLLqai1HAOa4x8pp49tV62OevyRCkyNo/ez0TftaTlpz4ls7x9kdJr8o83WuM+fgdzt+umw73PVaLqVKHnaDzUj1cuSg5h+gMSV5MhU3bF6jyajE98Fg97HVQGTcqld0mvdPEQ9pkszYw7p//1oi5bp3CIZMmDPjAfts/EiNecFURcwwz3K3wYNBln6a+birA83Gr8y3gm5VXm6riCwtDdSNv3pZa74WVccaENm0vxgmaLxSBYp55vK64IW1SchIpEBn2VnqBXc6o8I7m/84Kj5va3ClJaO9er0483DrmqP7PMDuJxXqSJ8oYarf5oKmw4NmXJEXp9vtSXnJVmMepvGYYGH0scVGWpS/UIx75t+Y5ywo7ZZ2njCcWfHk+mq+dj89SAvRjPP6MFF2ST0ixaIXP/+Dm3RexyZ1XFqLCBKefO8ScWMTQbeuc/7BBx5IiLPtoR1z75JvKd2uoVXFvR9dJ0Ypn3LPIKdGXg44qYmeb6dm01nmEKHOPPF2Pxmsr3SYFZz/PIdcYFzxa5K5TmqSt9NpX7Ef6Df/16CKmiKGx544T536VV7wjEihyxOnj0BIynJPFvmJ/chCQl8gsfptP/upFNzSRniJfnPf04mv0f6/uxIK3kwYZ8JRf82KPskZ7PXu+fhcBePGNWuxIJMrBkYJO+I9RcuI5RXD8vDqTb35YoMorYG+8KxU2KSLBZL0UGwvJNcLsiB1DuHOnTcw3k4ILfE4r+dUeKdzpu05w+d712oDtfYgThMrw3sftK/knyWhZedVg3KZEIUhV0kV49Z3q8AmHwtHGQAnZ99AU2rDgKFWd5mVSuGYljqL3m73KeMiC77rBZZERFrz+vP8ULJtyztnxvmptEj4EyKTymAlBJ+RcfUs6gerKRUXHjhzCbllRovAdMdeirqrAc685Gke3AeuFN/WhpemUGcULb8QG/u2FsetFX279RzJA5Pva3PDYpPio23PIuFfeqcU0JyHNnJPXjsfgQrF1TLbK75vudihDd37s9uxx/WYN8NCRcTx0eL5VMSJD9E7WbUBltNaA+x5aRA/LqjVpo8JvxrLmKOn+77X+Ro2TOcfP8quFbMnuT0TApA79lE53481jUKDjQkpT6zQX5lC0DB/xyKFVlQilqJi1QxHa9+9l7O7z8ZfaA45vLfWjvNoryQaeRsYqA4+yzYBFQ3h750G315x4dhneWV7Ni9lpLsf9Pf5/56PkwCIftCqrQqtmuNCHwivSK91FKhjnROuabL5nvj6jIfwcSqUjEcMKzbKuABf7q2PmGSennd8IX3y5I7d4je8/93mdr24DhLew66XXFeH3+zbCtbcVUSmFXK+JdQ2hI4Sr/yZNXYU74ef7XveP63dw8dydekERfrN3SpK3sNptVBkGSpyCoctuqMccxMuuT8naVRWJPM4o37PyOrNjNjIa976FJVROue5HMUAPQoUCIgxsg+C5jCdwzW1c3eZnlHi1jpWs3ul4athv9xZ+qlfyKsPfgtOBQV6mHomqxOHnKGNChFdWy6oVLYVGrTCM6n8wEdQsb4JdqJ0A67QefG8jOPeKInb64KXxXRVawN1141Be0YQytOjO1DpKGyzH9XbCw/xZY/LHDzoyefhfejMZhVVkyajmv9M4YGPckFMMOMWc6zt4RbJc031EbqzN2b2TVug64eJ7MFJwdFGxUSqy9X0rfciQTdvKMLtjNsoLx5KqeFf0ecxpRfSqyGW2SZF519xSj+tp+coUfWsdrxtMw/yG36wDPXYp44qWMn0osHgxp6ldOxeZmRRsg+JFIVIAJByL7/CT/aTK2o7K1PLkrKD4Pv9GkvdV7h0E3n6UV+tAKgNe4bhioOeuHfnZrpGjLJXlj/s5Dlt3mIWpyIE51r68I981RZl0VDLX/cgu13qJSHNGcIQ9+ULyZuZ5WQjv8MJfjo8XiTn2jDI6w1rxRUNrLKW9JA97s/Y6r8prBlY47bQLU4hC4/tMhCoTDTmCxSYtNGJjkKfEc8HbYTPvhwGqPLPbNXDyOwZy3KON9Mnn58IWPQp6ECsX0ey2Xxm90bx386XAZuV1NszGQitC2xxfNScs+rXoItNuTV4lx686ox7z2rwoJhh60htC5g3haUoC78pzr1b3KrsfffCZXDHVyTZoral41+TL8cxS+DVvHzctjS8UI+lf+FPIDD9mPFt51/deFGyhGwrFS2+m0GLm5dZ78v/jVF55fyjdvEa7acJdIaUBP2oDxPsqdCYd4tOvq9My4zXqd/OrUTwZpTgOL/TKazf3Xjqw6KJASfR/JzqOGuZu44HDOpVXx+NKEb334Tk+a3EaZOWVgQN2NKIMfvBZLSx9qR4LMxwnrYcyo1H4l1yQH+9794wb5zzXjL5jTuelbMQ2UbmwKf+uqFgbqb0ObsT1kn/vNlfz9VvmlVferkX6HHBEqrtgRFWByV7EOCHzyWhHM5PR5FyV+/u9ph/llVdO/jhnASeI42zJomY+yfh/+HktXkeBtf7sMX7rF75xXy8FT6rD7+eMWyF/sPb7XOsLftaOftG6TDigZtz7Tj9wgu+bNamrwq/3KoNOMfitmX55PHJm7eap8OHn9fDgozPNumtYEMrrUy/XYqWgjVN+DST6YTAI/rQtVVVaZDxOFEd9LuVOGG9ciy5Pcn4HCwueINaEHPNQjBAnX9PpHc7uX76iFgs2tCvRAuOzb1LIBgNmt3qnMUb5fVZeQ5iNihevhAVxz+Jq4adOsMARLsIGFplekBQn7akYHZOiFfjA4pmqcOXzOk4VvfoVHGiHzwiP/CKQKFPausmXu/qW1NZtnPh5ps4WCpccJvHZNwmeTrTwvXw/7aWEbjT7t2HBoZ0waR5nrMrrXOESZYGAk2tYJcfa3ApxnnFxykcW+mRUjHPOm+ek3Wdzqb2f1jfCmJddn4pguskE/OT32EXhlCJ6UnJrrV50aQfDKL8DG5y0J3Jghypn+Wqe0Qpbs/LqvswzcCMDOBgogTxP3r0oifYCa0bo1xp17yhxaB4rywAGtbQAURNh6GaecY3X9bfVA8cCL6zOKa34No87n5/BSr4KPzMuRINEy6rKtUjjTan6XRobo0uYHr3GQYuqyusP69Natq9TqnmF9Rhup5SjDT7TdUC6G8eW1DV0HQcOg9I7to/cMB3UKXB0nHhOGZ1YzfzXz9iZn+lCf9i3EfcdjoCFwKvm3Qv9RCbxppaA5Eknmug2sOAKtkymib734ZSfJ9SpcMn3nRDpRETXs+gxqw370WdSeJoFLzy97LP0e7/jdnpep+/hwxOscl1Iw7Mlyfu+0z3N34MPIaUQKNzihaCMC43YLJwohqnhOW5cmpXX9z+Zjt0gzKdWRGg07GKAp5PVeCvlm6qOz50jqgrZ5rkb5DMYCHn5YFIiKJqqPM3vIOM135NpyWNx8jmp7Q5l3TXDzl3zc/JnzyMI4eLo0ZyH2AsX97nm9WW12E2CgsVLYW668W1WREadNpD5mgLhAA/t8HjDbZwZ107vec7f+2Q6di4RLrUp4CfKEnwmnT9qbvGUfH48dueDyfgzv53w8H2k58ZUcPM/e5ThrEvrMY96UvnTnWDL/CLCxZi1dilGvvdqvq+d8tr8e+tn96MVjyHFmAx9aEmSn+NYM56PPgqbcq9a4WgRsGbez7jxztp0efyyJ29ccLXOTT//wwkOil1Ey4TNeft9X3UcfGaNP/BE2suOPHnuRLgO6S5Vx213XVXlFU0oYvc/lmCilNs/Ou0XkZ+2Tsc1x/t62gVlLDw2TiuvtoNrEt+RR1IaFt1djxEHToSV3/ZHq2Y44QU/uhReta/e/XCSgfPNq54PvoefSvUvvOecRd3osSD7vAKYAJe0+9u9GtHLyGs5DFO5V8gxW4isaQLw4KNVj6Y+keMkIHwsLjmQexyQ+qFSZvt9pnFstnJ7lrxQi8orbwTrUc6YnDBKbL/jNjN5r887ldeZmAZBYFNe3/6wvaXba7x2v6MXPIRJtAfibbn5niJuJr0293bj9fsdYW6OecP+cmgZTz/iURnVs/E4mFiXrP/jz0yLdVCruht+eMEG5TQddLrhtlSBWxUXXi9pBuC0ZvS9jXzYIdQ2LuXVnFkzj8wJuJPOKWPf2qpzZh68KL/yzpMBWw9O4lLMphDAM6yvca8h9LKx8g5pvSSdw7zy9mfe6EZT976zPJ11Dg+GiXmvStNuYw/6mzVr7ni1HW1NKe8k4/pVXsFkfAVRDL3/2bMRnBzEaEdTvw0Kd6f78AAZoK+usK2NNRaStqR5ZVklLcV1jilXIT4uuDrBW+V7fCNkrtDRWmZooFEVnmsenwILP04Frds4mBzRbvxR0qKq8kpeS8ki4yjl4CKvuynlcP56tTZ1qa7mkms7H4LUjPukPoOdAi4/l3FbtbCuG3xog0Y8zZxfXjznnoWe3e4d52+e7SUKJVeec4+R5Tte9XbPXrDKK3o+f3IAACAASURBVEGsL6Mm5Lf8ox7d/6NaFJiWEvuPR+bc8WcXsefoOD0vBCErnqL5P3uW4ZGn6kNVpmYchEUcR3r34nps/0HBEEY0V6Oar1bGsfFsrzUCweKsdV4WePEi2bxarx/0f/AzOLRI0/qMt0wO3Cif0Qk29KLw8VLKkzS/VRWLTmO2fq93on6lrGDh/AeeSMr/qOlGoZFrzRtxyDEpF4wxiN9bYWr3P3jMRzwi8tSUInLtrSka4vvWDWtcyis8oidi7nhbhgVjrR+FLeKyJaWEPPFcLZ7pLoXH2e6nnF/ETVh+JaXSHPUzdru56/YdPhZW50HW0QGNwFd1E3E/OHmhrUH9o93fbcPuBs+wv3m2XseX3VgP//2nRnQ+4I12+AyivIIPv8GZZwYvc0JEXq4YwaqKY9w0N0xH7w/HgDDmy2+1N87hjU/e/Xg65i0zJnjRjdGvUlgVvkGvs1+oJdn/sORw4N0yp3Dod0z4UXyvuTUpsPbrT78afLx2z6+qvNrP4XXkSekwAimHxmvHe83PcZ9QtUODRJbI+fk2AjN8DCX00YdX6poUqVHtQdblI0+n/q8OcXjt/eTlnC9+zc9l+P3nbo14KlrrvpLnJb8vOOU1CsAN07HaXI4RhqKwDLrAMqKt75iaJ5R39/d/1pJhPELQc+HkeRZX3mhUCfNotcI1yP/mxobFgiJkWZ5yhEc1fitMNp7pohE2b50N2m6w4M+/ogjLv0yCq/X6Yf7PTH3zvalB+DmX1sOyT8erVIBX8v/HK1O+K88CS3XUSnP2XqioltPkCD/FEL0Ebj/zifekzSx9MeXtKTzR0scY/WxYrsVjvJOLn0wFLHolyr1WoINOWdEbl/KKz1njirUoCHhPakfmkX7mxRwTjnCi/Jh3HS4cCsLLIZePpw1Oo6RHM4xydRmxv9mzEY0/MPSjeILL9S+9VY8eFLKSMYmvzFXzs8b9GX948b4xBOQcUgQ6zd+gyqtnwFsePGOWxw8PjBpfcHM2UEIV19pUGeedngMu8kGqm/3k5PN4jua8rx08R+OmSev4YISXg3/wt8N/Pvi81vFY2Nb72/1vPAoVg2+PAxvh+LOKqAziy0HWZesz+lFe5YHz2qmT4PCwvlvHa/c/ukm9s354Il95J60r66jd9ZP6DlzRQ3pkGVNlGG2ePQp5ZAwvqVOimir7pVCiJz6ZFI6e43m8q9YXo9Rx0o8sTfttN1gWnPKaCfPMK44EcyRnal5vMXRDZJDJZnW9PncEq2pySvKoLJtmeCxi4/L0SPwXhhK6rLq4msfq9NlCMz8q9OSyCDUoUMGMq0fMjDaeeqMRflw3Gy6+NoVphAqF8PrZfDvh0vo9nhCGU41twxI2tLBHzQ/5ucbl8VWNSZHZ+69FR69LvmeQ95yQz5BRRIXfeeJGKUDggs/NmSR94fLPvk6b6iAwg83c42dh7qNOTUcWMi4Yg5Hf5gTSqHNePVfrG15Kyv7jzw0/V+YHf1mjDBYFnrpB6MhAQe5VNDDIHLrHcz3zzgecF98IZ12cwrf9rh9jeNnYtGPb8+AyFqRSvODjOYPC2M995tCzeOfJt0OPL+KBCmBrB8OgyiuYeA/RiEfUi6HOYMp7Rz9wd7qWkqqdFDm6399TVwtFlpm/293HSHzv43S4h6IhaQTWSbd72o0zru/AwUBySA6cOBzg2EkhrwqHcUWReMGlWPESOu7Y9+Ro1XHaXVdFecVjZA9Dg9Gkm0ivrh3NzwInA9Za54g59ITkrLAWR7lHNz+zymd1HxwFv927EdPKpLCMUqGGn7ZhOrZQYEXmBu1mUAWfTtdYt9avNEhyV3G0zja9+HLBKa8YESOxYHkRWfHOYPZ9J+QH/Z7y4F4eApWiZzjS8/vxWfGEGZwuvLqIeUf9blTd8LRBYIIvvq3F4iLWv/yRTptHt7F6/WbjKWfL8PW3O8JJZ6e2X7xUg+RO9XqW3+Flru57LFVlKwSRX+v7dhtjlTG7XWNcPGgxUV6PPnV8bUU8S3sQp605CEE/VQLT991grPqb+SEErrujHsMxF12d+iUPu57crxJcrqhwIcX4ypt4wRJdrK1RKq/wwAMqzkUWpHLEpvAVTnOrOleug5fNTGEnj5tICeXIs0fJa+jL2FMExAt21U395SE342Qs8PFKM17loPOA6W07Sl5qfmbrZzCYH5utcL5UmNe6FFwMo7yiD1zlNUqXUMii6b45aIVr0P/xNk8QL57T8njmKKfdeMBvQr3CsaI1DLvcZ7TbfYPC2O995oen1f5jH2JwUmbNZ79jtV5v3RjfWtGFQFqC/t+U92HoUkV5NT5aKaolr0VkGG/94EUpdL0wvaPYrUlrUx4to9kzOuVets7FKP7HL+BxuqE0Q+lr9qRhjYFW2Bi4coNFnvc4qIz7EOcGnFuvHdf/8KQ7LLorpaRddE099uXvRb8Fqbxi+KtvSifiqIq0wEa1mbcSgBWvGIUQ5BV984P0rFEKG0KPsKU4eI4Qy6iERjM+5shmpb+d5/DE5Dy6UeJj45kJZfhsxY5w0JGp6wGPi2fIeWuGaRSfjUsZ4iVQBMLrZg4JlHHwhUVD+N31UErDOPeyFF6zMY0Cn+Yx4Ea5dHYzjzljjfCIczmk1yzO28akYFKOCeRb7x1NR4iMA9gpDnhb3q7DFwgitBml8orOhDdvq43XcapOnhmHkPWsHzbUIi7/vXsjbmLwHCWv2ezfXZ5C7DZcrZ/IPd/nue3nHa3NOd51hOzBc8V1vGHgHiXs7eBKc5aKtfAZfuD9yt+33jOM8gpXdP85THxMChOPihfifG2YDk+9nIzlw09IXRNEMFrxaP2f/NXS8IIrirDP31Khp1Qb/NN67aT/Nz8OgznmtDIWX2oDOAzPtcKPdz1DIeHhJ6WWdJwarhuU/6oor+iihzWPrzaU+GIQTzwY0YkDS6TKeAceWUSHglxetLXGWvEex/9g0UZPNyHrSTE2+TeofOgGI5zhx/Nqb+X0sv9NClf6Ec+5FCAFj4yP7+eiU93gXnDKqwmzoEzkr3ZvxN6hrOBuSAzzG8JpjC08ZFPkQse8vbT+fp4ZBdpKxVrJind+OSYkhPsZp9e1LENM//6n0+HMS4qwb1PhwKDCo90zbTw7QhnPJf/dPgShk0zGG2KJG9a26egtwBfdKpnbwdzPd3jQxsvyju1kbqlHD+M4FjO88AKBq3epAxH0H/T9sDTLY/BQMmQcwcmjyBAYduzm+ZS7+YJuBEfnkGHasJye5BQl/NJ8/SCfrUcGX4xeHKEatR57DI9DKTBvxpUPJg9O7r18dd97DQJ/6z14SWhMpwGhMgrnIBtu67joGpWUZaknKi9s7ok6ypBj63PxsBe6UPivv6OIMrTTfA2jvHo2hYXy7/hvIXqKpu9Hwdd4jUHGEySMrPJZClZVXnMdrzMPNP6Rb24eqhZIts7tqP7nqOEZFbVw0pK2cXDtRKNBnosH0ICnWv6oPZVzyLMHGa+K8qq2Q8jfKYiO46b0DbN/Wyf27NiW8mGe5OTRFRXDB7yfo+CzbvNhHt/5KJ3sduCccUs++L7bfYP8hv5w5pU//qwy7H4gr3mK2o4bTymNaEV/UDgmYrHkhXpsldkLl8rKq0mzKEfN7M0AmkSTJdk6N6Om6A3K+M1jd/rseSwaLUMIesyv6GBUVrznWgj6ABKErCj5afJZOsE0zPfmkCUjB/VXu5cxpDt6i20qbN5ehqdfnI25MsL4PMtVhfsg+MHLhq8oTT4dQ+CFN0a3YTXDBA88yBKkvOpKoShkXJs/HpQsL/wuZ8wRlOAZVlAZ1xiKgiiWFFhhMXPp1YzzMJ9tyvIBHf4hxHreFearFhxiMSrlFU10FhDyRBNG5jiiF3kezN0HnyeaZI81PIelifHjGt2aTi/TaQBdpEOMki42dAZFrpTXgcSzRwF/nqPmd/P11epaON3R13sp1koFo534bFjllYyz4V1+QzIwb7wjHZs9CgOTvFa8J8ee8qULiAMtqs5dvs6cU155Axk/2nw1z9mkP+MJ+ykl76iTy5i2Mo5oEh3BnkMe2FNFrhzPPghteimv+I5slkIib9Nx8iI/wyivmS7G4Dgzvv1UP1g1OG8smw5rR1SQlp/V/G7NeLajYBXYcmg8+cJojNvm5zR/znuFWhzpLvL97Rv4Y5zpEp6LV9R9MKjUM8hnr6J/9VReN20rwrotU9EbKeQQLdAt42nsDxETKgTNotb7kKVYBZFmQvT72aKmXB58VKpifu710XlG4cRi4lmxUWHGGO6sWAnZLy4Y33w5r5rCIl8TM4zCq5NhWbNxKny3pgx3PTAbla0rVMl/P5hwymNWebcpOEpVr1ybgtSBcVij5g8/HHly8uoQHODLOdJVYO3nmqy06Dqg6byjY6VfDKssZ4GkQIM1LbqgAjo/rx8Ye13LwORJRJeDjirCa+/VQ2NmNmyZkqs1vOeVQiH3nXGpy0H2VI7Lm5XXkfChggmRIKG0UTzP2DZFBSYiF/LZFGOgl996zXWV341jzsgBRSw2BpvuKJ+R4cgwU8B5kvc/ogyPP5PCrPm3fG1+H1Z5RQdHZCuyxQ+84xROOXz5GYO+cyyQmfsckpTXNz7ovzCQsaUYRg4yg84x5++Bb/v4vXbt8EZ3Sh2jLxqYl49XZpPVX65OaTG/2asRbr0vpXl14od2MPuul/LKC8ow4GhQdO2AiFE7a6wjcMfDN6IxkvZUOPaLTyc8m783Jv7JBWQnnjP6yE/z8/JnPOK51pRoxjGnp7oCivQ48PRcY3+5OvElQ1HeskMUqhg6PZXX7XWJ/9Ph9IuKWNR0yHGpqETzXAhBOCM/7LvN2gITrhNyIdQV5lRBZJhnI5icD/l6BOENdyZP4iiSoxGHh4gCwWNE8ZIT5ZnDwNzt3qjkrazFc6cpEyxgqRhg6XZf1d+Ms3xFES6/biYmyGtbEyvNxxDSaIYJv7EE5YdS8nh8PXcUdGp+js2LocaSN38U2XGmrng25e/+x2upzc65ozli0tq0dvD1//mD4wBH33Iuz5vnxFSLW5PCf/kNRdi4aUeYKkajvEaaLKtFTw7vNJrYVPLzx/FujfJU6wHJkH7s2bQxDivzMh9ff0c9/J8/NqI32ZqybkeJB/iFv/XhxMeXXZ8at4/a2wZuCoM2XbyMFFgOiG5ye1jl1TxFg+aTlAPNO07h5IgYZg7RFj4PP5Xa1zk8RFRpEF4zDuPafpZrKmJD+DHQuhfO9lZ4XH1z4gUtIvstaur1jObf8zw6hcu+x/h768P+T7HrprzGdbRtOix5LhVXcgxZr+AYdo024+Jz5mUKLK+kU94Ya1XyoFvH6vU/vBhhcj8Zt2dfilbjK1BuhsezrWWnyjE6yPFROr6an+UzGeXkU+0PpTnGtE1OggqysKvyumNHCIufaIS9Dk5tfB57ph4tG8TTDB+jeDiEW4Ea5H8LjIs+Hsl5ZGrlUVULH+R5+R4TRQl6cElaBCplR7U5mp/lKxW0pEUsbya2vBiRIplxaH0nbB96MvVCFJb0zLwAW6/t9384vf5ePZx0ViPmAxHI0dodoSHTCSbCIjZ2Vwl+UrKAXTsqYYWX8YM8NRviYSeUMRdoFB6dTjj5nkIhdOJ5BOPzbwzvLTcnBI9irV/9qRFuvCt1MhjVem3Gx5j4ggKx9yFlNAK/XrUj1BrDK6/w8Hr82bnUntMYgIMpFM0w9/qMD2z4ikZ5Lwn0mD4yxNo1T3AxrhQIXjBHRmcce8HU7+/kgK4DlFdpS6+/P3oeME+M4zseSCkd519ZTz0ju2xAI1FeOR0cJHLh3LGsQxa9mVtGhP7OVyxKRti1t6QaiEENZHOT14UomFZmIkacNL4fx1psxyNk/88FgkenPGgwgK/d9cN+By+vT7+uhbMuTYVAIg34Ea9XHb+X8mo/0G7OiW6cXePECewUfl5ehU0ULc/rB58qeJs3+wFnA6fDJdcXkVdG/Zx2sHg2vnzp7VqM2iomXbw0OSrHwSsiEdLBGL0KlkWKqq6LrsrrI0tmwz5/bYRjz0hWxtRMElKL7kzW2wVXjtaLaIHxUl5yXQrfU/T8P45JayYcgv24eTqe4c51/ee/JaVoFHmplJ73Pk4FMyzQR58ZjfemGf52ny3qfKSnkKHPo7KgMNxTLwnXNWJ/0pyvN4nFhUfykXnm00YwrELRPH94jSGjyMWGf+ZFqfedBdV83ag/582FlU1gCFcPI4jxtBfjj9eDVfvA4+PzvJoP3mlHTwrtm7sXXp0N6zYV4YcNw6UNZJpoaWdcfRzlO46bJnCyiTi4QJ4gL9ywrfTQxDpRjOHYY6lE6OK7cawfc6QVzhU3pN6eV9+SugDgt1HxMIXPmrnsuqSMS38RCuyGzyiUV8/1nFG2IJRLKwwt35WDRuEK3Dxr0PlCc4rPp19Nh4uvTYrPGRcXsVCYLB1UMe4HHnxsD9BL+vATi/D0K8nh0I1G/Yzf7tqMN2fUH+aOkBXh9L1Xu3tav+ukvLof7Najw12MryLfd+PCKY9rHhVx0RXiYUMjzGXOc/P5qtQ+0VHyOsSQgfn5rXM0jv/JjXjgxr7l2A7cgCu8RGns5QcfnbojVY2edFVejzqlEfb6axGee60e3eMeZhErLlEhqzeqxvsW5igmkEAV5pLgLdGbpTbMBt4PTHD47Bsbb8LLUYuECpz7Gaf1WsJJs3vMjkBPv5IqT4cdt/U5rf9jPjmCWi9RhoT2R6XkqS63oTsC0oY+ybYaFjAvD97gtYIfr7JNp3UOBvkfD2rJJayGXjoOjNJr3QkmeDHUFB7gfUefDkMv/OUl/YHnXT4Ywwl+4+I968X6ve62lN+96PaZ8MU3qVl5J7yrfA9mufaX35hoYo7M1TAKRZXnukY6x3Ov1qPyzzuQW88Nmv9s7tE6HkxxShGOOqWIkQTfjYMu+XmvvTcdlbH9DitiIdco02DQB6/iMz0p73+s3jP3dBTKqzkT8cnFHqIWPP9kblX6tl7nXoUyepXa4wZtu9Q6rv8pkBwICmGMTfkRGlbVTl7Dp919o/iOE+XJF2oxIqIY2p5k3HE+U6EP5YQMcuIYfBkD/Ty3l/L61gfJCNSTWV/ZzO+jmLN2Y5A53/2UUrFUxl+5KMmiUc0j+L0cWSuPm9x+eGmqwRnVM9rh1fqddSCyzhFxyLHFSI+mzc/CG9rI3fNwSv05+5J6jHJaJ/mabu9dldclz8zGowe/Xz8VT2lCNA/85sepmEcpj0cRiNZMiGphDvOygDUFtkk4SUnLIEJ2mDGr3gv+L1ZNRSuOd8cGyWPh5JCqY7S7zub38ju1sNv+ZUyCfu/TpOy3u3aU36ET+G+4M+VbsfiFKm00wzwnMxOPp76e515ej4UJPNfDjNvPvSyzJ1+qxZ5wvMrSMobFKz9fFekvGl4/UIvWvfnM14zr3Qbz0JO1WK0t2pFPLBvkeQSg+4TabeqMjBff2nnYxyBj9rrHM1etnQpPPD8d2+Qcf3ojvP1hPZ5a1evebr+jSfa2pw2/FgsEJ0ETfGWj573W+scGyVgbVC6YI5uQPEj59byvPH15XXWbh0F+I7PXbdUNYip2s5DHrTl9xGEurWSQcX++R/eEuW4ZvHoMSkoSuffzNW32hW/Xbg8bt5axFzDcKaHdru/0G7njVCAFvr/7c3Km9Hp2p7F8T7Y89kwt7LZfiiqpkkcvfSe73VflN7RQ7Lp+21Q08q6/oxbnSzoBRcGmHZ/VZr6qjN/tGnNy/2O18D97NuIRnNEzPgGZhrY/bpqKETLPFjXhfKi6fiivW6cbAb8042dccyVlTYulo091qldaR1n2NV8/qs/5tEpGkhxbyuVjz+7M7x72OfACv/A5nmZoKCD3nd+GHb/q/eaWg0DPV2ta6llsITqk/tD8fLL1IwXYcx1kRNo/XzUVdczm6zp9/nbd9rB2Uz20/v3bzi9mQ72cCbViJr777LV2/Ww49dxG+O0+RXjy2UZozP7y93xdP+/lzExYtXomHhYgp+TtD2biuK3P7mfMqtcWjZmwdftMePypRiwWO/vSMnzx1UzwfdUxWq8Dt/tff2cmFv9oA/HtDzMBnq3XjuN/z3/lzZmYn3P0KWVYvTY9e9D5zPf9tHEm3HC7XOgy3HxnI2yvTQYfc1QrE098+OlMLKLRCuidD/6ZPwedT/Ra/tlM9MAzol57ayZM14fjgyqwmNuZ2ZmIC6WGwvnRZ8M915hPPN2IXSfOubQRPv9yuPGq4FFvzITv18xE+K3hN98bfg0XMztponAKTaYmxHP4Yf3GmXDXA41ofF61qBHWbRh+Hu95sBHX5WXXN8JPG5OMrTS/c/K3n2vhsHUq8YJC2DMvKsNnK4fHIcNgfbz1/kw8jYwCu2x5o6eMw5vlzI6wY8eOKAuzbMljVnlPY8yELdtnwgVXNKLD475HGpE3hhnvkSWN8Ks9ynDWxY2wfTrN0yDjtcMhjzOzI4378uuz4a9HN6JX8oVXy7HxtefeuzjhddHVjbif4wvytB2co/rOc+H68pszYf/DGuG408vwyYpG5WfO7tgRZmZ2/JP+Ab6inAmPPdWIHW/OvbQMX383Xlya52SqPhvIgv/6k7B+b35vvrfK50efTPLmvMsa4atvxysfOsFDT3nz3Zmw+wFl3Gu/XDWc/tD6HOOv+Hom0E3seXiELGm9rtP/eKtozO5UVec+/ay8bptuhHWb6mH9lp2vjdv1/6qHy68vYi7YDbeXYfW6etiwdec1zddX+exez3nxjZRrdMSJRXjnwyJsrQ0+ZpXn5ms8/6fN9fDau6mvmjZTL7053PM3bquHH9bXw/2PpRxe+YxfflsPm6fGj9NPW+phe70e3v4wFR4Igb+1rIg0GoZOaP/JiiLId9ZO484Himj9wDXP5bjfzd/yL4pw9mXJ8n3g8SLy36YRwLCtXg8vv1XE4w0pkHjQfA0zZ1XnA17LPinCqeengshHny7CmvX1ENdb0/qrMh56WE833pFOaLnqpjJ8s3r8eMDh2zX1WD3KYr/7oSL88FM9DMMfZMAb7xXh78ellk+vvlME/D0JmpjrTVP18PRLRTRA9Xlc8U09yiUwVKFF8zVg3jJdD5ddX4Z//10jXHd7EbaRcUPIzubxO3323I8+r8c0BWkpz75ShO1F//C3jr9pez3S1xqUI3rWJWX48PMizlnrtc3/4017S2N2R8Sd7G3+vepnfGWN3HJPEfb7exmro1esKgZaM+bo27X1cP3tKXdX6tCPG+oBjlXhqXod3gE7XnjpzXSa036HNcLSF8vID6PkbWN9/UM9XHlT8owvuqOIe90wa7Iqnq4zf+9/XKR2VqIXj5ZhzYZqcq1s7IgKTasOAqfN0/Ww6M4y/HrPRoyY/rhx/OsIPp4NJ/u6Qs4zL6aQF2kND7mO0cT4aCQt4Yobh9et+qFV87Xm96PPi1gQKfXwgceK8P260a0He+2b7ye5qpiUfNpar0fZ3gxHp8/rNoOl7Ky8btjCzT/1C3e1MJEQyL2PpFwFye3aYAwTXjGmvnhOAOKKP+HMlJcjF7WT23jU3wtDym8Usv31nmU8ZnWYEJTxhO4X3b0zdK8thDDoqGFvN540DL0FhSYpr+j11eqpgUNTKQQ0Hc+UP/Hs1D7okadTAdo4QzWtuAkVmkcpESy2S69PZ1DLuWy9tt//5fPK49aK67ATd56Z3u84g1wvdcUBGbFl2xFatqV820FSMoTl9MG85Lp6DIHqN6nwZNyhJ/035T/es7gew+xykh0XOUxakebujrIUFj7spFRwNKk1hI6KH+Wg4TWpUtKA0KTvuVw/HdOvyBgn4P1x30bsrGKd9j1Wn6Fl8ArXnn1pPfxm71QpLYQ97HPRVajvihtTb0gV0lK/eqV02FNGkTZgz4GX9Bh5qtqaKQAZhD+M9d7HDqaohwOOTHUCai7sTYOs5yr3kJvoL11o378XMQQuvWft5uFpE58/F15/9+PpWB9gH7hncS3u3+PEqxl3OJpH1fmiMedw4qyeqiQTdqYNtOggcy2dzr+iiCe6aQeZa2+anz2Oz9YMnF5/fzrmpTpCVpvDWJg6l6416HPxoDSLc68owr//PnWIyfnpg4456H1gcTiHQ3p0mNKaUph/FDqZ+ZOzqvWYE99OPqcIH69Ma6EqvN+um+qeNrBx6z+3uvFgBLTIJPT+7Vi5RvWhCpzkP8jxk/egAtdJGTmX0bMm8QIDQXjxNTb81B/VokPEQZ5vvA8/q8VzvuXqqYqVa0bgDzJev/cQ4DHv9Y7UpuvyG9PGkjfLfsdDdzgpOjv8RKeNFLGgwTiDzlG/MORnYXCKs56fJ55VxCr3LLwGGdM98DOuYjBCVusVeT9wHnTMfu6z4VP8VOdSkvS+U6E8CL2ysijpXy9R3RNG0T2jFz6ZDxxJ65AHhujTLw9XREN4P/J0LSpdjtBFk0HmpBfsnX73LEcnUsTj5v/wXPFjn22G8JeXHFeNxynDjywdbweIjFNWJvVIhoMoEMPW9/maQd7NDR51shYv1H2Ppp7SmQ86jTmKgi1j5zlVnHr8WemEOsW2Ck781un57b63zh20YU9TUDXuU40yDOC0XhVv7bZ/avn0yZf9VeXnsVrf89i/PK1p/MVarXAwQJ95uRZD0IwMXUng3ItG7Qq23OP1cyeVQ8tYQIx+vcZrhWvQ/z3H2kkHyzRiFwk8P8x6MqYxFAxzOOk04NAF+9qk8GqdD4a7tqEHHZmixy+/PRp5hfaO8WV02OsuunpnTU4rDJ3+71qwxR/bSXk1mSu/q0Uh6AQaTfgVnAw6yRiPN01PRcL12ltH39Kl0yTk7zGewgGV+WBQjKQYbVCGJNhj25UL5oo9Hh2+7UqGtco7L9i36xQg1GOPRwnmhPyg1bhoCyfVsvsfVgb9cLUB8/2gdK+CR7tr4PD6snR6kAI782yhELKTsgAAIABJREFUtbu26ncEB8WIQMp9PWMnhQkZG+bQon7yxVTIIUf6oy/6p5dx4KIHpkKt3f7SiKe1DDs/VecRDubNs3+1RyO2ghLBqHp/83XwYP0rMpJjLblfsYlnNF83zs9Z0N50T5ILl1xbT16CPo0auDCO9BB25KNiDEqF8ce9fjzbHCk0oZwxKjgcrOdhno2ndIKQSyvM6UTEKnw2KuUVTlluMy7+e/dGVALB0A9erjUXjz6dZJvOCQ7I8X0/4wzKh/Y/RYmMCrJHQayxhuVzsBvbaU2cQiedm9peTgqvPB8UMIWPJ56lJVLqHVqlk1A75TXzsn7fR56S+mLrODGJdZTxMX/JqE6dSHj87UHDzKt7jc/wT1X+ZXjyeWH0yfBgxq353ZrQq5czUWifsqmjzLB8iSc5BBSCZcdeLAjrQ64PpLxCDgOpjpQfpIrw4muFj2sDH6GJuZ0nf9r5KZdS78MqzN080cN+zouCp4jXiPLwzKuDtxeiYAlhKfzxUjVo88rPGRbeKvebVwqr/FQ5iBZGlc2l3dgWl/Eo93/8S/IQOG50kvhkuMwtYS8HUQ9TFc7gGwYWC4oyfs5lqb2YvqJC7YMaLxnWft55R50vLS+RRUogmvN+xshz8Np75mc03s9+nk+wMQIvuVbeViOmP4hoZOHcz1hwYaFfe1sKXV25aLgWYv08O18LBvg4F56gdYKUhu+M9XxNlXd8ZP3zpsgh0+xcv9dJ8Rc80MERjL/avRGjXMMor+gJ9lferUXFiHcG71YxVEatvMJNizYRM6cCxWr6PjyvcCEX73iwHn69V5JtNlPjVqHtKK4h04RRdXGhDPFoD8sb8ELjFE1qxAMDdJ3R6m2cZ9a3zgeZQOlxUIq9SCtAUUEyt/Xa5v/bKa95HeW0RSk40iKGnavm51b5DCc9zkXotOqSKmV9DQoHZxM5I6Koi47ozKvvJKW8CjzjuCbLPvsr2Wc/YdQNqkNkGO1pWqgdf2YZFF2Trf3O3cDKq0WBeE5xgpR8iNys3m8ZyKrvNgJhrKNOLuKmzSvg3kkKD3B7gUO4lVK0eMng3gkEZhGyWITZ5c0Zf9AekVXnsvk6TKKVjBzivQ8uI70GVaDBbmO6/s56+H9/24ht0gifQRdrM5z9fiaQhVd44syvs7N5TfFkv2Pl64352ru12EqG8OCF6XdB5bEGfUevGAI9I4Wo45GkWtT1sYlmIajdymEnpDYyTkz5qU9la1Ac8ubyj4cb4aAj8Ek9fPTFYHyCvyjwvGqxVdVcWHrSPIc33l6emmkzLPCJUGg/cwRmmxMlixeZIk4xn5SM8xzz6UQvaTGUWE3jfW9t94OLa+HDuHMyoT1A3hrZWcXYGqXymuGXd0iJ0NaMrAVfVbxc53pG0n/9KYWByRLf9Tsvg15v3vA6+M2ng0rUgTh5ctAx7TV4V0TzP/6QCpv8Pymey3CbX8/lmcf7Ug153nI+Z76u9b2b8nrNzfVYROk0NLJ/0jh5Hv7XTorRdPHVab/opZC34pj/R2f7jdzg/Q7XnqoePvx8sjyYYWl+x5eO/qa4wtMx0GhZdW01j5U/041eeD3VN0kj0SrOb/3QcCjl1cImxIUiMOMjTw3u/aIUCSvs9dcyhk1sFFUs+DwZo3qHkw1G+IYQk6cKjkEIpfhHyF7xD08uSx7RRwVrlXEsJJY2t79q3Ni/VtHYAEqeObC4HJP5+z83wnW3FlG498NwVWCucg34zedt99fDgUdJ8SiiJ3aY+bVIKXy8Ynov8iKBZZLGBvgVbenmIHVFuFwueD/0wsOEqjxXCh/Fj6dwUKFahR7N12R+eOHVRjjq5Eb0IvH4w6HfdQRmHmTGJAv9oSWTNyjghjfkIR53Rhn2OKiMvUDh2Q8+8CdbeFwVhN5+Xz0WfvUzRvM89/vZc8DMi6IYUWhSE/5+8cjPjbJllehbSqe47IZ6NJSr8Nk4lNeX30r0+duxRfTkWAdV5jbPi1Pb9C2nXJH75sUr4zvu9wwHhxAl4ZjTylj8NqhMM56X05oYKloeUYwUtk4SrzxvFBaRLQa1qNIzr9SjbO0mX9spr1EW/jQdPZ7/uVsjriPrMz9nku/6Akuj++0+ZZCPz5vcj6xuhtV9os2XXpeUcnu1Jv7zQatmuPCLNLAb7khR8cvn1vmgeBo7FUbXY09zfXoZ8f3y+eDK69ymvtLxbNen8KA8VRNNaDQj3+uzBWYinn2tFqva9HJkwQuj9Lp31L+D3YtXRPjoikU7q+n7eVbEaVNSIBy4IAGbslVFsPfznF7XmleMJ2xEKXN62fuf9K/IwAdteXEpin85tBHuXVzOm/IKFh5kKR5a9Bx+UhFef284niFcH1qSigp0U6CseM6kw2uq0W+ey6+UjqNwsZ+FnWnOw8dgueqmInqph/Hg9OKzX/w+xyufrZgJp18wEw48oohGHBzw0S+u7VGMGQ2KF2pRCZcjykLXML7fcfp5ZrtrrVthT0agjVdhKTr1I8DJFffIp/zN3o1YYT6JIrqMT17DH3yWKs/hwbuHx73ydVXf0ZNH/bzLk/IqnSjmI1eQ/6NUXuHl9cWqWpRNvMoMAzSrgleeF6eQyeNnJFFIBp2XqvPX7joySIEMw4Lx+vBTtYHT58APN0Y4eUZOiibh2Srz0g6+Yb7DLx+vrIWLrknRspvvrkelpdsaalVeM60YGtaRwyScQDUfji5zQUd58Y1aDPMr8hvmGHb8SnlFK2k9TqqrelTqMHTpdW/mFSmQjhaW385rild73dvudzT0/V0PJiONMR9rS3qkkLSONbDyaiBAQEB19K/+lPKEBgmzEuqI5tQZAlXeq0KV+bCmssAiiBUC8Vot+zQt9jzprZPY7n/jUFZ5JYTr5WENc9xnu2dU+c7c8vY4ieRvx5XhyJPK8MoARyhmoeF4TF6wQ4+dCY8/XUYh2M+8VIG56jVx81wxHTcbJ5gxfgZVBuBAAN5xfz38x+8b8Wxz33UTrFXh7Oc6fGMNaRkndCjdo98iO0JQGO3Cq4rYhiR2ufihv9SDfmBuvZZyie82b50NF189E48MVUktRNgvr5ABjz9Ti3JBAZi5MEa/47TC2O//+MD6JRcUOzHgGNjmuspYeQOgSPDqC28P24WhynNbrzFvaKOlleIm58LDzXet1/b638YtzH3kSalzwpMvVk/1GqXyCk7zqwbj6lvrgTdOuzk45XnvhotrXCvX0MYs15C33/eT5jNw5L3Q/kPWisQM4sjJ8OvUITJKKRIB8YxJ42X+PdcaeuDxJNvOuNDpnN33+VblFU6cFiIGTqCSjudz1SNFu/HBIL9Z/2ovRMrIa55tili/+0Zel1pRkQ+7H9CIBZXzpZS3zkVWrOlmoka6lvhuED5CQ44AR69rwcW5MohuNLTyanPRF5OVqJpdGgHE+0EKoSGjkk3+Iu+GCrdRnVffSohu/4Pb5ObQGpwGCa1ZqDxmKpO1c+JyF8rtl6m7wVrlt7wodE0QKnQ8JEW2XyUvz4sj+KRAnHDGTHj1rflXXvHNqeelkJhzsyOcfXr3zCOaEzoWEs/NVTeljRgdq8zzqK4BP6HASEh9RdNG2o8Qo9QLX2kdJPy4eGnythh7VHB2G8fmwssbwmy48baZ8B9/KMOVNyVPVj8wuBafEpRSeEQvGGKTXkNwxR+eLYddPrRiTpX7VZUKfOT+x59TwFmE485MeV6T3nTNKYeD3o1/3C9FhD6bK7rshzbmBG14woWjFeH0Ey0btfIKdnwvVYazQBENpc/3vfBCWzwlFxguKqCF2oWze93bbR0M+hsjj0LEkyeFwV4Exn5hyffoXGBOpESInMXve0Q8BoW9233gJ9sYPBS9ff5WxDXUTba1Kq/WEeWeTBBJjClRH1U3IrvBN8hv4BHap7TqV+r4W2l6eLGf8dDE9Ty36K7AWyeSqvKln2cNcm2WXzfdlRTOi69LKUK+73c8PCB9RGomGor+oGm/Yw2lvAI6b7QKtoRbHnii/5w0Y/C06vWFqXmKpCPIteh3Yoa93gLDSPJvTz5PpXYRFj/Zv/CAk6IBGy5r/sEB5mVYXPL9FpJwHmXmN3uV0cPdr2GQ50WIxpycc7EjOxsDCdUM17DvNhze7WtuSfm8V99cj4nlg4TH0ZzVy4JmDeZWNf0uqGFxcj+Bpf0QrwJFWh4uGlbdvFzLcOJpl7Ly9Cu1mGM0CtiqjEF5NW+zO2bDg481wp4HF7GDw0cr+1MI4AuXW+9NYTRdIDx/PpRXsOCr5Sumo8fnD38p48EJcreqzIn5YLzm9B05iLxO5ESV+0d1DTw889lXU7suRRjPvTbnMe3DuIkK0IbUf1cBm1xgc1M1WjYO5RVfxPZJJxfhqKaz7rNi0GkO/e5e4ez//KNTz5zUVH29dRp30O9jjuEPiVc4hShElNmqc5ufi+e89C0Xhr729v4NyDzWqN7hoPhHxw6GgsMZ8GQnGrUqr3j3K6mK16WWYvJCpeLAc1Qw9jsOec2oJavpQLom9Usr/Ec+cMA43ZPxJX2E/OsXnnFcjz7k+hPP1+PR3/kwEPRAv36eCSdKuk5BFHXGGcO+Ew90Gnto5dUDhSivvTVV0AqP9+thRGjKorCgAhPeiUHSDzoh2c/3cSHN5U+xwHffvwxycyyOfiY3E+iY03UaKAYmUD+wd7rWwuCW17qIJS+Vod/qTLh73XEfOhfhiutnw/c/zvTNuJ1gHOR7NGGxMZgYCAwFHS/6VQjQ3FhCaic4OUyngWf6r34cBId29+AdAt6mRZHWsmtVxZZdmUdV9cpxO/S4IqaJ9KrqbQfHoN9F5XVjUl5feL0R/nYcT2M6+Qh8VYWda21MQtvavNmowDRfGxWDj2zDZ0774v3R2aEKPniSoUU+6mJy/TxuuuZv2WdaZqW2RXp02zz6mVcyBT4cDVK9pKjg2aqb7aiV18gXG6djX25GjgieFI9sSHXi5SjvNYb/shZThUSm5rsxPJjwi0pzaV6UPBt8P164jJdiT/z6G6HexSk3tAq/dpqvYb/P68AehEZX5nz8Do6qVuUVf9m7GEtaii1e2p9hPyz87e4XybDvKDzifHvq5f5bYub1pHOBeVFHtHxl/3tZO/hG8R2e8frgs5Q2+OdDUvEs3a1ffnKP1lh6xTNieOLB2O84QyuvHmpjVCHp2EEKqPBrP549xJcMfNBRyXsrFNXPJjcK4jSPYRJNsLYp8h+1Y8JcWTFovrbdZwU+rQTC3K7tl0Dtxu/3O5sSJU9uMktevh6vD5yqjgV34/By/nbvMiy6fTZs2jK/ymumh/AtwUGBZQH3I+QzTcyFDeLvJ6jCTon3aJWfUXWeRnEdAU9A5ypurWB4YqvQK9NaoQdDUM7cOx/27wkYBg8Kg3mb2TEbPvi0EXMI/3pMEQsrfF9lTvPcS3cRXiLQ9VEEVz9tw4bBo/Ve8095VZjKqHBinYMgqih9Nl2KuKO0KUj3Ptq/t7MVnkH/zzJIdEGVtCJOyiu+qzpmUq5SqzobtrEos1V41DPGobzCi9PjutuScSFly7O6wZR5UYhWtfhhJ8hFHjyfr+r89bqO91WbrBvvKGLtRe7k0A2X5jEzjV97vxaPOxeeXfJckgP5t+brJ/XZfOM1xz2LDHHu2O/tl+1gaFZewQ1/6SlyeDlipPT1mwLX7jnDfGdtxxTB69L+OkgxJ31JuoFTFR1SYa92OEsV2TIM7P3cCxb0ow/9127JACcH+uEn12oxeM8j9Xg+gLZwEc8BCkZHo7xOpQRqhQx6dvFgmZQsGHpNkNDb0pfS8Y8YGhH7VUB6PaOf302wxcTj9af9U/FOP8f1uZ9Cfs/DtRimRyAWsPnoh9D9wNzt2iwwHHfITS8hnLFQ1UtibIxLcMib+n9+U4Z/LJ4NISTlVYFOt+eP8zehXFXGLLhf79mIrZT6FWZoYhE62pJXjILh+ELfzwe9zDUlSQEj7+kp5yePchV62fTwmvxxSsUljlleMVkL/mfldXY2fLcm9SvkPQITXqwiF8y7eRBeUnmNb214eKnK/ePgOfDYeB2gEulyXhFzk6sofeSJEwSFFRl/k07laJ0PMlfl+R/2bYSjT0+5kPCryu/w0WScB4zR6EjWfvLWxqG8wtHa5zl1shvDrVchSJaN1j4FT7iWJ6ifuWid21H8Dy7ryHG1Oqn0a5iD3/2PPpMa3oso2Zer8Ooo4O80Rl7X8pGPOLkMu8X0m3rHtKZm5RVOuZj14GNSqorUvE6KbycYRv09uPAZvmNkq8HoN80DDjoocMJIP1jiZK15TF1pN0d4Eq4iNSJhnGCcKr6vKjcy/R1W4XArirDvBkn1G4nyapLlZ2h5QAAI10hirgJQ7PHm1JlHUrI8RU8RTpWNut0Ej+I7k8kSwkCEBsWIdWjsKkRyDWbUo/M//9SIRM6EHwV8/Y6RYSaUhW9VsQqLVzUQ3A9+Dc0pdn/4SxGeeGomFuSAZT6VV8oahcJRvr/dpxFuvqfou5US3OS4WVDao1lQhKTv+53rUVzvuTaemLx/QmrorTVJFXpZN+iU29HwiPH4VfXYjAJ+sOOZxuxsqDWKcN3ttdggneEDDgKw13Pcb6N9+KmkhKuUVqnve69e94/j90wXhh8vHdlQJR8ZvO5VzEp5dRKVaAEDdxxwVhmTfMJfR56cikNy3lkV2hgf7FJTFBVyWCgwjHhWpM24lFd4xV7NR6a+m9rngbfTWoavta77gg1ZwWa/KVVV5nuQa8DGKyXs/6s9UppKFRngWdYZY4I8VEyn5Z6c/qr0HQTeqvdY1+b83MvSaWLamnVa183KK5zQhpxmmCvspgQvBIWcvqBDhb1VGo00yG6FaK1zRW5rYUl/wofWZr+HoLSOOer/sxyTFqFoW768Am5ry29VnudaRYNSMjmKKMLuG4QvR6K8YireHr0pEU/+U6y4qxCGAjRlVT6bPAq5HsJP88mQCAEnCqu+f3IgtVGxKXcSgs2Ec42mu9q1CBHCzZiDEKh53GE+ezZhRhCq3L7zoXpcHFWYzjVerFy99fY/vAgvvbYwlFd4UV5vvXdn7l2/Qhq9jHPp9ekUGnlYNsEqtB6GJt3uxX+OhyQgFF05ca5KcRC4eY0pe9Yi5c/8TJL3flZeZ5Ly6hhHueMM06onOuE3MkBeKWGuqtiJapkXu83duH7zbDyhk4MC1d/vIz+ydx6he2zW8rykcmh/9vYH/R8vO0q81sqp/KIWPfNSiYQ6+2nxgxfho20Ob5EC234cDuNSXvEMRRp9hJals5n7TvzP+PV7UhAbkd+soVHO9aBjZZgZoNJUGH8fOqmuglFNfojeKEC19m75Rz18u666kjEozFXug5c5V7yY09ikAmR8m8doVl45GHj6pBFRyMkGTrJ29zWPMYnPTgiVOsDRpYBRVCPLi17PJx/IaAYk5fWYU1Okraqh0mv8Uf2e8SE3yONcjwF+r17PcT9aMdwVj+uo8Nizc0Zvhftbxx+J8gooQoPFy+V96PFF+HhltdC/+zAuFzRrSq6HRTffDOn5qmcvujop5FpEdBOCzROLkD/n6h2WcvUy4Zqvm+Rn+IDB6R2/26cM19ya8PFdLzjgQyHhiZYTdszp9bBs+UysJnfvfHpeM2yUO6FlwoNnjPCugptrvAhFC5KipHly1ft7zd2gv1sXQlEUPmHmex+ulofHI6YXKuFOiDLAJi0Em5XX7UURlrxQCw4ecciAU5DMSS/aoCu48aljLaU/oInvB53TUdxnHXnxzuuTqvAqr61O41OQeIwUN5Fx7rUBoHGne8b9fV43Qp1ODDv9guoRL7T7fl3KoZcOokCK4tsPPuNSXtFC4ZjWbFoUyk/upJTDwzx88Pl0bPO410GNePRlPx6zcdIJbGB8+e16OPYMEZhU+Guee60fnkBOIGuOgeHQhYXiyctrWMeLI1Wcz+UZg7kVr2bllWwTjj/46FR4rL6hylyMk0Z5bHBwwnF8SB1wQAw+JLPyNZ3eXYNWdz2YWojRhRyd248x2GnsUX+PPnBtPkY5y8Rez3IvXDlUKOkxmvbe4A6JkSivgLbghfW4zBGPCx2grczYiiACCaedcFZSeh97JrVNqGJdto41yv/BzRpadHc9/H7fMpx/RVL2ejGj+xBTAYBcvcNPSrl6vs+LdpRwVh0LTK4VoiHU0wJJMPWikXvNhRxgm++ZF9fDyq8bYWZ2No45n8or2L0UxGkuLoxJUOOrXniZj3w/bw0v+4FHTL4vajsa4jNG3NU3pYMGhDV587vxEFzg/co79bDP38pwwBGp3cqkw9PNyuu2uj61SQmXJ6ozBF7qhQdcvlmTCoJigeBdiabdjpJsN4+j/g7cYOMN09eRZ4vHJX7fIffbpszjTAEnG8kUtOwlS0YNe+t4lBmhfwqoFAjV7VU2TPKAc8Ixkbz7jonGq/3gMy7lFW2kq93/WC1GLE4+t+zoFc5yTd9rhZpHn1pGw3eheF7RC19ZTwwe7a5uuLO3bDMHXm99OB33H4as8O6k5UArvzX/Dy8K22kXFjHdS69Pp0mBu/m6rLx+/9NU5C/hdB4/+5BUxYVwAhV48ZLIpu4HMR/+3DLuSVV4iTL46TfT4aqbkyda5yaKr++b52IhfEYfTgU54g5SEOFgiGee6wYjmpMvt92XTmTV7YRR30rzbmM0/zYy5RWReFBPnlMAHnyiVsmDaiKefknv0DIcdWpqyA5AiDYDOh+fJf/bbHlYdFEgoHsxFEIQ4sIG+rWxLijyVYg7ThzNJxieeN7Z0mWsQCUILLpezAMfXudrbk7t0ByZu3Z9IzRm5l95zbzy1Q+16AGi6DjNCV/1wivf6zohG31VeSqef6PavIyTXuhizjVdZ6Vqm/Xu8lrXPPJ8z+InUwska1EKQRUBOkpcmpXXLdMpCqNaWhWtHpqEfDdFBz28tGWRY01BIizdU4Wmo8Slday8juSMSyciF3qtI/OvjzVB77jeB5dUj+K0Pn+U/1sjb3+YjGwnfuUWhb1kLxnIWEQbG7XCwqpRqQz/uJRX45Pbz71aix5lNOKta8c7lFzRDafqUYaE5ZfNQ+/dPCft3tHCfHMcqK53KpV1kddIu3uyHJDWIXXi+DPL6FiatBxoB1v+Doxoojc3mX35janOoHV9Z+X1h41TkVbkIQNQfY01VcXYys8c5zu44fTux9Mx8iyCx2CoUjyMLjytTq+CG50jRp8XgA7UOmfwxI/Pv5ZOCnRYi0JwMr+X3PC7OZJO6RQ8UTW497qvFYb8/8iUVwjJ0aPYyGMBWBXrgcfWefJ6tsmnVDkOwQzgfL6zVKVC2HBU6Ct4ikKjC1P53aJUtOZUE/k5QtLxvharcpK45ee/mT2MR5bh4YonL6GtzYnHVTu02x+oh1rZCEVj4SivvFv6gWoyzoIVqoVzrzm2cLQ2IxR5bQnF9z5OC6rK/b3GH/R3cBEI2vbw3uM/3nx4dhoT3wldyV+EC08fj9+kBXxWXsuZ2bB5KhXQOYFGuorUDMornuqER6TJhuQV5A2TU6k6n1yYT5qAN68jlfY89QwLxkI75SjjR46893EtevWlcsj5IrTnGxc0UDyh96yIg9Zs+KcbbeCEnxwGIGeNw0GaTqZ5xrnX+ziVV3OrUOuY01LTeCdAkl9rWvYVeKrVuPialL+nZoM3cKHsP+YQj4DnjfenY/cESrbjVUUmO236eBEeogPoqniTctSLrr1oNsrfwS6KQlGzhk45V+eOf5a7WXn9cfNUrMbXNhBO6kiq8OooYe41lnVh3mM+/L6pXzADqdc6Jx/oFtJCRK6ff6N3KlIvWMb5O36Ue33hXEqlPvjyqbutmyw3FdjZYxliWh/iyV7z0wmXkSmv2YrVNYDyKoeqSrsIgubOB+rhv//UiG1KCEGLrxPAk/weM0ppYLnK2ctCsBuRLEr3yX35P39sxF6Q8OkkaCaJDyZRee50H6kQhBtYe8EGfu79Y88swv/s0QgPLqmFHaFcUMormkiJYPHCz/HCecF0m+NMy0V31sOeByaFj1DsNSfdxhzFb3lBi2Yw6oTKHlnaXekhCORpO4yCgCdU0G3Sm1ZWZCivm7aXYdP0VGyl9Ls/a8ukFV73nrXmHv5CcKrzpYO88u7CUF7RFmzm9YKrUrW0FmCd1pFrzf8Lb9ai51nBlpzkhRDCxfuUOp5gBrooEa8emdyJh+EDdjJAugHaKJDs9yjVcSqv5jue2HhNqqNgzCkoa91X4Kn4joGkKJI3fT5P1uo259bE9XekdoBOovxhzovV7h68qGD6witT1ILhKO83y7p290z6O3zkldO1/np0EdO9wNgse7Pyum7rVIw8aX9G2dXHmhG8kHCKOtCa6XDjnamgjDNFi81eMOqTz6BV3C3FQw/2hZIO0Y4v0M1aUp+kO8+ZlyTltds+k2W6vryMSkdk89gax3jtntPru5EprwBAJCE0BDjwyCLw8nUT0hCyCVD0KB1yPeTD9SJ2L6RG9TtiEObaOlAGKEexb2CLBd/8PDjZvC+8Zi5H6Y7hXOPNYw/7GWwENs+kwxe473/soVhHpluf8pkl1zNMlr44HRo7ylCUC8PzivfAKUzmRCnKnp6GEfYeCwOvuV/IUHqIfMR2hQPDzv0g94ONgNZ78r92a0SPt0hFp8WOtix4Sog0nEeygO8SKRgErl73tCqvP22dCs++Vot5lbzIvfpA5/VP+ZZXKt9PD0T07PXsSfxOUVNdLAWCgWqtZx5sfT5cflYQD0s9IOcjlaMVrvw/nlGrwDjy4lHuJrPh6fdb70u486Qby8adx6zyPk7l1ZxT1lSz82Rp/K5TBcU0wwYP173xQeoAAXce5IVS1JTh9A5WKR6KUkVUjj2jiK2YfO/VfK3PrrVeRGsoRI8/O5yS0Dr+qP4H+3franEfUlRm/7fnNq/zrLxunJqKxZ5Sj6S46HwzjOIzKhyax8kFPBsJAAAgAElEQVRr3XznlKJX3+keLYMrnWfx0tRRwt7F8CJfmsdeaJ+tE4de7HFAIx7FLO8V/u34EeyZpg88kdab7h5Sj7rd0wvnkSmvHmTRmHjeEla5akDCsRMQAF/26XTMVbQoqxzn12mscXwPPso1zwrhxqPVzZOVhYnNST6Y1l9y9SzITkQdB9ydxgQDq5xQJ9RsPL1SGoSnLC6HSOjnyGp66a3pUM4uPOWVUmTxU2C14LBges07GsdeihcWsWmy3LJuCmKnuR3H92CDg8IYeWHX3Fp0Dc9SKszBIUenHqQq+yNPTljpa1Ve126ZioKKwJIj+eAT3fNe4S2VA97Sia69LZ0AlQXgOOa6nzHNqTWtUl8aALyEZeNctygTNlhesBvuSMWEcJJO1S39ox9Yhr3WJklmZ+++FIhuDgQ0+HK19LDUgunaWwbr0zhO5RUdyLnnXkuRmEOOTbnfzUo5HpNXyLvP0GPwMfy67VfDzvUw94PXvsKRwkuuPyajCH81j5t5880PazF/cu9DUseRKrmXzeNM4jNY6Qy6cPxmr7Qf2V+b1znldXutEaQNKObebT+tpMrw+dfJETMJOKs+I69/skDXG3ssB4L9pNMY6AdnUVBOPyksn33dXeHtNNYkv/9pW2ol6pASiroDZGLqQIe9Bv+CTxeGPQ5IOc6iIc207hf+kSqvBIa8V0qRBrQqCB1xlwFvBg6hEY61i9CKiB5/bu7IxA4T0Hz/JD5HQRBbO6RFg1DCTJ0EXGZeCgScnOmuvRQ8/TYJmLs9I8/5kufq6bz5ubZSGe529+ZQCMNCuEaXAknp9UZjwXleVUBLGYjH693f+zSnTBOblsIbZy0TkOhLeWo3H5P8zsIGowI0xhPcpAXE79vAp/emIgEKHyWR96UTr44Tj1bldc0m+Wq1cOWiJKAdMUxgt268GSY8ZwwGIM9mPz2J8xjjfM/rKOUjF7Hdj3n3zFZhTMn9KOaHFeGgI8rosYwGcIvSMU54u40NPmkyNhVRFVEwXkrft7sPfu99kmQ8h8O9Dye828n4dvfn78apvHoGRfWdj5K3X8GftA18lde8nPiI9+0JbyFe8qMT3hnu+Xy3v973WDJkKdvyK1vhRR9KLTkmP1bHG/JtIXry0AL8S1+sxzCyY7lfevOXBxZQXqeLRvj8m6lw4507nUjS31pxn0/a5GdnmUZW6w4hj7rb/g+HaJRcnVJcKLHtUlzy+AvlHU4cX47IpnSTH+C2rtrBmOeFbkimM76s0bwe293T67uRKq8AJJglUxOECgE+XtleEGbGVZVPKaI8LISq/NYJoxAolGFF6R7AU9xp0eSN6+dK5LPSSToE+zBEaoVp0P/BABZhQrlDfz1WsUnyGGXYW8eGK5peuSglk2PST7+ZigJloaQNgDnitjH1BSU0HHZhs+q2qcKZl+mpl+pB1aTjCrUOskm0zsN8/A8+eEmHUBxjjciNasdPrnO9/MXdDyxjMVE8KGQecPmF8rqtDKvXT8UNVT68RH1KaSfY4OElX96RlqIXjzy9sDZf8KHBu8sVMRZR1jHU4d3KbzxLQpyUCPIjeijm8fS2Vj4G76q1jhGtRfi0LBTOa2f0ZLylgCjUkgIiIuP7TvKj9Xn5/3ErrzxDPMpnXZwquOOpj6t3pjdIIfD7mRfNNbxfnFLCpFFlGBfau82es0f9hWPUn345tZVsnnt7MMXupnvSHqyoRk7yQpFprXOK/+ypUjtU2qt/aV5HlFeOknc+diLXzl7womVZIWodcz7/z+ufN5kDj6c8t9JrB5d1Ju9XXQ2HQ7/HLLcbcxLfZZ5jTOntf9LZZTQG28kN8JAROcLD80rvaI6EDAJzT+V1w1YtLKYiQ2Gqbi8I8bRKpkaIk85JuSkESet9gKUYab6+lybZFyYiQ9JvrdfP1//rtydl7+hT0uajpRLLVsJ8K0zw/+6ndPYva5/1pXdivHYh4DTHRJ98NR0rUHVDYM3CA+yt+PgfjYQ5CXmKx90P18I3P07FUA7l1TVwbnfvJL/DMxYDL6WisjMvSa3N8iJrB4vqYzmlFiDFAg/mXKp210/6u9VzayGnQ4BRg2cC0jpphsd3PDEsfZ5np9zlXqLN103iM4MAPRRsbdxWhm/XTcUCBBXqCmOkFbHaCbpWeOCFnxiMR54iepE2aZtv67Xz+T84hc8dJyqUecWNOzfdZrgUY1A4nEpHJup5G3myhX7N90zyMzpRAhyqoq0SI51yKtTZCke+9qElqV3RyecVsdWW71v5sfXe1v/tKXgDj7gfz7ReM8z/cBIly46US65LShx5Zlx0UTin4b3QOpyzMjTMc8d5rzUOJw4E+8sVN+5MY8vPlY5CWb3wqqS8OqL8C1GOuWhGvm6hvJNx+oRLzZM6YM8EG1y922PKHSrwp6ODQeqa40nxS6c9az5xsw7wczpCNXXj4BCBj+9bYdswlWQdB57wu0NljNHvemoddxL/y3vVVlK9kr3pneU7DYrm58MFvcyDY2UPP7GIn9cNKdPtK2s310Pr37/lL7ZsL8OPG2th3aZ6z9dPW7Qoqod3l9djfqTcnJfecKxlPaxtuj9+3uz7WqzM+/ffN8JF15Rh/Va5Hr2fUwWWUV2zaXs9LP+iHsPlEsXverAIq9bUwoat/wzn+q318OPGehAW3W3/Mlx7SxmvhVMz/qOCrd9xwPDTZgVJ9Xjm9X/vnnobohl8WmH0/+bpelixqhb+flwZw9FORdk8XQtT9ZlQNmYjT7Te1y9cI7l+cz2g1RPPptxCYbX3Pkn8CL92z4Dz9+vq4frbU5qLAwFWfFsP6Nju+ol/B+7NWsLUw/lXJMXizgeKsGFbomHzvPvu4xX1oBJZceFt/yjCd2sTXScN99qNCe7G7GzYOtWI8oMMeHNZMhLkGL76bsKhlTbmfs36enh4aRGV3FPOL8PbH9bDxu0LhCabdq4TON37cDpuWd7r6p94iHf+jj7bi3p45tV6+O0+aXNa+Z2ioJ3XTJo2rc8D46apepRTp51fhj/ul/pM/rSlFmVFvt51ZIdr8RZ8LryqDN/9mL5vpWO+r9O7PQVv4BH3Rp5p2iM63Vf1ezKOLH7h9aTEiVzYl7bWEx+RFS+9lQw9xtSHn//zPlX1WRO7bnM9bJ6qhRdeL2JnFB5Y3iw0AQMa4clln9bDIcekSNkLbziZbm6tjXB+R4UzmLcV9fD4s0XY7S+NmG5H3mUZbI/ZERqxOIiRePRpupXM/d5Bro8KtoHGmZPZn6ysx6gMxe7eR4okv/B5Ew18Jh9E/n69Vzpp7Mvv0z420LObxh73/WDfPFUPyz6pxzZnsQPE0nqUgZl2GQb//7C+Huchph5eVoYPPhteppMhG7cVWVX9+f1n5VWy9IYtRbzIhb1eW6eL8MM6Fd9l7An6+DNl2Fr75X2bthXBa8161mO6btFdRdDQfNP2X17b63nj/n3LVBFW/VCEm+9OlfZX31SGb1YXAZ6tzwb/xq1FOOviMvzHH8tw7+IyTBUJ19Zr5+t/8z5VFmHxkiIumFPPswGlefdbM1xo4bv3P04FQPsfVoQ33y+CU5NqxUxozOz4xfXN987HZ7R6/V3VuHMpAK+WkXc3d+Ap169ZX4RLrkmK4e33FWHtxoXFg+YfrznF6P/7XRmuXFSGbbUitOJkjX3wKe+xYyTL8NjTRVi36Z+vmwhdtia+mZndEaZqM5EG4PtkRRHhYwQ+/GQRftyQ1nwzTGiCBnfcn07qu/S6Iqz4poj9YpuvWwift9eL8NQLKcda2G/55wnvLMPQaP2WIjz4eBm9E+TCt2vay475xMec/7iejEshdDJ5xTdllMfNcGW8Lr8hybcb7yyD43/z983X9vpsT8EbeCTKna2/lD297q/yu3Xy9eoihmT/dIA1UYafNqf5X7uhCA88nloTycNbuar4p32qyjMmfQ3Z+8nKIjg5TM7xI0vTekFDPZXXby7C0ucTv8khhZd5mDSc/TyPbHh7WfFz7cuzryQ6wWdmZkfcaxiJv9ojRccyDft5xiSvtR7Q45qby/DvfyjD1TeXcY20rhP/w+W+R8vo7DrzojJ8v3bhyYdOc0ffoQvdcEcZHSbX35Z0pVbdyFzYZ+lOooKL7kp4tu5hnZ7T6XtZAVumyp+V1vzhZ+WVkFm1dntwPFuvlxyEHzdNha9+mIohDW1unKAh2doJGfl+OXBeyz5PDWtjcddilvJU+GHDzuvy9fP5vmbjVAwt51OLTjo79a/V/ucXcK1POArJa17+x7+kZtIbtrdcV2EefzHuGK4H+5PP18LBR6bm98LSaIcmzc9Gi1Vrp+LJO/pTOn1K+7N1W7ZHr0lKG5gK344BxmY4qnwGv8IgoQsHQxx4VBlPpVn141RAw9YxYr7Mlqnw5fdT4ei5878d2rBxAdEr00SPQ70af79vIxZDCh1GWjXRa/22qVis5ZjPI05KubHun4/1JJwDvpg2sLWM8mPt5qnYEF9BkHz4q26ph0+/Fvb5JW3Ijy9XT4WLr01pKtJapEPMBx6tPNP6/7otU+HFt+Sz6ltYxg4X1kuWdfjx069THrYjmYV5V3w7FSunW8eaz/+jjLPOn1U4kzqKvPimlKGdtEFPL+vr1POTV+/+xxSj/LPcqIKLPWXj1pw2MBVTS6rcV/UavJ/2onRgDINJyznwby2nwrufJDlNAfzHo7XYWqudnKj6vEldByc1CDrGKJQ546L63LG+U0FXD+kf58zlhpIZimhU6puPScHY73PgpOm9Q1W0NtOCbuXqRL+ZHbPhi68a4fSLUqqKtDApJwuVVllmWxfy4HUjkY627PMks6PcnqMFOUE3cvQ3HUgKkv0Ivfqdw/m4HvzSAR57JrWkk9evR629KPObd3Jk5fdTsaOJiM19j0qjGExuNOO5at326MnOSmt+/1l55UmUXC9fo8pLboec0JxHKJwmj1CuUb4/53TEhrWnS/wv4klW7vVbvm6hvMvNU0zGaiAw4pnKLe0vcm5lOtmliIqh/NhOCczziRtawIeSLadQHiUmzHk5GTY5YISf5HOVq85x/+BzeS1TYdv0wuk2kOHFO3hPU3Ihpouubt9OxvWuhZ+cZPwn10/4pltbk/ycSb6DE70eeTrRQDqE9eR7rwyLptYqjJ03zchQwYonm6/J1477Xb6T58ZDCraVUX6Yaz2StZdSmOGYSyFP+fDN8MhtlUuqOE0O3ENP1hdkpTSY4aQPtPxiStDN9xSpD/Rc0Q+6kRU8e1Il7n4oHfso/7AZ5/n+jFZ4Ra9GXVK0OWxt8ZN5ackLtXDYiamKfZhjlMddsGVOM15k1lGnpPaNCua2FqlFltSuY04vY4echVrQ1I437Cn4Cs/Zk+RJyveXg6iIS20CGukKs1D31Ga89E3GX44ZJrd5leXro0kIs+Gp52fCbvsVQY718hX/LPuax1oIn/Gdebc+yGLFwE7qzPyYYSQfHPn9s3zQnWnNP+/D+fqF+C5n1xHTUkTxomJw+eQZVjjnffawE4tYTIxHR9G6LSrG3XJe+1VeAWvz4s1DOB67J19MSlxuP4RRMSwBqQefquJOVdR5EubznWBgUciNQiA5bAgC1wwXZqU4afeVK8PNwUIUimCX1H/xtcl6l7IRF01Lpa3F9dk3ilJS3th1txXxfx6lhai8ogUBzoP6u71T/hQvBXwznfI7HsSnBIxEeTTTF1V1eL5mIbznxe/wD83JbUo2YLDBIcNI6dZT2JnRTj1ijKBf/n2S7+2UV3hoowIPxSbkQjQCp3bCmHF1hKBKdlWshD6aThL+qs/SA5lCrr1NPtmtuX0RXmKgawNIcDviFl2a6Vb1WeO+zhpBt7MvrYdf7V6GW1pa/GTDliGrA0SvKupe8E5CeQUDnjPnl92QFCOFQfYaXlgGOe8Yud1ORvTCYb5+t6c41lZUM/Yfv86x6gkHh6xYNw726HUM83zB3+65uYCOQ4VxqzOJLhgbt8yEaxbNht/vW8SiLvS07tqNsZC+s8a1XuPwsV6sG/DldeSzjhcKUym3UT40FaItJFy6wcKQWr6yFqMx5DqnZXN7VPNg/ZHj0tmOPiUZW6PYZ0euvEIUwE444XX9nz0bMXxrc83Knt+99PqiDDrdyBnbvsvXdJuwSf8WCbQiCTxhjXsf+WcLCVNSAIVzJCWfc2kRrar5UiC6zZF5JtgsKB7H8y6b6xnYouTBW8NlZzXzOGvD5L7VGxau8mpRUJAoDBRSB2XYlOHcPCfoRfFg7VOkTp2rnF6IxgZYl302Hc6Zaydz14M7K9vhFOm5xvGRaeO67Lq0ITcLymbc/3/27sJLkuNKFP7+fe99u2+9a5ZlgS2wJFvMzMzMZFkWWszMzBoxs2Y0oFF3VWb1KL7zi+jQpEoFWdTTI2efU6eqEyJu3Lhx43LM+ncv4VWflEAlsOD7jzuVcZ7QWF7zxuHdh57cqFA88vTyUyiq+LPpsnj/atsy7HVIshjlk5yMl2vd6UEOASDYLlchKdMKnmwTOuHsdOxrvp6txbLBnUTn9DNjyXNXxUmd30slvOZ1r84rt+ZOe1MAU1gXQclRxXmMdeBeLs/YV4QPsUYKUXNUp4NZCAjW150PJW9aHv9ygbsfHOhI9Zd7Hkkezl0PSF6+Bx4vw9/2XQj7H1VEC7PxjEtz/fqexXUwqvygZJn1QsZxrUprZCL84VdbJ4PDOx/3LoM4C/im1SZlQmm2CxbrJQv9YHzIcg8ewZMm3IOyCA/2gHx/EjhmIryaIESmNuhvt+3E40hpt5no3PPMWRelLNyzLy1ieRzW2EkGM6t3TRBGce7lyQIJXoW8qxuRyXj/c6cCpQQO5UxM6nJlHtzMasrJclSSCKzdgpvNVzmZv+2Xzsh+8AnZkgSM5Su8mgeLwyKxWAjoFKnqXKETz71jTi9Lbmy0qnxT93OzoqlR2kVDBO1zVLFQlunCJLxmgcJaUkvw5HOTJYZ1ibZbZZSj9Dfps/2EV0IdLV0MmBhQluKqlg5eCuANtycB99DjU83RbrqcFL5pvm8DevipdCS2EBxuM/OFjqypeBLVjmU4++I0J3nOpgnDNNrKfEo5M8dA4wkUP+PAt91nYGDV33KHTvRu4CHZmzYqDEslvIIL/D7WiPAb1jCCK6ur+5tqnYyKs+rz5oMFEn8WSiTUQ8kvYR9iEK3/vN9W31vOvymyPH0nnJViRdV1pWhI1Dr/SnW7k+t9OY8hwwb39k9lQ4VxCIN6YcXG0AHzp1btuZcW4bd/SnXJvbsc9588pl7fxoHWeNeVAnQksbq12bKKdyu1qQrOdruXMaQPX5zGOGcmvJq8uAntlY5PfPbVxCRcxyx8H3NqEf7z95146gzXoGu9ELSpr8VN9cv5cGPlXF5Mw2LLsBGGWFaOOiXFVl19U3LtLtcx2XTVXROrwkL55IsJ/1V4LT6xsVyiLM4vvJ7qP9p4lmvYQJ4rRckFy7OAc6l1C0D+l1x3xMlFdL2xprMqL9eNzFywuDqdJJZlWmR05gsjME8OniBAiRPtZW3OtDrr737CqzViLs65NLkGsxLoOpiMQ5iHmGVJXd1a/KzhHqd9PEBR/4OOSRYvx42iI9e5p21aalNKhtqUczJsbOjIR0wh5WKrnZNyYZ1YE8n11w57HFSGvQ8toruze00N66N6fymFV/0aGyOEdYTejMd8VGHa3H7ntS8EjNLx6HOtKBARHNzbHMeD1p59rRWVJN6Kq65fCA89keKSlytv7odn60PoYOQBByQegO4chGEs9lxeTZby62//aShYv3aX23UWZoohOYJxhfWcfAFOtCh8QlIrnpKPbSf0TjqOmQivLKgWj+LcKRO3CJKXTBig3RNDSvsVNiCTn1VmuS64jGjuaNncaug9/tyPT4hAqDQKzJ2bUFyi07kmnaBZvW9zpSEduHiyh/jjqvBmzJg7SwU34oFHpSQg7y1n4RW+bFCsRmK/xClLquneaC0qCSq0RSdSPfDkRm1xVjifpF1jYimnxbOuCOdw+IV5shnHo0oPSpqvOEt9ZbqdpN9x3u0nvFr/LKs/KIEnqb25UQk0R7R0ljGWWdnSXE7LedMicIs/JHCLP3R8stPDvuukGGQWMdn5LM7423LlcZle0NIZFxUxdvrsS9uRtlzDG3gxKBW8Gvj3JNaTpRZeq3RsDqyN5TwXVXiH/TYP+BnevJzXyrBxuJ/nhqfJAQYStjaETqw2Uuf95fSMuXjj/fl4gAl+pp44/mc9+cjNkHTHm9ErCXc5jWUQLMbCu3nqeUU0GJ13RfuHA3IItk+80I5Gsu2V2nxZXeLpyEUzEV4RoM87n7TikW7OWr/8mnZcXBYa7ePGO9pRcDjk2HQsLK14EII29T0bK7cZy5bx0HSzcJoX3NMvz6fDGXYvY6IGgWNTw92vfwQn25t1y4Zk860mN5kn/xMgxLvalJ1PDw+bg/Bqkex1cAodoDg5tSkLc+YLYxEsLzmAQsJ6tpznC95Z8tSwFQ/GkvfJV2kcNq4bbk9Hr4qBI6znNdhv/md5vZ/wmgUGSi2lAd4pgVlLt/nS4FkqlNm75Z523MDyvM0S5knahn+KoFh3a8X57OZLCZxf/KEThUHrabmPA3zgzF4LR99SksyLsK8TzkhhK4TYjyd0S29K4XWSuW7eXZo9DX9Gj46H5eVDL5sb7vFgco0KK7/ZtoxWVkK59cRYR8j77z84oKkIn65K4Uab2xjBm/naY8+24ulZDsm57/FWmOukUoFnSfjeo4zho4wTZI9pjHMmwmseEAYuUFdAudqbb3/UipOGER53RjseFek4y0kZ4TQQMawNY2FZZUXZcoeUVReF1kUtnkDuSDiWPmVZnnh+eVvyMAdhDoRTWqH4IlqiccJFFG7faYXTL0gCoHqbOVZluQuvxsBVcfoFyVLkiEgxy3nRGDsmIuaN4K5UiU06j30YLWyK+2CGfzUQhUOcfmEqywRmdEhQ+t8ty6j9Rrqcgltm3HH2E161B15xbfscVka+wOKf8U55UOKLAMhqzuU2jZIq446j7nvoSjiEOPft9yhjjdq7H04n7Ai3EdubN+O6bW6K59ANOIUTqX2s4sPdj7RinLt4PZUuWP6jW3BCxbwRXqezgW8KOlnKPjdn4RWehEMydFk3woeE3ol7lyioHu/vt++EK64rIg/MQuBS4ndafWWj5AlntsOvt3EQgZrp8zHJDg+UfyK0zXP4zDT6nZnwmhkhi4S4Dmff3nRXAp67ds9DEiNczqVwqgiGdMKeQsLc6ISIWJ5kTWL4krWuvmmx0sDpya2WN+VqO8vld54f4Q1iWhW2f+2d5H4CI+3w2VdbgWVcTM6Nd7aiy8PmttyFVzByz6gkwLJ6xIkbQx6MjbAh3vWMCxeF26scpLFRuF0uc9QNBwufOpviiggWCuB/sxhzaY1hEM6d39SC0iDh1TqKyWeXFuFPu5bhjIvaYcV7CfeY94NPpjnbZd/kYlrO1vDq/KApcfCsyQTvXfYpwg67l9Gqos6osU2LaVf7neZv8IHz1bcZF5ILkIKHt0loFBYhaXAa1pNGeJ3OBj7N+V+ObW3uwisZ4LlXUykphhJ7krBKCqLjfe27Qtzw7OXOHwbRR+ZvdzzYjqUnlUm9/b5WDDXKFaWEV5ErBrUzyr2ZCa+AMBmY+mXXFOF//+gs7HRajvIQinbHE09e3Wh5GQXwpX4WcYn7Ui7KBnXoCSmrDnFGy8vHGzPXCbhc7DbqpYZzlP64aykXiIv1lavdeGQQExoUv979wHTGvJhQbSPS5S68gp9bxthofcbmdxaECHw0YKelcXGw/vEGGNso+FvqZwmv5kgcOYXijsV6rxjin3cr41naL72x6QWlQcIrHLvPGiGTmBIrlnxdO1kvL7wqKRSnnd+OYTpippYaz+P0Z61TmP55Szsm1Emeu+nuza+GKJ4N50rf/OfvOtE6pKi4E6q4/lhP0OE4OKq+0wivk+Owis+f6+/NXXjNCiGjA48S74VwqKNOTgX7r7yuHffbzVlwRXt5nGQkoYhKcO68dzolUTiVED18f5p77EyFV4PC6CLz28eZ80UUFFjzWPto9dzt0xzQrBZxnhzxhLQKoQPqO3JrZnenZC3uAWUjNgdNioDnWL6jT0knBIl1i7Uo1yR3hzCI32+fqhFww2dBYrkLr5HuxE++kwQ9bnaniOXFQ2h3EhoLOsssgZACMivamVa7BCTWfi4ZjPC0C1Kox2nnFzG20nWa7aZmhIOEV7BZG05uI+A5TIIy2/5+LloodjsgVSJQ0D+vuWnhb9btgDcrrHgamjLWWfc77fbBrdycsn/b7ZbqiP5xx41x8dNYK43wuvnRxbTprE57m7vwaox4Ap7I82wvktD92z+n9aRU4HLP96kzT/kZ/O79z1rRWHTrve0g3FDtewdOTJsXzlx4BXAsj3NZKojPYmQCc03EnKyRB7+cv/PG5GSq3/wpZQ/mjVpRaMLQXoekkIFs5VvO4zE3yb3eirGfXM8vvZESaNSgk5hByTjxzCIKGzkMYnMQXm2w6M7pYARU7s433k+WZfMoXEKVATUt1XedhjVp1nNNODIHqgko8k+A/edN7SgEWld3Prj8hVc4ykxMjd0/7FiGMy8qYnaqyhbGRTkUSrA5zEn3nGeBe3NQyLthr/6PztQRZWm1+fBOOLJzWuNqhNdGeK3SW7/fPwfh1djsR7x7BDqHyVx7WzvG/k/Tjd4Ph0t9HX/HP8hA5Du/8cVpwzFz4RXABiOeUnyrTGOZ3Sx5JnMWg5o2knJ7mXFzBxK+1aFjtZOAws0ppoW7bXOIn8xjQliSMQg/BFWxOMr82LT2PzIpGbfe9+MTmzYH4RXN0faUl5LZrg6nubKYlPWQSJhLG4nhg4eMk+X8jdkRwilQ5kycqxhYITnqPWbBcFOOISt05cKGsGZ9+ZNM4byO8ANJDJLsCwAAACAASURBVEp/qbN7ynlFdE875anXwRKbckz/jn2bp7wJSb6YJm01wuvmwW82Nd3/XIRXeCTr8Hbi4b4zH9zUON5c+18S4RVyWLtYUsQbmjiayOYkuGbiAzNL3WEnFuEPO3Ri0V2hBDvvk0pOEc4R5eYyNpsTC6Wzyrf9WxnPaQe72ru/2bYTa/EKtLZx5TFtDsIrWNHci2/MxwByBZIfeLwV3dMxEe04R0UunvL0xXzMAN1cFnGeB0qSuGRzRTB3Pd/blGMZJrzmteQ4RBUhxFwTws2R4y2fe23zWkObEteba9+N8NoIr3Vo9+ckvNYZb/NM/XWxZMLrz2VSCKYEby7PX27ViUKfWFEByiyxBAoC+uYy3mih/NJhBMlCefCxZbSQq80mvEMcpbFUrS6bg/AKZoK5GN7Dji/C77ZLMdYsSCzJ/mfxUx4sh4NsLnMGTnQI7mwZQ5PLBf46wmseA+u4hC1lpsTwmhvvV+ltuYyrgWN6NNYIr9PD5c+ZLhvhtaGTfvTdCK+rRiMOli0bq+w59UFZ71gsxVVuru5OQpDqCGpvKqasfIfsYgl2am0ac9XFsbkIr8alLNNFV0k8KcNZF7djvOhJzlnerQyXX1vEhMHNUXjtt6CXw/W6witY0RU3WvTILHplloP1eDng8ecMQyO8jrbv/JxpYdDYGuG1oZN+9NEIryMKrxmRNl1WI8c+ct0KFxA7mTfu/Nzm8G0sBIYXV7TCdbe14/GPhHI1OMFfFVz9v7kIr+A2HxKclCjhknYk8TaOWHXc7dvLx9W+OdBJXRjzGugX89qvnUZo/ffZqBrh9d9nrvut9zrXG+G1oZN+dNIIr2MKr9kayV2bg7A3d1enscgQVBKLu92JTt2CK0LaXIRXsILfR51Xcb0srhKd1Ndz0kmv8fVbLM31eox0XOG1wW89/P4c8NQIr/8+cz0JvTbCa0Mn/einEV7HFF77IfTncJ1gThDvJ4xvTsKr+TAesaG+3/ygFY+K/TnM03IdQyO8NhvOMNpshNeGRobRiPuN8NrQST86aYTXRngdOdFncxNeM/E7lk98qw9BNl9vvqeLi0Z4nS4+f4702QivDY3UoetGeG3opB+dDBVeQ/PXYKDBQIOBBgMNBhoMNBhoMNBgYJlj4D+WOXwNeA0GGgw0GGgw0GCgwUCDgQYDDQZ+wEAjvP6AiuZHg4EGAw0GGgw0GGgw0GCgwcByx0AjvC73GWrgazDQYKDBQIOBBgMNBhoMNBj4AQON8PoDKpofDQYaDDQYaDDQYKDBQIOBBgPLHQON8LrcZ6iBr8FAg4EGAw0GGgw0GGgw0GDgBww0wusPqGh+NBhoMNBgoMFAg4EGAw0GGgwsdww0wutyn6EGvgYDDQYaDDQYaDDQYKDBQIOBHzDQCK8/oKL50WCgwUCDgQYDDQYaDDQYaDCw3DHQCK/LfYYa+BoMNBhoMNBgoMFAg4EGAw0GfsBAI7z+gIrmR4OBBgMNBhoMNBhoMNBgoMHAcsdAI7wu9xlq4Gsw0GCgwUCDgQYDDQYaDDQY+AEDjfD6AyqaHw0GGgw0GGgw0GCgwUCDgQYDyx0DjfC63Geoga/BQIOBBgMNBhoMNBhoMNBg4AcMNMLrD6hofjQYaDDQYKDBQIOBBgMNBhoMLHcMROH167Xt8MnKufDZqvnm0+AgfLqIg6KzIaz9rgyffN3QRrM2fswb0MS3853QLjeET1f++F6DqwYf9hP7Smfh+/D1mnb4tNlfmr21x95alBvCt3PNHtPwzJ/yTHvMurkykEPgh1xS/WuE1x4L6t+dkBrh9acL6d+dJrrH3wivDY1000T1/0Z4beijSg/9fjfCa0Mn/WijEV4b4XRkjb8RXhuG0o+h5OuN8NrQSKaFXt9LKbx+/s18+GrtfFj57Xz4et188H8vmJpryw8vjfC6/OZkuayTRnhthNeRGXkjvDYMZRgDa4TXhkYG0chSCa+EVgLr2x/Nh+dfb4XX303z8uWaZn4Gzc9yudcIrw2d9qPFRnhthNdGeG1oYGQa6MdQ8vVGeG02nUwLvb6XQngluL77yXz4x7/aYdf9i7DNLmXYZd8i3PtoK1piv1jdzFGvuVlO1xrhtaHRfvS4WQivmAxNuXH3LA9Cbiyvy2Me+i3q5XC9EV4bGhlEh7MWXgmuK96bD2dcmITWk84pws33tMKuBxThL3uV4cGnWmHV+maOBs3RcrjXCK8Njfajw2UvvBJcP1k5Hz74fD74/VUjxE7dStaPOPpdb4TXhqH0o418vRFeGxrJtNDre9bC65r5+fDAE63wlz07Yc+Di/Dcq8naeut97bDjnmXY5/AyPPFCK3zzXTNPveZnuVxrhNeGPvvR4rIWXld/Nx8efbYVmc9f9yvD6RcW4bV3WzGGqXH5zIaoWbeHWbgb4XU2uO+3SDfH643w2tDIILqdpfCKf4lzvfqmdvjV1p1w5ClF+OTr+WhpdY8V9pdbdcKl/2yHL9cO53eDxtHcmy2dN8LrbPG7OdPvshVev+b2eb8VTrsguX1oz9v+tQx7HVKGR55pNWEEU47TpAys+jZl5PoelNDQCK8NQxnG9BrhtaGRQTQyS+FVyMBLb7TCsWcUYYfdyxjzChbX8bk7H2yFv+1fhv2PKMJjzyVjyDCFfdBYmns/pnVVHRieWLUpEZMYmhrh9ce4bWhtIz6WrfDK7XPHA62w9c6dcPCxRXjmlVa4/Np2+POuZTj+zCK8+k4rlj5pJnPjZI6LC8LqR1/Ohxtub4fjziiiwvDiG/2ZeiO8To7zcedqc3mvEV5/XjRCuKPQTiKIVGl3lsIroen2+9th+93LcMBRRXj6pVb0JoHdOFhhTz6X9bUMF/+j/YNFtgpf83t0+o34pRw8lPbqW+5tB/sIfFMcxsFpI7yOh7dxcL25vbMshVeLQGmT084vwhY7dMKFf29HQfXVt+fDbgeW4Y87leH+x1thzVwzsZMSHM341bdb4ZTzkoX7r/sV4ffbleGgY4pYWmZ1Dxw3wmtDd8PorhFefz40QuD76Kv58P5naUyEQ8lOkwiysxJewYqnXXRVEf57i044+ZziR0K3+yyDt94rHjbxuadfbsWxuDeMrpv7vXGEFnyeeqkVdjugDH/8Sxn2PLgMwv2OO70d9xIC7Kg4boTX3vj+OdNhXRpZdsJrZi633deOzOXg44rw3GvJCkiDkz261U5lOP+Kdnjn48Hu7Z/zBE9jbCwp73wyH867vB223LEMZ1xUhDc+mA8X/L0dmQ8rbC8LdyO8Ts5Q0HndRTqNuR61DbARAigv47j/GuF1choZdc5m9fw36+fDw0+3wuEnFgE/5gGT7IQfj0vDsxBewYKnPffqfDjsxCImZt14RzuFC1QEU0LWe5/ORw/T7/5cRuPIpO7tWeF+c2kX/t78cD4cclwZ95Jrb22HD75ohYv/UYRfb1uGY08vwrufjB7u1wivPx8+MoiWrUlKpb3Gd53E/GUpvK6dnw8XX90O//nbTnTv0Niy2+HRZ1IC1057lzGbtLG+jk/ciOTJF1rRtbbr/mW488F2+HL1fPj4q/lw9KkpqeHK6xLzr25SjfA6Ps4tUlYruPftMyi+eNCCn9U9ML7/+Xx48MlWjBe866F2ePmt5G6t0sGg/pdaeP1iUXCpC98g2Jt7P6ZvtHrl9e1A0Ntl3zLsd2QRDQtX/6sdrbGZN4+Ct1kKr+h278OKsNehRbjv8d5WVWFprK9b71yGA44uYows2mno58dzX2dO5acwgvCQ5rA+RpD15aIH9YIi/H77Mpx5cTtWDhqFXhrhdfT5qDNny+kZ+83HX8/H0NArrmtH2YPxEp0M2huXnfBqIOIvJWr99k8pJolWh6kYCMFJzOuvti7DZde04/WG4YxH4Gtb8+GO+1thix3KsN8RRXjtnYRjRIN44ka1mNRgA/t8MUlsOQmv5l7MrgQBTHQ500Kk7a/mw/1PtGLGM2vEv+5sxxCZURj6rBkP7ff511ox1vwPO5Rh9wOTFeuEs4rwytv16mMupfAKr6yAyunBY1YKXJ81rn7O7VtL8MkVzOK6yz5FuPnuVgzZIqTscVAZXnmrFdfeqHiYlfAK3pvvbsdaroeeUIRnX+0tvNpLCFinnd+OAizByxgGbZajjvHf5Xm894XXW2G73cqYVP3kixvzUdwT93rI8Snh+u83tMOnK5NXpw5+GuG1Pg+zXu2B2Xq5nPfCPPdkuzfenw9HnlxExeeok4sYaiI5/5pb2jEUpd+aXJbC6wuvz4cjTirCDnuU4YZFt4+JsBn5vvW+VvjbfmXY/6giPPZ8CinIyFgO3+AkUC1nIoJHpnkWlV9uLQkuMW/M371PV7ZiiMavtunEEA0E5Dr8LhfhNQsnNtf7HmtF4dti8FkOdFCFAT28+UESWm38Fqt6k4RDiXIErurzm/K3UAEZ2b/brgwHHqNG5nw49PgUC3397Sn5JdNCPziXSnhFAzwFGN3uB5bRtX36BUW4/vZ2tB4vR1roh7Pldt0c42F/v74dfvOnTnT9wvWK9+fD/kcmYeS2+xPfyGux7hhmKbyyCLOoCnt644Pewis40fntD7Sim3vfw5PybhzDaLvuGP8dnuPxMM47HmyHP/2tjHTx+rs/VnDR0FMvtgLvHp5372OtkD0lw3DUCK/D9wX0yrjk88rb8+GWe1vR42CtLmf+R6aIieJ3tKLgetgJRQw9eevD+XD4SUXcG5WzM75e/GVZCa+ANCCCyF6HFGHvQ4topaoKTp6ROMBqpYYf4UtMluvDFsKs72eNkhVICZa7H2lFU/jnDldYSyDc9DBmHMApVzChlZKgJiL4MvNG9Ip8s67sekAZ7lk8UhGel4PwCn54vv3+VrSysNILJbnsWpbMjZp/Hu+m/sZYHnk2uSnB6Yx1x1RKGtnnsDI8/tzygBmdEk7OvChtRrKxMUFrkiXemhRq0iuRr4rjpRJeCf3WGjfx3/YvItxOUHIU6D2PJs09b7BV+Jrfw3mRtf76e61w9ClpI8Ej1rXmwwdfpCNX4TnGxb+dNs5RcDoL4RXvQg9nXVKE/7dFJ5x9aTvuJ/32hrjZvzUfTjyriJUJLr2mHTdTa2CUsfw7P8vSx4J9zqVJGZc/IRelikPz4nPvo+1onVWmjMGhjmDVCK/DaRF9w+ep57fDTnuntcpAQqGAd3vlcqRRSo26/SqCgJciTAZZ154PL6yYDwcenZLI/3lzCmfsHkct4XXlukXt+hsa0ww/q1vh67WtcP1tqczJUacU4eU3W+GrNanPz78R8N2Kwuo1t6SBeYbrKj6zeoawDRk32AjRBOuL/tEOW+9Shm12LuOkOFubAICxem6mOKzZ/qpvWSud+Z1i2B5/HqG3wpeLOPSNAV18dRF+uXWKPf5sVcJ/HkPR2RDWzZXhM0JvzX6n9Rxcow31f2n8EjPOvKgIW2xfhlPOL8K7n26km2n1OW47aBpdXHFtYt4nnV2Edz+ej9Uyzr+iCL/ZthNOv8DGuRH/4/Y1yXvmde18K9z/WCudQnSYTaYd1yTaUNz9N38qwyVXL7pYV7PC9qZnNLG+1QntckP4fFXvZyaF1fsY4FU3tmPReWENH37RCnc8kE5RYh1U79OY+sE5CQw/53fxWR+eL0IqTxjXMFpeua4VK5RQalk4H3qqFcSQjoJjm6l9pbPwfVi5th1DkibBp77Bi2eden4SXi/5ZzusmWd57UN/q5OF8J5HUoLqXodSKimRfZ7vQ+uTwL25v7v6u1asJEAA2XmfMtz+QDt88rV52IhDc7NqvQS/Vlyr+DV6gms5K4PohvC6fn5p95hIS4u0QUlfGWvVLk8eYi2+9GYrevK23aUMl/2ziEYn9fAJhPJYKBh5X18u9JblCwqNEAEGnBXvCUFKdIOfPPI0YbyMdCWO3TjQVaYXe8y382UghxiX69W///DPt/OdsHp9EdZ8V870s3auDOtbJqCMm+Q5l5Zh5doyrK306zeB6a33i3DMqcnCcsPtZfiuXYZ1ledmDWt3++sssK/KcPFVZayGcNr5ZXj2pSIcc1oZttq5DJdfU4bPV6bxrVk/Wzx2w9b9PxzOl2W4/tYybvrHnV6GL1YVEa8Z12vXJ5w+83IZ9j28jGEa9z2acG+etNnZ8H2Yby+E1d/OnjaqY0AjH31ehvMuK6Mm7/vr1WX4+IsiUGZUTrj+tgR/Hk/1/aX+jTbfeLcMh5+QrMO33Zvo+ruiDC++VoSDjinDznuX4e4Hy7gY0fdSw6g/uFr9bRmuuqEM//PHMhCy16wvfoDpiefSISFK4Tz2TBnmih+vzSrMaKJVbojCySzoHawYF7ziA9vtSoEpIl1/9nURjjgpZT3feEcZvlmX6LYKX/N7MI2hQTwNP5Oode5lZfjqmzTf1p/1dtZFyYCAX3/2dXq+Ll7tJ/aVDRu+D9/OdSKd1X2313Powee9T8pw9KllsJHfek/it673egddWpvvfFjEd3bcI/HEr1Yn2ur5Tr+2/k2v4wFPPp/WGmXmvY8Tv/gJztenufh8ZRGOPS2FS11zUxlWrlnEdZ89kXLTKpZwj1mf4MEHX3mjDHfc1wnvfWy/xFvSHjkLfjYWra1P+/g9D5Vhy78o+1aGDz/Dl4vwzEtpz1br+PFnE19cNnB/l2jh3Y/KcMq5ZVSOr76xCF+s2kgL+A8+Q+agIBPGX3sr3cf3jSXuMcVClEMy/n4ivH61th0+/noumnSZdWfyWbXo+v8mJWRx+1xxPc05mbyrfX4mFmt9jtfshGNOK2J8W3YPVZ9dqt8sQOKn/vy3lPz0wopkFVI+RDKU+MF/3dUKX3/70/EsFYy5H3j68Iv5eNwuq59kBS4c1/MzvllHWDLEE/72T51w1Cnt+B5XhPs0Hkzq469mTBtdNIcmuIr/sGMi/JfeSNqxOfjXXe2wzV/L6HJ49jXa2HxAL9VxLfVv2rsQDLUP1Sl++e35eCwluOBdqIPjKk84s4gWemEmQjOWGk5umWdfnQ9HnFhEjffGOxL+wAOP7rMQ/+IPZTjnshSLFHHbA1Y0QThheRXeMe2x6JfbF20qnUdpee0d1rdEtzR17sndDkinKJmDacPwc27PnFvnwrP+6/eJF2ccus6TdJvcg/2L6PZTOst81MWJ/cS+Qjj5ag1r3WQ8BD3gV9ynalTvsk8ZLfDZNd0PLnTtc/fD7RhqssfBRQyn4iXr905zPeEm04FwkrwG3/0k8bReOMq4fuaV+VgJgsXtrofSPtnreddy2MBS7TFoyNw7xVPNc4obGj/38nZ49pXED7+QON61Jy35/4vy0rufKh+aKoEI2TAnaB4fFKtO8Ise7Lf6z8uSw75yPsp1yu+hG/lLwgQy787wkD38ltSMViQOW9/4TKK9uWhwI4d47pOV81XZNUTL69drlbiYm2ncRCbsl99qBVmihEBZo9HV3uMoVBMkTlDSlsFjpNowKAS4lB/9Qigh5H+27MRqCPqPRLR6PsZyMH9zY0I+IWsp4evuC44kxcWkoT2Sy71fXTWwPv96KybsiI297raNiV1ZeLXxdPcxq//B7uP0FoRvo3KgBTpxXQD4uZelShVnXbwY87MJaCKP34IUI6gECEbC9S4rPm+q4OZ23ePgMux+UBnjwjYVHYOJkB3jzQ8rY6msDItvzMThIHseUoQ9DipiHKxr7uXx5u9Zx7zqkwJ2wlnt8OttOxG/MpsznOAQjynMQV1SzA19ZPia7/64gEMfbl2JeuhWlYHMt9yDSzWgxRpvuQMhpB2UOKyL12nHvIIHXIQhcfrc2BRc9DkMJmtQbK+xcrUKlXAoQ95Mh70/q/vKFtpX8mY9q37GbRe/cMANnia0RCUBa3IQ3syTDxyzCoprdHpmpq1uWLLwulR7DB7yxIt4XDKMMIY46VO8/5/EkT6QDFCDxtg9hln8j9bRxT2PSIQrwn5HlFHgjmtzcX0KoRJKpTKTxKd+vHoW8A1qM67V1fPhxjvbsdLR4ScUMazOeLrfQ2PGpKwd+SN6/Z5rxYT4z1ZtFF69x+BT/Vty4dXmKSlE/NGDT7VjvEn3gPxvQD7KZf16mzKccGbaoDYFUenz1XfSZimeR4yra3mhgldJll/L3L8ywQn2XuOa9TX9go1lah+1EA8pokDiWi+Y4vNr81G9ScB68iXxpPNhYUOyvC4VY4EbcBL+MEobDde2BIEsDLIO2bRsYBjOnQ8lC6H3Zo3bXu1bkMr1WKBOm6GQsVqhDc/7ZpnEXFjnTz6HFerHCQ+92p32NfMMVvBtv1sZFUixVK5nuoi/V82Hcy4rwv/+sRNjjOE1j6UK0yyF1wyTw0sOOS4litx6bzqFz70Mj4QFrkyZ5GiCkFKFsfndGx95vilVeDGlCl+ubi42QgrBcacXkf9KnM0W+jp4nZXweu2tKQmSN068c511j16M5a6HW0HogDHznOEldcYy7WfAA9cUcYLd06+0Is/IPG7a/Y3bHoGThVKVD8q339rK669fuxnfEoxyNRvPZrqrvreUwqs9TR4Fb4OET0ovnEeB9oVWXAcsgDffk5SiYeOsjmPav+EKvOddjheX0YtaxWG8v3Y+PPpsWsOUC4K3OeuF52nDN6g9vINHmqXYXnP+5cmg02+tet69uD73LMNO+5ThgSfxo7kYWsCIpr9NJrxmQnAyB0RjPi+uSEJSP0RwHxPCdtrL4iniRHk2t9XvvWleRwgI/K6H00ZJ43/8+Y3lWdyHeAIMKyHip3FsKiLK8CiFtOsBRdR8ufzgrB9RIx4Clblh7VT8m5k/hA0x7nAphVe45h4+/fyk7VNeFNTPhG8MSQhrRZeP+eDKMoZpznvdtswza6WqAqxULO/ereIaHRMUlJEhKJgPzyw1HRPuKF6/364Tjj1D0tuP4QSTZ4wnuuQPTMc0w203rEshvCq54wjKfY8o4glQ4Mh4BQ/rWa5KIqlr1Sb2eNSlmU39HNwR5pRw435XezGfcphhy89ce0vi1/CsnmfddTYr4fWiqxKPOvPitO676TLD3/2tlN3bH8+Hg44tYngPV6VQhLrvd7c37v/wh9eyINsv8AQx/EedmvBLkBq37Wm/x9J++/1c1p3oAYW/zIcH9WWNErzQFHzbE+G71564VMIrmCgrEn+3+ksZlG2SCW/+fewp9nUW2W126cTwNNeWmj7gFaz6ZVxw6h2DGUs2eDL/y89Fnn4Tnp7KMyrX6N3qc4Pmahb3wGnuJe0x6Nx0VzLoDKId96wNlua/7JXWxR0Pzof2Qhk2hE0svAIOw3Ts69Y7pZg6R/gNIg7vcBmT4Lm2HG9q4S+lhooIEIgMbHGLp5yXThGpEoffFqb4vC227/xoYVSfmwWhdLepP0Sg/ASmwbW64r3BeNYGgvvwy2QhhGvunnc/+D4UC0X4YvXShQ2AQxjDkScV0bJKEWChqBK++eAG5DKhQSv3hC68242PWf+vtNAt9yTagDNVB6qw6t98sB6LPTYnp19YxFCDpaZjQrSjgf/PrzsxYxvNdq+/TK8s3yo7HHFSO2rRxpTvpd+04hTzal1PE89KX/nccEdSXMV0Pb8iWdkyDOCGV/VeuZsw+ede+ynupwnXqG2B0Ryjy/iJWc3TxdWoMHne/PEOXHBlokclp7qP4oZnH4qWcChejnserm/dnrbwmunvxLNT3erLry3i/Gd6GIaHPOab72nH7GaC43Ov9ndnD2tvnPvowVrhqsZjZWA/8XwrKhG8TCycjz433qEQ48Az7B2VAgidQuUcYoHHWnPD3nPfvOAv192ajia3PrOwWJ2zpRRewc4z+ostO5EHy27P/C/Cuz7FVDPeqCZ03e3JMruUfDrjDlyMCHsfmoxJDr7Ja6CKf9ecfqb29e+264RzL0teYderzy3lb/PO6PjXfRPs2VhTnfde8Lhvb+dF2+fwImy1cxFuuGUhfPvdhh9kvk0SNoBwLFwWV/VbWYAQxbABWUA5GYYUj+HQopdicsDm8+aHrQg37cambnK64UZshHECNvewDcG1vDh6TdYsrukPXpXzEozOdcNy2Q1vr74jY/omJaaxdO+0Vyf886akNeV4w17vTfMa3HKFYOQ+gr61341HRM7KKdieQCgmGk2gjTxvdcY8CezahzO0jKYlvPVj8ARHbjfl1dDx84uC1qxhND4np8EfJSCebPfnH59s140DpWPQMqWRAHvi2UV8V30+eGfpfufjuVBs6ETrfPfcdLc36v/a86EwUnRPO78Ib330UxqAO9dZBVmTWV9ZV5YCp8PGxPKEFhQVlwjiVKIXXldOKCWjLgX/6gcjmgXHUaemkCyKro28G2/mwLGO8Pu/W3V+4H392q1en4XwKmGDEPTff+hEocgJgtU+h/02bsrlwcekmPl/3ZlCJfLJgsPen/S+tYMGDjuhjJ4aihecs3D6TaB1NO8zLytX9tP5mLT/Ud439+JbL7wqlRk788LE20ahW21U98RzeuyJSyG8wjFYXlyR8kDE4vI6oIdumsc/7Cs8egwjeOAb7yclhwLa/fwoOK37LFjhWUItL7Xcledf/yn/y+2B2d4ihIrAqDQcOMVU52eW8ptBR5iXMEp4fK+HQacfPODOe8xZl1B8HJ5SRmMV/Ff/lizmNTNMMWyYD/O9QfYbRL5uEjFaGvMOu3O7FuHBp5IAa9FrNz877W+IREg0IDG63MIE6V5Er2+CNvcw4USQtXO3cxvThq1fe+A1+Woh/t9fd6KlLdXaq4en+L7Toj5shQuvVJKmE91bFnQdZaMfXHWvE/IU9xe+QOuUNIIG4LHaBjjNg+x5DF+m/6VXJ0bjOc/bAFStGIXhVvsY9hsMXO+0XUKWb7Taqz8Lz+EABDGWQtZijH0ptPosvDo4gfLIDXXNzb2Zdx4zZUVCj6OaWYVYPwmTJ5/bjqXVxFKff1knPP1ip7ZylNse9g1/PiefU4T/x8kXvQAAIABJREFU+WMn9ttrzZljyg6Ph8oUYLTRuN5NL8P6nOb9PP/CcCSmqkDBhabm8gFHF+Gmu1Pii03H/C/1IQvgY2nd98gkxKmb24sXo29CrXl3xPTJ56bkSdeH4WuawmueT2ELNkNl04RFmfthcFTv53lhDdwoFCRBsfrcrH6bb+ECFELrR/F/dA2fPurWOoyFt4yCWAfPs4IVrt78gDEm0fAli96tjMO6/RpzNEbIUdgn5Sjk8WpjqYRXcBOowHDwsUVUJsHRi08wgBDcKXW77JsSxuUsqHpjvmYtxIILvPYIISVnXJgEwH70YAzg4p7//fYpmdEpVq7VnadpPZfxKYFZMq39g9HyyxFhMQdguvy6hAMCvDqx1b8lEV5/YD4rWrGsFOZz98P13SMmwWSywu1/ZBk3f+57DExgMCFl1EVVZ7LyIlMqxLnO3NQSt/ppNMbpHRn7iEhcjbCHCFuX8FWn/3Ge0b+EJwxQ+SvWKAJcJqq6bdpUxbw+93In7H5QKjND4DGWWW62BG2Zh7/cKi1CoQz9BDxjdY/A4tQd7k2M6ehTizh+FkMMyEaN4Xi+7vjrPIcuX3yDZSoVzWeBjQu1h8sG/gkCDz+dcMkNq/LGqBtwHbi6n8l0+cTz6VQTGrri1uAfRBfwxb0sfonAJezh6pvbMcmEe5Mi+utty8Ciop1prUHtwCNh9Bd/SNb/Xla23KfkG8zNGr3m5k2bbAEmNHnT3UkBk0wWY/vXOvGuFV315t7hG1fd0A6vvJVoEh3Y6H3PglYzTeQ1wDUnvk9s88NP9aZDY/G8ODTVJ4zload7K5O5/fw9TeE185ucnLLb/inBjJKe+6vzncfDzSrB8rd/LqPFE97rvD/JMyzx9ioVUpT6k4hD0c0CBpqxV5xybjqIRXhdpu9J+h33XfBIJmPpjnGLd49X0SOvB6ESjsqmvDnr3hp3bymEVzRsTTkwRiIq7yi86L8ffsyLd8T5Oo6V8ik+mQzA++vetPhdNwzghX/713/9rhMuuaYdk8oGwWstUDYYrViMGVII4GSj7vZn+T+cvPbufDRy4MdyVvrticPg+GrtXFi1tgg33b4heiyFElT/lkx4Bajzj1kvaT8PPN6bYfYbUJ5Qrk8bJ2uAOm277FPERCPJG5kR9Gtj1Ov69Lno70n6lyTAWuZav7YQkdgewiMLFzgJAIix3zvTuo64fWThEpwpCbLLLbRBhN/dfz4etrOwISyEMjz23Hy0eMscFN+JQPsJ8N1tjfI/vJpHWaAsqRi5BThsXsFDMLRIzA8L49MvtSKzspD3O7IMDz+TLHLTZDjmVJA/hkwgvGPIOfC0ybc+2hirSxjkUjE/o+Bp1GfNPdw6AnbPQ4uwzxFF9BDAxTC68B74CFWs4jZ6/68v58NDT/KGdGIypYxpbQ1rbxjsuQ0C30FHFzFb9Y770+l2/d615q7+VytmxVNcnGQ2aI32a2fS62CHJ4oB16RkM0IiOok0ui55RWwyf7+xHYV/tENIFwfN0kLZ4uWIbS2Wh5sUrur74MCPWGm4GJ0xTjnpRYNggEcWDxZ7a5Ii71n3qu12/56m8IrXEPQizPul+GYJsuPwVOPBTyiawo2ERAjtmCZf6MaF/60bHjzJx/bAGAfYtV54O4xL7LyNXygBwZ3g26vNWV4zx4xFex+WrMRg198460pbBHdCo9AIhgZ83fzNWnhFpz74rnX2+z+X0VNjPobRsPGiFc+iQaeLWTM77JnKT6LJcfAxaN4yvO98kgRmoYrX3VavMgbe8/TLYk0T3+QlZvGcNW1Xx0NYxvOUOOVx4tUZl24kBZcbyvDNmu9jrhGDYPVvSYTXzHycbUvTZx0jXPRimFVE9PptImxWNtLX31MHMp24pLi6M+/rEGSvdntd0xfiVVxeIe8rr0sxdb2erV5DRGJQCK/cU+LdWD+HCWHVNsb5nQmfoMZKomaa+BdMYhS8ZOFViQqnmq1aPxfdXZi9MjM08tzXOHD2eydaJz5I1gmC98VXpaL+dfAGHowkbk5rkhCBToQg7LBHKsovpGOaGcbav+vBVjw9izszCx39cO26Mcoi3feIMgoDLJpgniWDye1zlxKqCCIvvzUZ4/1izVz49MsiXHXthvBHcakXpLkaR6Co0kPGXdw4D1VvtgwPPpHr/vXexCkFT76QXMpqQttktGnc1bZn/ZugwevBvS4G+pKri2gx6YaDooVH4IuygylAdz7Uikq4mpqqhEgoIgSPa7XoN1ZrCYwXX5US3SjkK97vX0XAfIBV7KNEF/NsPHme+vUzVeF1UeBWrov1i0WKFbsOX+iGD9w+vDWEGdZACoMxDhtTd1t1/9cuIYJSrianOfZurzVPUBIWR3i1V+bKNt00VLfvcZ/D25ReEuKEFiXRZtyN0yb82jeMSZsqiWins2FD+HaujIdYjNPusHcyrerPKU72L8lEo/Ip7djD1b09cDFmmgKE90yTbjKOyUc8iY7k5aXObvRB40VP+IX8j+12Twe4SAg0l71obVBb496LdHN/KklHCaOM5TGN2masaDNHYN0QZajt99gUwusi8+FONxk2T66+UQmoe/AW+mvvzEc3MQsb4RKipjFR2kGw79KATnQSRyfccHs9DQhTZd1w4hYrs1g3GojNjdBt8+oeyzT+zwv1jgdbUevBdDC/UZl8VXh1wtbn36TTcVhdUgZ6skBPOn/dY9aeU7O4gGm4Kg1Mot1Sjmj46ELc5olnpTgzC6y773H+x5BvvJ2VuBMOOzEJAcMWqjlCnwRddCGrVfgLWh51nurCnPuEB7HEhKteCVB12/McxsIq//qb30fc2pQwqkyDo7RVfdb7GHDVymbTG0Rr0a38zXwMkREzmKyvs8NnFd78O/MdypJDHmySrFXm2r38XPXbdcoMOkVLLG9+ExQOODKd/kNgI+TCS/XdcX/DozAaPBjPJLjhVf14JhjBxONC6Djk+HqCzDSFV+vCOhb7B2blsnhY+sE8DDfGBN9Cqlji0Iv402nhuLt/7Yp3t+4YAK64tn8ybx4TN7u1us/hZXj17eT+7UdH3f1N43/8SMx2OnkxVVGZBD95XLfe145GHRn9L7+5WI5xxsIrfAjRobhTfGLo3xjWbPiHl9vvb8X8Gydr8iajz2nNDRzjfxRwxqccnzuI/1XnG57BQuClyJO3yAMsotPa96r9df8m35ATVGayrvCWcenGHuMY2e/DhhhSQ/mr/i2J5dXk0vbF+RAizruClXQ6mwsm5HQYmfUk/bc/ThtGN1JH/R8B+GQ3jjqedz9Uv1QMIjJuQjpN28IhBHPjs7bYEPKCHhW2fs9nIkE8NprjzyhiTN2o/XQLr4hIcpysaaEarMn9qgD0g63OdYtL/B0NWUIDDdl7UTgZ81Q1eJboYSHbOMDt2qTMxvtw4tS1/++36dQ1853nYNB4M20QdIxT4fRc1QEOJoWtu28wYX7KqYghZUXz/yT9oIl2pwwrV2+IMa/o++xLf3ygRDccdf6HGwqLBBHWdwkjMbFlyGaDDyhALjaNx4PQp526TL8ObIOegWN0deHfFfVPFkrx2qPSrjlh4WFZNJY/7tSJB1zouw5tDYLRPTDivVx6eKZQEhtyv/fAQ8DmjhSKRBmXpe/6IHimKbyaQ/sH/smNqvbsKAcmdI9NAiM6k4DD+opeCPH6GTSm7nbq/o8vMCIwJggvuu3+Rfz1UWrMkaoISplxsztljtsbjdftc9Ln5B5IlvnP33aid3MauDEuiWiEeEqIslVr122IfAQ/mRTmXu/n+VQ1QNiL0xnhNl/v9c6ga5lnCiV0eJK9fRIDS3dfFFXCK8XKHn7S2e0Y1oKGup/t9z/ahmuyiwo4cK0d9M6CO+7Y+/WXr0desS55aSTl89JMQjdZeC0Xj4elwFb/lkx4RTCnnpeI1oaPGUFyHvi43yZJ0szRp6SAaoIbYpq0bROMiBxOoLA8E75YjlECoE2m57XFmnLlDQ46SHBe9a9Uv9Tk5gUxLg7ye5koxVLG2KIRC3nndnoJrxaPTe+CK5MgfuZFKREK/Pm9Sb8xZ1ZIsbXc8AR/uJkEP+BDexIguFLEXb3x3nghK9XxgUn8tQQMZZrOv7KINJfnoPpsr9/eJ6i+9WErnmSFsRIOWBldn5R+q32CyUeIzf/bohM3JRryJHjFWL5rdUK5sCGuEfS2z6FljDeeZJM1btr66eenYuJixh2/i6lXx9TrNyGMkMDlKrbQb+3VnZNebda5Bo8+XNEETrWehWiAZ1wcmx/wi5uleFF0tDXJWPL7T744H4XQHXYvYp1RgsqgcXoPT0Xjv9mmE89ah9dBNDpt4dUaZq37360cVdvqWR1h0Bh63UOn9gvKBm8PL9sk+O3VB9zZo3jeCP4EWIqA6z693nHNO+JE1bsW2nDF9SkUZpK11a+v7utwIBZfHLZsd4qka5PixnjRzEtvzseERZblZ1/4PsyXZfh0RsfT60+/rIAEqqv/lZKfusc8yv/487OvzMeY9b/snTyE3p8UP9oAr7V21kVJ2GZoILSN2rYxx715ZYrBJ3dkJe2zldMxHHbjDIw8epQT+4GKA8YzKuy53Sy85hO2KKzVvyURXiGRxnXIcWUsufKvu6dnao+TtDbFeVjkqhEQsiYVqiCc8KoMz057p8D+UU6YyRPgG4yEWBsSl92ZF6XkB8kC3Ud0Vt8b9TdC8Q4hRcwdNzGhU/+jtNVLeM1jIMBbBHBCuLSQR2l70LMyym36yiMRAga5Mwe1U70HbnP5wuupdiwtlDuXi7b63Ki/tSkxLJeSEv80zkJFp+YoZXSneDA0N4m7pToW4/d55a1kOfvTX1PS3aTzhrF8O6/O60J45tVW9KgQGm3MxqTPKhx1f3vX2HlRCCrCB2zYdWpxwr+EP+FJrOzaEKMW3x8TnjpwZ+Z8kzChfcu4qYlzH8Va0t1Pplt1pX+zbQq16j6so/udYf+DE25Z/nbeO7kkrYs6tIB3JQ9XJ7oy5Rdor988T0t4zXig1Il/5qUQuz7IWjwMD/k+ARG9Hnp8iomXIOVens/83CTf4Ed/+MPv/9yJibxCHvrhLfflPnoWmy7jX1y5+GTl6/Cuacda5n59G7+M8czbCHyuTQMveY8S628uDz12Ibz4ejGV+ayOwe9MOwQqSgMjwy33tuM+3P3sKP9rlzeCdVQMM8GYwDnJes/9a0NbKrk4HELo3DDlMr/b65vSb6041OfY05IidPYl7fDup9NV1DK9qkfLm8FqbC+Pe+KYvLdbeCWXVP+WRHjFHAmvis7/apsUrN2rrmAv5Ne5ZnJinNhRRaAJCViedPOHdG0oObGtYsVXmPDJF3AOvJZZrMwQAVY/kwrb8JQZA2YnwQzxjIPnXsKr9s2j5A7EyaWr/WgVm4IFPTKEdfOxtIZyJtwxmGUeUx066PcM3Nr4xbxGK8Z1yeo9LjPOC/Wx51vhwKOKsPuBRbQGac+9fnD0u+49IQiUI0yL4EVoQReTMkTw+EhokgGai1jbuPvBU+d6VXhV7okAIJmm14loddrLzxgvi5OyKOKr7364HXGT7w/7Ntfc9Uq00P5l0xPcueKHvTvu/cyg1aWlNOrbpjEOLVRhwNdkpStpJYOYV4JCPS7dwi0edvHV7VgknxItFrMO70EvFNd9D0+1tu95dDAs0xJe81iFEIkR3+vgdCrVNCyQ5se4KDv2JfG8LLzT4Dl5HvUB7w6twZNl2uOjeVz5uV7f+V1eSutKrXExjPYkFSLAOSl/6O439rkm1Wbl/bJns3SD173u58f5H9wOv2Chc6CPU/9YF6eJd3BleOUX7H14CnkRJjMN2qHMyeYnpCl752AJ/eU+x8GLd+FZ9QsJ13/cMeFeX+O0V30HzeGL5BjKMMUEXU2LfsBu/oTliQWGE96iSehmkwuveUJouOKsdtyziJn409Cc8+SYAEV5ubRtoOJaWDjrMOXcRve3Ngk8aniKs8ra5yTEmftgYWSZgQ/MiNXN6TF1GFpuo/sbXD40dUxn2792wu0PjGeh6Ce8Ik44ufmeVPKFNjst66uxmzNJGQr+c1Vl2uke66j/R2bJIndrct1NmjAILvQhpGS3A4qIbxv7JAtVmwQszFUIgY3aXOrHvVHHnJ/PNOWM8l0PXEwAeGFwAlR+d9B3Fl6dO82yIX7N2lPzlfA5ztrLsMKlUB3u8keeHn2z0Tchj9uKaxKdOl1nEgvGIFyAW/krll6JnepCjqM0dvcR8RGPyU2l+ig2k/A1gprQBmX8HPjCZV43fIulSX3O0y9sx7AelRQoV/0EjmkJr/ol2IhJ5e0Bu9jmceirG7/+J8jYm3JmN8PHJ5JMpqSQm0MKP7gpUyywYB9lTcMx3gDfKgCAVe4IQfiND6bnxYSPzNvufqQdBVd9qa9rHKPA3AvX+Zp2tGfvsGasUcnNk3rDcvv5Wx+smJLEJJQeeHSq/DOp4q59cygunZFFPoywDnSKXnP/o36DF98iABL+eBoefWZ0/tevX0IwmPFDoXnX35ZCLCeBOfeV6ea2+9LBDniVigmT0M0mF17zhNBSEJAEFRl609B+MuIygmzQrKQWxBvvTZZdpyIAYqRF/GLLMmj72xongmWYBn1nYUo2J3eQWEebEu1o0HuD7mXGQsuktYmvGlfL7Ce86t/Cl62pfVZMC20aigicsJ6z6tqkVHbITG7QuOvcy7ihMOxzWBFdpk4/G5cGtYd5SRxhJWU9f+2dyRaqcbDKExBOOXdRQFg8heurCeKKrQ1tozWJdgT3XDS/Du76PZOFVzGvNlWbvvZlx6ozPA4t53XBtacwOgYoSXCczQZDFmrAtWdzVE+VtWoatFrFSeZvXNmqDNhwrIlxxl9tN/8mcCuKbjPbca8yDLN45vd6fYNJGIVKCISfex9ddAfXUI7g0jzceGcrWm4OPa6Ilpx+QuTUhNfFI10dd005iqW93pssJKOKm7x3OPERPxPaxq0/Ds1V2/U78y91yRkUdjuwiFng6DzzpO53Bv3vPQIIQ0c89cxBOCcmz8K4bXb3l3kbwcbpcPixUw4znrqfH/d/7aGdm+8uw/a7d8LBx6X1OamyXoUHThhb8AAx8MLpxi2xVm3X7zy3DiNRf1T5LN7lSegGvHip8BX765GnpMoek7RZhTvP7f2PpyQu1QyELY6Sx1Ntr/o7ty3xWGgeZU196EnoZpMLr5mAZKiaELGM4qymNSEZgTYlm5OsZ7F38XzoMV2jGeGy9WS+Y5qE72lufNqyyUtC4HpgfTUWfecxjfINz7RMGz8lgRt33Fq6w4RXgvZRJydLAqGIC0j/o8BbfRbhY1pq41IW9jg44cN1n+qz4/7OdEhRUMbD2dZc9eO0Byb0e9FVyU18hnO/V04Oq3YxdJZHdMwqT3CZRBAybtr8BVckN/o5l7Ujkx2XzjK+svDaLjdEmF9YMR/XCcZFgRrHyglWCqNKAQRhbvhX3h7fyqY9dEXJUJJM2ITYyWnynkxXPDM2SExb+Ec/oS7jr+43+N9e9CrhE2denCq1jNM+OsLTxKwL+8GHR7F2EZwI5uCQNU8ZRLO9aGlawqtxsuyrnELgZi1GI/BeF4fDnst7B6Ee3SkzNEl4Ru4v40Ys9E57F+HQxYRMsLuXnxv1G/2CD81JqGIddTDONOgaXNohHDve85Tz0qEfk8Dbb3zaXLd+IVx4xUIM21CNyLVp9WXtoJWzLkyhWPlI7mnRDrqxxwrpwavxbbCPWmEk4we8PCGqTOD/0bI+oAZzfm+UbzxAvDoPivVkP5hGjpBxoxvVVn61mNQ56Z64yYVXEyKOSI0ujMHZ7hbaOMx30CRlq4Jj/wSCq5MneWMc9w9mjDnc/0Qr1lrb+9CUuTyJENENuwX0/ucp29VmIDxBMP64DEh7tDbCpIUkiNzmNA6eBwmv+rHAnMNNqOfmFwxunrvHWPd/hA9OZ09zwRC8KSKu+9RtZ9Bz4NaWeDEWlnMuHXxe9KC2MCfjPfWCIvzn7zqx7iRGNg1YzT/lwPHHlLDLry1inOK4+GWBRMsnndOOpZGsQ1a0SWGtCq9gzm5zVk6uIzjqJdQMwisaYL1wxCHGKnZU1rO5G/TeoHtgYFlQ4USsFyu5PkaFrV8f5sV6UIaM4G7Tn2bcpHlS4P6+RWuJY1rVth7Va5B5mvqRNkauQ1bYUfiNZ1lqCOi8I4PCDqYlvOpTqMNBR5cRvyz8cDKt+TOv6IuQg3eiOwYW5dkm5fdgRB9CoPAcpYPQ8zRgp3QQOo49LdVNFSOP7sblE5m+4VaIgqos/+fXnXDu5SlhaFJ+kdvv/o5HkL+0EKvwCBW6b7GqxjT6w0+sTQYL1lFeA/iZRtvGoX10Yi+xF4onnSSsJ/O/405PvGRYDeZuXNb935qyv4KZIiuuflR+0t0Xfq9de6LSkeKYGTAmwXUt4fXbdjus+m4uauEAmGSz6B6UCXE+sLIb4qwuvbodnC096SL7ST9r06YPaSZFCSOEpf/uZ4f9n5mZrG+CIGJiJR2nrX59mVTtPfViElL+smcRnp/ArQmfXCTnXppKYigNBe/j4HmQ8IrxsvAK4mfh3eewMiYDTcLo4QLdcTkIUrc5qmvo+iTEX8V93jDE62aXNAvhqPjJMNlQKQji2MTSgn8asKI984jR7rxXGQ47frK44jw+7vz/2qITuEenEY9ZFV71YU2ffUkqo6ZUm401912dh0G/I6/4KGWrEgQl0kwaC64/cBCuJexJAnO6lGuZJgbBNOwemN//dD7sd2QREzBl8k87OYygIs6T4Eq4euCJ5O4fhd6Ml9AuDpiyzKKm3vQoPC3Tpk1VuIx12m+znpbwalOl1FNqzZ2NdlyPyaC5NGdcyvIQ0J6QK/QxCo672/c+vCuMT8m91Bn1E27ouQ/CAthi0tDuLOHJxaz9/Myo39rzeeejpKCw6lJQZlnZQNjR2u864bwrU8kyxi14m4YMgraFgOxxMGtgCrmZBu/LeI38w4lW9ycFwnHWqjSMuxfaQ6xRCZoOW7n7kcmFygxr9Vs/+LMQMut4Um9Gphv8xJ4oFJK3a1K6GSq8vrpiQ7TunHZBO1xzSysGr9NCTbzaa5iQ73E/X6+bCyveS25mjNeG9NGXc+GL1eO32QsWp0B9/NVcPE2ChTfVCSUUjd7Pl2vmwrufzsXaoKwUklDEIrreq+9xrsHryvVzkdhlVm+zczoJIxJZPNFqtL7A9v7nc+GUc5JAxcL2wRdz4fMx8Pzx4nyrr7ZmfRk++uq7jeNelebOIhW/vMV2KSN8zfz4tPLZqrnwzXdzMenn//62ExWdr2PIx/htds+JPj5dNReU8iDIUaRYeleuS9e7n+/3v3Z8CL6sV5Qb8dBfrR2tnX7tg9FcPvfafGz7T39Lp6StnhsPF599MxezV7kWCdoSPuB60nWNJtbNdYKwAWsPrRG4lYo69PhyMVa1Pg3H9fDtXFxnErUU0LcxfzNXv41eONWujzE7dtMhG5QuYTos0un0uPH6yLTw9Cvz4W/7J8EylXGaHL95LGD/as1cVMQd2EDwlBwnKe5LNFeTN+PDTmo6+ZzkAbvyhlbkcfGY35pt6AsehfdIKjTXKazjp3B89PV34as17dBZ+D58tVpoUYWH1OwPfs2P/vB07lnJVY6rhpe6Yx/2nLbggVX0yuuToBxPYnrbPjhmP4t84vX3U6krHokb7mhH2IfBU+c+mMHGQCE20tqm/LM0jru3ZnoWE69izQ67pVJ1X61LPK8OXKM+U5QbQvk9QS2FHcnXMMf4IHhGbS8/j+/5rVay2E5VVtARI11+ZtJvc4AWwRtDcXYro0VzHJkj0vrquVg/dpf9yrD9bkUQKz0u3x80NjIBfn3dba24xxx1ShnzIL4eQ1bST6Ybnl5eUzKTUmjoc5I5tMc44ZMcoh9ySfXvP864YCFcdGUnXHNTJ5x4Vidss0snSuRvvNcO6+aKsPrbInwzwefb+SK8/aEyH0XY5q82pDKsWleENesna7cXTOvmi/DW+0WMPSP9P/1SEeaK0fsx7o+/KMJJZ5UR5utuLcOX3xRhzXejt9ULznxNP598WYQLrkhxteJFPvisHdbOjd6Ptj5bWcQ6t07+uPfhIqxvjTd/qxbn28Yz11oIq9a1f0QD+lq5pgjHn5E0xOtuSfM5Lq2sXl+EL1YV0fX662074fJry4BuXM+4msa39tDeKeeWsWD1FdcV4btitH604XP/Yyk2VwbrMy8VY81ZvzEZ+6dfFjF5hLvx9vtT+6PiN+PvuVeKaCH/275leOzZIqxvT45XNDFfLIRy4fuID3iFB6V1dt2vDE+/OHo/6P7F11OyAu/J86+m+emHp1GuwwW6ve1eJ2BJLCvDp1+3A54xSjvVZ/GDr1YXqQD9vk7QK8NrbxXh29b4bVbbz7/1Y7098HiKydzn0CK8+lZa3/mZYd94watvFvHYWQrXg08UYeXa0Xka2nnjvSIcckwZBcp7Hi7C12t+uobQh6MdFzZ8H9Z9h+f/mIcMg9d9c2bceBnh9eBjyrDinenjN/e19jtJJqmcHOvrMy+Pt3/k9qxX6413ak+Z40+XU6WNSBdr9VFGb5LKJ9b6uOsbvn0eedrxxmUsi/bEc4u8Z8q8OM+/PaboLIQPPy/CBVeWMblS7CvaNB/5uVG/jQNd3v1QEXFz2PFleOXN6dOOdfX2B0U45FiJZ2W468EEu/5HgZk8ZMz2FUrhgUcleMedy0F9g01/b76f+DVFFJ3OlaPBnPvQns9DTxUxR2i/I8rw5PPj7Vm5Td94xlx7ISrA8f9vi6rsGmKdV4XGQ+iEdd91oiDFxH76+Z2wet1CaJULcZOaby+EcT7lwkL48NOFGL/HDbHiHafyjNfWsP7b5UL4ctVCOOrkMmqid97fCd/OLY5hBPgtpi9XdsK+h5UxVubxZzpxgQ3rf+SS3pHcAAAgAElEQVT7xUJYP7cQHnw8MR8L7O33F0IxBn7M08rVC5Hp/GqbIoB5Ujxv+P774Gg2BFQdWwvc8wvhmn91wvZ7lOHsizrhky8WAvxXn6v1u1gI2vvws4UoDNNgb7uHRW8yuuvZd7EQ5xHcyp+dcUEnfP1N6r/n813j9gxYCW233NWJrswTzyrD+x930vUez9dtt/qcPqy9S65KDPGiv3fC51+Pjl80YZ4eeGwhWh8OO6EMK95exO2EsKIJguuGDd9H+mjHNbMQT9n67Z/L8MSzndDZUJ8ejPm7+YXw6FMLMbFTjKO1oN0qbib5bT28vKITk412P6ATnn9lISpncU7HwAcaXbVmIVz+z04MVbrwyjJ8/lUn8cwx2hs0Njzp0y86sYQYheaZF0fjzebilRULMYNc4uw7H45JB4u0ef2tncjTTzyzE774eiGUXXONPljlv/8+hHaxYaw5jPhdmwwrhNezLy7DZ1+OCXeN+UBr5vPoU8qYCHXbPQvh2+9G3z/MY6apO+7rRGHkuNPR8/RpA47WfrsQDj9BDfUi6O+71sb+B9FU970Ic7EQ7n+kE0v1UcZWvDVd3tbdJ/5hjyk3dMLjz3bCH3YkOHfCR58mPpvx2P3esP/xPjz02ps70Zh11kVl+Piz0XlonX6++qYTLrkq7QeXXd0JX64cvZ8M7w23dWI1nNPOB+8MaR3drF8Ip5yTqgbp1//j4DvTzX0Pd6JXCy2+hm7GkQcq6zTtMRsCOSTPQ1V6jcLrV2tagZuHuVu9VMe4EjTPuqQdPlx08TORj/ph+ueOeeTZVnTTcvvIds1un1HbG/Z8dvc7Uk3Slszc199L7v5h71bvcwE7wg6T5+7hbsjm++pzk/5mCgezosTqesK5JLFR+2KaB8sjz8zHjVlbavNxkYwDI/O896phA9V2uGTEo8jKFYe392G0ruRiqz5X53d0D33DpTsf9j2iCLsflMrJRHfm4rjqtFPnmUiPq+fiCUNcxwcdW4QnXlh0HdfsK7qjVs3F7P2t/pJK97zzyVyIOBljjfSCO4fA3PlQK86nLHlwcuv0er7fteweunqxRqZkJbUV0Xe/d+per4YNfPx1ouP3PpuLMbrita6/vfWDW7tOm1ydQnX+fn0r7LRn5UzvdZPDmvu31oT/qAPNSiIZ5Z1PE4/Kz4zyzS224r25mBBC6eIWFhIF76O0U+dZIQLvfjIXk36EX0kME2cMb8Pex2fMubrPW+xQBpaRtz5Kbudh7/a6jw4dTCHBhrta/DuazXzIO73CBnq1NehaDpewD7HEC5d468O5SFeD3hv3HlwKvZL8RFg+6ewivPRWCs8YtU00YF0IObOHxKzuj1MYxKhtDXoen7RHowc0LfzPnuf6oPd63cu8TaKkkpOnnFuEN96fPszVvoUNsMx/ufa7yJu4sCUDCmH84PMUolZ9vu5v9P7mh3NxDBJfL/1nygHBA+q2Uec58/zhF3MhVpTYKyUbP79i9L0QvHJ0Tj0/hQYleMfnTcNgj3B/ORer7gipSEeTi9EeHT+ZbuQz8ViIp1/xQdpXh8Ex6H41bMBzPwkbIMl+vVZiBOYzHxTQFyfi+ECJLQRP12Nw8qrRgsG9I7lHhith8uBjUp21cQOaYzzoABhyQoGklFgn7eTR66SBWSycgH3uNS46tSannYSRxxITPj6bD0efkhQGwdNwNgq+M56daCFe0Ck4YjLHzSAclLAFbgHa+pRIoRYnoVsptHGSBXJbEl3EDYojfWLxTHr3Mp6m8a09NAI34KZMyV52rW5fnvVRuucXf+jEsk7TpueME5sQxQB+Rz1pCr4ki4iBk0ilZqMSLBJsXJ8Un9WELesFTsTKO7UJA7voqsWs+5ql39RVVhLJZk9QuZCgMoVjnqvjhFfr7Z5HUvY34YswO+784QliPm22BBSlcsZdc1U4e/2GX9VEbr5bEfAU9qDsVx3YvSsTXbKW44EJZRJD4KJXX8OuqWAhqfDa29rRKCHOTRWCatkt+4l9hVv46zXtGLM2rN3u+8YGv7GCzBROb+tuv/v/zHPzIRn2v3HrWFtj1oXYUcddS/6dNIGlG17/g1k/eD/Ff5/DEx3qq9fzg65pyxpxfKiY8/OvSMee1uWNg9rud4/w+u1cGRU+yVVyNShnBOd+yYD92qpeV2HE2pbwSrG8+R40ONq+Wm2v32+4MddKGiqVJwGK/DTqqViSqOyn4HWAgHVODnBSX7++J7kObh+VnxhHhA44wW+cZMhMN+dc0o5Jleddobxa/T213ziGJmx1C68mQqb3eZenIsWy9m2A4zC6zDQJZIRXWfvTqkfXa8ARiatSncwfTuh5drQNBcyOPL32lkSMijTL9B2HGfSCsfua/hzblrV9x7bZCEbBtzkzR/9QjHnvMma3TlIfc5jwagzg1i8hzrGHV16XMmm7xzfsf3OmLeO38GWER8vBjBat/iQ5OJpwyx2UohrtxBvvK3FGU/31Np1obRuVUQ3Diftwi3kdc1o6Rhh+In2PINBrw4ZwwpkpIVCxbkwFvuvAMOiZbuEVbIQrfbBaSXiRvU0oHdROvmd9OejhCIkiu1OGFkvdTZkOCJfqsEoMISSPW9Mzb+gOu5BEJaPZIRuzEl71Z95SomRy9YG9Du3hJcpinXpuGnNM5vx8MjrQJsuvOFRhDIQDc40OzOk0hNc4VytaYe9DEtz3PNqObec+Mu1M8zvzUkXzhc8puTjOnILRXqduNcGAdbrOXI0zFn3haRT/eMLbPa1ohBq1LfTlI2NcuSP7ydp2vfU7al/5+Sy88g5QViRpwpfYeYnedZSz3Fb125zBPwMU+qSQjGNcqbbZ73fO3nc4EkODE73gcRQ6Ba99H0+i/KuqMSuZI48DjPgKucyR7H+/Pq3hzNvyc8O+M90ceXIR/vP3nZg4yAg67L1h90cWXjUIkc6SZk1gyZOlaoKGddZ9H4MThqC2ZnT7LJZvqruhdbdX53/MRxkICWKx3MTDox3V6H0aHxeV8ixgV2ZnFGGyDpz5GQROI7RoueCd0BOzIkc4bSsLKVxH8Mz6NUnt1TrCK7h9lEWyYJ18M04NQ20gflqbOpwsb4SgURdQxuewb+2ib6ElytdwccAfOOq8632hL0ojZeFHe8PeHfU+eAivNhDCEWGQQgJXdduyZt/9eD6eBw+3Sq+Mc3hAr/56Ca/oWOUFBextpIrY1+UbrJiYt0LxLA9Of4LradNBXt8XX53wqqasEi+jnjKT1xylAh3I4qd01R1vL5wOu6ZPB4Lkkl/cu9bKMNoFk4zog45J/FzFiVG9O92w5T7vfUyFiSLGVBMQMn1NQ3gl7LEu24e4fikds1hr1bFZX3CD/3OdCz2zh42y7tBs5OlPtqJS46CbGMY1Ak+vwjTsN9jMh8Lz1rnDU/Q/ytrxrDacinTI8UUQEnXz3T+2pg+DY5z7WXjFT1ju1R+1D1pT9z8+ntc3jmVNMmJpJ4crVj0D48Da753MC86+NPEuCWdvfli/DCN4tfHwM61odSZzofVZwZvHkWn68mtSqS8hCyveH602fqYbPJQ3c4vtO9HwMA1FYSzhNbtruLJN/jU3iz8ZbQFDEKb5+rupQLp2rrohFR2fxlm6eQK6vx2lyX2phpmknKtvHq1eKJgt4GNOTSdfcY2xxOaJ7u5vGv9jGo7gy1o68/0oWrqNV+kcGhSXy6R122oLr9/Mx9JnhHxa1/OvjY4nY7dw1Yyk7TsjmuvCopgGbrvb0C5ByfGHNHwFyc2368P6BKtNwRGdXHT7HjG+i64bru7/9eWacAFeBK4dwsEowhG8KmivdiUF44Enx3MLdcPm/27hNePu6VcSHQs7uneEOoWEHhuXk7BY4CPznqBmZS+YXQMnvMAlgWhH9ZWdNDViX+aBFfSEs5LwSoilvGm7X9+TXkcTBKsb70yhA065464cplgbG+WY94sgRfmCh0xj48KFJ2pHOArrljWcPWssaZOEDWjXuMDNEkWpxyPHtcTVHWPGCeVJn/sdXkTBc5R1By88HEpX8YTBy7TrhFfHA2YHjyhDqb8jTk65JaPQInz7UHIo5tZvrDM6I4E7w18VXs03a+tp56c15SCcGN4y4pqCD0rdrY6s3rMMhxy76D2d0VjMt/64+oWa8MpZl3VpBrwOVLrxrhSGw/vEUzJry2um9bti7koqL0rJGoduKJnoRuiEMoTTUDLHEl4NCpNUfJcwpEYkxjFq3CdGo2acmqtciYSySTX+TPT9viEe46D9iHWRlMESW1f4BDN3J7eize3uR5bGVWU84qN+sWUnFvgdReuySGhMNB8bPxee9jJx9sNVv+t1hNfM7AhEyqqwmLHWw797/dquXvccGFe834oLnoVF7Ow0CL/aT/dvTPL+x2xOqYzNQ0/W0/DzurBJcEdRcF4Y8xSzbpi6/8/4JWgccPTG9VN38wYrQTvVNlWqJ1lCp4XbbuEV/PrktUCHv9uuE26+q11LCcuncd37SLIAiDOXxFh3rN24G/a/dsXD2dTyeoEr8A97N9+3Pgm98EoxR/t5zvIz0/7O7Uu6o8yAXRJWtnb2609hdhbx/91KslYRDRGjbFD92s3r98MvWtEzoMwd70/C42TCaxYInPNuD2JIMWd1BYJ+MNe5Dn5HaMaTmbZLJzONYkyAWzHGZ16YYs15p4RY1N2D6sBYfSbTBVczXkGANd9w5V712X6/jdkakJ+iLmrMPXihvgDWr91h16vCa55zoRq8TfZDoUSj8gH4h29JT9bm6RekOu3DlLxhsPa7n9dBtBofXMb8ggcer8f7tMngJr7fwUIUzLMvTdb+WcGbx5HphqGAtZ3H65Z7RovNznRDThLqQVZ8fEQjS4an+3ss4VUjNjnSP0LGJEcVTHIbNt9d90+brzZcr7ugugdT53/IJCDL/JW0JWbVyVV1CcFGQCCh7Rv3LOPY8ngsWoxDoDxrIIFbrKKx5GcGfZsrFg8KAguIhKdhG9qg9kYRXrmyWS9tMBLlRmGYefE4HxrRR23/4dGZ1aCx9LoH3+ZYbJc+b7i9nvCKKVKMJDJQjPK50LPyJJh/XgRW7V9t3QnX3FqfIeaN4LYH0sEBkiUx11E3gl74c62X8KpPMMPr/9uiEz0tdfqTlGCcTiqjMFIKKGOzElTMF+FCfC5LAY/Fy2+N1p819+hisX7CwjibbD/cDroecfxNOrVJItCl/0xhL/14qut4y5XXp2SKE89KoQbaGdRP3Xvax1ujkrUoULMMq1yzct34CVvW2tsft6ILnCCDN06SwFN3PJ5Dw/oXfmXdCSHIvKpOOzxh736aYlCdCkYg0F6/OarT5rBnwGyehRdJJCW4odG6fXrfvpmPFz/2tNkp5tWxVIVX1/ELfAofkGTKEmwc1XeG/cY38I9Tz0vCqxhv82EOhr077n1rwN5Acf/V1ilmv66xD7yvviN/JPEjJ9iN4+keB3bzjkYy3QhF4qkZlW7IWww6o8pbg2AeW3g1GWJ9ZP1JoDAoJvxRCID7lzZoAdOAZNONSoiDBtfrnslwXZaouFcuV6fe1NlEWYBspPc/npLVWOZYYeu82wuWutcy45GRSgAV8kBoroNrROY5GfRwbNH7PaobtAprHeHV8/rG8CQ/2Ugv/sfoDPMHbf/ARW3/xfqKRhXmUX7Dt6QrSgJl4bzLkqV62IYOz5iKmENu+CtvWKwMUdO6MQqMngWndSgu83+27IQL/5EC6uu0A1YKkHWLppyrLoRHe3XeH/ZML+EVvGhCsif8iAGrEwfN8iCuXAkrNExYGJXXDIO3ej+uGQrMinRUsFPMxJnXta6hE25CoSeUGG4+YTuzErarsGccO36RUIdXvPxmf6seWMXicsWyrFz2z8Us5ikJrxk2lmhWO0qs4y0ffW4+rP6uHWs0jlNtAJ3y9tl/0C/hm8JRhydmmMb9hmMfyjjlhnLuxLth/CH3B0aeA7GLDst56OnxEqhye3W+0TT6u+Sfcj06kSfDlz2tzvvGRvhyvDijDSugNTirbPcMUy/hlYX90OOKWBnjprtGp1f7tTANCjt+opLNrD2+mSfI3XBaplAa/LcO/gi5lD+JiYwp48b6ZpyO8o0+rDVlroRZ2stTCb7R6MYBS9Y+JRMvr7tWBsE6tvAaifkLFsxW2GmfFNMooWJlzbiRuJi4Zx9vxwW858Fp85y1IKhfjIfm5RjQP/6lEzXfOsIcQrOAb7g9MXoWL4lPs96UwGsS4WqvQ1Nc2gNPJivmoMl1z7sW5h0PpvieA45MtTwnwfMowitlRPIT4ZWA9Nmq5D4dBrf78E14jdUo9iyj5skCthQbFMs0AYCVwuYEnmEWVIuchVBIyf/+kWtuejGkvfBlbn0E1GOIJ51TxFqAmV56vZOvgZWl6qxLUuy2ORI+My3cDhJexfoRrNSV5ZIaxsisL5u9yhWsmNnyMC1YM06q3/BDEckl6lhh6yQ/aQNcb7zfiiXIbI4X/T3Fu84yETXDjr/5RBfxUemo27se6l8xwzhZr7jA1TaeZckg83zVja2Y8c7l+96ni8Lr2tFLZeFfShTK4BZHKOTM/AyjpYynSb7jHrIY/8mSRnhmPYVL9wa1nfmxuD/1M/GKZ8awHg7qo9c9cMGNOE8JdODWL3iGwaw9NG3vi4r5DmWs/vLpiCUbe8E17Fq38GoNEfoYQsSrnhGTj0dTuu31aIfigQ9ZK3BTBw/D4O13H57tZYRt9Ir+wYBm+r2Tr+fypMLm8D+8cNYyR+47083t96Wjs3O4SF18oRt7IgOLms+MJf6vI7RnGPp9jy285kE5C545mAk/ZpPOD58MwBi8xcANwTrBNceSW2cy+w2m7nV9I6bovvx9J1z9r3ruVhMh9uSCK5LGptKAEiSzhhmufWiLaibSfC2COgKosUaX621JeOVy5cqfhPhHEV7hhgWK1sVlINSENmc8w+YL7ARveEb4LHajhEsMa3/QfcKr8jUyioUssLDneej1nnto6sUV82HPQ1LYgGSSOkpRr/bqXMt93nJvqt9LGXuyJiM2/ywYknq227UMYgenufkPEl7hVbILvLJoWleDxksBYnnY97B0NKKalTYC+B703iT30B58xJrQjnaN1rV66yYKVq+m7H0CCiVmmrgdNi50oT+uPm5tblE4dL37XUkf8AlO8a42cs/0erb73VH/hxfWUuX+tv2bBN0ilJ3vwzfrzWeqI163TZZc4U+7HlDE6hUSSbw7S5qowpbw0wqnX5jyEFgijW8Y3tA6i6cEPsIThZNLeNRqFlVY6vwGF5o2vwSQv+43Wg1r/MJ+jUZ+sWWiabHSdfqe5Jlu4dX82hMkiwn72+uQInkSRwgdQDvo5Q87JmGQAWrWHl/49xEClxPeYuLSEGOfd+yheKaQP0cJk5Pq7P2T4D2/q384f/bVVP6R5Zeihpbcy8/1+wY7IwAlU7jErfdOr0rC2MIrYBE0YUKJFa5/ApWB1mEgFrF3SeJc2dw/SyEIght8EH8+t/Ci+5KbeBjcxovRKOJNA2KN8d6wzbffxI5yPcOM8aubevl19bLuEQ+Bm+DHCuR7UiVhFOEVbhzowLKuQLa45jyWYeP3LkZFyVAzlcXOeOosmmFtD7vPg6CYtNOGdj+wiBmSnwwQmDLtEFiVguIa9f4smWJmLPo58Ogyxo7f+WC9WnyYn0oDmD9lSPY0hpTHMQw/w+73El7B6yPzlKDNcnLrvcPjoCkAFOMddk/WwWdfSRvxrOkALihb+xyewkBYMOsU6RZeICyJwiYnQIhPXZofhtc69+HF/OKtSiOpeCCmrxe+WHUYEAi5R55UJKvIlEMGqjATHFhJf/OnMhxwZCd8s2Y84ZXgxH3qqGGJIHgc/lzta5a/M47/8S+xwp0YnqH8kesy+/v1HflxPKUyeR8uvy4dCDHMq9OvvVGuo8EfaljvWEaPTbX2br+2jAlv4PXK/AJPnyRvol9f3de7hVf34ZDrec+Dy+jKVo6tLizGYU+R9MVoxgIaE/1qWEC7YRv1f9ZGSiWPreRInr1hoUjgpewIiwHvyecktz0cjNr/uM+bf9UOKGqp1Fri2XX2Cns4j56EbaVJ73l4et7IiYRXC45U7bQc5vezLpZIMdySAomQb2NQRzPHLGlrqRaxCbn+tnT6zVGywlcMd18SRJS4oH06xYb2N2sLUCY4hIIQaPgYP3cJTXgYAWHoYolZYQivTtGZNDi9tvC6aGFXIkt5FgK/4vJgHga3cRuvmEgWOpsrQWcptP3cN/oU4wNvmAd8YyZ5Tqrf6DZauG9tx7gksYZc4rPcUNEwPHJRc8ELHeBSt7bcq8LX/ZtA6HANApa4XpbNYYy0u41B/w8SXt/9JMGrYDoFsJ9VMLcPLkrBr7ctY1kv4Q5LYXlAf2CQxKTvK64dnpgD72BjDcfoWRzwtaXebMDOsiMuf7/D00lQaKVKF37bTMUe21jEdnuvH43n+ZjkG25UmDn8RAmznXD7vQvhk6+H895qnxHH3yYXuJOeDjiqjHxilmut2r/fYICrBx5vRYFOiTECXTeOu98zfkrjPoelmM07H0o0VTf2tLu9Uf4Hs3WvhjEDCKuvuR7Gi/N9XhKKgg9lcpaKeR5XP+HVmmJE4pHjWYiu6D68Obfl25wR4IUdOC7XPrpUiX6EV/g+74oUP3rOpUlZzPitwpl/g/f1d1rh9AvSPiTRzthnuUZz3/kb3eDBZAe5FUq7ffxVovX8TK/vvBYee1bpSMaVMvg9LbqZSHg1GbSYOx5oR8BYqViB6mwsGI3N3SbPFC2TGAEuifC6aAFy+k2MIT20iJvjsA3Gwje+HfZIcVYsSIjI5PaavGleQwj64oKXIEd7e2HFcMZjLmJw+tGJ+KcRnF5XeDV+cBNAZeY6seriq+oJrzm0QDwerY2LzUYxLcIfNjdwTVgltGKQNN6oXPVxcaNb46TIKWcyiiI3DJZB9/Mmqli6Dency4tYvHoQTbpnXljBMXAufMrbNHHbS3jN9IAmHVrhEAhJcf7vBy84KYisg+ZB2Ms4tR0H4bDfPX27x+LPSnzsGe3w4htpA+z3DrqhHNocWbTPuihtUDahfu/M4jrYxcbZaBz56jALsOUx6dP/3IGsT0K/RvGcjQuz/q3t2+5rx8MF9juiEw+BqLNn5D7BbS3yPqn6wms3aG3m96b9bSysdoRAiiMhqhvH3X1aYyzxlEb0IXPevtL93Cz+ZxHWv2oPW++U6o2qQmPt9Vt/4DAmSk6uHyyExhiWQlnoJbyCB2+mqDOIiEt/oWZJQnu8sLmTNlWi3zfJ6kvmYdAZlugHxwxmh53ouPK0Rs0FHMyCRnq1iTaEFymvxtBIIbcvD6Mb64N8yNMinp58+NSL9eTDXnB0X5tIeLUYINEC3vcIRf87UZCtc/SXRSRmaa+Dkmstl8mqMtduYKf1f0Y6oQ7jFraAcSOUQYsYk4muqj+V0TXMHD4K050EfnDBjf5VSeC+8Rv+B8EMz4j/b/sl4VWsD6Vj0DvD4BxFeNXW6vm00fzX7zrhhLOK8GWNE6sy4bMe7XZAEQkfvSwVvsHNFXXnQ63w623KsPdhKTO+X2wapogeHLXKvcOdWNcaMAzfg+6bRzihFYOThf2jLwczFrjFACXn8Jg4L/vVKVfN6Ce8gpcgR5iSgCAMhrsVTL1oEn0TBtUHteFTgrjRljL56dFn2zGxhuVAeMWgTRsd2EijUr5PGYXupd5sMr2ARSF31pJuKxtcu29D4kU66NgUO+h6r3nIbU7jW+iAGHKxf5QnMcE2OXypTvvoh7eBguh9CuNSrLVesMkEp+BK7OT98Ew/wQKNU8TueDCtO/XNX5nyuusFY/Ua2n3wqXY0CDDcPPDE8JrfxpOVBcILb6nSb+in2vYsfvcSXjN9ZsMGxdJeWEcJwCsZnYRZSZySyLxU6zOvLQYw3gJxxzHMa4CnzP4tBEllCkYGFm94RkuzwHe/Nq05JyKq90oQveWe4XAw6KCbXHLQ3o/ep0U3EwmvBmpQFuRJZ7cDFw7t0/VMYP2QgdBMCg2ESVn5pjy5/d6Z5vXspsHUMffLrh1cvwyxYLDKVbEAST5aKndDxOciwUoIovli2qyw8D8I18z9iE6wt3ckTNg8JsHlyMLr3Hw8XIDllQb5Q2zYAIs1hpm1azTCgsRSPy3CrzN+NKpWJ+YojnWQtkkzpcSxEit/Q9s0hkFzUweGYc9o34bk9BYWeQl9rCKD1hKa4TqLVmLHBS8ecTlN3A4TXrPQJPb1qQFZz2BSxQTjY31XeWJQ+MYwfI1637qnDBBG4/neN6Y4tX7zanOkiHOtUjC5WvHHfs+PCs8oz9v4HPVKOWctUc8604Vv98XF/nJrwm07Hi27FHCiP/kOhD4hOeZWaNMgpaA6bjTx/IrFOsz7lPHkqKUSQKpw+I1HWOt4q/CmZxZPJ+uFR+OmiNkjjVudUbGb/RTi7r6m8T8YGG3wU4orJRt9DhKG4Ju3g4WbAklRpkD2E9KnAWduo5fw6p5xmHP8TvyovRA95/f6fZsvazLKHQcsrdzB2IcuPvgi8TNhRVdeNzhsSpgcAZdspTJFrAizhFbXjEf0oW97BflHBRX3BtFAXufybNCag6HeGuFY3Nx3v++JhVfAE+osAgvy2NOHu9YAY1Jk0P1y68TkozVlCTS5jAjCq43mwqsQfyee++xeL6bjuokgrCoplC1AGLDruc1ZfiN8BGTBKjklBvSCvyeXaz/G47oP4t/mrymbWE1H454E1lGFV5sSzVjyiuSXOpnB8IomxAXZfNXFiwt3ifANP/DEan3ocWW0TjnLu5/g5FnuKGtAFqus3joeiEnmwbvoFa6clAW3exxcxuNpXe9HyzajNz4QypHWrBi4abviBwmveAYLgtN+ZIuzfqDTXvCiHa4mGdIsn2h5FCvdpPgFF3zhE7/9c+I/X1YAACAASURBVOITjoPuBau+JHSxSojnBTOa1cakcIzzPrp45S1H1KbTcf5+/cYNB/x4ycnnpmQtQqzNv9+4xum/3zv6ABsasLYpJQRrgkW/d6rXrTU8xMl9lATW8GECWPX9af5GGyx5DAqy35VR7AcLWhbvevyZyf1KEcPjliJULo8Z7q0fngyeUqdLuTdICCFco2NjFKah4Hy/MeZ+pvXdT3jN8MoB2WrnjYdUDFtr5A7Hd/9qmzLscfBiCNISyh3wb53Zu52WeeoF7WA/7bXuXIN7JzbyqvESW7NL4XXqNX+MXkI1GPuELaKBPA+9nrc20I1KUryR3u23f/Z6f9i1iYXXjHRHfgkdYIp3ZvkgAck7Bn3dba2YLWhRLHXMEhggt1rGSQJLv03Us9kCxHVCWJ/mRAybKPfBzJJ66TXt8N9bdKKL2LV+CxaOwYj4CdysR1HTnzArd1ThNTP4WEtyv3q1JC1QAhXCxzARvoXbb6x18DfqMzbYar3OXJjbeKptZZgI6GjDkaBi2epYAqrtjPvbPCtEz23J+ipGE0wZru52rU1WbMefihlTvmTauO0nvIIFXJSo489KlQ6uuqF/rCAcPvhEKuXEksmLENsYYLXvHu8k/+f1RcB2EuCgOoeeNRcK/bNmSvajJLs2CQyTvMutrdyXah1qe2Y+aw54u4QLCBtgCUfXxjBJf3XfRYNvfNAK+x3eiZYcrvRBNFttF03c92haa8J5lB9yf6lgr8Ii1OHDL5MwyLvFmko47CWQghtfUGzeupNzoa1+67TazzR/U7CEyTHa8HygiUE0Cm77BjpRqJ7H1D40TZj6tdVPeM04k8TLjY22KbndvLnabl7L9sMtdkh5I1F5WEKDCBjACP9yIwik8g3wiW76RVss9RK87IFObMSnB81VdbzT/m3OGRzBwgoMbjB3w537pazZPymZyRuZ+Hy/5/N7db8nFl51hJBknylpxIR/9U2DS1eYFEQjqQEizrhw6ZMaIBARKLNBAzMZTtoyll7IxWxtnPsflVzIdz88+1M5uicRXAhCxr66uoRBArXrvWAmfMW6tFcmsz0r5jRCHUYVXuEZ8zvjoiREX/KP4YvQOMHKkigTWi3KupaZbryN+z+4Cf9ZwVFKqJfw7zkxdzfekTbUw09IdWGNYdy+R3nP3GNq510m7ryMdXHBlBl8d1s/bKIS4WZ0Yssg4RW8eMB5V6TDHLiiMPRe8Npoub6V4uOW5XYytu4xzep/sIJLjCZrAyWQdY1FpHvNeW7Fe+lEOc9xr4Kr17hmBW93u+Za7V8biE0e3/IMfsaTQNnCR1SbgNfuMXW3N63/8ab3Pm2FS65aCDvu2Ykb85sfDBY+ct9Z+OJ9okzwgKGnfH+pv23qkpbxKfsInttLePUca7PqHtYdq/hS8YgqTtAERZvFm/CfFcJec++auVKeTlIf5Rg9LRUv7ie8gsuHAsaDIwxAKTvhW9WxVn+jb7QiXConU2ZlrvrcLH9nfKbyhsmb5IhuPMK9at/wTkBkdEIvklYpRpuKn6BVHkXxusLo0PwgePAYYYo/8kZOUemZmvBq8xHboIyTpAqbeT8km5RYhuicjWWINoVGAT6HLLD8Ig61377os+lb8CxAFolAd4sGofUbY5UIp/kbngXZx6StQ1OgOqLvBYdnBdbncmQ5Vgn+J4FpVOEVfD4Ct8XuHHdGEl77weFZjEY1BZZ8jIabcKm0/YwbcFiAYqTihrNXihlGC/kZ36zEOaTEQj3r4nZ0y8N/9blZ/haiwA3533/oxHjsjMNefXoWE9ryL2UUXoQ7GGevZ8e9Nkx4NZfowclrmLNySb1omKuKsCjeVHwbV1U/uhkX1mHvwSW+cPalCb8ShcxtjpvP74MLnUrEEcd/18NJsew1rvzOrL+tIxu0sIBYNePc5Hq0hp1Y9pttU83opRRcjTnhpBUee3pD2HX/Tiw/6MShOue9o4l4+t2W9U+/myWe8YOYfHxIKgckybR7UzdedHTzPa2YqEjoVm97Uwiv+qSsULLx15vuTvHOaKAbT+C25ig99sj9jyhiiMe0+UV3v/n/fsKr+2BjXMA/KDL4H74ixC6/X/22Zhl7xPsS3HmoNpXcwZ1uX97qL+lIZmPxqcJLEH/4KaXYUmjlg08mZRgdVZ9bqt/4m7wO+5sY74uv6m90NBbzIP4frnkjn52yN3Iqwmtk7qtlriqJUISDjyvCky/11+QRUVw8yj9YPPl84q7Jm/WkQDDGrtYbyw6NjMbcTUTgsOFzrYk9kSXLnN9rsc8aZn3KZmblJihh4jketrtvDCYdoVjGMhvTyqwcVXgFl1gj5XF+uVUZw0sGxQvDP4apbiJX1T6HFjGurFto7B7vLP63UUqAQtcWrNjSuDArDMRmsOK9FITPFSSkxOEVS0kf4FQGTWzRgcf0PxHMWkUX6qYSXglZajNPezMaJLyaJ/2hB5Ycrku1P8FWZczwTAm2LikPYnQJBUuJV7CCKbrf70wWG0K0pJcqvH6jA25MdMKNOcytNgt67dUmKxlX79Y7p5JY3KtCNViH8REb+lILUZ+snAtrvmuHb1Z/H/Y+pBN+t10Z7n9ieAFzNGFtcaWiiXMuTfGXS00TVTzb1J3SxIMoMQW9drujv1qXeMQPxzEvnm2/1IoYuPVJeGJsQgPnXrYxnKQ6Lr/h1R4Zy8XtpTpIO7y6hMeTDhNe0e3/z95deLlxZIvjf//f7/ve7tu3GNgwMzMzMzNumBkdZuY4cWI7dmKOYSR1a8b1O58qla0omhlJI82M455zdDSSuqtv3bp16/K96mYhEGVULp0b7TykfT6uTZbD1JXtyWksh+33Dvt/e1Li3p92bFXg6SJ3uIZ3BJ3jJ/h059kzbLimGs+zvYRd7LB36jqINrolHKKb6I18uuWNvKCIdcWHyWd6Fl6XrBqLgcUEl86XCSMYGaBiODBvNeHixlzz++vz4SkBg9vitVb5B2N0jj3Kz8vEkI6lGFI1JyU2QPpywlPbPM2PwK3SAOGV+5DGZn42S/u1o/4fjjBGIQA775tcxJ6JqDqfnS0CSmzA9cvvbM187ry2n89LW7gpmhPh101lWLJyctrI44KFwCRzX/epbLnutuaZYd77WNL2z7mUMJaEgzzebL3bbJIsJCJSFsCUBdMIw6okiBFmtC8ljD376lYNeTbhJKAofq6bGcE/M/J2GNAJawVaJuiqm5o7rrVfN9P/0cSGWjM0yomgM1nnePYTeLlZ0edzr/weZ+gA7i+6OgmEstOzRatzvFF+tv/B8s6nib9xnz789FbhFZ7xEjTuQGIlVrIs49/9o4RvyrFbSRXWXOOEQ08oY6wdZX2Pg4st4ThTjjEC+NHH2k2NUKtvDpdeU0ZedseDKY+gGy/L8Pnti+9YrRphz0NTdRt4nuqefO+o3vEwZ4aKH5I1lWFSzQPvAJvnOvOii/vMFL6hBN+Slgt4VHBNNi54hVk8+FQ9CiFK5TlT7MkMb743C7oSZvE/dZmFThHG8zWjfM/Ca7czxjysO2GKzBEVsa/Sd932nP0p/OyAI1PisOoxrrN3RzmH3429KvEKuQZqMIs7l29jPhkWcBFeVSNQv1vuBx7EA9S5Rr8bfwT7NT5jVUpIpWSSPQ49Qbv3rcaEdjh4I+0BCe7oRmiYJOFIY0OCD02sHysDOcSzySXtf//lg0No7cYirNtUdn0RYLzWbiBMleF/dlBKoQxjjfR9531jRRlefK2McZtay36zqIxAGKPz2lF+9jywPPFcEgRPv7AMi5YWv4MFgn5eXYab7i5jZuP1t5VhzfoyrK/NLrxwkWF+6Mky/PcOhI+Eu26wmNsb7xVRc+N6+H7JcPHcnNgcao3xsHbD5LSR129TowyffV2G085PzPu5BUVYDYdjv8fhhloZlq8sw83/KaOwe/3tZVi8vAi+z+PN1rtnLltZhDvuS53grr6lDD8uK8LGeoIlr8cnX5Vh1wPLaHn5+vsymO9s0jM4PfeCK8sY2vLwky0a7cBvxO2qItz5QBkzva+8yfzKoeMWTdTLidAc3xzWbfz9uoHDvr/wqrTG6Nl17fQAxx9+xjKbLMQvvv77a2aLDuJablTapowVUq64IdEjeP3mteRnverLsPM+zXDvI4kG2uczW7D+7jkby0ivaBKNXHurPANNP8rwy+rhr/3vnt+FrztPNjWaoSg3h8eeKcMBRxfhvMvL8NV3CdbJxkA3H3+R+Ii4u2cXJNzPNZ5rZRk+/LwMex2Sqid88lXiEZkH+P2Vt4vUn/4UPGS4vHgyfHX9fmMZ6k0F49PZwLDx3eJEBxnefJ89uGhJGc69LCk9jz5ThpVrZ49m8I960f2MAat1f/P9lLMirvu1d7rPw3yswdMvldEApYLM8lVl+LW1f/N8Z+sdXj/4tAwnnZ3qt77UwdvAtXw1z0JS7G69J811rukcD/nky9RwQAz9gre6nzORbpYWWzp74u8r1gyXbuIZU4wHckhet98Jr6vWK+cwtsVNFjXNlosv/08D4rpk0ZF1yVr27eJk5vZbvs77+kYtdtSiUYg3FTtGw2u/Zrb+pxG/+Hoq46Tt6xsfNFKGcBvMtAUxutrRcQuL1aMZCTGYLTjbnyOuR4iGIu/qN4INjn+H53ottrCN5chOTa4h1oD2sQb5n3boPhqPzfTTqqlpw7VwyLWmzR3X2i3/KcKP2mZ2WfdYM/WHWqQhGrXuayxHc4Fv2i5N98mXkvtDrBorKy3evHJixuMvJEumDH5xQehqENwOeg84uHBiEqTSMTdtjStuH9P6C6KXCS8WCS1z73Rbh/b7+v0fTWxsWV7tlc774fWHZbVwfcv9y/UX91QbPXDV64WtBNHxamh+nOic1ahzvNn4LHRI8ph9lwvMg8Vc4E8ZL+XgJJaJk8bTOvfkbMA52TPwWS4++wt9ege7sKPJ7hnV986T1RsaYXxic/jg8xTDL6aSd4Y3rNtzwQ/ml95oRO/C0bHt7e/5dbd7R/0dfCrAfuZFScmVXGNfoYFMrxpziPlPMd5pLUYN12Tj419CyrZUCHoteWoiPbSd7fag8wW949uSotBL53WTPWem37O8bpzkjEEP4OCd4UHiSbq31R67c9+51lysgRJVKrO4Zq7kDs+Via9UmXJxYtKdM5lneFeZ4rRWPg5PtrlmWpopXge93/khRO6yGxKda1ebrfbtY6Iv4UhipMlMvJF+HybdOGM2tCyvxiaXtP9Fy+vKXxtBjJLDZbKXm7kSXmwlEx1xcnJJ5Qnl++LntbVg0vqFX3xNa1KzHO+a4SFUib/Vqk18pUx+JmiE3X6NWBnmfYeTLDuE1n5NvnY23jFKLlfW1CNOSiVXOuEBGxer+EsxMzo/dcZhDQor/Lg3hw2IPZluLERLuOL6lYAlRCPWFu2S1GR+3BHHnlZES4ZkAXSDAU33nFH8jkbEvdqEXK3cfzl5DJPhdldGK7nVhlPRod95OFDgjTtbDcNTzksCP9jbx3KNupQnnZ3izcV9CYEZNi1PF/MKJsoul5/uRDLeM/PO8HKbKaenZiolF72gg/z7bL9v4RVqeh6T6l3aYwRXv4kdVH7oypsTf5hLWKfDzVzD5jxxroSwOfy8phGbl8AdoQ9ddIM/0/hjzzXC3oeWsduPkm/mMtfzwd+0hxb6IHTogisbsfKEwx6P0KpXIwg85M4HU9jZsPdcN5xN9h16JfRdcm0SQoS7dMtD0B2RECU2lnCID+Ihk4077O9z2MBkZ4x1h1+xz8pHSqoEXydufTY/4XaUT0ozWK3bsGHuZTxw4xs5FPHMi1NIlLnkOalffNiJRVKG35vbeNc8J/hiSGJQQhMUsW4VePBu54yznjdiFHTTc8zrdMJrJgT1G1koxXKI10A07YTkf7EQkqRkv7IUWaz2azKiZuPdYihtIhkEogXbdyaF2Azqm8VsyzOL8G4PfX1HCTvG015CI9dAbd+I/nfY33BnsgheffPkmYH9wjqI8GqNMx6Vczrq1DJm6GPunc9H+A4lzBKNUC5YYzqvm63P4GZNZZnXE1xNSviNc9pQi8lG4qBzLKTN3b4WswUngVqsK5ypRpHjkcCZYaARU3zAKllLmZxR7L9ehFfw2ldwCrcswvgAeDJuNVDgoWEpRvdzxSfgj/L008qkgKHhC65MAne2Zkvk2nnfZoz3NzfCVsZ79f5bXGThdXPYHIXYXDbx0usb4esfu68zmsAb7nyoEf62WzNmjdtrc0kT7eu6spUQpIwhrwYeDV7WYmUYGRrUKt7SCr1tX7aPMxv/40+MCf95OCkCKk90CiHZsvn86+kMAftnCxMfnw0YPaMX4RVPY6RRquycy3kYf6/QmK+8CfNkQVaZwPhzSTs8Oc+92ojxo3J/lNkDJ5jwFIItXk5A5LXMfHG2cD/Zc5yHqqpQAijx+Dardr4enHi1qkhKoR7Wio11X75mGO9DFV4BZBI6uTDNIxQTaT/I/f/B57VYzocwqAyOa+aKiPKzwSwZizuh0wKkrqBEnb/ukjpLaBc5V/DCMe2MAsDaR+BWuie7qDJRIB7ubb3jY1mQVpH/9rXI1/b7Pojw6hkOdHUOKTaEp/c/T7RhDTIMeT3UIeROQfgy0ds3R752tt7hUiksIQ8sPvrFUwysQ57TfkckS2YWBtvnNFtwYg48BEefmurwKYLeaZFX9YElG60TcFXNML9hw9iL8JqZoENdkpkDPsNrf8H5pdeluDyemszYhw1rP+NZbwmmeBfG/ep7qaqK5AvhDSzIlFu00c+429u1WXid2Lw5rFzXiGXF1HSmxGjJzCrViRN7iqAiCUSC7SXXFfGQn0te3A4jHvX5d/U4BzxOGInfNxa18MjTSeBWWWPh0q1KWvv9s/k/XCYBIwkhOpWBHX4zHEKReOuEFgnfoqwRcEfBL/IzO997EV7B8+wrjXDwsWU47swi8kDza+fB9mPs6ndm6kI4H8rYZX59zOm/rR2Pz1kHFTXQufro4G+fTyeeZvMzzwjF7PATU3K+JDjPz/sQ/Nk6y+p61sUplK6boWomcA9deKVpigvb/aBmjJPpdOtYBPFg4sJkGc+1SxjyYhmn54UxJJi5F7KQlwlGQfW/7ZpqeJpDXqiZIH/Qe8EEBkXx1dVVRiPGLbYJITaGzUqQQWSEwSwYDPrcfN+gwivmrt2q+CnCq57gOXs8jw2vCF9XIO630y8oYq1a1ot8zWy/wzX8snATWtQJ/PibVF4IvWOEtH4JAwuXJq15tmH0PExc1mpUWI5O1gVwt9My/CqvxnJ45sVF7A40isOoF+HVczFBWcIEQc0gstUazPrEn3oBWiliyRiw5/04F/j1TDDYR2LQWBWEElHCVERQBu7Gu5PAMtdwzhV+en1uFl7FvMqp+HJRLcb37bh3M4aS2FedOIR7SqP6mLKdb7s3lTbsvK5XGIZ9nbA5RgVChxAivdwpYOATUvLPPZrRvY22854cNgz9jAfHH36he11qwf3ae78VkuxP1kDtyDWzoEB2Cy3o55n9Xjud8Go8uPzwi5ZB7MgyPMAg1iZMwT/B6bFnG9GFzUPSKZf0C9cwroffL75rzwNp5R+sF4JSj8lOSsgJtXP+zRc6h8vYjEUYzBGp4kc25sCL81IoHfqP++D2RtwHwz5nhi68AlBMIIFKFqNEliygZCJS31G5Clool7Dv53JhaDlcOQcdk6xRrFcWAbP04m5gkaV9CgjP3w+DgAcdg8BNINXmTlyM+CWbOOMxKhEvp5gTisJUnbj6hWFQ4RVtfB7L3CRmqGlCJzN0Te4KJj5MDJPPwyb8fuZsvQksaARNsxSiERZ5wqF57HaAzPnhxRX3A1++FtPARFiGabzqTrbjV7C/z/pqs9hfdXMRhUX35TGG9d6L8JqZ3DW3JnivuSUlFVprtKwHue53rHFCHaxDpu9hwTnIOBTDGPp0Q0rA4dqD7ytuSorWsC0Mg8A43+/JwqtscsLrivVjQQ1UfdOvuiV57DrX2vrrSsWNyisj7i4ncc6H+WY+oUmBs4KbXQMQVnku1m71gecSbnSqiY1kJ7z2nscaMZQgC9bo/IPP67GLGWODJOHZLurfi/Ca6eTGu4qYRyMJylrkefidtRBfFBd74dWJvlwzl/j3fLKROG/0oYMj/gzvsQPXmakerSQ5nog8z7mE2bNzcjBvNOGUMQcdZb7nPbcrZ+xRI1iIyrDPmaELr1sOyDvSgc6lnWuiQj5B0WL9e99UL3U+xHJANiGalUfTBPX68ia1UIQW9TOPOjklRyG6uSYkeCRAHXFiKj0lSzcrCQhMPA3mbrNyZfotb+aZEv+gwitc2px3PJjijjCRXPstw2QtxFVdcFUjlsm688FGTIQYNuHn5/X67vniXrk2FWimONTGU4axmp7q1xJis+Ww13GHeR269KIwStJTGUEx8sxUMEAhGLHDzFFq1m5VLIcJh7F6EV7B6lpJWeA988Iy0gd4CbAssYRCFuJPWhU15nrfZTzZS1yoYudu/k9ji3ANdopOvq56746LTuH153VjsVnN/kcWkQ+/+2mi5Yw/6w7nQkvUBiYYiu/23XyhCbDmg50gJWb/yFOLsO+RqSzdI8+mZKf5Ai9+wFNEqCOEEPpYwLOhIIdE7XVoOhe7hXnl9RnVey/Cq2c77x59hieyGZskUeIjf2kl+jp3WOx33CtZCs1xPqwDIxOa3nmfMsoeeAqjyE13NcKOezWj1VtoV+aVo8JzP+PCG3jEvYofZrmX1GcuxiGbqKF71ClFNAgKK2iXTfp51lTXDl14jcDrm/1ciqvjIm4vpYBorr6t1Wbx5rlPwgAvwSR2SLkxCVU33LXVAgReLmyxjjKexZFauLkmfIckayorxP5Hp77H2UUMNsI3BkrQkoxmnnMtvOYN+PSCVB6ERbizNSmt00bwW+pXPRrCn2pTdPsNHfzwcy1aT4RqUMCUfNOtiCX2kOOHG5rRDYZevsP43ng/dc+i9cpyzsKrdxo93CpW/8wro6ua0Yvwaj7gFZv7j93LWMmDmxUNeN1wZxEL/l92QyMsm6JzTi94GcU19pMD3sEJ3rnmCaOY46jGbBdeVR1YvmYsvP1xLXrs0K2Wpfhyxql3n4VrsBLixdpHZ54yKjgHGTfCvboWvXS8Yqywdz2cXNl5PoOMO+x74I5QIXxLWICyRsJ40LJnrd5UC5op4HcSbAlRmZcMG5bJxutVeAVzTooTP5/D5OxRL4YeIT6HHFcEnSZ9Nx/WQigdwxmFTMw8QY8Vk8FJCM1DT2+tbDMZjubie/hWMkutZYbIF99oxDJ8cIqnywVQmUctWDQ1CnyPRHglgQu654YXCO7ANCkT+EQtvIuTVsoyOB80IHAtXpEyFsWxKStFU7NRaREy9rmzJOwsX5PmMhcE0/5MDFIdXQe82FB1Mmmb8Gk+3GvmERnng/NDeAU/943NyirhRVCF4zw3VQUwGnMivL79yWgIPz+v13eMnkVNmTTWecwGnBIO1W4Um/v9TwnWXsccxXU5rlgyFiGAdcpzwA/PYsxZWbQ4HmXITq/CK16hLzztHaPDK8CKhlUY+PNOzWjZdN18OGxGsWbb45idwuuy1WOxkoMqNDqUXXPbb5Ox0IQD87rb0+869qCH+UoT+bzTjY9Chneg6fm21ur+iv/EE3Y5IIVDUcjASlnn+dr9wBQS5Ux07szmHHoVXsEl65111Vx4wbLH11wefqYRBXRKzwdfJH44H2jHeS2UDq/b+/BUfYknhyBLThKT7JrZxHkvzwITr56Sl7xj4nJzKU7xuVqVU3qOOW2rN62Xcfu5ZiTCq4kp2CwGUKa7DfDjL0kYdHhKIHJ45kzd+UBEDkexShDONUwQJAgs+SUFTv9t12Zs/UgAmA/wZmHqkWcSc9Hij8sBg7eRmfRZ2CgPtGcwu6cf4pjs2kHDBowHPtZWBcbViXv21RZsrYoD1kEIhIQiNXUFfrtnMlhm83tMEA4vvS6VN2G9ZLGQqPV6S+gaFo4HnReFS9jF+VckZs2tnZkKCyEvwt93a4ZTzi+2tLkd9FlT3der8GptMWjxgOLqHDIOHWW+tJrGGNVeNq/5sO+mmnP1W+/79DfC67rUBMfelxQpscnB3Z6Vb+0XLUueJvQrA36+KzRgxjPw4/lKu/YVHqvZjbhLIUd4mO9VH1C6jDB4672/r2gzG/Teq/AKZji+91F1oZNlnieSIGUu2tv+fdcUl87aPF/WA9wUmwVvN8IJZ5fRaGMd/rlniumer3wPTYtjtQ/JeCpRONftSULttbelOrDq6o4i3hXtjUR4tWERjoNTYgjXNq2NRker0FebhiTeZq4P+7wBWfy4W/dtlTxilRK/JGBd8pkFkmhGMJ8vhB9h/iD1GQafTiiEawT/1ItJeBH3qFgwmIcF90yEV/jTWYTGJl5Gfb4oXLXcO+jGd0rNyJpntXBPXqe5fIc/9ErYgtf/989Uh1atRELYfKBlTIXiJTPYoXP5DakXOZqAx9vvS14EzMY+9RoFTnsVXsEkzo7FDbzgRgOEWPTBom0vjgrOUcy9GnN6mvqd8KppwfqUX3DUyWJaU36BPWftveeQFxZ6pZFcPyyetr2umbhX/EJuitA4Qh7hw1kt8Rqf4xrWzGQUcYvT4b1X4dU43NXCBbixVTKSyY9GGKDOvixZ7BnSzG0+0Y1zA5zOOjKT8oC33teI5zm+PR2O5uJ3MBO625OY3/qwHjaVKZRuNuhmJMIrZJLAlcRS0oSbVWkFWhCB5H93LsNt9zeioDVfiCi7W7Wh5G6VWWkeYlBsXpZi1sz5pEUTVLndDz8hZe8jJERlc2qDx0IRFYdlw43TnYnwCn8UGe3wJDldcn0qzmzzegkrkQBlDXLr0vkkuKBXcAoZwGjEaxK+5wsdZ6by5ItJ+GNR4QWxHymLV2gOsn8ZbrxztPWVexVeMLzinAAAIABJREFUJXgq/M+6uuuBZeBB+PhrCXupWxUaoBjMF/zOxUHxR3xmN+HVPpfAqX4rowceYd0zzxX/xzqvIcj7n41O8foj4nuyOcG5JFPhT8lVnWIUx8aTB0x8sW6ZEnCsxWzvw36EV3xCy9sTz0p1xFmRCVixPONZKab0mZfnV9mp9nWxFs50oXXefQZ/+zXz6X/7ktUefbB286qXYSyWSt1hr2aUmch9zqRRwD0y4RXyWajEBhJEBEkr4H7SuSkzWwFnxDaKSQ0ypkN0ycrkVhX3yo2pRJZyQv/csxmuv3PuW/p1zotWxtqqjBdBUOkKViuCilqDf9qhGcv3DNsqOBPh1YakwVMOxLTS0NAJ5QHNvP5ePSYTcckTxm3eURF/Jz77+Qz3lIRh47YfGCa7Fkys7XsckrKcKTgbGmk/nnlJ2o8PPDnaw6hX4dUcKLVclFzFhBaFxoVjUCTRA7qYbK7V99smbroJr9YSH6AUagij/q/9n61PSqrttG+qn8oVOR/5wrZGj3BIIFUTHM8lwPp/fWNsS9cq6wDfePdsz68f4dVcnE2PPluPijDFXbc2VR7kfsR418+rBiLDWkNGHPIG+WOnfVJSopAvrYbVPb/kuq3K57Ce2T7OyIRXE0M4V9+aCruLgRDUa4MgIhqSa9qBmev/HZJc2jR7hyjBWz1BYQOEgfl2iMIfF4+6nVyscM0FxBLIciV2RuewbLkYFn5nIrxilJggTZ7wCr+smARBbh8JUTLP4Z4bRejGsODeXsYhvFJqjjyljHQsaYtCI6ZbYtRxZyScj9KS0o/wCg40+t5ntRjn/Jedy/B/uyTLuyoD2lRuL2u3vcxzMuE10ym+cEwr+z2fE84NnRsl+uIX2wuuRj1P+MVrWdA04uF6V1JPfWUhGniyPToXykI/wis8UX6+XJQMOnIqlAU0ByFJQh+yIjRqnG4P4zvHWe1vvS+FAKorriYtby8PCWs+PIyKbkYmvEYtaFWqOYkRHX1KEbs9KarPKiiTcVSTGpRwwONF8yQM/nnHMgqAMucQvQ086NijuC8zFCVCuHeUa/ro63rsKaxVnu5afmNVHibsMxFe4QEuCdms28JK7n8iMUcwUnDERF9wZYqxItSMAnd/5DFlEKtJqz0zi0Ou5xpLT+1ShitvTq1Wh0kTnfjsR3h1L0bIyubgVKxeS0Rdc+abwtg5z+rzYPtzMuGVIKUEoPCyWCnloXQA+o4w5TtKGCG3wv1wcJD3nmROQp44c16QHfZsxnWYS+9Xv8IrnubMiBVrDi/Dn3Ysw877lbHEmt+chRXdDAcHWcYTOicJ/8SzU2McVaaUSB12rk3nuo1MePUgQooYxuPPSkzHu4BpcRDzVSgBF9O3FnMOebF48ylpqHMB4VgMqRZ+3MTKeXHFj7IY80yF16yxKUJPQ8MoZSrSmGnKXMa6csxFgkAnfrfFzxG/P6uJmUrg8BygZ7UD4fuJF0ef7NKv8ArPDhfCC5r2mm/K7bZIC/MV5smEVzTAc6Dl8r/3L8Oxp6cYTOcGI8gZFyt1NP+8dvMVz73CZa/hG0pM8dj9979S8XnhXc5E69LrWMO8rl/h1bPNw9mhK596wS+9lcLpsgV/mPBtz2OhCXTj3KZYCh3Y9/Ai7NRKyF/eMgaOCkcjFV4zwXNjE1gJhSwp81VwzUiODLRV43W+H6JgpU0qBHzYiWV0uXO7i1MSSzqKDTtT4TXCLDljUS2WzJIdKr5Vdqs5HHVqagdqPSoBZrBDw7p/vyzV4dO+dJ/Dk5X74utmp8rHIMJr+/7LvCN/V70PRgfzFW+TCa/gRbsMBtffUcQao4rOqzV68HFFWPBOPcZIz9d5bctw2XNiGHlqnB88Ygwjc7kXBxFerQGYxdJLfsp5Cfnc2pbXaL7BDs9erK8aU0nSl2MhnHHUZ/dIhdeMaJoQhjTqyeTnbW/vlAGuHdYJwt/+RxUxIWpULtfMBIrmRPh1UxnrrfWL8wyzUk5CBwR50/r/vlsZTjhbvGuqkNDvuNX1ScjBUCg1Yl9VylDhgxD70FP1oMTaqPE0E+F11LBV449+/afD8VTCq3vxrk++rkf3o9bB+BoF11lSnSOjWz+4dVYT+ObDmT2o8Dod/VW/D5eG0EtWFBj87NNR43hWhNdRT6IaPxEKV8k3i1P5ClbuUTH5YQivGbbnXksdqwiwkuQOOraIoRrVITXzzQ/HXupjsqJoB6uRRcb9KPdNJbzOfP1GuT5zPfZ0wivli0L+7ZLUAQrdZoVsrmHfHp4P1/NhnpXwOj/WYT7QQicMlfC6+o9DHIQSFk2vUTKfYQivCBGMshUVpL/gqkaKh16U4h07CbX6PDidsqBkrXi2EhYq4XXw9doeaH064TXzB7yMJWfUPG17wPm2OMdKeK34yGR0WwmvfyDhdbJFHvb3wxJewaUMEpdDfhG0hg1vNd7s47QSXmcf59sSnfcivG5L86lgHQ29V8LraPD6R6DXSnithNe+hcVhCq95E43SUpyfUb3PHiOshNfZw/W2SNeV8FrRRy90WwmvFZ1MRic9Ca+h+qswUGGgwkCFgQoDFQYqDFQYqDCwDWDgv7YBGCsQKwxUGKgwUGGgwkCFgQoDFQYqDEQMVMJrRQgVBioMVBioMFBhoMJAhYEKA9sMBirhdZtZqgrQCgMVBioMVBioMFBhoMJAhYFKeK1ooMJAhYEKAxUGKgxUGKgwUGFgm8FAJbxuM0tVAVphoMJAhYEKAxUGKgxUGKgwUAmvFQ1UGKgwUGGgwkCFgQoDFQYqDGwzGKiE121mqSpAKwxUGKgwUGGgwkCFgQoDFQYq4bWigQoDFQYqDFQYqDBQYaDCQIWBbQYDlfC6zSxVBWiFgQoDFQYqDFQYqDBQYaDCQCW8VjRQYaDCQIWBCgMVBioMVBioMLDNYKASXreZpaoArTBQYaDCQIWBCgMVBioMVBiohNeKBioMVBioMFBhoMJAhYEKAxUGthkMVMLrNrNUFaAVBioMVBioMFBhoMJAhYEKA1F4XbuxCEtXjoVlq2vVq8JBpIGlq8bCynWN0BzfHH7dVAafK/qo9kemgXb6WD9W0UfGS/We9gj6WLGuHvlHRR8V3+jcF1vpYyJsqPhHdbZ2kbt+WpX2Ta0YD41yPPy0uvYbib0SXrsgrXOjbY+f24WTSnitDp/OPdBOH5VwUtFHN/qohNeKLjrpIn+uhNeKNjItTPZeCa+VcNpVq1u+phZ+XlsL3rsRT7twUgmv3XHUDW/by3ft9FEJrxV9dNL9VuFkc6joo6KPyemjsrx24qb6nPZLJbxWwuvvhNNf1tXCil9rYdma9O7/TiG2XTiphNfq8OlkqO30UQknFX10o4/K8lrRRSdd5M9blZtKeM04qd5/u18q4bUSXrcIryytqzfWwuvv18P5VzTCCWcX4cKri/Dqu/UozPo9b6B24aQSXrfiJeNne39vp49KeK3oo3M/bBVOKstrJ26qz7WYQ5GUm0p4reihO/+shNdKeI0CaQ4TQBC33NMIO+xVhp32LcO/9irDvkeW4a6HG8FvK9cnQmoXTirhtfvm2p6ZTjt9VMJrRR+de6ESXiua6KSJ9s9b6aMSXtvxUv2/dd9UwmslvEbhVaiAjfHae/Vw+oVFOPjYMlxybRH/33nfMlphP/yyHuNgWWDbhZNKeN26oSrmknDRTh+V8FrRR+e+2CqcVJbXTtxUnyvLa0UD0/PMSnithNcotK5aX4uW1TsfbIQ9Di7DcWcU4bnX6uH+JxrhiJOKcNiJZXjo6Ub4/qdaWPnrtiu8EtJXbUgW5PYwiIpZTM8s+sFRJbwOF5/94H5buLYSXiv6mIpOt9JHZXmdCk/b82+V8FoJr1F4JZAuXFoL515ehL/s3AznXVGEb5fUwgef18IZFxVhr0PLcNXNRfjy+3qMi20XTrYFy6uwCIlnC5fWw7uf1sNHX9XD0pVJiO1MRtueGcKw5t5OH5XltRJUOulqq3BSWV47cVN9riyvFQ1MzzMr4bUSXsOKdbXw48+18PTL9XD0qWXY78gy3P1wIwp3BL7r7miEv+9WhmNPK8NHX9bDr7Vty/IqTveXtbXw8pv1cMp5RfjXnmXY/aAyXHBlEd7+KCWjVQLs9MyiH4ZaCa/DxWc/uN8Wrq2E14o+pqLTrfRRWV6nwtP2/FslvFbCa3Sjf7u4Fm67rxEOOLoMJ5xVhOdfq8fyWL/Wa+GBJxvh3/uVYf+jyvDCG/XA9f7T6rGw8tf532ELrCysKiYIhdjtoDJala+5tRGF9EOOL8OTL6a5xvJgFT1ES3w3pkjAh0948t7tmvxdJbxOjZ+Mp+31fatwUllet1camGreW+mjEl6nwtP2/FslvFbCSlizqRa++L4eE7R2O7CMoQMffJGSs8SHvvRmPZxwVhJeb7uvCF//UAvL124bwivh+8MvkuD6z91T6AOi/35ZLZx5cRH+d6dmOP/KIny3NAlllQW2u9CV8SLm+esf6uGH5amJxWRxw5Xw2h2P2/Nh0z73rcJJJby242V7+x9fEbKmRKOzJvOTrfRRCa/bG030Ot+ehNc1G4qweMWm8NOqser1B8MBJrFmbCx8/HU9nHp+GXbYqxkuv7ER411/XjsWfl7nt1q48qZG2OfwMpx5SRHe+pD1ddMWy+u6jWVYvHKe0cfqsbBs9Vjsd/zEi/Ww92Fl2P3AMjz6bD1sKMbC4hVjQXLafkcV4ahTy/DUS40okP2yrqLx9n2OPhwqi5bVwn8eaYTDTyzCTvuU4axLivDRV7Xw8zoNLMZi9Yn2+9DDirVbLfPzjj7+YPu4Hffbwv/o4Ze19dAc3xzEzFf0sX3ynSUrazGP4q2P6uG9T+thyYokyP60OtPHRFhf0Ucld3Xh10tWpj0zVoyHRjkelqwaC+1//+XDxnozrF7fCITY6vXHw8GmogiffVOEQ44rw593LMMd9xdhQ70Iv44VYd3GIqxYW4RHny1j0taBRxfh5TeKsL7WCOtrZRif2BzGGuPzjj7Wbkzwf/5tEa64oQj7HVGGC68sw8dfpLn5/avvi3D+FWXYce8yXHhVEX5YVoSNjT/e+s5kz65t7fkFbxXh0OPL8O/9mmHX/cvw7/3LcPalRfhiYXec4RcOHfRRm4f0MROcVPfOfI+gD0JrRR8zx+W2SI+/bkrzfuG1Ioap/XOPMuyyfxmTg198vRGWrWzEtsEVfWyf9NETTa9PuCmaE6Ecn4iy6e+EV9nCK9bWo6VNnGP1+uPgwCHyy5pGeOH1Ihx0bBn2PKQMjzxdhLUbKSuNsOrXRthUNMJr7zbib//YowyPPEMwrAcMCHPZWGsG3VDmE12s3tAI6+uN8NIbSSjf+9AyPPhUEZataoRV6xth7SavehTU/757GQWztz+0GdLv82kucwULPG1sNMIb7xfhqFPKWELtjgca4bHnG+HY04tIDzfdVYavF7VoZf3WfYEeCL7oY1N9/tHHXOG0em6iEfThgKroY+ue2V5ow5mybqwRlq5ohEuvKwPB9ciTy3Dp9Y2YV3HESWV4+qVGWL2+CCFMhLGKf8yrs3W+0OmKdWnvNMqJQIBd8WujXXYN0fK6ZmMRlqxgok21QOf9+2quzBTDuGrDWFizaSys3jgW42nmPeyzjOPla2sx3vPex1Oy1hEnluHplxsxIUf8EXyJieXWkfBEO77h7kb4dulYWLm+EQ+fdZvKkEz484M+xMxY/6WrUhLaP/csw8HHFuHND+thXS3BaG5eL79VDyeeU8TkrRvubITPv0t0Y4ztnVaWr06lxO5/vBErNAgb0TrYnlL/d98jymitf2ZBPagTDOcZZ+hhS9jA2Pyijwxj9b51vWYbF+hjS9jAbNFHK7/hp2pvb9mns73unifhU8z84y8IQyrDAUcX4cGn6uGDz4WuFeFvu5Xhypvr4ec19Si88uDMp/NlLnBWPfP3vEoiNrzUWmEDzvv2vyi8crEuXSmGcP4nIThwCSViZz79NnWMEs/4wuv1KKRNlyW9LcxxWDDGYPn18FQPV9+aBDhJTG98kCoKwKNnCab/+Kt6uPiaIsaOXnBVI7z7aS1aZSc2p5g1sZHDgmum42S43/yoHmMzxbtecWMRPluYatQa39xdp0SY2NddD2B9LcIr7yQB1+8zhWNbvt/8vVShINTvcWAZTjq7CG9/XA/1zWNRmTnwmDKwWrPGdlYgQA8r16WY16rO6/ZNS932AfpIvetnJ2FLuTxKeH5V58Dc0SQDgjPn9AuKsMPeqZOjBFq8WG6FUoYnnVuED79ohLLJc1PGmPpudFR9N3frONe4J7iCIQuvlNL2v21OeF07VguffFMLF19bxASjQ44voitCqSeJSF98XwuumWvEz4fnE04k4xBIJODse3jKxv/0m98Krxj/N4tr4a6HGjG0gMtYTVjug81h/gmvBCmE/cATjUDAot0/9lw9LFq+1aoK/+aPkS54ux4OOqYMO+1bhrsfSvVts/A2H9ZpLmD4uSW8fvilvdSISsuFVxdBi+BNzXT4aGShOoVqDSo6gDMrDpXwWvGYqeh2toRXQiqaVD1FwuGVNzfCPY82wleLklJun08FZ/XbcPFjLVjMHn++EfMQNL959NlGrB0O108vqIdjTi+iNfbeR4qwfsPmUG9WwmtFh7+nwz+M8IoJEbK++qEWrr0tWdKOOqUIr71Xjy9Z0pJMbv5PI3aSsom2d8Zl/qyqC97SnKAI4kJZ0ZRDasePA2DxL7XYLvbIU4qwz2GaGNSDmBMxSfOtwxaBHGFfeVMR/rpLM5xwtsz47s0IuLtZZK+9PdV9ZQ147d1UJgwOtlemoakD+nj57Xo4+dykAN54VyN8+V0trBurRRpR//fQE8r4eviZRvR2UBzgrBJet1/a6WXPzIbwms8Epd10DhRbyarHkHHi2amWNVi3533ey1oN6xrrwfLNs4en7HVIGa6+pRE9pNlz883ierj0+iLIrTjjwmb4ZeXm0AyV8DqsNfgjjfOHEF5tCgKWmIdb723EUj6HnVDGg3f1hlrsIPXSW/WgIP1O+zajgIZh5YP2j7Sg/cwFDlgehVVwmysl9eRLYhp/K9jDLzyyaIt7/cu/m+GKm1My13wTXsFqXp8trIXTLyzC33drxvq1Sj1hnJ34ca17Xnm3Hg47UeWBZmzWgJ62Z/owd3h55JlGtErbO488W48lsyiJurIpr3byeXAsLCMJr5QhOK6E19/TWiftbc+fZ0N4td+/+bEWrrs9JZuKp3zwqUbQoEQo0fFnFTHmHZ3b79vzeszG3PFapfXueaQRK7zsf2QZ8b92U+I11sDZI/+CF+yQ45rhk88nwsZ6GcsezgaM1TO2nX3whxBeETxXhNhF2fJCBdT2FPfqN2ECC5fUwkXXFHHTcJFzfyJUG2o+EmxmqKNkquZOEJGQs8NeZUzAWfBOPSjs7/nteMFg4PCcy5I18+zLGuGHnxphYvNELGniMGq/fq7+J3T98HMtds1ieVfa655H6zGeyly7wYU+xHZqF/uvPZvh3MtT4hYcdOKh2/1/xO+y8CpURGjAESeXMbzCXNENIZU1XozaP3Yvw8nnFLF1cDyguAarmNeutDZsWsn4Zin3/7ZCr6MWXuGBgvXiG/UYNibRlKeAsq5uNcH1b7s1w1U3F0GtUefEsNemGm8rTjNtyimgROxzRBmViC++S7wErrLB4IXXG+GY04pw0DHN8OjTE2Hx8jKoOV7hcys+K1wk7yo8bLMxrwQSQqoWn4ccV8RyPnc/3IhMPDOkKNAsr8USP0pyHHxcEe59LBWln0ygmQvisMHBzGLgf0HsLIY5/nCYMGXBLFom7miE3Q8qwynnFuHtj+rx+Z2HILiEE3Ad73kwt1sjvPNREYpyc9SM54vwykL89Y/1cN0dKeb5lPNSEhblZjJFAA3A832PN6J1Ho0oByWBQPeXYeJ9WxkLTghEV93SCP+zQzMeJg6aHC9uT9l3jzzDYl3E0AHCARrxWyW8jpZu8AfCGXpCp7K3F69In7OgMJ9pbZTCK95lr+saeOPdRVTKKVcEp/WNZOi46e6klB1/ZhFefacejR+T8Yf5ikfw2qfWe77CmOECp3W5/o6k7BJO3/4krVM+a8zDnN77rB7rbrPMXnPzePj06yLOM1+Xx5ytd8+lrAuXWrMx4RyccwVPL/MGW+YROQSsl/vm8zVwTjbyysYV8G6TwqsFsileebse63TuvG8ZXb4O1XYGnhdS7JMkk7/u2owJSqxt+TCe60UDL0vW+5/VoxBFO7V5r76liAJB3vzDghNOvD77thauuClZrM++pIjPRxx+a38WYvnxl+RGPvwkwkoRHn++CGO1zWGsmD8xSSwrn32bYqpkwl9xUxEWLUsxrJ1zyvODe/+/+2k9hhrssp/7GrE6BWaVr9te3uEJTr5cVAsXXFVEy+pZFzdiW2C0AQ8ZZ+hVPCHlRzWKzxcm5We+Cq/gpojZ9w4j716Unjyn+bzO1sZeBOuzr9TDqRfoEJdelC4ucXxNLPd8nseohVf88p1P6tFTpKSbRiXi3jMfff/zemyyIf71oqu1vK5HepjPOMv7jiBlH/Iwfb4wKZFoYr7CnveVUlinXcC7pcJAUnQzPwF75js8fLfdl0I7TjyrGV57rxGFx8n49yjnjV6WrqgFYYeSfuUACJdi7MjwjvL5g4yd4aLMwqVz2xowgg0y3lzfQ/i2DhKuJVc//1o9VqvgMfF9MZ46bG0z1QYsBlc2bfqY08ro2rz29iIeuJlBtSPdd+65/f4i7LxfMxx+UhnjHJe1Dur2a2f7f3CBjxVL2AOGqmSV5Cgu22tuK8LCJfU432HBljVHsZ4Yyv5HleF6dU6/T7B0Psf1YkwE27t+j0OKcPNdZVj36/zJBrVp4RGz03BBq1sZxoSV6Zi7+8z5ypuL8L87N8PxZxQxxtdBMRdMsxP/s/kZPXqe2r5xrQ9KQtHCxVtdfH5HE1633pfiXiVvUQAoEPNNeAWnNWaBByMrsTAjYRFq1r76bj0qj3jKdLQym2vR/ixzANu3S+rhhrtSnLpYZPCL5RQms8fBZbhRHebFScBpv3+2/kc/UUHYlBQD/2eayjCMWniljLzwWj0cfkLywKgwwDoNDjhcsT5VTxHjfvCxZXjprUb8bT7vdbAv+SXxYGvsfBC7e8GVjfD+Z2m9O/Gc8T2X7/bdd0sTvlV/Ofq0IuZZMNZ07jX4x3OfWlCPeRgMUk+8kKoRzPbcwE0AfPz5FHqy2wFlOPCY1JyFxZ4g1Y225xLXcAQmBj0GMPQhjNIceGpmG4czxQX6wPfwZ2cR2cicyG8SsR94sh7WrJsIE5vH45k1b0tlIWwvi4M50axPOT/FsbL+sPo4OLshDALci+As6n5cErc1ouZqvG73zMZ3GS4Z7jIwHT6qJdDsFNA/4OjUltUhS4vK188UtjzOi2/Ww0nnKE1SxmQ31rYsyLU/A+4QvmxQZcj+sUcRzrusDKtWbw7FxNxbXsGH0IVB3PlQarigK9Szr7RqkE7jWnOv+T38dCMccFTquPXECylWFq7acfFH/1+oxOIYN9wIR58qzKaMYTY033aLHnw5aMSXU37sKVUHHErL1ozFUmp6189lnVcw2t9c60qnid0Fq7j3W+5pxBdF0aEqDlI40ZeLUmUKGv98WeuMa0mT4s5lzuNjLIjWQJz6Y881Ygtn5YesgwRW+8JrNuahxra9ItyJhermexrhsuuV1WtExRdfMQ+wjFJ49QznwCNPp1h+BgGxryzsmY+B852Pk9fAYXjhVY1YTgutzBa++lkTuHMmUFIo5uhVRyqexD0OKWMirfPCvDoFwn6eM4prrYWQIyFcf9u1DJdcl84y69SJa59d/8b79XDESUUgvN5+fyMK7X7rvH4U8BrTc+yrl96sR1yLmVZhR31zcf4SnCX48n5Ym/lwRoCD9VGSLUMCwxfBFezKj7FYwvl8o49uawj/YOVdIPvYw1q8U9S/W1qPczQ/wuwLC3TYGo9rNq+EV0TBtcDFl4mEgCI+0aGKiK6+Vd2+7qWQMmIy4X/dyj41cUXXMTDjY7z52tl8JyhgSpffkDLjCZIffbXVSmSeux9chv2PTMQHDxZ1pjAiYDhxoDvMbUS1Wwkek21E91gDWv+fdizD0ac2w7KfN4dy8/wQXh08rGrnX566P13GVfjlb2vWToa3HBfE2kg40E3q8hsa4ZOvk/Az2X1/xO/hUewqppEsJaldI/dTjrM0b24on9UJPufyFFt46XVFFAJ+WTcWm1jMpfBqn3i923IfqzSiRJKkRN8T+DJfQTeEwb/v3oyhI4RCc5tsL8zWuuNL9h0epbsZi4/kyguvbsSQH2vld6+vf6jFUoBol9KhMYv9Ogx+0ct8PceBj48ccFQKNwErYfryG5MnI/PhUQmveXy0Sngm/MT4yo9+a9hwHdw9+VKK99/9oCI8/kJSBPzWy3xn8xoCnSRjXkbhULxx4KSUXXdHI+y8TxlbNisNSYBp36ezCWfns3K+Bst2Pq8piOiyG4zmhIbUjRayhHbQ+vufp/NqNmjZM+x7XsYzLkolvfC1T75JNa6/XSLULlkBjzm9jAKueduDnfOfrc9g9lLPWMdISbSMYBo1qW38r73KFl+bPTzOZO7ZSCJ8hICqQ6ZOjuhjY5lkpnsea7UTPnE8PP1SGWlq3givJvD9T/Xw3Kv1aBVUJP2si4t4AIm7ZG2lbVo0hDMd03GdjfHgk6mLh43BEru+S3b9TBDf6702MOYjloamtN+RLD8peQBjdbjaQNxaOpEooG+O082zl+dnfN37aIotYoaHZ/HCkx3Yvvci8O55aBGOOKkZ3v1wIvagXrZ6brNB4YRlhYXlwKPLGIN5/xP1aPHpFV+uE0ej1q1DT8ctAsOvteHgvJd1mQ/X2CMURHVylU9TcoyXQ9i4YrpuAAAgAElEQVSIPZRhhC+fKV/CM+wnbtoXX08tZFetn7sOW5EeWHA+qEf3qv2DiTt4zK+dxv1vL2rE4Zod906uTa4qv/VKPxkvw3gngHg2WOFXEqrYTThWq7pbWIBrCS+8KA6vux5Obs32uQ4Dtm5jeAZaYDEThwtOzS3wijMuTK5Wh+mX3yehcVTCa6bPdz6phfOuaMTa1eIrKaHw0w47hYCh4PwrG9HjRViitES6nkcCLNzyukUaODwZGvBq/A7dSlAlXLHGn3ROGWMyhb+0z3Uu/odHOCZ0Z0FUQxOKonXKa9UJW1TEeNAeTMqz8ozPvZbWZTZomVDt/L3r4Ub4557NqMCnttgJZvAtXJqqF/1t12ZUenlErEXnXGbrM5h4PIQeOsslpStt6Dx//YN6lJkotRKu8Xbzmy3Y+n1Olot4QRlPwH3fY8l7A27nkFyU736qRSs+wZz3TCxy+1/ssLVuUxF+WjW2RXBClKN8sYIRXL/5sR61B5L3IceV4a4H0yH65XdbBTyTyVaz6WByHUsLV/J+RxRhj4PK8NBTjbiIfrOZphtjmL9jPjSl485MQey06R9/3moptECSjy6/PsWucBHljW8TzwQW+HX/NbcW4f/+3QzHnpEWPyeudBs7W6KUMtFl6+DjmuGxWMqk2KI8dLtvNr6zfjYwtwLhA8FnxaTXdTUGheGZBckawzr/mFihVkjBbMxjPjwDXX69qB7OvCjFskrE+n7p1pipThgpf5i7sAHJGEqvoa/VG5LwumGsDD+tnkX+0RJGMTMhLrwzp19YRsGEItKNHuynvB8pxcJ3KMss93hMt3s68TCsz6xVYPHO1cfayvXHI8AzwFtDEOt8HuuctptnXVxG5euS64rw5fdJUJgpv+h8Vudn6y2mlBClMQgrdnp2PdxwZxH+uSfLYBkFGXsMPaz8tR5Y5odJH/Yq2IQqaLzCxU7oE6+deV6GPVv+Xn6zHrvw/Xvfra2OO6/N98z2ez6zXn6rETTa4T51DjLqWNNMCy+9mUJ89jw0CSgS0Kbi5aOeB9q1Z7wYi/BSzW3wVrQbf5tEjrCGYtN5DghiFCFGFrgg2IwSdnAnulCxphH+b5dmOPq0Mlpdo5FrdcI5vL/5YYrD3PXAliekFbY4SvgmG5uSwPvM4IBGJF+TFdDIz2vTHvzbbskj89GXjXjOTTaW7+EhnqnCUFqK6VTXD+s3z0Ufb37YiEn4+Mbt9zXCL+ta53CLZtABGnnu1SyL8MAX7bJriMLrWKMZ1m0sYicl3ZRG+horY4zcL6tZGMpo7ha7+MFnZWwT12iWYVOjDBtq6bp+YVHw+L1PinDqeWkzecYPS9NYYvP6HW/Q68Hx4zILkwQt7qDX301zW18rw7pNaY4/ry7DUy+VQdMFLUyfeK4Mv46l3wZ9tvs833yvvqUM/98/ynDCWWVYvLwItXJyHLjeS+kSAs2+RzTD1TeNh2++T+PNBJ6Z3JvX7dsfy3D1zWXcvOdfUYQvvi0irfQzNrx8+HkRzrwwdRK76a4yLFoy+/QxFcx5Haa6Zia/qR6x8McyHHNqGf7fv8pw/R1pfeGm27ibijJ8+V0Zzr08WbyvvLEM3ywqw8ZaM7YPrhfjs8c/NqW1Wrm2DDffXcZOPYSmj79s7Zlp9jjesuDNlBRAaX78+cF5TTdcTfad/W5dPR/+v/pOhnyKW7P3ucXWbihDrSwi71u38fdrYX1++qUI9z/GzVaG488ow0tvpPvwy8mePdPvjb3q1zIseCsJqNpM3/toeq54eDxLd0OW45ffTPNkEHHfxMTmMEz6MCbc3Pdo4gPCJ/DVNevTc9vnCudwvWxFGS67Pp01Z11Shi8XJlxlvtJ+z2z/D4Y1G8pw/6PJms4S9f6n6KBtPVvnwbMLEt0KM0MvEdZp6H0U88lnF1p+7R1hG+mMu/OBIixZ3htPdu93i8Whl+HPO5XhutvTuTcZDxrWPPKaf/29KhRp/112XRkWLU17c8tzxhLtvPpOGQ48tuXpe6wMK9bO/Gze8ow+ZC30gGfg2f+3SxluuruMHlH4QuPPv5ripFUwevy5MqxY8/v90P7czC9WrSvD6l/T3OvNIsoNrrPG7dcP63/rDvd4H6XlnEvL8PEXiWby2uRngXH1+kQbeLW5tf9F4XXtRoWcx2IsDXfWyF6rknbMTXbbvcmdLcHiqZcb0Z1L2mYyHvT5tANjKJkiZoWl6OxLi/DmB1vdg4OO3c994GBVVZtWzVQW4Eee/W1IgPGY21kAuCRYX/6yczNc3upkZB5+7+e5+dqsJUlwY2USl3bBVY0gHhhc+brO93wfF5Z4MhreSWc3wxsfJG1a5YbOe2bjs64tnk1TP+GslHwjyF+rYFnFvcIAn7T+L75PsYNigU86t4jJJ0mD7X2sXp/Z03VovuWyN59sBUQDtFSwRVqYwd7IcBibRsviJw5aCSyWK9/DTb6u/R0cMVHuwdSNi8VLEpf2wZtDamKxZNUs8I+Wq13ctrhLWc37H13G2F08Jbuc2mH/zf+ramH1JtZLFsRW+bhLeXsSfuHgN9cPuP9+N0YrsQodc6sLC9jrsJQAJ4Tl28X1uC8jnXvmJOsc4VuVLELRWnuAQyx1PrNGk933O3j6mRecbUzxtmLMWbm58N77NLl5V7VCGU69IAmv6nzqfrd87VbLq0NpKPTh/Gi5FcHypx2bkR98/t1WN2nnXO0doUISzMRDa1nKtSrm27wyzuyv9lfnOKP4jN965qff1MJlN6TQBmFzSk6xtMVntmghrwHYtfkmtD//ejrXzDHPYxRwdo4JbrQoBltjIHHkMsWtOzgjr5qKxlo0pcLOpdeVYae9m+Hsy9L9+QzqfOawPkd6WLH1LBGCI+5SSNFKtNWC2xxYJvEaZzdZwnn40NNb48zztaN+jzhZi2enGFBVER58MnmM8GxrITxG3LnkRC3QWY1Z5n9zZreFhfEIX3ubRhEpBOGiaxoxdEO4RN4Hw5yXMc0DnxIugI+AFR83B7/9hm7A2gpjfOblIhx3RjPGxnYVXpeunJ2YRsITBi5x6c87NQPXl3IVJpWRNpN3xClWQiIUwjzipOTKgCC/zWTsXu5FSF7vfJoSgwgH4oEEg3MVdo5hs4tl0QOa61DGJtchZmSczut7+ew+93MriGfk0jE+oTQzl8nGQUSukdxA2wG/+CuuwExgk907qu/RhjlJMEL0h5/IwlMPy1oE3s9z4xxWpdAS9AE3yirF8JRZoI9usILJYcUNzgXLJeswkDGPsToUMKFh4N8+cHA//HQ9JlgcejzrYxJeJ9sfcO8lcYvgKr70xrvqMWFL+2DCiRjHbnMb9nfwZL9w+WsNTJCijDhoesGPebgOcyf8/muvZsQ5ONHAsOHN44FbbOBp56fYRUq19fbMfnifvSmOnufhzzs2Y8JJPHhb7tb8vGG9wxX48CTKjlbBqjigFd97p0T6TigPD4/yhivWj4VV61PYwLDoAyzWT6iVvSHuVxUB/B5+J5szF7D9IyaXgeDIU8rw4RcpdMMcHPJ4s3f4dUa1H6iTjTvT7/N+E/6E71OmlUhzPnajCfCp+5oSD1PYCwGyV9qfKbz5fvgRQqL0oph5me5yESjF8Javm+rd/H5YVg/3PaqUWQpr4yImLPY6xlTjT/ab59o/Yvjxf+XnGJl81+256Mq5GZv3HJJi5RlR8r6Y7DnD+t5zwPX5d/Vwwx2pNrz1z/H6mZ8xgj31Uj2GQzm3H32uEfeE+9thcZ042etuL8JO+yTBlSKoAg8jmzhkskM3+msfp9//0TpY8QZVlwiu196aaH0ymQTsXkt/boZ7HpqYW+HVBBCnrDKMkCaDiAA4LGQZy3PEEImHspB6Kc+WcJLnccNdDqlmEBLx9scJJrB1LjrCzNqd0iHwIk6XJSmP1XnPdJ+NiUBtMvG2zO0sPA59xDvV/WAUW8dSccDRRXQHyh6VFd0N/qnGGtZv5oO5UHT+d6dmZPRfLUoHziDPML9Pvq4HmaTi9669PZUdQjeDjDeTezzTOrO+XHhVEXt+izdmnSMIyDLWUIHls5vy0++zPYtFnoUMXWCEGIq1xVwmGw8TJySIyxRDHdsHL2+EzZsnont4NoRXuFIeShLnkSenbOBb7+2ff5jLD8u0C26Ev+6Symp99cNW78xkOBjke3jFnCmS4tQoXwQvXYbAQfDoZ1zrZ2//52Fx/enwfeaVyQ/ffsbuvDZXQiCcwjN64SJmtbcWXuaHt4qTJ7yKRxcDuXrD8IVXz8MrI187I3nWHLYEqal4ZYbVGvBEWQPKoc5bBBPx3HicUCkxveLglVOzH9zbiZdhfcbXCArKY0lClaTMo2E+fut8Tr4eb8bXKd6sZ2qsoqXO60fxOfMIPAO8vHp4FTqYag06YYHXn1bWw5vvjYdTz2vGZGbeNIr1KJVIe9HZetXNjbDTPs3I/6ZK4ovzUnt5ceLPf9s10Y4EQbGifu+c2zA/5/2FRgl94oqvuz21N4dDv9unzgYW+2yscmbwSMTfWzBaH6WpWJKV2GJNlvTlbJFvw5Nhf+Dz/axlL/NFu/auhNm/7lpG+v3gy/ScyXBob/gthPHw7oeb476dM8sroqQ1m4C4qdMvKmL2LADzpugFEdNdw0oodEBIwl/+3YytRH9alRjudPfO5HcLlIRGvZtTTAfLGcFrMu0ibuK25gDiQDRjmEnGYCTS5bUoBBOGWZ9pYuCIVogOF1n7nK0FWGWf2wgUDPVyWbcEW09GaO1jDPN/dIGIWX4cOLRDFhQMezKcTvd89zmcrrgxJe6wgim35Dn9ChPTPWuq3629FxcOXLMkEWzUTETDanmyfIsl1M4Wbc1kn+S1jV2zLkvar0xtVii/TbW2maZYv/c/KnV8evH1RqjVZ68Dm3UTYkPIiPFSlxXRGgzH/eDFXOwFhe0VJZew8fSCtD+6CQ1TreFUv4HJnhGuow0vSwd3PyFKYulU9072mwOThYulixv8N27PaRTTycac7Hv04FBk5YkNVQ5KYQoOcnPL9EIZRFNKE6riwaqj6oOErfGJ4VnmrVsuhs/dGbPUX037opd1c/4QjgiqDBt7HZYaxbB6qqlKEMYTxJ0edDTvQhEFAPfluU6Gq0G+z0La9XfY+82YJPvB50lwnex55ukl1IenTuyzWqSUOrxkEDj6uQfdEvYovZ7PoPDpN1NXF+g6/pqxsGJdPSxZPhGuuG48Kj2s6CzJoxTEjc01jt/+97+aQXUEQlVei26wwisXNhrHn9E4IW+quvPdxhnkO/sMzNzr+x6e+J6zHH200wia6OpRa1luPTsLuPgdemM5dx9+Qjl11jOc4C3OmmHRk30Lxzx8vKZ4lj04Hd6dx+DeHMbDV99ujl6mORFeIVomsNI2EhQwcggzgc6FGGSR2++x2MzsF1xZhF33b7ntv65HRPRzyLWP2cv/nsvFS8iS+XfR1cli1s7oO8cxd7+rvCBzWjZ3doUOamnLTPrOB5Jr5LgzWEtaTL4HBofYPl2YKkHQzsBD8wPnKPHXiRufwUJTVmWAi5sl+/EXehPEu42Xx2SFfujptJkOO6GIbnS0OJ1wP9mY/X4Pj4Sx9z6vx7hb604ooySYMwu5eccCzgenOngsTmhi0DVAa2hUuSMHP8GY1YRAMN0exMgwOdYqFoDdD04d2NZv2ByK8dkJG3Bwsviw8LH4yFCGq37xkeeixMxpFyYhnsBFYRxUIeq2/g4GeKWEEJZYOx5+ph7bIIK72z3TfWeuxhRyIHSC2xafU4XA2k53f6+/Z3rwDs8ObEIdF3dnaTk4I8CoZc0dSBl840Mx0fUwsXl4wqvn8LiwjrKeEiDUCzWnXmnAvrL+BA+hI/CIro1NYZRx7vBmXGFFJiSybPU6fq/4dR0aIHAQoHiU8NnprKjWAywUCMKHRDmhPM5V+8Pv/cDQ67X5uYt+qoXbH0jVBfDNBW+l+rr9PpenZs3GRB933T/RqiueBOFBz73p5pL3ztsfpQofaFqYhvWfSng1rnvBJYSO4oR3RktxK9a+3/lPB2v+3XOtK28s44YqKTxPsTJCx1qjYfIHpZZ3TGUCAqC54UWqg4iRxz8JsOg804wxhXI6710zE+NZhj2/g4sxUb7K33ZrxnykH5ZP7+nKwmtzYjz89PNEDO+bE+HVIgBGwLOF3/vQIjy9ICHPb3miw3i3WJDvYLYYFtNCIVKLOIxndI5B6OGC0qXDM9V1ferlVPZmOg0GTF42EiZ22ImpHqHDCOPsfNZ0nxGL+TtMBHfTFrkU3NcLrsHCdaA1G82+l7jI6WAa9Hc4MBcH1i6ttro0/17n0u25GQcsYAQxitSVN6ZQDbjrds8wv8PoPIdFS7wYJiphg8KFdjN86xupS5BD4l97JGWPhSX/3i9MnovpvfBGio3acZ8ydjIBSy/MFx27TvwX5ey405vh+x82x8xopZH6hafX6z3TnFlLaeysroceV8SEFfTRLz6MZy4K3Uc31i4Sf8roFcLMe4VruusIJ9x0lFKxlix8hK+Z0pj5Ll9dDzf/J5U6E25kTxC+poOp1989wwuNUsbxNOE1PGedB715EqYIeoR0NI33EV5zQt8wwkrM7/Nv67EklxbPmteYz3T8tXPO1h/M1sF7wmfCnblRGtWdFAdIYFdbM94zxLMDzM4jnRcJDYSSG+7szW0OFtZu3iI0pZQTXi8RMe/RzjnP9LNx4YYiJmFMCIlOT/ZkfGaf5xR6WL2hHsOOnn5hPOxxcBEOPSHVe4UXY84U5s77nWuMFhRIZ6ymCkI2epULoudxbSq1iC5YnoXjZSuldel85kw+G88LzARKCpu25ryQ3QR89Ix20RF60l71lXeTR9FZQvDWDMlv8jzMG+3D9Q8/18NVtyTvn06EwurQ2Ezgdy+ck4uEh4rpVhpN2Kjvp1vjLLzWy/GwcWwiektnXXjNCOIe5Wag1Z53earpakMMe9EhxqZ68qV6DMg+6Ngi3Pd46i6FWc10QTrvBz9ieukNxJHibLkkIR/Bd17f+dkiein4jTHYVNyYcVMMINg70B2SLDJiJlkoECM4rUXn8zs/5/VioWPmJ9zZpGCE287rR/lZMW6wsy44sK5xYPUZX9UNPnTH0srameNouaxmKlh0e1b7d/CHBilTXLEYoPirGMPbYTkDo1hYncBoy2df2ghvfZjw38s6tj+XEmT9uZ3FOWGEDgyMBJPqZQ96Jvhp6Rjj/kc2w133j4dvf0zup17GaIep1/+Ni/Zo76pxCKNA07rnweUgzzUPVrh7HklWRUKXLkHmOMh4nXMxPh5kHx91ahldfvYQgdm6dl7fz2e4sMfxi532TVULXnhjuGuQhTqJWP/asxn5wGTeF/DgVWJhJcCgVUr8L2sVFR+O5TXTwKvvitcTC96MByI44bof/E13rYQkQsDF1zS2dGT7+Kvhep7AzepKiBDapcarLGw008t8nCvwTrlgXGAlZhH1XS/3T4eD9t8zr+E2Z1WnbLMWC73qJkS13zvZ/4RXCX3jmyfCOx82w3FnJi/hbffVg/hzcxjGPmx/vn2nPTrhjiAVE5/eaYWL9SgsWzdj8oKJ+ZVT017xo/15M/0/8yJhXaoBqJQhNpW3ods5Ze0JpK++l0KK8HghKc45cdQMJM5yvNtaZuHUfXCT6/VS2nhqo7Deg/wy2TytH/ogbOsKxmgpXtdZl+c22b2+z8JrrRgPsT3sWvGvW/+2lMoaZbUBgOaNhmAIeCmeaDREmjcbyxrNFIEReizgTA+OTmR7lhf302XXpxhF8TSeTfDqZQPmMTB/7twcxzboJubW4xYj8P1ph2Sh8Ix+XOIIm5tBjB7hTgA4Yho2Y+zEZ/tnNONQZKF3YDkUHdi+nykcmJD5SHwRBE+QhP+sRbfDMaz/CUvoIQquJ6famBKnHJSEkc7nmCealQ3rcJPUgcG4rt/5ey4aoAXn+KbjTi+i5Qcj7IVOswDs+ZRBgrc1weh6FYA759jL50y78KamKyug+ETWPjgaxDthTPfqbc4z4zC76T9iu4fDk6ynrHFVARz2Dh08wnw9u5d5T3ZNxMf6Wnj+VYlrZYSdZYPL2W+9rOVkY7fDh4exulKAL7u+iLGC3ejU89Bjdg2qSHDVLcMVXq2V+bG8s3qZt4L4vveaaj79/oZP4gOPP58SAxkTMn6z8NLvmJ3XqxzAo6SJDKHEuSiMBU/qdT7Z0kYpsg8JU0+9NPxscc8hVDtDKUv2C4EkwjogLUfhtRUT/e2iZhLODk1KqWTGXnlSJ16n+ox2VfyQOCnZTZa9czLzxqnubf8NDbiHd4G1WKyo3JbJ+Hj7vf38jw48h7Hg5PNSRQDe5MmqURjbPdZFuNkeBzejYsOLwAAihFIrZQl/2erqnswLhQTxRJLPVL3hCbSvwdAP3Pla95G3dBh1VsC5igi9rq15GIvw2ijHYxmzraJrSE0K1HkdtfAKCU88n+JFHMIy3lghZsrIM6I63yHNwc9CIzBbPBFNtxvz7by3n8/m5cVl9u/9mlHIYsGxcL1YXT0LDrwcFspqYUT6PbNUm0c/xONalgOdg1hBxL6IjTJ+P8IrAhOHe8WNZdjtgGbMMmd9yPD2g6NBr8UkYomQO1P4BwYv5jHja9Bx3ZcPCLUSxeJQGFiZZFYP64Bqh8+YNiNB3GHoEMCIaMWTMYi8+T9bmAQsSgSGi/H0q4RFelyrp3iqcYrGWE8cFP3QmHG41tX5jC7LA/S1T+W8rIvf2+c9jP+tFZp+8KlUvo3w+uIMLY0ZH599W4vuZx4PZazeUh+xR2F+qrnhM3ArfEhFAwoD5cVaT3VfL7+B3Thvf1KPQjFLNLexPT8ZLfUybr6GYMVVaT/Ai5AK1VuWTpHEwcKCv+KzFGZegh9yNYoZllIzX/sH/7mizfJOgBoGL8jzzu+e56WLVc5DOOMiiZRbrVX52kHf10YDQy3uIcI+j+TCpWk+nt3LuK6z3oQm66+VKV6m5ucw6AAMngH3QhKMzfvlWXhZvzyofU6E15zQt3ZDMyqjuxwg3C6VgRqFMizsRLk/sefiR2+/r4jdqdBQO2y9/I8nqQsr7IAbHk9SpWKYxg9rCBYWeWeG8LFHn6/H9c7nVyes1isnHSt3mfOLtFgVPmjPuDeP7X7z9x1rLHrnGXc2kEf6ORvaYQGHcT/6shaTIQn4eINzA2/0e/v13f6fF8IrxDgQaK9cUDRnLqhBEdNtop3fGdshz0zNpcKC+PYnCWmDEGvn+D4bxyJIljj38kbYYe9mLHdEo+4ndi4vtAxdAo3NIG5MH3OHdi8LneGDaxvo2VfTwUlIYa3MBJqvm+4dw1r0Uz088FgzHHIct04RXugj6Wu68af73ZwRuaQKmj6caOdHuPRbPzjp9qy8dlxfAtsxTlYmCsOgrrBuzwFnZBbrarEMDkGD+0RYCfqcrtyKfeNwElrAgnfK+YmpeFY/dOxaLy4lngHM1t4gGFvrfvCZn8tqiaHaXywPvu9HQeqGr87vwGXcJSuU90qHjhJnLCg8DJ3X9/o5W5F/WikZMMXhS8R46Y1GXP9+8NH5TPBSSiQWCkdgyXj02UZca7TQeX2/nzNNtddXtUe4kK1lXp9+x3W9sdHcx1+nxilKA7G4OUimWlv8Fp2q3cjCo/nHB5+l9sGb6jNL6MswSUo6+ZyUcc1VK8zHXGeyVpPhyOFuTowS6NuZpUXrMJ6X5/POxykJVRLLrfelco7tQsVksLV/73owsQIqHwdOMPNKaHjSfu0g/xufUsLjIzzBfhd2ZKx+YW1/PuFVTLRqFONBmFw95mdIQFMurN9zr33sbv/Dub33zCupQQhvrJhdvH6Q/ZLHE9NOrsHTlZYUV+rcGmTMTrgzfu+4P9XT5UkVwxrrm08jcOd7KVzC/5yjvG7deL25gBfN3HZ/ah6l6sArbw+uyMO1lwoDhxxXRj4o3wmP6JUHzgvhFWIgSEKSupqKRLMSzOTw6Vzozs8Wj3AgS4/WwqVCE2GNzQvbeU+/nzH5H5fXwi33piQSC871nK1p/YwHP5glEzshhYl9kOYA5oZABKWbN3f7dEXou8GJwJauqIfX3x6PXbaUR+KKMDYLUrd7hvkdfNC+WUYxBjiBm9U9am29wIIurSFXpB7LBEsCQD+Kx1TPMQd49K6ywd6Hp64i9z3Re+yj9URPT7zQiJZ0jIDg60DBiKZ6fvtv4PB68sVGOOz4xExYDVjYfN9+bS//66z04/J6+M/DzbDfEc1wxMniZ4fvssxWBFZMXhQu1suvT1Ywa9cLrJNdY11yAttuB6W4QQeacf022X1Tfe8+ayb8QBiCcIRTzi1ilj48D+NQ84z8srclsLFsPPFiKkw+k2egqZx8xUOmzB5XtDGnohP3cS3f+1g9yDHAb3XGGavNvJSauRIy8NZ9Dk8uX4lD4PHbVOsx6G/mS7HED3h8KHtK9DFUWN+ZPBdNw5WSRxJiKU2PPTtYCESmA2smoY5Q1hnTOCgO3Afvwl3OuTTh/ZJri/DJt/272jthyMJrc2IiaDH82nvJsouOKSbmYw1mguf8TGMYy5hCLPB5pSzlqDhz/Zav7fedoCqOVhMg55SwP0o9Gplqv/TynBxmxtvGe8wAR2ETjtjL/eYNDvzMayp44rUMLC8k49lehxSxPNegwr3nwisDCe+vhjDCiuCrF9hdM+fCayYMm14rObEP4r9YfPqZSK8TztdZKJOP8SLnJrewlqcWv59DP4/X+W6xjfPxV2nT/d8uzVgjkNVzkPGNR1jTOcqBhwkRqjzXb53P7/Y5w8TVLpYSw2Vlw4CtQ16Lbvd2fre8VYdv0ZKJcOEV4zHQm8tuulIuneMM8tk8wEpQloSAKbAqCBnoNY64l+d6hk1NSWBVEPuqMxsFx2+94n2yZ2GMQmMI/UoIsYoQYilVnjvZfe3f5zWj7BHeBFnkrecAACAASURBVOE7QPrNWv+lxUzRFMWIO5slyRwHmafqArKF12+cCDfdORFY6ByaXJaZ6bbPY9D/CRD2FMXl8JOLqIxZI3Q4yD5rh8O8MWcWvWNPS4czzwcLxaB4cZ91J2yfd3mKRXT4YNx4Ul7PdjgG/Z/gDXaWXW5QyWdwMugzwM6g8OZHKeSIwqiyBFxPhw9zQ9fiklmB9z2yCHc9WIRfN2wO9ebMLa/WiVtWhQzlwSTMdCsXNCguO+8zX2FfeEGKHyzDEScmJWQmPMi41kisZWwU0kocYlGzboOsnXvgh/V1r0OTl6pbLdDOOfbyGZ8SI+ks4XoWP+m7QeBsf94W4XV8ItRLnpRauKwVEqIRyjBDQuCcMLUlYfyIVF6OW9z3fm+Hrd//yTHkCnD/Y48UosgzFGloQME438sziO//Y48ynH9FEupZpfuFcbrrPc9+UgqRt1bpxvtbzZ36XWvXG4/Sc+5lKeaf7AdH/ch8PQmv6zaNLuY1MzWChxi5fdURu6sRC3dj8tMhddDfMwLVHxRPRABS4UDcFOvdoOPm+xA9Nz8rGM1ZCYgnXkgMyG/5ul7fLTamoAYd9zUNVCkYBet7zfozBsaIaK68aWtW9iCMAHNZu6keinJzFE7+tGMSTtSR64cAe51/+3XWzgvciJ+mrIg4hmB+5tl+/aD/G8daacggxsdzJKbI5kS3M3mO+7mUuMBYwPc4pAz3PJasK+agb3SvcBvLtZpFKLnEaqAKAWWn1zHM03N5P8QkioVSxWHQ8kp61RNeQ9gcPvtab/MkFF90dSrZ4zDtFbaprgMzyzOeQXBXxoXANqyi7HgQulKTGdO+4KpGeO/TtPZocCrYuv2GZuwPSvPhkjkOLsPdj6Qs8uXGGxLterbnKJGllzmFRCMEyRxg6DXefsscWkoMRQGdGu/Ao1OJQWs53V6AKzQNl4wTu+xfhMuvL8OqNTOrA+y5XgRoMbjRunV6EV2h5j8dXFvm18d+y/cYmzD/4puEwmSZVx1gJjzImGKKxV6edVFSaoUEiSmFw0Hm4x4wKYdISIjVfK5IDTwG5WPGVJifwAHv9sbxZ5ZhwTvDCfdrF17HijJ8s3gsWu0p+CrcPPXi9Nb+vE7TvWf8SEg68awyyiAxv2FRskYOgvP2Z+Z1Q/tnXNwKH7w61Y0e9Kw0JmUwhsqc1yqldkdSJNFP+/OH8b8wKrA6C5Vus/8pV1pPw08/OEJzePazrzTCsWekUBYKYL8Gh2mF101jIRBef1k3mjqNNtWSX2qxVp54GUIe19yiaVr6zXRBIBsBLFtVj8kSNBfWNdrWMMIVaD+EHAIxQVMZCgxoy3P7ZJbuc5CyUHNB0HQFOE9WnqYbfoyBAAl9W2oH3tVywfRJgFF43dgIE5s3h+dfGY/xPAcrst6KWxlEQO8Gc7fvEL8XF7c1EzfIYqml53Qxot3Gm+w7+PKcyKDvzTWBUyF2dBvpp8919CzjojGCRe46FMthtWL0+h03C55iq/69bxljiF5uxd/1MhZBxnXfLq6HS69PjTBiAsrCZLGZDD9TfY8+Vq5rhPGJzaExXgYtSnkMCBcUusWtbmBwMdU4U/3mXgqd0AZWjf+RCHRJES3yvp/J2Pm51vmbxfVoXaOEcvtxTxsbbeTren13H4WA+01ZGp6m5177fWH/Xseb6jr8gnLLnU3xsqavvzcY7ObqUHz21VS6yXgOHK5Wsa7T4Trjy4FL6f7fnctwwpnN8MuKzaEZBre8oltjSzTUDY4HQ1JrLhc0HVxT4W+634yNn7Kin3lREiDUBc5tN3vZe53PMKawJK5lygEhgSfBdXmunfdM99mY+V4CA0u8cfFq+2QQOjaevUF4Qlfo4epbUhMB/GimeG8XXjfWyvDz2rF41kmmYvXj3vf8YZwzkbY31sKjz9ajMmkuzpYcOzrTuVgfe8R+tJY8A3iJOF77IYc+TbeO7b+bu9ASYUEqaxx6fBEeeCopwX5rv3YY/xNe0Up7aUZKKHkp01evz4GH6DW9L/El4Q7onWLcz3pOK7zSdO68vxl++nk8dkMpmxOhUU6EYkivcnwibBibCP95qBmFvFPOLcMnX4yHWmMieNawntN1nOZErCP33Mup/ZyYw7c/UDNsIr1mMEedYz7/ajzGLImXfPTpZmgUMxi3mfCxbv1EePbl8SigEPQXvNEHvM2JIIbosy/Hw/FnNKMgcd+jzfDrhhZcfeAbDVi7zSGE5Ss2h+tubUaGeM6lzfDdD+Mx0L4rzmeA0zweuvC65+Fm+OsuRTjipGb4dtF4opc+5pDHm/S9RQe1YiK89vZ4ZPosLC++Oh7xGOlkkPk0J8JYfTw89UIzJpo5TN54bzzS4kBjtuB86z3rmoT5R55qhtVre6S31p5e+MN4uOCKRBfX3VaGFavH4xpPip8p5h7pozkRNm8OUcFZv3E80q25stK88GqaLxoaZPx4Twvuz74eDyef04yC4F0PNMOmeqLNgcdtn1dzIvKit95vhiNPakbYn3wu7bmBYG9OxP127yPNaCk+5tRm+PTL1n4ZJu3an82JsG79eHjmpfForWKxen5B4kN98dYWfa1aOxGuvbUZQxDOuLAZliwbD03r1yPc8CUB5+GnmuGfe5ThsOOb4euFmyN9DHymtGD74NPxACZxuGjg55UtftC+liP435xWrh6PiasEklPObYZ3P+yDJ3fChLeNT4TnFjRjIhjLvDqn6p32iufJ6N6ZtGjxeDj6FG3Ry3DH/c2wqTbguC04X38nlVva76gyaCawYVNrvB5pYjJY2/nH+PjmyG+X/TIeTj2vjIrP9bc3w4ZNQ1jjFv3A7UNPjIe//LuIguVXC1v8uHN9Bv3ceg78X3VTknUuuLIZvvtxsLMSjaz5dTyegSluvox0R26aKZ1MtiZ4xopV4+G+R5oRR3hulpf64SdkELBfcX3iJRde1QzLfhmcbhjQvMDd/vdfCtLudmAzXHFDERYuUc5FV6hUo0+R6Zm+1m2qhyW/JNe9Uh60uK8X1cPq9akDy0zHn+p+89CC7gXWhBNSQs79Tyjam+Yo23Gq+7v+tk6cTLpPv3lZ8PscVoTnX22EX2szmxN4wPz6+6ltqdJbdz9chJXr69FF2xWetjVy/4ZGPbzwenKxsvxItljf6B8u2tbq9UUkmubmZkx22/WAZH14+uVGhGcg/LXB220+cGvcb35oRBeYQ/Csi8XLKFMzwHpN8zwwbGzUw3ufpcxwsZt3PlDE+Q2yDzLNvfJOI5YY2u8IJbES/PbWIDiDE+NGt+DVrTCK64rwyVeNSN/Tjblqg5qM9fDcK0XsXS1JhHX0h2UsM4PhNNNHc3xz2FBrRkvzV4vq4bTzy6D0jzjP75bKsB9sztZFWII2gkrF2L+Swlg0l62uRz7VjX4G+W7dWD188o2EOId+MxYxt+fwjn7Gy7RrXXSEYyW88CqhSo0YgtPPWL1ciybg962PGnFdZfnfek8Rfl5TD2s29A678KCfVtYj3SuNdfSpYkpZpvrDM/r2evIFNYmLcOjxzbDg9Ymwcl2ZKi30sBc75412zfPRZ5LQIQEVDThTPKvz+mF/9mz45HJmTIDjux8qIkzos5/n5b2wcEk93HhnCoE48SzxnY2ABqfbx9M9a+1YPXz1fSPGxO9xUCp39NGX3O8Jh9Pd3/473DrPVBlgCWWtfO29dMa1Xzfo//jHqvWqUUyEjbVmtPotXMzrmM6YVFZJofz+YW+HKe8R58lVN6ecG1b0j79OOG+/dqb/W7/1tXp0l2sAIwkUrcJlXNs+5A1r+e2P9XBJzhOKjYYakd7MaaawdrsfnJK0n13QiLS+/xFlePCJIj7LPux2z+++WycvpR4TVlUoSo2Fijj/fvmptTe+DluaFKDj9r//Wvj95sCa9vfdkzuGC5XZl4mY2VYc06AvYxhLSRfxrn/asRnriDGlc1HNdPzp4LJBmPPbXR/X3lYEtR2jK2VN/3MzJpeKEAHufVYmm4GrPuJtgDG3zGNVcilJuFK54M87NmP7SnjkLo9rMsl6+C13npLYID6QYP3sK63ST33CtWSlUibJLSyg/q2Pa7F2I8ukuKr3P084hI9hrqN14V547tVGLM/FM3DXg1vjZbbgahI8DPI716BYaHXwHE4EL9ni8Bnn1+OzrAHaECum9I0WqgRFZUo8Y6r1mwruCEdbg4FYSk3ZlHeSW9DvU93PVSPxRAD+IccVUUjDVHPljanuney3TB+E1/VjZQw7EtNEKBbjK8Hu0ee2Vt4YhEa4scRYC3UQmqO7j9qmxoLnyWDr6/tVyTVMObL+f9+tGWssi/XyjH7WLF6/JlXI4CpDu/qf52Yjg+Bgurms3pSyqPHX//lXM7rUhWyoQTndvX5H3+hDop14YjVphbjg0dk92cs4rjF/+1eJHUXVWSrvfXg8fLdYrHcKS+t1rHhdqymKcdXJ3XHvZtAK940P63GP9bM3+3pux363dyVIqhqh1rIcivaKMr2OLebZ680P8dIUmyoJ9qOvUyx/P7TW7ZnWS7Jh3oNKK2lwgp9K2Ox2T7fvwAG3QvuUp9thr9SWVBiUkIdh0DH+8cu6ehReN4yV4ed1YzE8SHWg2HHspGJL+1n02Q3OXr5DO+DVACKGPxyeSr8Jt3Fe9zJGr9fgw+QaybW6s1Fec/JZXvuexmrJAZLa7UkKtXCVuI7TyAE9jd9B3/kea27/vvNpLRx9eipLKO4VPcQ16EEedPbZGzo3UvYkQd/7aBqjHxoEEx7kPTcpWLq6S4et9z4uw7FnJGudTgxffD94LJyJ5hdEIBz1SsWSicO59Z60CJkx5mtH8Z4Zs0BqiTi0R3EcgpItht/7fW5m0DTxk85JNRxv+U9qlTfomO0wOIwoEBJfxDfKNJR0BlbPbr+2/f/8OwFiSwelMwarFWvcHNOYLGtlwGxYXBXzt473P5FikqxxOxwz/R9diJdRNzQlCaSkkfaNO9NndN4fFaxW20CW0tgModUTup/5WR/rIG75wquLsMt+af30g59pApNxxVk/+VLqVqIe4tMvp4Qrv3XOqf2z+SmtJTbS2hF0tFa1N6eiqfYxOv9vpw/C67LVY3EsSp1D4h+7UXJSSa9Bs2PFDYttZAmUTa/ry5KV/RVy74S722f4cehff3sqxQU/KnTEeLU+6Dvvf0qCpBnWYkx8lLRLwLe2EjR1woq1ij9P/GI6uoAL+01cq/hWwrZWtrLW/WY+3fA12XeZN6bC5EWwly65phk++mLwJKd8TmiEwfjhHNH5r59kxcng7fV7OMZXtRWlRKEPuQj2Tz/8wbVwJN7SwU6xfeCJehy7X1x3g934aNbZxOqlrJzzVuxkP+UNM09459OU6c4arzGBCglw0e3Z/X7XHvNKeFXdBuzwqssTBf0GCUo/bTWm9fsM18OrcdWm1aVQlZUHnhwezjthgjt0Ic6dEr/7Qc0YB4uOe11j+xZPgv/DTkwKtTPd/b2O0QlXr58pJxR3ayDHQNMC+Mv7cLpxXEd+cX6TFSjxKoOYUz97xXPg0XsWXgmy7X+xPWy9WYQF79RiLS6Hm2LwSjTMNDkGogkijz2X3OCsPoLIIWPUi2DSGWGYs3aSmKl4IMhEHHmTTrcg7b9bANqVGpm7HZBaM6pFaqxeDov2sbr9Dy6M8vb7Uo1I3W10E5ruAPRsMLAQ0JZYSE89L1mEMZx+YfuNcLKpDKs2jsV2hlfclMo1Ie7X3m8dcn0c8N3m3P4dK4f5CxWQWX/uFUWs6oBe+p1D+7hT/W9sVkgWa5YdtVRZAPqlU+O4h8DCci7RTPvZXBx6Khim+83cHdivvZsaA2iqQOCg5fptKtzA6cKltVirUUk3Cpw9MROc/oY+Wh2Ucoks5aYUdtdyVwkgc+t3r5kP+LivKZ06kj34RKpj2i8TnA63vDPW354mcBIsYoKgpNI+BDiMG2z4J2uJDncfDNAlbzp423/3zFRfVdhLkYTPl5LAAn/t13b7H03peqPtrjJUYCcMT0dT3cZyj3WWYIff4kHHntYMr747WO3czFNZslgqKYPCMRyOwxKius2j8zs0YJ+po0uRsq+VJTPPXg91Y1oP9HHnAxSNZqyFy7Bjnv3uj04Y82fw2Nu8gX/eqRnbE6PtfhRIMOJjWnmqz2m+sfFBq8h9ftZM3juF1580Lfg18X78ibtZmceFi3uva9oNHvhwdsZKFQcy0iWPlfkNm4/k5xMAeU816hAqyZP3/U+9ywgSvMAM/84icovzCLyjgjnDTrZxVlx5YyPmGDBEsLj7vRcatS8ZC1Xvsf8lWfLqDMJPehJefx0rwvK1Y7FGH2nZwXPXQ6lc0EyQhXAwGoQj6NhiyjrrV2PNiO33PSPM87hJEQGLiJJWgwivmTnnbj/cwoRhizUsS4ANjFGKVT36tMQo1eacrjpDZoBc1NyfqhUIa2AFtA5g7wd/7cLJr5vKoK6nZ2TL2t93514VJz0zzbgdpjwHZWQwTe4qgpBseevVfu0w/8+bUuiHFojqW15/e1IY+nkuPFs7igerBysRK8h0ikcvc7F+GIO4V8ydNeTiaxvhg8/T2uY5dBvLfZQa9Tdp05ip6/qZW+e47fTB8upz5hXCGVgA7TdFqrOLrnOMyT6bq7EcwrKO0fJxZ6Si4nA81VwnG3Oq7z3LYcbaqkoH3LLyftcHbWeYWS20dhZ+YB9+/ePMre5TwY5foC9Cvjq7+Df6m25fgje/xO6zKHrNtNGBMSlLTy1IHgLVFnhsVGDot3yXdTE3Z4a5oadb7xVLPTPanQqf3X5Db+bFjcsTtuNeKZZZJ0Vz7XZPt++sFTpjRSZY4jXRijyksnKeSfiAs6tvbsSkOXjrN2PcHjOGvRdjoE9L1jO8Le/xbvPr57tO4TXyk9Y5dcNdRfjnHkoCal89swozeJ+5OKtY7nnVyCRZ0e4H5l6vxVfbDVCsj8+/ns4TNDDVOOjMNcKY4L/deokOh837OmGBl1gp4P7Md4toRbb2vcDOWyZMU2y6nBshfyymmdd0Pm+qzz0Jr2s3FtGypm6pLh1M9rm8gXIS0wE9GQA29iff1MMFVyY3gFhJNUhNZNSL0A6T4rt6lnND/2WXFIPBjdvvRnQ9hBJyHEyY/RU3DqfbT4YXXjwDw6F5soQTQh1GGFO+rvM9E3aup0tZUGBceziWAzjvvGeqz+3CCeE1MxfPeeTZlNxkY93zaH3Grp0MBzqz6bl1lEzR3YfS4fdBaTCPPd07JsfidOYlqZuJWCUWC99Pd2/+3bU2vgNOvDJrkTFnIiTmsb3DQWRq9yuzo+ZpGZmitZ2MliPNrk7Fpx0GyrhoN4jGZoLTdvrIwisY0QdGd9PdqW2suLt3P+lPuTMfB6jQBnV+7dtYf/fLmdffbcdn/j/jjzCizqsQBSW5vu5DOIFnggnLOLeyQ//Gu/SrH976Z3jb3+HbZ3yVtYOwKElM6NdU1jZztv4URfTKui22mKXY935vf06v/7vPAcbiLuaVIshqh976HdNByrp5dyukQVtg7T17OUh7hbfX6+AErmOXyF3brOo9erXyOsGvs0NsPVc8muuHx0wHLzjRoXAElnhuZy5zePTbdPf7HTxLV9TinuOpQc+fL0ztZvtdw8meh39IYpKwJWwgfm7Bp5Qmi2NuRdsP7O3PoyzZl8LuKNP29WXXJ6/EMHHe/kz/R567KrU256GUfyJky9kw3XPhF+9Tg/uKGdZq74Srl89ohCfHuctzZh2U/3KOgWuqMSLsv6bQNiUTzVuIDMNepv+p7u/8Dc/w3ZRhA4RXZnsBtZKrMDNWRe8216CHL6AJYQ5N1lwxQwQCExnWJuiccLfPBFW1+gjktAFWlUXLejfj5zEtLC1O69Wt8TOthe2RMeSxpnr3HHgi7EsQsPFYdKaKm7RhvIRoODTE27CoIMRB6sy1CydZeAVzJkICEMuo5wiGnwq2qeba/hs6o+xIiBDsfv6VMysY3z72dP97NlzpzS52kAVObDQ6zXOeaox4zZpU5JlFBZ0J33CQDLp/Op9nfdGfJDyxW9wyguE9e7KDyfeYpgPMYUAjpnwYe7J7Op/b7XM7fXQKr5RWHX4wLzCqAduPAmU+mLx6q5QYtICBavrgt1HwDowZfinvrGJc/gTCXi1r5sc7Ijs7JZyUQQtT+9hv3XA4rO+sI5ywcqdwhTJ8/M3UCoO5wvFDT9WjIEV4lSTp+5ng173i9oUiyBin4EsAy7VR+xkb7lnfL7gy8RoKpbhLNOA1LPz1Mg68eGZU3Fv81Tlgb/ltujGE4BG6n17QiE1GYkiR0IMhKrdgyLCIHT39oqT4XXNrSkDthQ9ZH/Sk2YXmF9q5X3xNEXnjdILXdDho/72b8NoOO3c1Szuhj+DcC+zt4/sfzvFLXd+EC/C6CtmwDoOM1zn+VJ8pXoQvYXbC3044M+WuTGfxhX90/9YH9XDyOcn1Tm6iSI+K97XPwxqAm/WU3GH/op+oZE1hPAM3+MB5y70pWY28pWMXuuln32d4ehZel64c2+JexoBZ1RTGdejZoIMcdNGE/H6yeP5115bFc9PsMx7E4CBixaEREI56SYLKSMzvFkG7T5ZQwokwCAKO34fJTB2kxmM51VzhqNPKKHznQyrD0/6O6Lwc8moHElK4KhDAILC1CyftwisihAfWtGh9PriMLhkWBXAPQqR5HlyLrNoEM4KxoG8WAGPOZNw8/lTvcBsVk6e0ik3NNAhgsTFCD8KHubMaS2TTWEG2vfAUwusge2cyWNEyrZxFk5ClILwMT8/vdo/vKaRaI9vThHJuWNfmw6LbfdN9104fncKrg4EHQJgCq+n/z95deEl2W4vCv//f+959uRS4sRNTEmOcmJkZYmZmZmZmZoaxPR4Pe6C76pzqGX3rJ7Wmj8tV1YXdPfbptWpV9QFpa2tra7OiB+CL1F8/84hetQGXaigTXrU3rtCcTmPLa4sywGoq9tWxweavHzxZE7wjqplYfzmpp9/3O8HU7zXwmWewUxgkAjn6Fx474Ttf57JmbcXLCAt4oni9fvvt9hxYCBwEDyEf2iZMgaVfRdqzcCpeTggRAeCia4o4pm603g2ecVyHMx8nIOZT/1QKsBb7EYQ8Q1AVQkdRkEVOqMJzxskf4M3n029S2SmWb1US+g1tQ0tVgc9auOaWZtz3CF7jwKU2OgmvGXZufacJ8joS4Ow1wxhH0AnPB8u/NXHwccW2gwPGifNOOMn8hLLDekkJp+zMZ0WGA3wOj1bG1Hp2JK8TBTN+OvU3rmv6QOcqpDCe2YcpjR9+2TtExjtohzwkrI3iwbMgXt08aHdQGAcSXjNyELpTTHbaOwHOGuY85347zwiwCEyegex9oJqjajcOJ0z123en5zAOMX9X3Jhib20szmuGnH42Jm0ak3ZoIDQSR2yedl5yLffDvDrB1e1aJvysRLDkwF20onbR8r3jE4///GNKBiCwD7vhV4WTqvCacYEgxXNui225M22W/W5O7WOHX5qy41SFrfiI+wW/hdH+/Lj/RwfoQdyjuCgbDAs9wa+f+bXRqirASkF44bXgdQBnvzTWz5gIr598NR1dxGLvMArJAXAUjx+tVPvQHrjQAUbECioe840PEj2PgtcqfVSFV/NovCxk8Ed4cTAJDbwfJsbVpw0bGMGcG9zm+/p7w21g/eA0z5F+nTAleSmWubqdxSPBPV87NldWB4KaJA0xdpQZuNDufO+Pcl8f1s7DT6fTeISUEGQJ051ojyWYUH3nQxJCivCPI5KVeL6NtV8Y8SFCA0Wa0LDf4WW47/FmxEMneDq167nkvkzKrD2EMgOX2u/0ziSv6deH9f/a21IpQicfEcrxqPnm2LplRT71vGb4w66zVUg+S7xtvncHHRfcWfeSyrjKrUF8DQzztWWNottcbovrGE8etxLeSXgFG56E3xLY1PjOiitD2KB4ggNhc0KO7Ccnn50E4dzPfLgY5X7kx06G+5AHNYViOo2TMNdrHowRL1HiTJJqPKHv2f6qyowCb/Vd6wsd8ELJkVBfmwzYS7FFc957+Cle6TIK3rfMhhv0u+arMPg9kPDqhUg8s1p8Lk7M6jGo8ApgrgcJNwSBo04uYxwUpIyyabYPsJ//IzP9JjFTwpbJkFk+yII0nqyRsgQQUNRw1IYx9QNHv8/oCxE/+VIqG8JixhRPAO/Wl3fAYsMXp6RUimStSQivxmEB0sa4RbgWZLdyNbjHEtjvWD1nrOCX2MP1yVp3zOmpPYxsUKY1SN/5WX340DglNClTxu0ZFbc+rFGYq9AUC1eR/itvnLN6jxN++LC5KJ1iQ3fe+OPPpeNYCTB5PPkbIyREO6ZWnN2l1zejYJHHm58b9Lub8KodbRNChQtY+7wd4tjEYM639tGBNsSOivm28cakry/6UyIGHUd+Pm822XKABpWJsdnMR4PG6xlZuQQaXibWZmPptl5zv+P4Bru+xK/aIOFMycO3PuqsMICVN00ugjCD4+MhIAnWcdBqnuOnX2mE/Y9KpfUkbmi7X8ET3tT4zdZbtEAA08awCvKouNY3fqqaCKsgwYJQDtb58IZfOnoz1+++4KoivjMJ+oB/7TqelBfIGiQMUk4ynXfDBYGPRf78K5Kyy7uWy+rltdnt3UGudxNe4ZGsodTUPgenveWWexvR8jsf7O39myv1u4VxEYRZ7r9eMXi4YHu7/f4PXmvt9vubsZIHfv3US0mW6kQvruGb1ibZwkETBx1dRF6Ifjq90y8sgzxnnsHOYq2iEuPZE7PeOvB1ass7aMcR5n/YrRW9fP0aLDq159pwwmt2+52YjnokgBKcANgPAj2DSdnM1Su1eGwEMqVd76eNbgMa5jq4CXYIB/OQCX7drYPVm8UMWF0RFauMdmzOg1hv+4U9L1Jam4xyFjOWcBspAnEOcbUtz/vffSZ+roazLy7inHm+GPcksgAAIABJREFU+my/v6vCSbvlVRtw+s2q5N6Iwjyc3p4EtkEZMvjRRUw2OyVtvpden+LbCGQLRS/GBPZrbqMAJPcrGiaY9sIb+HxkVf9t/7RZ8zhgOHluer0/yD14ErMlcUUCCyubhBYbU7tbD0ySFZXjYcFwEIkapOOAq0ofVctrHgucCSURO8r6I3nJKU4RH10YoHeNz5oCp3UmtpyiKXbU/OT2x/2d55BiwEND4D7s+CK8KJ57no0DXDGe8Slxxam0jQ1Lm8Yzbljb29MPvLJWg91cC9lgFYz8ooLvuG5n4wCFnrBIqU6AP9po29se9n9K04efJ2GN9UaRdTD2wxuMB84J48YhyZAQS1nO8zQsXKO8p28KmNAmZQjx5VhW8oveQiGcw68Ybsqt/YdVVHuToI/cLjjtB/ZfCrn9QX/ud8NDVeBjvLrwat7F8Qt8vYRXngFCp2RosEt8lXANj4PwU3xO9R3GH7yPMGY9aKfb+Md5PdLL5rSvyftBLw6vyQegtM+D/43vnY+no/JpHQtRsQe1r+NxwtneVsbzfY+lEDjx2ZKohb10MpBkuJetbEQFgfFGpR0hNfPtne19V/8fWHgFCOBlNYvPcULCwceW0QoIgf0QT2ZShEWWIQQofpHwp+32SasCPInf+oN0yBTzp4yNot4sqb0y+KuwWAjcrxYSrfusi4eLm6222e03eH24zeDtT3uU6WSZLi4qODXRmD23pQ3pgitHq4dYFU46Ca9gRw8IGk4klsnQ5hqzQQ0yx+DXFjemjWrPA8rw6HOJuQ/STjd89nudRccGLs4b4xBzRCCF2250Dz7wsxoL2dj9APV1k5tuUDz0Ayc49GkjYhURr+g0F2sLjVbb8Cy6d5gBxkkgu/8xR5V2H0/1/V6/q/TRSXg1n1x2NiB9g9Vmqs1elrMoQK0WV57c74L+xT3Ot+n2grXfe/C6dmo6WonFesEXiwMFoBcdmmcWexuTjZLAJZ7RO93opl+Y+nmOMqsvm/59jzdiuBce8MgzjvP8KexohEdM1rVnsmVNP+i4n/76ecb8f/J1I5x5QRl2+KvawqlkWqbfXm0YCxel+tlgROP3UAbtPz0Er15tjuNexnEKiUkhaE4Se+qlJJh3m2v0YX2qfUshs7ETZLU3TpznMcZ216U+7R/2X/uwMC/rqxuc3oNjHjS8T77FjXclN/e44ewmvBoDOHyjX1Vz7An2BjTVLxzGKMRD0qQ1ScmXg2Auuo0/429c38aBb9kbKO88Ig42evqlpES0w4EvuibelZxiDshgau5b2xkv44KvWztg8FExRAgduCUfC0/rtKeZE3skCz1+whPLcg9uc9atn/muDyy85gYxOcAjHiZ35uBehJ/f823gnkUsMvwsHu4VwCzUBFTh0a9FyXojRlC9Ny7hLGhVn+32m0aatTiVGFgruMeNtds7o1zHpDFwSUM2UvHHEkhYNNpxaIGw/KjReOAxKaM8uon6KG/RDcaqcNJNeEXI+qXRInAuU6Ux4BlM3dpuv55w2AiX35iqXEh2YrUbRWtr76Of/+Ec3JQubnZjUvKJENaNaZoLeGDlOua0MtJ7WuiJ0bbPVT9wzPfMytkwlXMvT7RsM5QgUxVe9QuvlAvzww1+4FFFePKFFHc+KlxV+ugkvMIj9xdFYL8jixj7KGaRwtiNNsAEz8o8WZ//9adWdIMbg7FlZjYffoa9r3/ryyEmex+ULH63PTA/31o9W39XDDyl5+xLmuHtIQtzjwK7hEcCyh4HFGGHvypjV1EAZwUCeMTHWFPw9evuSOEN4+Zj1oTC7Dfc3gp7HdgKR5zcX83jSLezR5M6hIPw+o/Di2g8AfuodDssfvN7eAQ65PmAQ+FjrOzGGzfxNq+Y9+yFlE1eSPRx5oXNeLx2Hmtue9zfBB57BuVRiMM9jyRBtNtcu65ihoL4BCdVayYl8PUSXuEhWoA/bsQsfZ4bGe9c/nH+51FgPIPHqMt7ybWJjxPChJ2Yo27jHzf+c3tog1cRTu3lDq5xrR2ODNtdDyX8C3GkjMZclwnJGRnG6nekSxbgT6aDpERJe70swHCNr6MVnjZwkz+cjtaN11f76/Y78/uepbIIJ7T3H9Y14mfFOrGSjfDBZ2nBsUCoHfj2R814f+WP6bn8fPXbu+7/ON2IA3BWto3z5beaYWOz+3vVNibxe+2mRvh2JWtyskwq3vzC65g7raYHXOudNNaILk+uYMI4y+BDkomm0rvGPG6Y9an9p15kup+N/blHmY8ET7W/NRsb4ZsfGpGJymokRDL5u+Ze9dl+fyPgNRuKkM+u93/7u/C2Ym0jvP5eMxK3jUZw/MdfErL76ze38dq7zejishnIUvxogDba4Rr2fzgHzzsfN5PLar8c5N+MeHS/2rZ59zxal1wGdhsFa61n25+vvjvKb3Oq7ZvuSgKWerhPv8z6M0fL7qexzLnfKG7mKr8/CgxV+tg47XjHn9JH7l/cNesUhY83YPlqbnhuyJ/iEizgFVrw5AvNaJ0SI3bDHUWi400/f34U+Du+uz7B9srbzXD8GUnQuPjaVEgeT+s0n66Zf7xkv8NTnVXleKy9H9ropWOfHfAwzHPgwC/ML9jR4kVXC/dKcMCtD4/alTcld6zT+5x+hTcaX6c5GQYW76zeKKegGR57phVP2VJv1Kll+FcvnpTp5s0PUpIhwwcv19sfzsK5gDjtNHY42tBIeyNrJgWLa90+snrDz2k008dLbzbjxk6IFHoGD5E+JjQecNpv0QP+QFEx79+tTnPdTpvgBD9FPQp8+5fhuNPLSNeu99rzO+Fpvmv4xeoNzVjndVMH/rF2cyN89k0jHkrBgMabwSL5/ZrOeP5Jf+sbkaZfeacZT2q0ZxN+3/+sGdeAsf7k+TGtwU5tZnr58ItmOOnsdIqdpF7/m4MMi+esCx/5DP+9U0q6fuODZli3ELyvggMw+QgXue72VKGJ4eP515LM0047+Ad+l4+lF2Ps2eXmqpdsVemzI+7WpnlqlDOhKGcif/rZ8bBTzVZYt7EI6zeV2z6sKSvWFOHhp1KxeO6Oex4uw7qNZdjYmHuu+o7fBGGfFWvKcNVNyeVz+ElleO/jMkwV3d9rb2fc/9tgV/9YhgcfL2Lc0f5HlOGBx9MY3evWn7FsmC7Dx1+W4eKrUzzbSWeV4fV3y+A997u9O8p17cLzWx8UkegpAJdcXYZPvyyDuflxaq7fTY0yLF9VhiuuT67OY08rwxvvpbny7DBwqP27caoVtmzZGqabM8H/P2sHbqbS54Y7yhgnqizIOx+VYapZhPV94AYO18R5ERohxrEM9z1ahBWri4jfn/VZodFx34Nzn5Vri3DHAynTVW3UZ18uwubmz+c6P792QxFuvqsV3WwSJN7+oAzT5XB472dMcf43l+GJ51NIj1q7dz5Qhu9+mMMZ2NDtW++X4dRzU8bxJdeU4ZOv0nX3++mr2zM/oY+iM32gy9U/FuGCK4pIG8efUYYvvkl4rNJv7sPz360sw413lNHVhwk+/VIR6cNY8nOT+oYT9PjpV9xkRVRST55d65nOf9L3LL3ga0+9UMTwHhnCjz1Thqny5/Tyk3fHTcebywB/ny8rwmXXpfnGp157p4g0bVzgfPH15CGhZN1yN76R7o9KD+1jc2qja+9/tCWc9K9WVOquIjz9UEQ425/P/8MzWJ9+sYxHsdp37rgfXRSR1/TDU3Jbk/re1CzDsu+LcOFVid+eeBY+3YHfztIH3oGOhZsJgXjk6TJMF5OnD/Tw6ddFOO+yFLpz5oVleO+TMvJleK7ix/x73jhOPrsMe+znlMEifPZ1EfeacdNH4h9l3F8aHfgH+Dxjnz3ipDKuLfIEfgL/Vdjbf4MVzp97pYgKJWs3/rhy3WRovb3/9v/Rs3V214O8CGn9PfxU2vfc8zyYfezj512ekj7xy6++KxZebqrQ7aPPpNC0P+2ZaLjR+jnd4is/rC3CGReU4d//yEpbhuUrEz2NY72WrS1RyYGn6t+/+WftxiJ8s3IqukOYarO5lmlbkLxMT2cNn35hEb5akerB5ufav5XrcRzY6x804vPiH7hLBCFzr7U/v1D/M9FLMNpWCsnivC4lAXDrdIODhggP1fjdFIcyZ/bv9u4o15nSt7k+ZjdSGfjcD8IVwJXbB78QCHFs6vqJe5XsZR6WV57Lz/fz/c2qqbByHc14a2R2/u/0HrzCj9IeyuJwtXMPSyCqwtjpXdckGXGLOBwAY8+HAxh/pKVZeuz2/riv61e4hkoPLMnqjHLj5HCNan9xfGskJqbSVZnW354wresXnK++Nx3OuCDFpSvHYs7NBRg9g35kRksiYr1QuogrZxx4rdIHQbQTfehfWAkXEhfrfkeW4Z5HU63D6GJtm1uhPe9/PhWt+OhYkiLLbT5esIr7ifyeDXlSYgquCE6UEafN5Hi0ar+RRmezg6+/M1neDzhSDORcrFf1+Un/xhfE+SltRKGh8N7+wFzVAwfRXHv7zw8XmQxcU9HKtWrtlnDhlTMxYeaks5ox3nbNbAhIp37RBRoWH/r73VrpEJTXGyGHynR6Z6GvoWuhLOIpKdvCGpQ1jEmFswmHYMr04VnhGfjD/kcmC2KOBZwk7OCUHCRsKNY5PbaIx/aqGYpvV/sGK5gcgCJkhqvYmLiDM7+pPj/qb/yCtc0JWwTVTvxj1ezBMZLNWCLVVReOg87B2w0G8OLXKpxIOsPHxaDnUk/d3pvU9RyTLnb/6NMksLbC2ZcmepFzo188WVJfDD+rHA6g/F4v+WRSMMNvDKF6QRjSbL3Z+1KCesT9LP7hGi3ZAxkbjM2hJOgm70XDwggf3s1hA+i2+heFVxqOQwoAVf1AGiCYgxGA8kuEP412S7rIm5KAdIOxAXCTCFg3mGr7C/kbgiH6gy/SCU6SoCQYKcwtgaUbLN4ziXc91IiCIYuFOCKMIS/qbu+Oel3fGCImCY9ikMQO6xuec/sWJfxyrfx/v2/Fyg7umb/8zKDf1ZhGGqH/O7UBRrC88UHCKzcfJUeGpPnuhSP3PKOSBcHckarCUwg8mbl36nPS18y34PNDjysCjfOKm9LRfuCtjsc8WFwPPK5EUhE3WnGGhB/3JgVnhoOCQJFSXUI2q1hGsLtvfcKhwtgsPhiQE5TyOhgVtip92Hw60UfmBc857eeMIiZ/SsRSiqdTouTaqVRuirD9n38qw+U3JlqfJC7b8RBxt16MWjPOJ4XK5o9O2+GASx+0f/Yl6QQfx8uifWuvSivt/Uzqf7xM1QGl62T9qu/L/Qf2R55Npx1SZBSetzFOiiejB+EhW8OWcN0tW8L//UMZ3eZqIaPRTuOHL/hE1+de3gy/3aUVawRLkBID2emdxbgGTh8Z8QwF4hgJI19+91O+ZSw/4Y37qcvs1MCFoQ9927+521WEUeWAUmD/bp93sJoXAqtELc8ylMyXrDgs/tEH13T1eNj2tiSb4q8EatV97IHioB1j321vy3Mjdveqm1KyszhM1Qqy8Nrez0L8jxfDO/73u11bUTZCB2Ko4d76ZMQRmkjBYaGleMobaJ+rhYAXHteKj38j5X9QvJT/w1vA6z44wE1GoTArQWqOxIAbazu/HBRuc++dLLwyYlT/egqvefOJJYxOTXFSXAkG0GnzyYMBeC51YyJY5UzMqIMZdPDtzxsPGAgj/7ljsqqozdiNMZogEyU+SbYgLe7Ao9NpVwuRTKR/RE8o2fuQMmo1Fq9ruWRFfGZjqiEoM1vdxvOvFNs0GtFXhZNewiscg8Gc3/FgslYSYB95Om1S8Nc+D/l/87FsZSoho2yPyhaYa9ba8nML/c1D8O7HSSABk2NqX303jbM6HgwUnq+4QYJMK57g4qhc8FafmwT8mB5BRWwzK6W4dLURMWjzAbf6JQD+z05qG5cpCa7RfT4GgbNKH92EV3Ck9TMdLrmuCL/fRaZ1GZNX2tdPfs54KGniXe9+6OeK2iAwDvss2N79dDocciwh2slOKWkLTo0pt+t/nydeaMbNiFAYvTJfLIxym+Goftvo4ib4cDNa3NVolMjp0ACVHygFR53aDO992l0AqLY37G/0IRZuZsuWcP8jM2GXvYsg7pUFzJrptD7g0j01fiXYsBxffv38R1MOC+Mo7+W1L2nyP3aUzc8QknCaacQYM324v40+vlwY+gAHOCVA8mg5WEf8MBxXhT/P+fDe8UZSho84cfiTrfrBaz/CK5jg8KvlKQ7X/qvykQNLuu3Znvfe6+9PxwNZWJDFmFI07Jv9wDaJZ8gd8E7Ik1TNExUF8dnqPOaDVyyXujNf6qTaV9HQJGDq1SYcsnzDG0XSni5nQkUjOPbxPrh55x1hy0CSvcPGOirc2tDHUMJrJp6vf2jEgOdq/a5uxIN5Ej4UaVcUXSY04QsQecC9kDbJe/o3IXc80IibvRIaynHo01jb+87IV+JHOSixM5KJWA8WaiHAs0L5kitYIhxCUD3jHYwIXEkfGiaNmaXIWEZRFqrCybzC62x2qBIrYl5ZIgihYIDzTrh1D62w/tjwMXYZycYxDsJvn8tB/oc3jFyFDe5XeKWAaSPTBFcQ+LkELWpWY1YYQgKNdZD+hnkWTvUju5yCSDPGDFkcKDbuswiedn5KULRpsWCNi26r9NFNeM34AqdSN5JVMDjHFsNjpgvfcFktQXTsaUWsduK5heYbwheUkxLuBGY4VCbPeKqwgA2u73owJXLakB54Milf1eeGmd9h34FLcH3+bUq2teHzgLFCoeO9DiyiZQSPbq8LPGyfnd5DH5JPCK/PvDgTxI6zyqhv+umyJLy1v4cGlq2YDrcIMzm4jJt8PllwFF7W3s84/s/wMNJI4FVR48GnfnoKomds7rL3JdDZb1QpwN8y7Y8Dll5tWO8sY+dckk6s4gERioM+KcDeRS++7dNKHVEazrtisgpOP8IrmMCJfyj3Z4+wBwtLq+6B1fHnsagYIilbiSyeXwY39FV9diF/m28f5aMokTw6Tg5UhYLBgdXbnnPS2cnYkI9kNf6FopV2fKBfCZ7wh3YPOX7Oe5fxbG6cyIquKD2UOd5tMI/KA0cSXg0GkBaAUy4gXLkH2nM3pLLIOo9evNr//UMratDcqAbZjpyF/h/MNhshDTQ4i0FmsLigPBlVmEweBCoxgvlmU/6oJSCqfcz3G+4RA7ck65qSFazF4IrjmTXbK6mhoLsxWdzazQx2vj463a8KJ/MJr94Hpzq6DqPAYLjHXnknLbxuRGzB0uyURSIkqFQwLsLvNKZ+r6EFCgF3m+MR4T0fwJBxmp8hPBIObE4UNhtF1arRb5+DPoc56IeLmmWYZuyceozE9Uy3XDniNm2yCvCPi4FX6aOX8GrulewRBypxk/DKusAaBIfG4YN+bJ6ObkY/itIr/+V99wfFzyjPwx+elZm2TfDxF5JQWuUTaAE+KV9OtRPuYG12c4uPAtMg74LLR7gRmNDv7vunBDRH9jr3PuN9kHYHeRZ9yFInvH72tVCmFPN54r9SSJH9oH1eXZsTtFpxQ6S4LwYNzDfWTAcvvN6IGe3ommEBzaIfY8vPXHJ9M/z3n1sxAQ2/62b4ma/PYe6jT5Z4B5kQsrnf7X9Cs7L3LsOp1NH+R6RSR1zW+EXmd8P03eudfoXXjEc1RnlvCNZ4hNjQjOdqP+BlWBCzzntDsXeYkPHmcVafX8jf+sfnhGbs+LcUk/7Yc82oRLr30lvTcb9RGowlk3IxLn49zDiFnsEbww2jFHyC3XrMuOSlYtwjF6oow2hlDjwzTJ/Vd0YWXjOgT72YrH8WgJIbLBORUCobC2QbMIZz7OlFTHaJsUDL06RVAVuM33ksjoBkTbHhcymwUCGSdmaahQAbKQsG1w/3sXbGMTn94ABcNlJEwXIh7ljsGssJ/LtPEFAg39xY2AQFbWcC66ef9meqwkk/witYxKrd/XA6i5zFUsC8dt1rb9//NnlMCOFbsCyHcD4K3J36GeZaUhpSELq6wARDiwl82oN3zD1bZ20KrAN5Xobpc9B34FW8sPhFSguX/BPPK2cyHQS3O1ZVSAHhmrtH++Oi2yp99BJe4+azjlW1cvTvacrUza05z9jQxbaxINPgJXYZX/uaHBRHwzyvXxs+S5pwlr0OKuI8E6zMuzbBBZc8B2ddIu6xFU44swzvf57oeph+x/VOxhl4wSOBEP7FxaNP6ys/M64+29vJwgnhVTby7Q82Ysa4+e1UrzrT5XOvTUec77h7KyoF2p2khbgd7n7/hz8fhgy81zo75Lgy2FvQMhzjF/jbcaenbH/lmmLI3QK6rwmoFPHHX0hKNl5LKavGjWaadqDBn/coY3wsuOEiz0u/eOn3uUwfvWJeq21RbIQvEqD++NdURxTc7fC5hvcJnRMiY88WIsOoNmmar8Lb6TdY0fLzr83WBN/fkbXJKszqKreIhRO/ZjkG72LuhfoHr71DyM//7NwKTlvFH+E545PhjFLB6EABMlft89IJH/NdG1l4BSBAnDMN0YBUR5CVpF3zgWgLhTUK0Yg3MSE2grzpzwfwJO/nsXz01XScBMgGpyQ0wkqeDDD4zWL0ybLkSvnNDq1YhzQXTJ8knNW2MR/aD4Z/8HHJskqLhlMEhFDEADHbs7A4hpEwC/7qeKpt9vO7Kpz0I7xGfG1IR9sRsMUKqutJC26fe8+iKcIuFyElgnVQZrxnx0H4/Yyx1zPowcZ01sUpO1sCDMtyhH023lRNROfDS/6LmfGfTJbht8Ob5/eRZxPTE6bD6r6xmQ4IEMZA8FY8H70YU3sbw/5fpY9ewqv2wYnhxVq4+5Zh132KmORGecmCFEELr4inyR1VhBckWLSdDjUsrIO+l+mPVVsMFysJN6q1n2P9M69z9K5n/hqrlyyt+EzjwMPwCR9zkMc2KE4GfT4LJ4TXcot6sumoWIm/nRI/0ILkWbQqwZBx4Y0PEu0sFMyDjhFc4Hb6F+GV94VVU9gJOrHmKJb2Gcotj6UY/2zxHLS/YZ7PuGNQOu2C5OGSFIt3gVObaMMew2v2739MWf0UHXvLMH32806mj0GEV4cOgBENCePbdmLfbNgDPuPD+3T8v1IiHf7NyDBO3tfP+Do9AzbGvWyMQhfKQxqHusbqs/NuR5nphzQW73Rqa6GuMYSwehOo7en4IAUYX8FPrNmLrkmGQHukBC/0NA64RxZeIQkgACVh77xPKj2hELuB5cXhOUBj8EzLXOzigO55bGGtUfNNaiSg9Slwetd9E8Nx4AAmVB0LBmOSMBxxuwiNZrrQgjhrNrje+ihZs8WTnntZykK0IJntaaSUCve4h8chAFaFk36EV3gHj+xI8NGOCdQYCZxXcZvpyYJl0SS8YqyvvrN41rZ2ukHLBCoWb1ZNmw8FApNHG+iFi1ipHIua9YVAY520tzXJ/8Hh+MGTzy7CHx0Ve7HjVBsx5AHdsnSh28hwxhjzVaWP+YRX43f6EyatrBA6veoWhdrnBCo0LEmH9+DS6x1FmPjJJHHXq23zb61TSv69Q/gT5u0+92o8GOTodDAImlloGug1jsW6t004USe6KMN7n0+HK2dj29Ely5L1kpWXH5R1eyYZRwivTmbDT6p8Y7HG0q1ffIyQSoGRYCO5k2WKddXeyLqJBzo6m5K7WJnjcGwfsa4cqnDA0WXkEZTDjF+KGlgJ4U5VorhPUuDbRh8zW8LGLtVKqngHJ4vqUy+nUK6d90qnXJqDbByx7qy/ex9txgTVWMLswbRnL6U1KdGWZVtct32SsCrMAa/e5+C0NvB1Y6viYDF+owH0fM7FKaaV0sBTbT4oNzzyPA72cPsMpSev6VHhHYvwCghCkoQcFjLaAdeDDTETv2cQkQBfGYuEKRYJC5s11oBGHcw43kcQyn+Aa88DUgWBW+75eZyGsTDl57i3Q45PsTPGvNALASz6bY8jxiAJAJnw9z0kxTNFs/2IhF8VTvoVXuEFPMIFKC45RridaaMZi8IGpvYnWlFiynPuLYVFi17hXEwS6zwB9trbisjUMZ94jOJDs+dmz5YwI9AsNJ1vg/P5Zozj5hZk8bZRSSBSQksVAmtwnBafKn30I7yiYRn84ppt8ief04wxXoREH0rCn/doBdnxYo0xripvGcfaH6QNMIHB8cBc2Nb/S28nmMBlPOj1wquSq5Xg/eq7C2t5H2Q8C/3snHCyNR46sGL9VFAyzYatFqS6uAQ/fAC/spkfcTKrfKJfrl5zsBR4QTfcgQ3PY31yypaTnI49o9yWkf34cymZkgcyJ9EaU7f2JnUdj+D+vSMmjrVi+JnQM/25TgkT13jgMWX4+6FF3E9cmySsc/TRn/AKVpZia075t9/unBJkhcMYn7lAS4Qn4RkEQaGLZBbreKH5cq+5RO9oxn4u12OXfZI1eZe906l47i0V2sfnWIqdTCqu+7ATi5hwa3wMErfe14ghlfZwfNvzvcY+yL2xCa+ActatQvgAlTgkFgLR5E2GJgfxTsTAoLiwl5JAkhGHeNRYO+bU5GoX0yp2zVh8PEfz4aZg0aKNWjCqDLiXx5vbm/Q3BkP4kOgiJolbnhXLgpQAsM16eX7aQMdB+FXhpF/hNeOF5U+2ZMYbzQ3OM548B0YC6x/+kpJ4KBNwnp9Z7O9M118uVyokHW/KdYK+p2amYmybRDMWeaVEYvHsRRK8M32I8xKb7cNDQhBkGXQ4R5W2x4HbKn30I7za5HNMNEulouksJNmCecaFsmzFjaa4wMWmBfBing6okKwg5uvexxyZmAQW9IypE1olptqIJr3hj2PeFqqNOeFkayxCv3rTVLREUqxs2EKgnnk1bdLCcYS4OJ3slHNTeA5BZKFgHaUfvAxvfuCJVCqI1fieRyVuJRe3+G0Z/GJh9ZN55Ch9DvquPu0VBDmwEELszSpoEEC41QknrGcqvsiZmLTBaY4++hderUkGBR5gdbUpQkIwUWJxAAAgAElEQVTowE8+IX/Ys3PYGhc3Y0oWbgfF26SeNx94hfmg1EjOYrWUYGk/h/ssh0wKhn7bhXOwPvhUMyo3jDhghleynT3Huj3qlCKGPpiDftue77mxCa8IAOO+77GUkCOwWAkQSLYBAYRAIn5UeYo//rUVkxwQlXfnA3Qh74NJDC+riQBwC1oMbxZYwMK6xpKy72Hp2FMuL+NYjLEgIASNuFm+VT6wkVrIGM1Bx6TKCRYyazEYRyX+qnDSr/AKb6x7FidBO5/PzL2ehVf3wPbOp6mCAuZOCCTw5mcWkhZ69QWPaJqQhd59uDO949Qlm7D4K7G6rAKj4rwXLL3u5fnGDDFC+KTQ2DDBPwmardJHP8Ir3KBjp8xwsbKcOIlFaTE0LCzDWlTVgZBrjfYa86TvZZyJ35cEiWmjaQlyBCvjgW9CGIXy6ptTciJ8Txq27aH9OeEkCa/+h1ObnphXsc2sfPIolPD637+mkBf5CHCIT2wP4wQjWrWRUxTtfcoV8no44IRyIyQmr9HFGBNahU+4ZzCQG/H3Q9JJX82QkvpY1P57pxTbbZ+fNLxz9NG/8JrHwaBAaPrtbN1oAh8h3Bifejkpm+hLMi1awncWA++9+sz8MHse7H0+YHWv17sLeS/D+cV3jWjAE3YivIT8JOkWL7cvCn1gpBon/xub8GoQEM1Mr3SMBCbHthGgWH4QuxgfGeNclwcdK3h9cYqMzze5CMSmedv9SkAUMT5GIW/vuWcR0DacdmFixOHd+1haCMY5X/vjvg/3PrFY83UpZtBpWrRM2X0YP20akzQXnh0VhqpwMojwCj9wSLhTcSCeuPFASnaJ92azcAl8BBbaM4FFubJxEv6o4/c+PKIFLswLrmrG89llDt/7aKp7nBMH3nj/p5blcfQ9TBuOTYT7/IFvsW7DtDXfO1X66Ed41Z75xZCc9MVFiWZZ2g49oQw77Z2KYG9Liltk4SWvOYXnVUwx17xN6jJuaCZrleQ4yi0rkOLjxrgY/GG+uVqM+3PCyZzwCqfwQ4gSm0/wt54kNfG82CAjzS7y3A+DL7SNV6g4Ii5QqNFFs6WzCCXj4MnDwJXf0b/Qv2xcEvqHftXVVQoSn7bXRW/IhBTeDIvvOfroX3j1HvqgLDhpMu/NjDruMdwwMuErvGTc2NsrPVVxtdi/s0zklFF04sCbOx9MhhKKGuWTkj9ua31fwuvajUVYtnJzcPZ1tw9iW71xKnz+7VS0WLKYMRWLVQK0BSrhRrao2B91/Zx3+/26qbB8bfd2u/U3yevfr52Kx+E++fJ0RLw4K/Ve9blyw1RY+eNUTDRyIAFXCsusk5NWLNJY4B4O12yaimWy/nFYKr3C9UML+v1uScMX1rFu81RkDKPib9mqzWHlumZozWwN6zeVwf/9tAlO+FVSzFGZQkzOvLAZk5tWbZgKPgLvr7yxGf60eyrLojyOtr3XTx8L+czyNQnvDz89HeOoaPv7HJLwv+eBRbjvMefJT0U6N08LCVvu6yf9rnGMb/q4/5N7Y4SvSh+Um37pwxqyoTi0AP4cfPKnPYtY1uv9WPs10cGk4M446+cbLTs2++pbU6k84QM8NMJGxO+yHKPvE89qhhfeWLo03M9Yx/0Mekhn128NmT7ynEY+umY6hrP8sH4qrN2c9hZ7BTjyc+OGaVLtgTfCvAZtTwXxvXiZ35mnbXtmjGtw0PGs2jgVPR8y8IU7qR0uuboa/vTOxwTtOf4xaB/9Pj9HH1vChgH4B94GPuXfJJZRKsW2Sv4lrKr6IXTj9gfEuk5+HP2Od3t+Lu8nrK1C5OCX1+Qv/yjDjnsU4axLZo9E3zDe/e+bVam9qWImNMuZ8M3qqerpsCEeD7u50QprNzTDuk1Fz8+GqSKsXl+EZ192fFw6sOCGO4qwfFURGjNFeOYlJ1oUQRb/3Q+VYdX6IqzfXIT187Q7X7+TuL+pUYQvvi3iOP79f8tw4VVlWLexCK5PFUV47lVHuKWY2LseLMMPaxd3LHD441QRVqwpwj0Pp8Lj/+d3KTzj/Mtb4dOvikAJge9x4GvtxmaMVZvZsjVMNWeC//tpF5xgWLWuCHc9VEb34B4HFOH5V4swVSb8fvtDEU49t0xZuOeV4btVRdjUHA/c/cDY9zPwuSnB/NmyMtx6Tyucc2krnHfZTLj8upnw8JNlWLE63e+7zSW4FoaBvUof0/3Sx8Y0x+gDH/ny2zK8/0kZPvmyDGt+rNDA7HPDwDW2d2bXEl7w4BNljOuSBPLUi0XYEprhg8+KcORJZazw4HhgPDDS/i9kfkfFY0/6mMXtj/aGzK+WwpyPae6MKX5ye0thbBvT/oEvP/5cGT0GFC+GEBnvu+3bCo8/X8b9Dx2POv/zvd+TPubpH3wbp9WKTgewgF8FCweyEGavuKEMX31bhs3FrOyxFPA/z5jmw9di30fP9ugnX0ghMULmlPkii6xYU87R+xhxTZ4x7qK1JZQzW8LaTcXPhVduP1ryyvXNnp9VP8oQbYZvfmjGmDqnyhx3ehm+/K4Zmlsa4c4Hk0ubRP7sK82wuZCQ0bvN+fqc1P31U83ohj/jgmb43a6yn4vw0ZfNsGZDM6xc1wg3351KD3Frv/jG0hnLus2NCDf3lMBp56p/9b2YSyED48M1eiDME143Tbf6oo88V+Z8U7MZnn8txYDtuEcZj6R04s6KtY3wzMvNcNjx6bSUaPFe1QjrNo8P9gzHeL8bYdWPjXjk5YZGI2wuGsH3OHE+Xngni8+f0EdjMPowTrSAln+cdjwiPM7PfxYaP+YWXT79UorL/Nv+ZbjlniJ89X0zPPJ08jDZLIXIbJg2psnifKHHP0p/6IOAEvnHEPQxSt/1u93p0P723apGDNO4+NoiHHZi8qBee6t47kTvC7Fnz9HHlsB45v9B5g2M+LH6tcruOUxEmJqqD598nXjKIO3Vz3anmSpu7N+ffZPw7ts8OAZ61TyyY7WNvn+vSzA1yy1RgPVe9S9aXkm036xkok0xab2+ufzEQCjPJPBbYDpBSj3PbFLmylY3bo0M8z7a7NXfpO6JUVKTVqAxDVTAuphRIRBc3kr5RNfKpc3AlRITSJbIWMRWSSgTpC5cw//jxhOTPWIRNsDtl0z4/fUjRge+3viwEf51UcKvouNcrYK6z7gwVSKgMHD3gP37CYxhnDiJcUeVahTjbHt7bKtKH5TfQehjexnv8tkks1feTtUzJJSJfb7jwXSkMb7hnHIJI3giGtlexjZpONHDD+sbkX/8Uulj0jicVPv2C/kreHSO7Ua/fk+qz/Z25+gjxbwOwz/AC257ud/WXzXGtb3P+v/R57eKc7jGIyeFV7KYtqdnwwaEG1b/ovDKNCu2K27Qa3oneAAe8ctIVJtRDTuhAoJ4WSEE7z7xYhICPddPm4vxDNiM5d1PG+HU81iMW1HQEvQtaJ31WJ3Sh55eGuciLzSOxGjRprLw6v9BYEDYssbFNlJw4FIC3KPPpfqjKS4p1XqMi2Aeuhuk7/rZya+7Kn30m7C1vc0L/oA2P/+2EbO0VRxg3VHtw6lbkrWef725rfrA9ja+ScKLPlZWhNdB+cckYavbTvwh7uX284pSvlC4maOPwRK2OsGXZZK8p3d6pr42+T1h3DgmuGozC6/frRlReM0Asvh9+MV0uOS6ZiwN8l9/TvVHFURHTLLe87NL9TtrbYo3s7LufUgZqyWoOfgfO7bCUScX4cMvl0Ym+ULjsCqcDFJtIMOJBmj3ymSpkemc6f2PLCJOJcFdfI0jCpNw4Nn8Xv29feCiSh+/VOE10yJepqrKg08pS5dK9Mh0vuKmdKIMOs/P1t8JF3PCyVy1gRo3NZ1kGpijj9GF19xm/f3Loq+JCa8IJVpgV6R6qM++0ojnJRMIl7LFtUrgWWNjbVXDUfmQ/9k5le3h2uYuJO3/Gi2DVeFkGOEVntFCrEX7ciqroSacShSOVFWgXEHjWnDdPhlOlT5+6cIrWsYDuCcps/Es8g8b4asV2+fcVXngpH7PCSe18DopHG/P7c7RRy28bs/zOEnYJyq8ApygKnaGJTYfVjDJAY27bcITy8qHXzTisaaSoJyfrM6rcW0vgvi48VIVToYVXhEf/LJMoQ//K/IuVEPYya8Vt+Oeq8Vor0ofvwbhNeOYQpbjBWv67S68zwkntfCaaaf+nqOXOfqohdeaLuboooqLiQuv1c62598sK5KgHEvpzO0flnC87kLguSqcDCu8tsNps8+hGvXG33nBtuNsqf5fpY9fk/C6VOdjqcE1J5zUwutSm5ulAM8cfdTC61KYj6UIQy281olAQ8XjVYWTcQmvS3GB1DANJ0RX6aMWXofD4S+Z9uaEk1p4/SXP87Bjm6OPWngdFoe/9Pdq4bUWXmvhtaaBoWigF3OshddaYJ2PPupqAzWNdKORWnitaaMbbeTrtfBaCy5DCS5V4aS2vNaMJjOU/F2lj9ryWtNHpov8PSec1JbXjJP6e26dzNFHbXmt6WKOLqq4qIXXWnithdeaBoaigSojaf9dC6+dGW47nn6t/88JJ7Xw+mulgV7jnqOPWnjthadf871aeK0Fl6EEl6pwUltea0GlnYlW6aO2vNb00Yk+6rCBmi7a6SL/XwuvNW1kWuj23ZfwWj1yq/5dY6DGQI2BGgM1BmoM1BioMVBjYKliIB4Pu1SBq+GqMVBjoMZAjYEaAzUGagzUGKgxUMVALbxWsVH/rjFQY6DGQI2BGgM1BmoM1BhY0hiohdclPT01cDUGagzUGKgxUGOgxkCNgRoDVQzUwmsVG/XvGgM1BmoM1BioMVBjoMZAjYEljYFaeF3S01MDV2OgxkCNgRoDNQZqDNQYqDFQxUAtvFaxUf+uMVBjoMZAjYEaAzUGagzUGFjSGKiF1yU9PTVwNQZqDNQYqDFQY6DGQI2BGgNVDNTCaxUb9e8aAzUGagzUGKgxUGOgxkCNgSWNgVp4XdLTUwNXY6DGQI2BGgM1BmoM1BioMVDFQC28VrFR/64xUGOgxkCNgRoDNQZqDNQYWNIYqIXXJT09NXA1BmoM1BioMVBjoMZAjYEaA1UM1MJrFRv17xoDNQZqDNQYqDFQY6DGQI2BJY2BWnhd0tNTA1djoMZAjYEaAzUGagzUGKgxUMVAFF5X/dgM366eCsvXTNefGgfbaABNbG60QqOYCd+trmmjXh8/pwF08f3aRmjNbAnrNhU1H6n5xzb+UV0veAn6QCfopeYnP19LVXz9Wn+jC/uNfaeWSWoa6bUOauG13mw6bjaIphZea+bRi3m4VwuvNY3MRyOZl9TCa00r89HKUhNeV6ybDms2TYcfp6fDmo0U9XoO55vDhbpfC6+18FoLrzUNdKWB+RhRLbzWm9l8NOJ+bXmt6aQfOllKwuvqjdPhm5XT4aGnG+GKG5vh8ecb4esVSYCthdjFp+daeK0Fl66CS215XfwF2g/DX8xnauG1ppF+6K8WXms66YdOloLwSjBdsXY6vPlhI5x3eTPstFcZfrNDGf5xeBEefqYR90sW2X7GUz8zOTzVwmstvHZdhLXwOrmF90tharXwWtNIP7RcC681nfRDJ0tBeP1hfZqrk88pwn/s2ArnXdEMF1/bDL/frQwnnd2M1tiVP9bz2c98TvKZWnithddaeK1poCsNzMd8auG13sTmoxH3a+G1ppN+6GSxhddodV03Hd7+pBEOO6EIO+/TCk+/3AhvfDAd9j20jJ/HnksJh7X1dXFpuhZea8Glq+BSW14Xd3H2w+wX+5laeK1ppB8arIXXmk76oZPFFl4JpN+umg73PNIMfz+0DIefWISX324E12+8qxl2+FsZjjm1CJ99Mx1WbajntJ85ndQztfBaC6+18FrTQKQBVgcMee2m/hlzLbzWG1g/m1MtvE6WTri6ZcVv7wLVYguvwgEkaV18TRF23acMF1zVDJ98PR02FdPhlXcbYe+DirDngWV45pU69rWfdT/JZ2rhtRZcauG1poFYAkYm7evvN8KTLzbCWx81gg1xvqzaWnidrFAySea/kG3Xwutk6ISwtXbzdBSwnn6lEZOMXNteXdqLLbwS/vHBI08pwu92KcNdDzdiiSyVB977rBFOv6AIe+xfhqtvbobPv5sOdezrZOi6H95UC6+14LLN6tZOMHXYwOItzPa5mPT/rDZPvtgMBx9Xhv/9a3KXEWQJsL02wlp4/fXQyCg0WAuv46cTAtXHXzaiO3u/I8vwu13LsP9RRVzH1mxOPBpl3hb63cUUXr9fl5T1l95qhH8cXoa//bOM8a7rp6fDD+uSRfbOB5vhL/uW4ehTi/DBF41o7V5oHNX9pbVUC6+/YuGV1rhuKn0UYKZ1VgWVWngd/4azFBkP66rPZdc3ww67l2GXfcrwpz3KcMTJZXjro0QT3SywtfD666CRUem2Fl7HRyfWIj793qeNcMK/ivCH3cpw+vlFuO72ZnRr775fGW6+pxmW/bD9hREspvBK2Gd1vfW+ZtjrwDKcdFYRPVCUBPQvnEr86277luEv/yjDK28364MLFlF+qoXXRUT+qBvCKO9bqO9/1ggPP01zT0WYH3iyEeN9CLEYZC28jm/DGWWuJvmueabEPPdaIxx6fBEtDtfd0QwXXl1EIfa084vwybLpkBl4Oyy18PrLp5H2OR/m/1p4HR+dEFytOzVIf7tzK5xxQRG+XD4dfmxMh6dfboa/7ZcUUGs68/Jh5mwx3llM4RWuJGKdcWERBdSrb2mGz7+dCw1g4Png80Y47owi/PUfZbjjwaQgbI8W7sWY23H3WQuvvzLhlbBikb7x/nTU2v+8Zxn2PrgIu+9fxmLM511RRKE2xvKsnYpnTDtrGlMZN/FNqj3MnRucu8exfr79X7UqT6rv7a3dKLxumA6X31iE3+/aiozbGIQMYNBcZy++2Qyrfuwc/1oLr9vPuhiWNtGItWOTxjuG2awXS3gFN15G+RoG7mFxNqn3jMF83PVwM8ZeChd49tVGjHslXH3x3XS44MpmXLvnXV6Ej76cDqu3o6z4xRRe7REffZlCBnigHnuuGekGvs0nOhLnSqgV93rOpc3w4XaG30nR5WK0Wwuvv0LhFYO44Moi/HbnMvzrIlp7I3zwRWJ6hNmDj0vlQVZtmArTRStsT8KrTUq2qJNQzr2sGc68qIjM/P7HG+Gr77c/N9okmQKm7PPGB41w5MlFVF7ufKgZNpUpAeSsi5vhr/8swxU3NaNFIio0beulFl5/2cIr+sgCEyvUa+81wsdfJ8vfILS5kMIrmiS04gXfrZmOAgYBT9Z4Nw/CIGNZzGeNS+KQ2PQddy/DvY/OWVfNlftiNmXE7/r3Mjz/WiOsn9p+aHSxhFe4w99efa8R9jigDDvvXYQX32xEw0ee74zf51+fDnseUIZ9DirDq+9uX/jNY6l+xzW+Lu2N25OlvhZe2zbj6qT+0n5jbDai2x9MrqUDj04lP2Sr0jq/XT0dbrm3Gd3FjsJ75tXpMBO2D+HVArTwuHW405JFuYzWZTFKO+9VhtsfaIblq+fcQL+0+R10POgB3h56KlkbFOV+4Y3Gtg3eWd4s8n8/pIhCi/jo9j46Ca+53fZn6/9/jr+ljBPzyNIknOjUc4vw90PKIJ7ywtnyQYMIggspvBJCuNHveqgRTjq7iDAT9C67oRk+Xz4dvQhLGe/dYDOur3+YDtffkfi3eNe3P05W1/wOK6uxn3ZeEf68VxmuvKkZrbHbi9V5sYRXtG7/e+SZJPgffGwR3nj/5wlZaJ7ydvAxSXlgJNmeBL5MJ76N2XjAz7Dz9sc+jVjnduXsKWPV5xf7dxSy1yeYwR2F1+liJmyabkUX8eZG/f1LxcFUsxWWLW+Fo08pwx//VoYHHk9z7boxN8pWpIOb725FK9whx5Xhk8+3hBC2Lmn6AH+z1Qpvf1CGI05oxWSjy65rhe9XzYTW1lZ47e1W2O/wMuy8TxEefaam70zfed5vu7eMMV7nXNIK33zfCq6jhe9XtcIRJyVaefjJn9JKbiPxjZmwdevW0NoyE4qZMkw3W2HjVI3njKPt9duaevUtYUVl2OfgVrj4mlZMVGHRe+PdVvTK9Ds2dNIsZ8KWrVvD5sZM2DzB/Ya36PlXEx9gRbvjvlY4/MQy/PGvZbjroVaYaiQa7xf2pfKccX27ohXw5R33KMPjz/58TVq71t5Lr7fCPw8v4+eNd8vIH5fKOHrCMd0KMzNbQzmzZUH3HHhbu6EV7n24Fa3Wp5/fCl99m/hgFV5zsHpdK1x8dSvFxd5UhhWrWpHnVZ9b6r/LLWmvt06OP6MIBxxVhj0PKMLeB5Xh8ecSXRnrUhpHnqNPvpgJz73cSsLr6g3N8N2aqWiFId0uhc+KAeCgkYr3oS0M8t5SGOdCwQA3tNp7H2mGfQ4uo5uYy0MGZYYB7uCShnXh1c1YeuW8S7dEgYZGvxRxq4SJeMznX28EluQdd29Fy8SKdcmCaDysDvc+2gx7HliE/Y+cszbncf9av9GEsQsh+eNfCSdFWLYi4QtO/b7u9iK60U46uwxvf/RTevEuWln5YyOEsCWsXJfqIoq1e+L5lIm7FGnm1zrfg4zbvLFu3HJPM/z3n8tw4lnNaHHCFwiv58Z4ylQDs5927S/rNxehNbMlWJvopp/3Bn0GP/vw80Y488JiW8iLE5OefKERLcd7HNAKDz3VDOs2L01+1m28+JhwKHxMQtahJ6RMeCEB7e+wpH29ohFrlQoNu/uRZqwqsz2sRXQhTI2CsZAyif3ts2+nwyXXNaO36aKr0+EE1kAVv/aSeALXo82wzyFlVO5ffefnfLH6zlL6zdqK9j/7phH5vRPDKKc33VXEChWUvd32TWvE2JcKzchbYQk/9vQUDkPIXlJhAybZIoU0bmyfXuZrz1uogtQVVWf69m424xPWLIb6k/DK5YSp09q5k+ALMVfxA6cW6CfLGuGUc1MSzyXXFpFxtj9bfW8xfoPHJwquxxRh572ViEkbY9VNFuFe3QinnleE3+zQimPPTGkx4F4qfcKR+eZ+/H9/bIWb7kqbHPhchzfrar8jUumsR5/7aQxYfs46e/mNmXD8Ga1Y2Ps3O5ThrIsJwo3YzlIZbw3HT9d6L3ygjfc/mw5nXJCEVUkq6EF8NIveTnuV4ZFnf+qy7tXeQoUNCIF64oVG5AX7HlbGxENjYdxQSmqHv7XCsWcUUREzHnTeC+6lcs9eqK7o8WcW0fpNqcC/q3wuw+oaAYsAZp4uuiZlzUc+uMT3w8UKG7AfiCU+8awiKge33t+MZbN+ht9ZvvjOp41orST8PfpsM1Z6yPhfit/fzyacGY9wQCFi//uXMh668O6njQg/HIihJsCK6cXvrafFHI+YdXBJjHNAhBrkZ11SxPj1JSO85s3yoy8a4YEnGuFfFzfDZdc1YxyGhdu+8EwChqTu2glnpbprBx1bhPOvLCLzUuPuZ4S3xBfuJImEUvDxV41w4DFl+P2uZcRxpxjGDAOcv/TWdEwM2GmvIhbC1kb7POTnF+Pb/BKyjz61DL/frQzX3taMcUvgrMIDZtduvrcZGf+xpxfh9ff6O0Gq2s4v6bf15vPhFylZi+WVhYaGm8dJCbQJSurDpC+9Lp0qk9dV/F49He55lLWiCH8/tIgWe+eB73VQGe5+uJm8IW0KUm6//p7DdTsuzA2axeNYSqzVjPf2Z8f9v75tWg8+mbKqlVCTvIIeCBcs62LKxZZ//FV/cC2E8Ao/ny5ztGczxnva5HKtU/ckpVLI//CXMlx+QzPidynxs27zmGnh6Zcb8chSHiTVQGzqnd4xJvNkPYtTPua0IrzyTpq/Ts8vpWuLJbza7yjqhx6XhNeHnm5GHHaiD14pfPGUc5uRlq65pRm+WbW09kZzim7Az6rMI/HJ141YKYHnJIbTPNSM48jGPmsEz7n4WiXYynDWpUVHA9dC0gt4JIriOQ7hgPNPv0m0vySEV0iLLpHHmtH1C7FOuFAsXeKQzdF9i5Ul1mR8t2o63P5ASijhRrn0+uY2M7gCw7JiEeRCInqp9oWALTaJOVwdBFgZqfNpVfD3yDNF2HP/Vvj7YWV4/IUk8JmvxR6rBceSzNUtGYvG/O4nyVrfDptF7IM5EVx32qsVbr2viIKB6+3P/xr+z+Om/ElOsGYeb9O08zNPvtQMSvL847AyPPVSIwpT7mEsgvzd2/FvKfN57eapcNPdzfA/O7eilejLDtb9XwN+RxkjvFqzH3yubmcjCiEsImpQ4n2jtN3Pu3luJTj9x45lrCNKqMjr/plXmmH/o8rISxwlPB8f0edCCK8EfFZXViPwPftqM+KK6xMM7t/zaCNaIw87oYwKLDxnOu8HN4vxDHoglBO4la87+5JU/aOb8Go8PtzZLGz2U/W8t4f9cLGEV0q7MDqWagm+jBvw1Yk2Vsxatm+8qxlxe/LZzfDmh8njuxj0Ue1TGB2FN8pKs0L2mx80ws13N6MHjUzFGJGVn7ymtWGd+J/x8O+HluHwE4qgsgL664SHar/j/q0/sFA+KaMMbsedaY9vbINnSQivEM0sTKhiFr7jgSSsYow5q0+2q0xog3nzw0asR8nsbXEqB7KhmbIsBR+boBvuSG4ViB83Yre39uBAaMUl16R4KfFqXFAEwF5j+T7WeS3Do09tiRomyzYBcLEZfl5wGLJseIHmQgd6MWeLwX0b8n/+KdUzXfbD0ndrg3sSjAMOKTT3PtaMjMpxh52sM+Yank4+pwj//edWdL1mTf6L5dPhnEuLaA267JqZ8OV3zbCxmIrtaE8tRIKsfvKc9aK3xbg3KfwOOxY0isc5IWnfw5IFGx5Zvs+edZf1IywO2z98mHObMRe1jfzWe5vbQrEy3VAW/+vPKdSk17rLcExaeAU3OGzS1rdC8uiuGnaGDyqXpT6n5C2W46pQnmFdat/mmzBlr9vzoDLc91g6TIag0icGx5QAACAASURBVA1W82RsJ51ThP/csRWuv3MuJKjbO0vh+mIIr2iHDEJRFHrGWu30sm7rzPNwxRtB8WcQUpml2/MLgVdrVv/LVqYwOgcPCfmRiEV5MSZhcxRPa8JayePI8PlfO2rdqtLBIEFA7/RsfmdS3+BACxQ2NXeVcswGyQz3oguvFpkj2ZQx+ut+ZTj8pCK880mKwYA0NUgJon/9ZxF2+3sKVDcZTN+Os2RS5lYzIQbLOqjG3b6HluHltxpR254UgnO7mCKzPOLJJvh8byl8wyP3HuHTsZ8PP5NcZpkIusFow2ltaYV1P85EV4J3ETWcd9P6u7U1zutwTYFhld95n+Sebt+o2vszVnPDcnjg0UXY7yhFqJPwOh8e2tta6P/RNtgt6HH1bd3xZtxwZ7IeOF7SumtXaPTpc+PdzSjIcEGKhSTA3n5/M+yydxk1+m+Wbw1TRRGTLNCb02ck+mA61nd7u+MaxyjtwCs85DGO0tY43s3r9JzLivDHvyRe9/xrzZioQHmwmYglpnhOav1ZC/jZPY+kIzKPOkXN54Qj9zKu8F784F8XF+GjPkIHJi28gkvCzflXNMOf9iyjom5OzG91bljYrHtCOf6h/qv7S5kHRIvyi42I738eUYb3P5/dZ3qEwcGHsdv8CepoSgkt16v4WGq/F0N4zbzwtvub4S/7luGEM2cPd+gSlgFn8Ih/nvivIvz3Tq2opJunxcAnWBgY1OgmP5GNyD/WJuMBI6DTNNE4vtGLBjyDD111SzOOi8D75fcLu0+aD3CIO3YM7wFHF+GF13+uHCy68ErgYwomWGEoQgQIIhnBNj2DYea2WRJkBatzd34/G8+RCcbEsAYJyGepoH2wYuS28nPj+oZgjP6ZVxpRCMDwCVXLZwUl98fV17DtgMH4Wa1ZKfc6sIjukX4Wmg1HqYwQZsLr70+Hg45JGbx3PzxbC24RrNoWllNjFNCnJfuO7tQejCbjDh68a1GL2bv8+pSEMin6yP0O+4320fnVtzbDg08lnLs2DnjRLaHy3MuKKIBecWPnepDoxwfzw6iVWPOO+GIeDqezPftKM7RmtoYNU0V0Dzum8vHnmuHPeyT37TsfL761vjoHxoOnUMIk8eA5/oeT6nML9dt8oms87rgzUhydY3nf/zxlMVPW1JaEf7Foki29YxzjhlGb8AAv5i8eD/x1cinqK2cfUwLx7H8eUURhEF32gmfSwiuYuX2POb2I1VTueSQJpe1rxXO8UOid8H3q+UX4asXiKuO95hBd2tOuujnVrjYfhFD47vWecfvc93iKe6VEvvxWonvJO73eXcx7iyG8oonPlk2HK25InkmnTArT6IVjuDU36EgN4bMvLaLy1E5vk8YlBZwQTZkEx/5HFeGBJ+Z4Ob4yiFHNGjbuR55pxtBNhh6hOK73Wt/jGqc+4PC1d+cShe9//KcnneW+FlV4BSRiJfTZCA85vowZfxCeAfSdEWoSCF0srZ2YJWIykRJFmPLFNYntbG+v2vawv/Nm9+izjfCPw4pIOGJvfVhJCB0WheeG7WMc7+kfs7vp7iS8xtjQT/uz3GThtWjNxOL+Dz+dMo8JLOKpJmX96TbuvIDufKgR8S3MpBoD0+296nW0YGP+jx1bcZ7Q32LPURW+/NtYf/gxMaX/2amMmaFc8RayWN9RmaSkA9nKwmyE39x2f28BEy1LeBHMLy5MLCTB5amXWWsbYcvWLWHdpiS8wvFLbzZiPUoZ3yxd8DwqzBk31W94qv4/3++I11k+ceFVKQmAInPVzUX44ru5eKr52hn2fu4fPq0fgqm2FEdnCeQisyF+tSJZwT1PYMTvxKLha4ccR2GYuz8sLJ3eM0fmzwb+//63FedbDF3Gs2+fz79LoST/s1MrXHdbSvTLz3Rqd5LCK2GMJ+DRZ1IIzCEnFOHFN7pvuPYQyjwPHi8dbx2YJ0GfnXAxyDU0osIDa6CSRkLqGGTm41nmwngI9KznYtrve2wu/GMQGAZ5Nvc7LC4XQ3hFO+99qrJGig+mmNszrdFuY8/jlJGv/KI1yYjlnV7roFt7w1zHw8k7197eDLv8vQwHHZO8zYwHhNph4TB3DEKMFBRYQr1rw87pIGPD5/R9srCFPWaThL/trEgsqvBqYTrRgUAlrosLU4IHxA8y4PwsJmZRf7JsOsiQ/d2urbhgTWZ+ZhzfcRJXT0dzvCQWFkBuUnG719yaLIIx2/qRlDDQbREgrmEJrN9xIHD4UC6F5VXws/8RyXxtZOFV3b1VG6eiNnrGhSmmmPvywy9Tncf52hnXfcoLocgi3eugIloVtD0fI6/2ry7i/U80YpKXGDIxvAsxD1UY5vuNvswbQdWGxW0C7+ZPfTua8KjCYGYSNPX/2Vm5l0bYMM86sV7h6oEnG+GCq5LLFe5Xrm/E+p1ZeNW2sjMs3AQEm0G3sj7z4aLXfbBkIbBfngFenh0JnjvtmTYddECAZdUSOjEpeoA/H7iQ6CZmzhn1SpXt+vciEPTFIOdxVcfu2lffi2NLbsrLbxx/LFoe92ffppi33+2SeDJjgXsZHr8JuHjd73dL8ePCu9Bt9bn8vO+JCq9rk1FDnLDEDvsJRaTbZotmzIGTqihihDuVWPCXKsxL4bcwh4eeTso6z5ek1F54rsJsLvCJf13SDP/1p1ZUioyx2xxV3x30N5jQhI8+nWToN15QnQe/rQFw+KAtwmN+ZjGEVwqkeEp8AH+974n5Y4rh0Id3xPplxXc6pTFPAr/t8wFf5B17AYPZHgckfgy3GZft7wzyv31S6cT/2KEV15N3B9lnB+krP6t9wjjjlHABVl+KW7d1uajCK6DEpe53RHL10IBH3ZSzoHja+anIvo1TeME4CcqCZPGjcTHV24Ag/sfpJHizNBEKHM+n6DE3FSZkkXo3b2J+x/8rizdP5Li+LSZ13I49LZUAEVvMXdwPIVaFV/B4562PpoO4qz/vWcQ6cFWrzLhg7tSO+YM3FkKbKiukDahfoSW3qQ1WF1Z5cUH3P9G9JEp+ZyG/jdNH0Lz4UklS4k0pHKxhsbIGmprHMtAL5szcJLmp6sH6JPavn1AS76IDH2vNev1+7U+FV/e4YgkH4tQJXLRptN4LrkHuaUsSC4X3vsdTJr5r+u7WDlpR0kZsGzxaozwIYghjctLfyyiQEW57tdOt/V7XwYYRs6qy0mDOFN8DjirCEScV4db7zHGypnbqG01Yy5RkXir0r71ML7367vdebkviHphk7XNBWjPu5Xb8NvePPpeqUBx4TBEV+bihVp7Lz/uetPDKS0Exl5x0/hVFhDnTeRWO/Nveg4dLuKG4XHNbsmgSpvI4qmPO7y3kt/5Z3XmKKJjyDWJsfw+LYBU+71vTavTiI2dc2AzfrvzpXFafH/a3fuwpvJysgJLlZIYT5uwX7uc9D/zCY+58sBn5gwMj/F8N72MsEa6GZoaFaZD31s5a4h2DLcseX/Q+uaFXO3lcDEOEvHMuS4qn673eG8c9+GQsO+28VIFCjCrD37h4rHXA04PXKH1IhjCuSY4Nf6NEKLmoX6EL+uu2jhdVeGXp4XYUUC4bTiLIqMjH+J1RzCpggzj9/GZ499PeLoBBiEn7tAOla2yAhxxbBDF9mISNPJeqcBrRSWcllyzN/pFnmzHRgqbGvXD97c1o6WEl4DIEc/smMQhc3Z7FpG1yBLW//rOcd5OptlMVXo3N3BAYBf8jLmecSwTLCkP13XH/1kdy7aTQBXF/Chh32uh79U2AsegxGvTBXWw+B22nVx/Ve9o1B/3ObYaDkAPH+fxyuOcypOETLGRNUxyqffX7GzMw5gefzG7oMrzydv/hNVUm1kl4dR8jkoErJEEprQhvWzhQv/C2PxcZ6FohFUX47S7p2E+C6A13FuHz72bnssMGEt2DnyflS0y8MBhWF3OjBjCl6NjTkxAzLpoGq/Zt7IRWvE4NazyA10myk43b/Oozjq1LTKJ5wyMlUaADQgkLfTfm3o63+f7Xjv5Z+hxMwXtFqdFH+7ueFYercDhYGAnA3w2WSQqv+nzvs+lwyjkpqVdORD+49B66Z9HM4RrwG/m4dbspCX/ztdWOm3H9r1+82x7B6yLzW9u9qgxU+860J4zub/9E2+P3NMEheISO8EDaEymrJ5/L68KSWUSLJi+MGru8SOrUOuURjfEsxXcuTIl/qzZMhUa5sMIrOeTJlxqxog6F0prsRw7J+CWIS/SiUBLEc1x4dS7G/Tsa/t5OiYfm9uXZOr69+McgMODf4trNEQvo06/MhtZ04KuDtNvtWbTOyIen2ffITuKOwdHtnUUTXiEZwNxkMmttyIDH6LsB28/1zDwfi1aBIhbZx4BHbTf3TWBQ2B2jJAwSQsFtLPmZTNS0Ua4sm4BnLVSLVkH3Q45Pi9mGJlHt5HOakQDBPy4CBA+h2sbJuoDICdoIP8Pa67tdeAUbgRE+Wey4hJ966aeF7Xu1N8o9mqBNFRN3trcxwdOguPK8ubrtvkZ0MYr5zMLDKPB1etfC+/ALNN4Iz72aauRiit1gdh2O0Re6IPjd+3gzzhfLvTg+maRCUt78oD8G2wku46eEsOiYwzMvKqKbvx+G3d5eJ+HVM+iOBU/7Pg68IJh3G3t7u93+9z68SrKy6bGcEZzMIyHqrEtSBZL29U5wZa1WKs16O/XcZrS4agusMnIpMwRtG5B+xgGr+eTCFpLw211aMXwHzrJCYy4GwYv3bruPe7wVN0sC5Lh4RlacUnWXVFrnnY87K3ZclmBhXVcyi4BVtZ61z9+khFdzBO6YQHZMEo4oTf3gFN7g37GTvBwql4jjZoUnaJ15UTPceCc6aUSv2aBennYcDPo//D74VD4oogwvvjmYZQ9urOnHX1CXt4jhVvA0Dto2Fu0Q1FjLeBDsMfc/nsKP4JZCQUGmiMsDYTDAcxhreJbg862PU7F/HkxlvRgotoaFE16NARwOdKBYMjQNIoegM9U4CK48WFzecT3OY7UdlBaqz6PZL5Y34tHd9gNrDx9o53nVdwb9jW7wQWtBKIVKBqzmxjZoW/08b39j8caD4fGZV1I/vfpbNOHVpMv2RdgmQHBwjHetCIH9DLr9mbwwuYQQopgm2fEYQfuzw/xPGyc4/eUfSRv2u5tAAvE2TUwdIXCR2CQVH8+uezhgQbLwxdxgBOOCNU881zgcM//ru18ibxde4cvCYbXjFpL5bPPKOB8Gn/28o330IqNSohUtnrafx9dPG9VnxECLFRLzSFgR56g9/VSfG+U3JcemeMJZ6mGWsbg4rRL+jaUT7K6jFeVNCHwsJSwvBCztvfVhIxx9SoojveuR5GrzzqBwmkMJCVfenOKgWdL7qfvbqZ9uwit4eR+EqxjLnQ8OD2/uN9MZgUpWuZOSxGVNzyQXMKsO649QgnaFBA4lr/xt/zIyyOffmFu31oMqIdyyYEXThPthcJth9Z0tZFfclMo32QhYW/tdf9W28m/jUI9SEf79jixirLJ7negpv9Pvdx6v+qc2cnzJWu/WNlgee7YRvWYqD1Bq8xy19zlJ4RU9q0Ubyxz9i3UxwdzPejY27/MgPfFiIypF5l8IgvnCN9Xb5QLfZtXvYhlvH/Mo/4MdnVijv/ljK1rbl6/uHsfbqS9tmFN7Cle+MBAH+xA4u81pp3a6XbPv2cfikeO7p+SabMjRN4u9vQydaIOQSFFkiIBzMLgHr3i6BJ1Tz2uG71fOhNbWhQkbgB9r/drZXBUF/OdL1qriwzjxGjkAvEDWjrHltVR9dly/ySBCpuznSWDuL4lvkP7Bz1t2wZUp9AsvMM5JjAsdWX9ORxVq6WQ8c+J6L5gXTXgFGCsgi4QJ4BKRRT0O5FgUiIpLy8LHANaMIVAdbAgbc8PUbHbzuW8zAzFezMgnEzc4XSfAKmVCGBT75pr3ek1cP/fAi5lw6bD8srCBV/v9vN9JeM1MT5wvSzK4swDfT5uDPpPxp48jT0kM+K6HUozxsDjCMFWDOPT4FK4itkcs5DhoD0zm97FnmzFUw4YqvOKCK1NFCi4YFknPtMOPNmjQLPUplnpOGPA8Nwplj/X53MtSyEa/c1nFu3fE0J52XrL6x7U3pLDWTXiNfXydzldnIYWDSHsjKKfmB/1pi9tf0qBEm1Ub09yJZWaVJsBKKvOsj/nmCsQUuaRsMNYcfMOLdjFLhdy9y0pUvV/FXb+/zS3rpE2GUM3ay+Jk8+63jU7PgZU1/+xLc9jL+A6B0DbPCqXp/+3QigIhi0gnOFzzPGVMuTrjE3fXLZRnUsJrnl/CA8XWBihZqH1tdRtDvm4s6IHShV5ijsLGZA3C4xgXzrsi0XCmm/zuJL6NC83aw/Q9X1hGNxi0Yw8QB/yn3cdXHlC7OfSIUMyjaP11om9z4flOc+IaXmG9HXVqMwqAjzyxJUw1y7B8zeRjXvFVBxIQnvEp4WjZsNQNp+3XGUNuf1COTSscc+pcyaxO421/d5j/Cf+PPNuIPPDAo8rID4xjmLa6vWO+8HayDl5rr4CXcfejf2tNKUjKi/j5fj1fiya8YhAKzx5ybBn+eXhK/hmXWRriIZmliysRYX76TVpA3Sarn+tgthkdedLs2e0jWL9yf5gmIpdIxeoT6/G9Pbex5ueG+cYUbC5O5tG2OOCsGffTXifh1XvwK7nEJsd9SeCWndhPm4M+k5mbuCICOGsIC2Q3ZthP+xkvhBgMS+b5KAlQ1T5ZNWRri1X93S6tiHMMndbKAmcjMsfvfZIsEPlddID+VUIwVyoqWMR5M4AHH0kyu3FvH5Ey44ex0mfBUjkSCVWsSsNq1d2EV0co2twoGuaNW80mQTjIYx70G454Z3hUFAYXy+dkPe24p74y/BHu9zgwHWW7cfY+Cy3mePiJyqsl/gCfGQYbAosmpYEA/PZH/St5uY3qN/4Dp9fcmjw0hBD9wn31uUF/5/Ug6Yylh0VNP53iUgdt25r64PNGOOzEJDBR6nqt6wjLjyk0ynxsO9Wqw0Y6SeFVEXWGBDDYbK2Z6twOiof8PJrC8195ZzoKZ/YSIQmu5Wcm8Q129MPlLoEoxh6/NjzPY6kj/P5mh2TBNa64XkawIBPgKdN4CEOO9ofloWAxZnkk1t4hx8yEF18vJo5nc2c98m7h14wx9uFBeSHvKsEdbyHEM+xoe1Qcd6ItdPHJ142owO+6bxkuuTatf9c7PT/KNQnoeIBSjcLYxpkQluECt1ARRkxecmFd7vWDu47CqxezFurbBGNsucNxfGOKLBG7qu96XHKnjSKQVGGyELQF8fseWsTF/8xszOEoTE1gN9fSH3bjSiojox/HZgRWQiVGIC4OI4D3UWCFjyhsvz8nbCvcPcjC7CW8cgFRDmz2NmZm/3HTiDHAgXFwW8iYZXFk3RkFN+AkdMncJkwShlgF4bxKR4P+BpMPrVg4gnhMiTngJ7SxLohPgrOLrk4Z+LlPG4xYV4It65/QgXbXNUGV25mnYue9UoWAYejEO4QUAjKGAV5MZBicdhNetYWpv/RWsspJ3rBJZGF8GNx6h7uf9VqCpxCcqvAeGfjaRJdwKI7e0dF3PZyOfaQkmw/z306r8K9sGvyzJNlIe7nM54MfX1i2IlUxELvMui0ps73f+drpdJ+lQhzjTrOnm3ELZ9rr9Hw/1/KaiEkaRxbxWElhAPMJamAxD5RAClXO1KbEVfudhPCax8wrI+TKvD345Hh4Z4bdPKIDFrmUm5D2qvnwkt8f5tu4tE/ZpaDgr+rqmiP3Bm3TXitsx74ltvfzb1Nbg7ZTfR4P4TklbBLqzfuwa1u7xuaUqFgK7s+tKJzZq8axXqpwt//mkX3m5Ub452Gp+giaTzytfzzHOVmbTiv8/W4pyRbvnoRAiada7wxHaj5T4NFnP8Je+9jn+9984gfWtspK4+Az7X2i81vvS0n7DBz2JbyjHzr/mfCKKFkpmXHFx9D+1COEIAJLe+fD/m9BSTxQYsKCQjDjmmwDR/QsV2LjWGJYgDCifpDSaUyRcayB6CSwKRothGBU4VVfYDL2aF3cr4xxjeLzEOSw8GqXNQlTcaoWDf651wYrxt1NeM34RRcx7sZm7xSMEfDbCecZN2iPZqYgOsGewDIKXiJuphJuMF6WTlYxtN8Njn6uoxEfRzI6opKbOgv1rouBFAdqo3VSFTc1usckvlo+Hcv1ECaFRyhN0g6P/50QhvaEI7CYRhfXgIolQc2JWWorcwmZR1p2P2Nsf6ab8Oq5LGzrhzCpn6qw2d5Wr/+tBXTA4mjDZGkTp9q+/vJz515exMLdGLz59U1Zcd+nvS/rTyiFuOrd95sNyxggxKbaXl4fYp4puSxThOZhcVxt2290oG1JanAxiuU8t53xhr8paN8Nv/n5/A3/hH6hFuZZQk4nt+skhFdrChyUcvNL8SDIjmsfyWOEG7Th6M3f7VrGEx5dG5UH5far39r0keRnDvQnhhuPGLY/610dZ4k3Bx9XxFrZuZ9q3/3+hnfr/uGnk2Bz0NGpisGwa1u/4DFv9ihhNtas0B9K/7Dj7mc80QX/dCN6oKIRbci63+QZsO9zaApFe+z5VEEo02g/sPTzjLnES/55+Kyw/crgwnY//XiGYKmUqQRp1YpiVaQxJW2ZU2soy2gOWZDcjrf1i7Ntwqv4EgtEsHsuuhtLWRxUxo1SrUkxqe2bRb+IqD4HOAyOu5Yrz3nUXKYGU31u2N8Qo49vVjbisW2smVfcmNwQ/SKmve+4uX09HS68OtVVY65Xy3IcMGd4hSTQPlip7nl0LqGkHZZ+/2cpVjsXA0Ts3DztAlGvtroJr97JMAvo/s2Ozs5uRpy73qvNQe5pyyeGapycYpLufWQ8lhULU/hBDnrPx68OSx/GhRbQdazPulOKGawydG17xgYrtocF9ua7k1KF2cl2Juy8KDO/g3WQa5j19tLrUtyrODZlvwZdk56HUxuE7E7wWPuDzE1+tpfwitbUUJW0pR8ZvXGdDyhs68vY4fb081NVASEwnWLk0QvcfbosKd0S87h6WQ0SrJ3HGfnFqnTan6ocEuOGDXPIdEA5Jwgef0YZBe1B1l7Gb6dv7fPUODJUDK8DLCS9DEoH1bYzzPgaC2OOUZ5PEIQ3sb3crehZ6ECMF24Lj5iE8ApmY3ACEOXIEZ3iRPP16vhG+a09dKXygBAY++Mb74/P2FKFLfO8J19IHgZ7sMo55ta96rP9/kZ31jjhnhHDiZajhOjFvXDZdLjk2syHho+/r47B+IxT+UJl6049N1mJhx13te1uv+2RjEa/2bEVPXDwMh/Nd2oLjbCOg50B4tTzyrhGx7Xmc588HQ892Qh/2qMVDj2hiN66Ufas3G6nb3Mh8R3P5e2jRJF5xmHEZF21B/PeSryl/Ear6wB7QxRe124keExFl7gMVtYowt7HX6eapOI4bKzci+Owrhm8jGGZhayiXKQ2lnFOAoI30U6i+b//24rJStoftg9EaMNnrhcbw4qzbIzmevDCgUQMR2863IDgM+zC9Z6x3vFgI9YwPPa0tJgG2eDmE14Rn0oGCJvWSvPU77Awty+g7D6ggau/p7wYtw7mMmof8MCKee7liQZZ3GIh/SFjhzJd0YqVjenk1jY+cOubO4Ybm/BBYVGYmYWO9okOOsUwGjdrPyYC5+p9DmoxBif3NasJ4VU8HQumuWzHfz//J4Hwp4cU5PcijiWdnJ9KxcW4OGXlhlBS44b59XQU+p2iRNnoJXDbTKzZnIADll40k+flhTdTdq1alCyKvfrI42z/1q8wFEKO+TVfX45J0c194Q3c9Xg1xdTRvaNslJm2WPVZ4wfhyfisdbnL3smV+dp7SYCs4ntSwqs+1ITEM5UtnG+eM/4G+daHD68J66t1qiRUVTEdpL1ez1qf+hKmQAiSr0FBHUUgN7c5sY7wTfEbxdWMVwgZoPhzKTskZBRhuIoP4/zo81Y47ZyZ6DnhVcALM3+tPjvqb3jWhkTDP+yWZAT8bFhc4xWp3FPyiLz4RoI79zMqvN5neWXwEL9MUdS2+R1H2+1twANFFC0yPqgI5X9rrP3ZQf8HdwyVPFc4YKpZPai8E4XXH9Y2I4PFaFn9HEvJehEbm3WV776fOnHpzOhhN7o8QINX95LAs/8RZUxCcW+cBAo5mDnrByYg0Yer1HWfDEu/33BB4CDIq5lHUEsb9+BtdeoTTFwY3G60TnUGxSYNCy/CQxzipswrwuOaHoTQewmveb64xWOZE5msNyS37LjmMTNyZUxsGGK/WPKGZS5VvGuD5Y4bGkNnLR3W0qZdApkN4YqbivCXf5bhnEubXbNAzak1gJ7Mi6z5i65uRouINrrhz3WbBPcNBcp6VGR9kE00t0EhILwecWJKgBt2TfcSXtFathDqS0kumfKDMj8w68eBJixHrNPdMpurczzob3gUrsFFRlmniIB1EH7hWXxHfK8xi0vFKwaZo37gxiso0wccmWI94+mEI/BQ46S87XdUclU7s51Vqh9YjJcSxVJmzJ3itSchvMK1GqzCcJzBLsSNIN0PzIM+gwbxjDMucIpXGfmq/wehjX76tO9+vSIlEInxl2goLrOfd7s9o03x14QQeDrnksGTkqpto2UhQPJVzHdUfkcMucrtW+fqvD78xJZ4qtjRp8lH6D8OMrfTz7c5RfPnX5ks9wwY+h92f2HYsx+qSmFP0S4PkOv9wDPfM+CVFKeMG481r+co8PbTn2ckoPFsqKQwjtwQ47BueMUOOCrJUxTxQfeFf1u7bmu4+Joy7LB7Ogkjx6XpAOAmUuC0UgksHgQUFsd8fz4EdLpvo3TsIPecpIo3x3zMoT4hBzKULPrH4UU4dETLoHg1Qr2zvGXjIvphibwTTjK8sskdAECwl2Tmuk+nd3pdM3aWI0IwK50NZVBtez7hVf82i9tlPu+cYpdpZqPQRnVM8KstpXgcj3jlTUWQxT4MPqrt5t82Ix9wigAAIABJREFU3ZfeToWR1e3lWh7G0qY9+ObWlvwlTEO8OOGtF6zGl8fofZ9ez7sHH+KhCVgOuyAYDQJzFiivvS3FvFI81HiFi4yXQb4xz/bjYfP7xgYnmB/3OUuBLP5BBWUwsziz3NosCfsUUfjKfY3jGw5YMI87PYU5oOuY4DiAK8uYvXP3I40YO6sySTwYZEjLdrdx2RApAsJ1eK8uvtZG2dli362NfB1d+bzwZvJwUIwiXfUpNOV5Fi8r5IB3ilejOs/jFl6tA7QnJESi2MHHpqShap95fOP41p9xOtyEtZFVXYgdwXAc7WvDHBgTKzbvjXmwwVNURu1DTOa9jzpQogyHn5DKHg2zfjJ9m2tGEWuawDYs/2gfl/HPhJnw9bcz4cSzm2GXvZPM4Tl8oP35Uf5ncHDYy4lnNWN1klvvH80DbP7A+OxryVJp31UWcZQKK9XxZY/1KeemNZ+9dOOkwWp/fmevirrP4uvxnFHXGBqynsiSO+7RCvIThpEb/m2/w1O24JkXN2ePZ50K362eCt+uSp/la6fCd2umtgXFH3Fysr6u/HEqnj2MKQ3y0fbaqalY0kRdPkHp+hJzO0g78z67aiqGQogfPOrUdBydrGNjGbSv/A53SzpjWszQVFixfhZPA+KgG+zfr5sKb344FTPSMUhad+672zvdrq/aOBUzs9UyJehw7SxbORW+X9s/npet3Bw2TbfCdDETvlnZ4b1VU0E/T7w4HRUEDJc1Mc7nAP10GwPaoySYP9ZoIRDrp8aE81VTYfXGqfDuZ1Mxex0jplChz0FwBPa8Rl54fTri2tw9/YpErB6wWl+r09oyx/qN6y6vvU40NYvvT76ZihZItMjitm66w9x0en/1VPjhx6nw8ddT2+LVxHB/9FW63m0eel1HF6o/tGa2hLUbi4Bm8vN5naEPGzEh46U3G2HN5v7h1RZeI5YxlvbalyLWCF+tGHyeMlzdvn9YPxU+WTYVLrg6bQ4qQnz05WC4accv4fKDL9IYuvU7zHU0Zz2LX5S8x/ooPg1ND9oevvPV91OxKoOkniNOtulOx7Xdb1urN03F2smEV/T/yruNsHLDHE2jC/SBTtBLR37ShWY7wSDMDQ0IFZAodvqFzfD2JwTMwcffqf32a9YmenaaktjRmAT8sIL0aQ23Pz/M/+bh6x/S3mhM9sY3PhjDmFZNhbWbp2LSFguahCiCd+Zbg8BqvI5bVzN89wPKcNUtjfD5t7N74QDz161PdGG/2bK1Fe5/YjqGvNlXhoW3Wz+uGwsDEUOR2OKH4zHtg8sH2/qY5c8ffpUEYqWsrr61GT77dgxzOAuvcn6q2KhmMzK8883XqqmwJq5rpeKSEezZ1ygQI+Bodn9lQabk8i7cfA/P1ODr9t9OP68VHn1qS/hx40zYEmZCo5iJxOO7+nHqxYn/aoXf7VqEex9uhXJL5+eq77T/RpSuTTVnwmXXt8J/71SGK29ohWJmJp5nnO+3vzfs/81yJvywZiZceGUrhg7ccFvrJ2MapN3vV7bChVeWUdu8/tZWmG7OBO0P0kavZ+PYy5mwcWom3HznTPjPPxXhnEvK1H45OK6L1kx46fVWLB9z6HFl+PCzwdswxtbM1jCzZWscbyf4m62Z8PV3M+GcS1px07r57lbYND0+vLz9QStmO+53eCu8+tZMopU22uwEVz/X4GjV2plwxXWtuBlde0sZVq1tRVrs5/1tz5QzYf3GmXDbPWXE99kXt6LlQPvbnhkjzGvWz4RTzm5F19EDjyflot+1g2bR8vlXJJffrfe0wtofZ4J5HAZWNOK9rVu3hqK1pSOdLPtuJvzjUN6dMrzxbiuUM/3TonGVrZmw/IeZGEcsHvPN98a79vK44WbD5pnw0BMzMTP7lHPK8OU3rYHWuTa+Wd4Kp5xbRqHq/kdb4cdNw+M3w9bpG319/tVMpDlCyVvvt0ILX56dk07vdLoG5nUbZsJNdyZ+cdFVrfDdiv5xHOdoJs3RKee0osv0nodbYf2mOZoCE/pAJ2AYFMZ2uMFszzr30jKeynPbPa34v+vtz47j/7y+8LZLr22F3+xQhqtunKONfH/YvrxvDa7fMBOOO70Mv9ulCA8+3gqbp2dCcwy8wx77zgcz0U2735Gt8Ma7w80Bmvvgk5lw4NHJKPLS645y7Z9W5sMPurDfhLA1fPfDTLjoqpm4515yTRl5LByNimswZHw//WIrenOOPqUMn3wxOu2gP3P28hsz0dsUS2p+MjMQz+uGI7h//JlWPK1RDstnX40Ob7e+8nV9fvXtTDjhjFYcz2PPtMLGzaP1O9WYCc+85CjmMhx2fCvS5SB7Qobt37ZuDWFm65YAyHyx/duEuH8FgfPPRbjs2jSAQRmF532+XT4TzrygFV1MBOHYzoSYDiEbU+YuOf/y1NegcBv7R5/NhBPOLKPF67GnkxA8aDvteO30v83n8Wdb4Q+7FcGCWr4y4WzQvma2zIRHn5qJiQxHn1pGAaXXHHeCxTWMZMuWtOF0ewbDueOBMqhxd9q5rSiAD9NXtX3jxRQffrIVhZaTzirDJ58nOqw+N8pvfVAWHnm6FS2DJ/+rDF8uS4xmkHYtvFVr0EdSkgiUGNggbfT7LJhtcBdcnhSpW+6eScJRn+vHvHDJHXtaKwpXTz3fGn3zKZNQUra2/GzM+iNsc+sKp3j+1cHWu/Gir48/n4lueFY9v+G8X5wN9Fw5E954L9Eca8yHsxtPv21YvwTK/Y5Iytyrb7eGVgzm6xNuv1/VCqedX0aB8d5HEi0MuvY8j37/dWErJmbc81ArbCBw90lTEU7C5KaZcM/DwlnKcPJZM+Hb72fCzNa5eUIfUXgtf04n8421/X6kq3VbwiHHtmIR9WdfToJ7+3Pj/B8+0J31LY+CMcdaaszua6P0lXGNdv55RGr/tbfHNyb4+vzrmUAhU1aMgrZpasA5jvvBTHj9nZl0tPYRZVi2PCmXo4y9/V37DaMJXMMBr9g+B5Xh/Y8TL8i4an9vkP/jXG6ZiQoCpfrks8to6BpH24k28dhUihCuoxIyyHpqV1jKmaiY3vVgMvqdcUEZFe1xwNsLb8ayYtVMuOSaJOTfeHsr8nPXe73X7Z73CL9X3tiKeSwUQe0Po6DFhK2VPzbCslVz7r5tZvBZszIzMVeqDGUZ0rK+n3l1OnBzbHN1zmeCnnWReuepl6eTqf7IIlYw0DbXaXu/4/if61bsGvO0pBzusUHcwt9xBWxIY5esxT0nLji7kcYBY7WN6O5/3dGlRfjHEWV46GlHlw5mpgfbyvXJ/eR0jJPPmQ1zWDcYjucNG5idczgWm6Xg/z/jyU9TA9NGFQd+R7fg91PhgqtSspZvrmPX258d9n80hxZkR6sOwP3KLdLT3d9G5xHXP6Y2bNq77lvEZCJu1GHh6vWe8X/5/VQ8i1v855kXNcM7n/bvluJWfuvD6UjH4JW4xVXHhdir3273eoUNeAcdfvbNVEzmYR284c5GdI32uwbBxZV6z6PTUdgWUyyW2zrpBtMo17n9uflt8A4XiDGHwj/a5r3b/9xsEr1YiMX5mpvVG/p/v1u7na4LW/r8u6mY5IkWVJ9455Op6K7v9HzHa7PhM+99Nh1UmrGG8Rzzk8M+Or7Xho+8Dj74Uj3UMrYj7juHEI0zbCCH2Tz3Wlq3DicQJzqM67GfseVnjFFYgnhgeQ/7HlbE9RPhGXH/yuv6pnvSISQqKLz5oTj48dAOujbH51yaKgQot4d2Yuhb21zm8bZ/GydXu3huYVzkgC++G29ITA4bEK62Yt3mWHPeqUt4h33MHhDX02zYVTuM/f5vLMIXVSP6P79rxWRgYS7D8sFqv+by6xVTMc9E3OtJZzdT+MeQoZbaBi/Y7INq40t+NRfjgLcKe/tvYzHHDllhOFAh6v3PpgfjMZm+ViVa+XL5VKxU8dudZ2tvG8cQ62dbnVdAtwfrVv8XjCyZQRzODv9/e/f9LkdxJQz4D9z91l7buzYGAzYYsDEswdjkjElGyOQgkRFRAoSIkshgwGAjMDmDwCDAiKA7Sbi/5626JbWHCd093XOvuPPDPDPToerUqVOnTp24fy+77tZOcNJ2Pf/cqN/BofnzmEtRKhrCpCS1nHfLtDOqj/57IiMlaMbgLDYO1Poq2p/nBMQIeFLuk6P+G+9NXqGkH870n8P334NPUSSWa27tlA60gs8URUlDUDWKEk183YpaZo70Ccb+bw7cT2/aWR5v7fpY1IJjdv+zRf8LJkgBUKrMFAmAKtp2/jmBBpzFJWJWgYZv8LjAqfz7nOgFE6EPwiBGZXHXFcCQ78vvFDCx+q520Bar2DUoWX//e+k/WrYG9jsk+iY+/UL1YC1toothAVvup2Cri66MQVA2TYFFRYMvPGd+rr45ln1V+EHqoKbwKxBKf6we8pZKiYcHWFMJh8O+zY1sEGvuiQeuELhUYzBLf7+Jjz3+7FwIppARxsFacE7/s8P+awMuZUewOf3ioE7wXS3TRmrb+N+TK/f+mGmBr32qvISX/POr6POKXkbxk9TesG/94A23rlOARdBQNwT9NkUTeTgCb30/CoE//WUvu+TqTqCNIvSRb6f/N9itC/srTWPIqflhXO/9z1b5H3D2UeRTsgTIDGGPKBO0pQ28Tn5hwiRBuO5KUuiC1s6+g2bgRXCmWBtp4exl/CUnDYIyX2CX7WW3fZRZbYeMMZPOo7lJ6/Ivz8+FzET7HtzLNjzanigTBrgESzmgwr14GHuPvqrQQ9F3Ej7ufTjKI4pcSBlXJWgLrGiI/7L0fg7KlANVi7eUEl4BLCeaSkdyN0rp0V8GcBRSAL/ly0j8BAWRzm9/2Kzwivgx0BC4dHQMyilTphHMNlDRvN/bvReqJlnwaVJHjbfKPe2KVubobfOUHgqjLrrZ69OzDgWnLIv55gg6rpeFuajwqj/pTCQ4lyJEgnMpksrAnMdVIvJNr7aCXwyzDiIvmron39a432DExM5f0QlVVsoKV9YE5grXNn8RoNqzSMf1XeU+3GDwNE1StmECNH1FUzGJHn3yuVagLSm9pIYqk62gH+Zxwis8oGfCPS2ESmlK3BbdNK1fTFvGCYcD/OeN96rTVj/8/f/Rgw2asL3vIXGzFHBRhJY9I5WMHM1o4aKr6suL2A9n+p+Ent+f3M1+ul83u3O9IKLimxqeYA4Ff8CvrCyKd1TZnMCkb/zKIY6biEI05p+WqC7hFe2Ew/nKiOdLr43plIrMUcLbJN/Wy013tLMf7d0L6974yvLWfP/WtHmUdYeShXASUsHVkGUg9ZP2sXsejGsfvZRNewTv1q7MQwLKrls9WcqtBFv+u194TXsBLTQFg6j3lKe2KA/Jt59+my9KBtl4Qn7t2+sTXvWBFmX3oeyipaa5xAuNJ8FQ9DvhAE3IrUvjbx6rtle03/QcXuBwK9erg1XVrDxw7nCP17B0mk97UdVUcKWEVwuMBK7jYD5/tpwWE/AmVaTi/9utF3Ll2UyrTGhC7LhvCY5DlYgL44K7fnW5lFFglvbFpkuLee0tcXNwfVzfVe9LjSIJNrW6yEKaoDIL1bMEGnlADz9eRHqzwmtaXOs2xoII+sUYq26AcIuJqTpFe/O7E7uhTF3V9kbNQxCuPp7LkiZT6hf5Mx2yRr2X7hEaVa9JUdbSWFkn6X7d33Dtg4HAs1Km0gUVSacT5mnrXLb+0VbYIOXYkydzEryOE17NJYbFPQHTPfKUWCa2aJ+eI0wdfUocK834qFy4k+K7X9hW+SW4KRRIy2XePcvkSyMohzBBTpuTwjXsffzUYemCK2JlLDkgrb2igpznomY7lsU9+8J2SGhflYbNt481YY9wACdcOgBs63Sy7d98EzT16GbYmMZdRxMONDZygp6MC9rT77h367ifrHnm+HcnRTch7ZZR5OThQB9oOqRXOzyWh3Zwl5A+/9ykv7e2oiLHnDhIciMoM8/wzmUCP5Z+khth3XjXXl7zGvA6n6aMxYjmjzJD2jw4q5JDNe1XSRg8pAFhUPoqY7l2dcz5mvhI0XWZn+sE750b2iHPPLoHO3p3L/9sE7/NO1o54oRoFbj/kWr53I39rQ9Z0WLKQ8rLSVIeFhZeIUXnQaN3TtTorbk7Cq9FmAYk+8gpqWDAzw9kCm6HjbPJCUBENCkrV0VTBzNBUU0muDCWROQ237sfaDdONE72hE+nWxF5TIEJf+OIU6lGxEYDwzQcfARfKv5+vv2imlfvBHP0cxFm/nc2L7irMrfMITZkJ3ttKX+pgEAZAT4/jlG/E14JnRYn7VP0cxzPFNA9MynTshPpCWd1Q85D+B/V56T3rEOMGxPj/2TzLqKVNh+0RHzACdunLZs8RyMGPcptIG3oaFiKHqmYJKQuqilGV+aGRl9eaHRl/FXoqgje8YtQCEJ+6KOlFSqeP9SYjFPhFYcuRRXq3tz7x5AEH64KfPJVaytzgCK8cMPgjoH2rwqpj4oLv/3w+G9uzNFzr0TNFt9hfOj5l3pZln0T7sHLoHeLXGMy5ioDXsIrmkAnRd6t4xl8yIGKQII/MfGjmar5NsMcvKkSXbQuyMHsQAGHdcCb2kCff3m+FXybCd7WoXtF9m/POSArkGItSi9FFkj8M/Ux6Te66BdeE4zwDn6HIlYGLgT2ibL8INHnPQ/FHPDae+yZuNfXxVdSdchH/9IOwr4cqSqUFuV7eTwmeGlvyU20xQ5vRect31aV3w4IFHhn/ClaVqtaF80f1xiae/uP/X0SK2Up4RWy1LaV/xBD4jzsWhEkJiJn7nR6Yu7kB2JAdRHMoInRNuYgUbq8mAiV8KrfQc/nryWiueP+mGSd3w1GabxNwkz4wRhOPLsbNqQ77ivuQwoujBxDlYqMTyThPQkR+fGN+11GeIXj519pZaf8MTL0m9e2ImOpoHVKRL7s4kjk19zaDmOwUY+Ducp97aIJPthcYmhhi2yGYcyvtYJW3iZmMcJ1U3CmsWHWNkvCp+IQygUWWUfgsn6ZPDEPzKis6TDBkL7HCa+e069KM9aeOtZ3bSzm55TW7gN/jmVQWXxoiuvWSKWx+NanD/MozTZriw2bhSj/3KDfDhC04MYo+Eny9roFkP5+E7x8zuXDZNrb8Ghxv1e8hrZYpTWH5eSvXoSn98PS/1/b1tV1q1vBl/Y3R/RClLs8rywbYO9/Z9x/cHH7YjYNbg6nRs140wfGPFwBho9j0QyBeVzoHCY/LrCn5NtJv9EWsywewlVF7tEm9hj8ir+iIhz6EkdgforyK/S95m4VxnrhMGLMRd9NYx33PUx49R56IUiFvfGsWMZYlak3N88faD8tRk/asS6VnsUH+RlzIQg4L9jGuHG4H+hkSyv4F/9wz15wBTQHZeleO947f2Un+/5Pe9nFV7cDHsq2UwTmQc/AlcOUogLWHCuPwLkiMlS+PWuUECzon/Z/w2PtMK6q4yglvALEpn7z2kjATvn8XoucONNiVCjAKUQwAw1B08wdzJgDbRoH4cOP6wQVuEU3DmnumyBq7t33F9ktunL8e/kJq/Jbny+92QrEyneOL6l+B9W7728fzMbmnUl9dMsIr+aRH5pytAj8/BXt7JV3yhO48SDyV95uZYcfF4NmmLkxrXHz1Y+Lov8DA/5kLhzGlN3DHAQFoNlRbXA0509Nwy0JPw09GJuCM8ECXkxeSVnCFVMx+hgHb56uzBFrxCS+yeApIryiDcK2w8EP9+wG4bkIEzdOm6tNhl8aiw3m592Eiya+wWtctIUKqdiwxwUwJf4GVn553E8cZMoy+CrjAS+N+klny6rSDfzZGipCh3gjwdcmjtcwzWqvyLtFYNUWvvXIUzG5OqXH8ktlRYiWlLD2SggM2sNnrrgx8pnzLo8R6NPAc368BDmHGukBHRpowoylLN7SmlW9kRbZAY9g0IQwDkcOVJRO1n8Z/37j2rxlLlt5fScEtsI7K1/Z+cvjcNDvUcJreP6zuXB45QpIMbPbL3vZskvaISsBOaQI/uEcLvhj80ddflnUABZ5dxDMw67pB70qb072ECTH/J7mfNh7+etg8nnzg6jpp6ygJKEFrxvefL/53+YYf8nLbiwPZfgwWLXDMoX2BOyT/4ooifKw5H+XFl6pvQkTwd/nxJ3+PuMQmSZMfWUbrlQPVMjpeh6oun+D+fFnWplqYpIGM5dYJOP6dh/CmdT+a7deIHZtjRvrpPDr06mWzxyGJl9cUQ0ZmDEogV47fHTny7GVhauM8KpfOOVWEcxKJ8UNqqyZBG4teI7c+x/eDZokG2oRzVfZ8aXnEx1wY3GwIngwT4EjPdP/neC87b5WsEKITifwTmMTRR9wjYkxpf/xonb2QkiXNRxe8IONjxF6pnlxKCNgjRpn/7j7/4NjlNuA58FLeBXIh4kHYbvA4QBcDkCCJQlWF15ZPkK6H94i/xO8NmgaAkI+ITrRyaA2EqwEg30P7maXXFXcPWlQe2WuJXqgGeG+csGKdvbqu+MFCzTsUOhgL5Jb1Z6X3prMB3oQ3PBGGHtzczu7+qaYdF4qsmRRKrNmbJgEgNOXRwHspnkLDxwM6rupa8bDCid/8cFHdUNGGzQ+ikYGwWLsL77RypZfFt02zOGkB8pB/bgGR9Z74BuHRfNzKA1dQGPsXTyGltlBR+xHanNYf1Wu4yeD3Ab62+I6gla5lDkQ8Z+0Rrmc9T/b/98coSPv/OdPeplUXE3s69aXvqwvLlNHnNjJWJHg0r1+uAb995wPbbPDND7IJRD8RdsY1G6Za8lqyyLA+sVHWKXEInEWqR9jNj+r74oWhhPPjoG7kxzSSguvFptgERu8jf6WO4v5+wDeRPLXoM1Q1m8SwBNSinybaOYS5gGO6rQj4wg9EQ0NqEjyvX4VxwrmaRCNxRTyRR7QDX6CRQJrwAXHTz8ftVzmhz9kmcWSx2cZ4dV7cCNi1slKTWqnrLJzHIj8I+mGIpGfcEb11Bz5sYz6neaa5lS0tYjfex4cTZ/WgUh92njC+sobOjGqugDzHAVLkXvm2HPr1reDb+VxZ3ZCQNs4IQDDf5Y7ylmRpggPTtRwXqTfQc8UEl7nDzYpV+BZF7Sz518dLzR/a93e0XwAlDHS4BjX9fO5DfkibhoDLyEwzxfVfm/CrDpoDtADeNc90A6H82P/EN2bxtGDeTf/O8yn5877QBcQZgbBMepa4CWdTqictPGJdvabIzuhMhZtTuJbo95P92hqbOTKVQpWFED0jxLCQGpn0m+4JfiJoSBQrLiunb1VIcMKjT4+SQAm0OP5YEtrfFI48+9rk7b0voeiggGv2/RKMR5Ne87KRDMcyo1vbAbOosKrcX3RjrizzzmMCyb3/ihLcOL13Jhobn+2f5QHmtjXE11veq0Vsg7IIy7eAO24l5+bYb/DnH02l93/qOwy0deYEDmJwmFYX6Oug5lvvLnf/ZfRn5/1YdQ7+XveD1r/K+Khk3WzqmU2tVtaeMXw+D9wlqYVlOsNAxyFzDSJ0impC83Zeu39zWrT0gB9g42Wl5mEoLEjhc0IzVoiGszE6dppQ77YQHglzFx5OMr8JryKetevhQmOhMdh7bhvfvjdMWXJVKAWsmtFF0u+7SrCK7MudxJmXkEkZTdwTJLWiEmcEExbNymR58c07Lf5dqBxwPnBnr3sujXRVDwMb06dcCuo5/BjO9mDfy6mzR/Wf5nrYPJ56M+tcJrnXvHAE/E0PqodNOXE7HmbZR0w2yzGaV7hFlx3bYzC1TF/iPlIraVx8D7xbCvUHXfi3/D4dHC8A94HBHR0s6NO7QQhaRS8/HDhM9DD8Z3soacirMPoZ9S4y95L9CCIieDK75Vf8TjfYHzx5XdaIYaBACbFVxOBQsaDl0iVFQO2WsHkTuiwxvGrIsKDcTrQsJzRiP/m952QGaHsAbksfgc9n/YHOW3BgkbsMeAb9Pyga8ZDUyjg8yf7dEPhA1kZRtHZoHbKXEMThH/8mQaVr+04q1bC+90b2+FgT4CldU50V6b/cc+WEV7NAW03ixmLDtonII3KAZtgpmShyXQAogQwb+6Ng6/sfW2C8/yV7aC0u/jqmB8/aTPHtWfv9syqNdH6JE5BntR0fdz7dd2HH7zhmNNi8RYxRGXkCmvUQYn8h9fcfu/kadZKC69ObjZBqmvVm4qkckpE4ZQsojuZ7scx17oQD8mEKETOrMZhHZGPSoeUmNPqu6OPLn87wuQoIb0ueLWDWF54PTp7E15vuL0V0kyMMovAM/h2aFKW7/SxMW9l4SsrvBI8w8Hm2iR4lnfsRuQ0mieeGYmcADypdrDIuM03nDNpS1HGKR1jTLTb3wbahecf/EyWAQe4eEjof66J/2DyIawEZnBoN+MzN24Tt25pTwiC1qDf4DP2qnAWEV4TvDY8lePQ8z0PjNf48CkmEO51oNQ83WA9KcMwq44pwUuTakMUyHT3xtHwgvXO9dGFRBaIV99tJuhm2JjMoY8k5nzdr74lBh0ay7B30DvhBT8kSOKPDnBNbIxJeO1t/2aH7760hfixyHW0Mc7/DW/DX666qR0EdL6zZRPtD8NFlevgpTXl886ix+IFxlE4z/fjWb6y561oh+p+l107XhGUf7/Kbzk1Q/7sY7pBgJURIyhkRtCJ8RgrywkfUQf8NzYvvPBq/Hgaqwg+6NAmUFk6JrgdhB9rxHhE/nOTwY/IJcOeH9RGmWv6AiNLM9zJUOGAUpRG0loUmCY4UCzLOx9OxrPLwJ+ehR8uJ+dc2AlWVanKymQKQD98XH/5f9FSyS1w0kNaaeHVYAAiawC/V5qGx/4yWitoAggCpHWmkZP+2MlCZZ8xmpeEuDq+CRs0ZYIpBNe8/NbotBVpQ+dvxx/sgpUx32q6XgdMo9pALDsCoA4T5NCOwSojcAY2BLHi+k72k31iQQUEVvSU1w9PWeHVPBM0aSNshjZ+Av84oSrfL9qKkbfg26zPAAAgAElEQVSRGT3xt3JmlnxbZX5jJuC//b6YTF9AobKxrvUzGnimZbHpOPGzQujLs2X6rPqsgwgY0Ick2Lvv1wtBOphkP6z5PghYzE8KhIiGp+GelIGUEV5ZXrgb0VQ5FII3D1/+t3FYs/K6qrAmQwnmyTyff66p3/CrgMqp5woy6wUXAvgbhl/aHtoRLlGnL++E56ZFD3AAXv3xY0aTfAEd0F0fhiP4Fwvwfw4zRzVrss4LrzT18GhPkLlmt317QegWqDRKiMBHaA2POyPycHxmGgfbYfgDD20SxYYDWcqwUnTe8TpaZOnjFBxhXbOeRs3ZMFiKXndgUSlTphLCHveWcGAZQSfmimLiYoV6ftrLzlvRCTy9CTjLaF6NOcHAKmo86BiNDOMt6Xm+l+SXpgPHA+6+iLEg5A5a6zKBvWhJG/i8Q6nMMuOCR4vSQpnnwIFOrhIoeViMWeKrXWT/AP9HffnFvTtsjorCVUl4tQBEm50270Oqeo6BDWM8rmMyl18XF8wFV7QDYx32fFHgyzzHzEvyZ2rCaGidEDLEDmonMSBEY0NyojPuQc82cQ1sFrIAKEE5NNxS2owSBL0Dp+dcEgPM1G3GIIeNcRzcZYXXQKTz5d9o9/i98s+x6Y/ry33vWwwc3AWbHXas1EjNRN72w6Nv+Ht03q/r4KPULf92tSKCIxgfeLwdTu7cM8DrfZ/+dpv6D1ZwKJ4h6EDlKea/UTCYBxoHmmWb5RubJxcGiwivcJCHV4ES8I6iTevPwevqm2KA5x8vrL8U5ai5SWvJRs2NhEk9bST973nWYUaVNq5UK6+f7mEGPIl+HdDxCqkI+QDiB8NoAj2gXQf6Q4+NVpKmeHK/8ApmffE9pC1Gk9y5pMEaBS8XAxlBHL74TQ+bk/45auI/+GmCHRiYQgUAvfx2zIxSpD+b9813toL1hglbGru07xR5v8ozhFC0yrLEZYMmb1xRC/T94hvzpUkP7GY05qPoqgpc6Z2ywqv37Inc1WhRrb/grjYkeM5YvCMwzh5jzVICpOsJjjq/zalSsQRlB5Xb5/28PxxxYEj9Wwt8TVlz9jygF4oXjXPzSO/W+W0MZDg+u4Rwh3rxE0WEV7RC8SDIj5VCnAiaK/LuqDFUEl7TolXj2GkHMK+NqJMMSMItB2mqb+YHRNokwfQP+pOvYu5GBER4RUAmYxAMaSMgOCGavX7dC/560yYaixKBwLFFOSq1BJh9Xny9lZ18TqwDLVuBNlzvx0eR/2WFV20S8BEq3xgavuQbMwjP/TAEIlecYE2kKxkT6iDy/n4G/U9z/vr7rZCpAezo23jy+POb0CVRMz81WhcaRdfzzw3qo85r8MmFhG+wMpwi8Ue5OST8i86m+Uz5fydlIGWEVwzQZim9jUCXUenI0AKmLeVaCIhb1bxJNT8/8AVekdlM22gRPAmP+WfBKjsFrTLGLtjQ/UHP5t+r8zfa099bH8QIbCZK6aSGrf80PjmNpXsKwtOHk28ow8bUL7xGuon+iVwGaKT2/k00+xKw4D7fFni5fl17a0xFpooZ/j0p/eb7KPs74Zy/Of9RB14KhiIaJePjMrDs0hg7csWqduAf/eMuC9O459GqQyH+xdXhjPPjIWCYYsYYBUCFYK3THIpiZS1wNsHvqgivaUzcuLj4SMnHpWqQW2KCW7npsEZu6IQgtibGkuYC7cogwXqL97LUhfU3RngFE3xw7Tjs+E6IVWDxtqZT29P6Bi9YWAocHA89uhss2UVonbWMKyAeKhiaIhANmrdJ4K8kvEIqpnH/o9EPgz+aqPxhSPWs054cq07YyspNWxAEg81H+hsnTulvhtUsTxNFiwFmAS5MOsPGN8kEjHpXfy+9MRdKY+5zUDdoAuEefP3vue7z5N9i/WObqAoi/cJX/3uj/lcRXhMjYQ4kdPPVYb4sQqjmiJ+vw5ADBr89gnCRd0eNo+g9+LMY5aplorHYNn8SNfSpDS4YNCT87TA/J3gm40Fzkt5p4lt/GPF1t8TNj2by5XeGw+FZDIO/oIMQ+OtgIFEIaWV8GQXkoJlB403w2jTRhawjz782HF604LDmsEmLz8G/bPDfIDiKXkvr7O4HY1lbLjCP//XbwY+eA+t9D8fMD9wbUnCle0X7q+M5/bEwyZKw2z7xgPLKkIMVesD/bKSCdy66otnDwSDhNY2ZGVQ5bJowloxkVs2vKTjmTpQyxjCfTpMeEqz93/iF9HP2QML3+seGa+jTu+bJe3dtaGf7HdbNjjwlBjC63jTNwKlDLjO7PQK9OngNE0LAg1bEuHheMO5Tz8V12wSsVYRXeEUfDgOsdQLCuUcNMq8bi0OPcbCoOryViZpPc1j2G365FSnwgIZZGEZlRdA+WEOszt0R9yHupqC2syx8455PtMklg2WH64CUqUXSZRn7U88JIu9mBx0VK1ia5/z6Htf/oPuVhFcN0T4JaODbyGQiCTVg+gk6/ceQLHCSt9OD9wcB1NQ1hEAQovWFeFF70k8NOnEmokmnU1oq0YkWSFPwDWpXf8HEszKapVauiiaOQcJcwv1dD0Q8h8322ckc0asIr+Cw4FQlO/jITnbCmVFjPAjP/WNORG5xBOH7wVZgtOaj/9km/qNVcGLUaFpFNQJUWri+wfLo03MxZczRXAu+LdA0AVt/m2CBa+muDjyiE7QN1iP43Ot/Hs2gJQFptESiXoOv24S4LSq8JngxPAdCc+xwOAxeBzfBWnzYBHkKqqiD4fXjZdj/BK9sB7IjKL0qWwI85vHrN1j5DjLr2WD4c7mef25YP3Ve1x/4Ql7JeU0NIcV1tJLvC29JJU5p4Lh+NSkMjhJe0QAtvKTxLB6nndv91qGVsgPtWJdyZtpPjGfaOM7j0O/Eo2XdAdsVNw7n0endFIPggP+jvXsh57l7/XOUnq/zG77g+5m/z4WMIw6SYlaGKZPAZIxcI/Y8oJupesjKmsZQJ2zaqiq8ontC6YVXxEw33AHEtbieYEz4RTuq56F7NDVMcE/v1fFN3pEB5BcH9cLe4SBmLkbRL9jx6BXJ3XJls64948YJHjyCbKEs+e33FBP8uSeFDCH7x8BbPtf5eRnX77D7lYVXm7wTJw0KTeb1a1pBNW5h5DvzH1Ex0x/4e+apbhB6iwgz+XYm/Z0IZcPjUTA54vjhJp5ENNT8TIb83Wgp+sc2KUzj3tcf7ZhynhYaU5l64YNwlxamqEYMiSZOybtJYK4ivKbFSOgjdDD5hhNagcPK1lYUWATISRFmrOBPbY7DVx33zT3mRmARkY/hYNTwCw64v+G26C/lBM21JN2ro/+ibYBFvxufaGVoWQJswt4wfCVhBcwOnPIz1yGslBVeRWdjfmBYu/7bwmAaf9DGbYzJ87nusOxME88JvzSXfDK5OzFZm/88PfpNeJXonC8vq4E5AGsayzS/9cuHj1sGmKUHdK0fHjA/8hebeHeHfyyNXP9zdcE+SnjVBwHC4Yv7AJ7B5UlFJ+sRjuFUhPMP9+qFvNtgda0u+Kq2A4Z3PorprvBoGj2KDvgd1GYaSyqTLmWdUrdpnIPeqfsa2Oxnhx7bDcGQKoUNE+DQA9j48yrUQ1Pv2fwaqBO+qsJrolvuDQ7HaIh/dF4oN1d4HtrCf6aplMI3wHbkKd1gchfLMu4wjmdTuNn39zigG1w9UrBunTgv2hY6sO7sISp92Qe5+IyiBffsn7fcFctmc08yJmMr2u+w5yoLrwbCjwNDUQlJ5Q0ah/5o4PQcoqfxxFQld64D+GGDGnbdouWTxGmYiUe6hkFqb7A58Rx3RjQNE7z7N61hfdR53YJE4IQSWRoIdE8MSSmTGPkFK2MpW6d6gm9a1FXgqiK86icw9H9E04xIbaaZQSacPEyByP8ZNwG14Y8/PVasgvf8c03/hi+MPW3+sk2AzZgCLj9pBe0Dk5OAOC4DoxZvU/AmfD31fMxXiBnfuWG4MIim+U8LQPSsOVkI4VXZ37PO72R7/7obzGjgGoQ/9MLy4YRPmwmPicabwml/u+ACn6pZBFO1xfGQpHVKGwk+aHP/6b7dTAXBYWPqb7+p/3z9bry9lf1o7xhNLTAP7vJ4tqnLta06EYGRNgR955+pE75xwqu+wXjvQ+3s5wd1glYwpdMB6/2PRIGDsMeVw/NhPVZIAVjnuOAL3ARWPHqfgzvhUJAXmvL9gdmeeOWNKkP1QlYI/CbRVP7Zpn6jT4FmhDeuGtbZewMOLsbmY82Ko5DQ36F3MQqvcGUeKMocNsUBCPZ0PdE0vLvPZcq4rVWClPeawnVqV3yCoDelaAnWV97UGct/zZODKB9TGVe4QkzDxSHB3P8NT+QRB2LyE744LtgNzrkNhsqDLH41Vh6sLLwiCAvxwT/HCDJmNarwfncAwoegGxsQv025BC2UaRBMP/JtPLSRTAb8/ph80zjSs+k/rZ8IXFpAKu+iEfOpnbq+EbAIVtHDu+/fCZq2QbAkfAoa4a9JWzvouTJwTSK86oe/Kwd1mutxgrRUGsxRFgYfPAFIdfhklhlvehYNr9vYCjQiB2VKmWUhun7QkZ3gv/Pgk9/WxKU2mv5OdOogKHcgC4E5B6N7/f2jfb6YfMJoJpjsx538+9sY9F8b44oUpPfAteWLVphbKXcwNBthvxDiv7m/5OoY4KBQhTYSjaf2mv4GL/gEbTFn2xQFRCX8BuH187ns6U3xoPab33WCy8mwOWga3tR+mms+Zvz1uRG4twPu+TRV/LX/9xe9cBhzv0n8jhNe9Y/Xvf2PVlCISPf1+5O72TMvtsIGycLHx/zy6zshULGfZtLYF+I7CIOb54JVkbbbHgfXg2B0nbWGL7dnb17XrDA4CB/ok9DGxM6F6JIhGQdEw4P30adbwTeWC49DBAVVoqVB7U9yDT8pUh52UB8J34KEWXnlfhUMaH4875uwJdOKYFsxIdb3oLbqvpYOJ9wWVahCz5QHCbb+/uDX58nn5rJDjokxIDL39MtX/e81+R9/MD/2GTEpZ/ypHQomoKdh/ZL/nt4U87ZzBVxdoXDRsLYrC68aNPEvvBaTnu/56xh9hnHmCRvwcuFJEUEQ5Ls2SNs5DMA6ryMUgvQ5F0Wzgk3JIs4j3wKgGr/34XiSPuKEblgA0yLy/vGCGYynOvkeEPPyeSYtVL8ToYvoO+bUKHDTwk1K6FWF1wQb8wxTmvK6TIJ5PA8ap8MPzSAiD4ecj5vdUPthSP/BKeekSHcndEw+0cWpy2KUqmAywkue1tP70/rWt4Pgny6LQoj8vuhlEEzolxAjt6HDG60WOAc9Wwb+ssIrOKTJkn5KLlJ9JXpJ/WKS0iARFqWJw/AHPZeeb+obbuCTrytttc0QI3Y9fcBKg0lwDcEsm4a7bjQFZ3+7YEK/rDC/ODgKJ3ktO/q2HikUbEL8dY2nfx76253kfxHhVfv2C0nmWTzwO1onrg3SeTFXvvBa5AngnQSeOt+FT4ctMQn8Xs+9NMZToJ18P/AL7lvW7azvzr1qFF/Mv1/Xb/RBA2ld4c/W2XOv7BTyUj+JHmTPsH9TjAjuahLeSYTXtCZlf7GP/GTfXvDltg8ai7YpogSAUgZxYZp0j0y4KvJNmcRFw0GYS92OvMYDaNkcWbNr18fAOtl70Ar5qkhfTTyT6IHLg/z+Ka6mn87zfad9B/0YsxgC9+tYvxMJr4AmDIrK5mcp/1teDZ8IRtAAv9jDjo25wRZKELTowMfVAdMmxD7/+r8v2sSICLaeYeJUkWTUBOUnq+7fCR5aKDjmh/tSnyM6QrAwLUaCicVJUJmU0KsKr4kwo49PhCec2Ee4ADB1pgAdJ2On/SgYLcxiRaPKkdICo1uwYfZSsfCHfWrT4FQsdc//qPbgGfOl2f6PH/ey5ZcPTx7uubsflGkgBgyI9Pd+mqtR/Yy6F+dofLYBbeiLcCJzAFqW0ua5l3cKg6kfNB9S85wa85Xe81BkeIl5puea/gYvWIKf7unRB3pdstbMC3v4goAKifaXXRr9uZKWpWn4RrVv7QvmYz61yYRDuoPNvAbKBmRD4U8sErgOWhgFT1HhVRs2bm5bgj4FGDLzKghC8TEo/dGofqdxD12KHudjyVpH4YF++/mvcVkvBKsf7dUL/GQh9pUA75ad8Cp/zs//W/DOC3wr5kvBK3EagrUa9OeGn6qaV3NtbDTDXAYceOTBVl48HIo+iIFn9nUyy6bXpruv21PQBcEvVRk13kF8Dd/hjiRdI9lJQKAA84/7DkTToO/UR9orlBiXU5e1XZYVuE3P9H8T2PF7Fh4B0MY0LstCfxvD/gfh9ZMv2tnmT7ftYGCJkY37hmBMJp3gzrrQyXinfyhn3uQXawJoWpg5k5/guPbrvs/v5P2PY1oW2j2+XilNSOoL4fNBOveSKCxec3M7jMFY0zPT/MbwaIJVfuJTxeHZZpPHYRjXlp2O6DQq/BsR1SSwoomvW73ATBBQmbYsyDc3xwpF0qOtUhlkLi7UQe3w5RHlH2p8nxrLaxr7oGencQ3unOD56NC+2uiltWGeByfaNsZpwDKsD/1jiFKw8F1kioLzQXDBLz/X7+/eC0Kj+UzO9sPaL3JdO//4ZxReP/+qM5aP2Kw3PtHODj8+Ft7gygDeBLNvuCdcyUxC8KIlzD9TBK66nrG2pODBu/Y9OAZtgQVt+n5/SwxapUlOJVldr6v/Su18OhfWGi2HTRLfEDRpozQe/sRX3dwOlcNs4nEOm4UZL0EfUqqhl3H8BH4JU/ix3/jvQvKDcfMANvzCnqK6oXLN1lyyzqAJY37oz9EFjADjgG4u0jPj+qjrfqJP1Q9/J+3R4VHZ4YCb7wPOwXzmeTErAoWO9Zt/pu7f+kvCaxWZxMERjdsj8Y79Du2EYPGvunPZm+9HC6biOXLC0j5Pk6bwNVZomY7wtlTcacuAfc6zssPsUAzmcqPWjfOi7aEbH4H6FA/iFtbcPe/6lbNGpfYSnRHAHaLl1nWvLlkqCK9zne3ZV61eEFQIK2U/z2zqhZQ2oheff7mXtXuxjVa3l733YS879+Je0GKuuaubfbq1l21rl++jLEzDntf3S6/1gtmAFu2vL/Syzjy83gHz5o962ZEnd7O9ftXNHnysl80tMLzgglcnZGbfJ57ZiWP3jOmfX/ayS67qZT8/qJtdeUMv++jTXjbXmQzPaKK7/Zts+/Z/laYJMKGDy67pZf/9s274/nLb8Ln3/I23d7Mf7iVTQjf0Nyn8w2ig6HUwvftBL1u9rpvduKab3bK2m61/uJf945NIJ0XbafK5VqeX3bOxF2qjn7asm731/uA5R9dr7+1l39ujm3nuq7nhc1Ee3u3ZN//6V9bujucjcPr3VwQSxVKOGx6J8Lqe+kU3YJWv8YzzuoGW8/fTc9P6/uLrXnbVjb2Qo/rClRFviTZffqMXfB2DAPDo4qEL8KHdC1d2Q6DsNTf1sk8/jzzhwy29bNlFvUxg5KrVEeam8YuXoA908nVr+465HjeH4Eqfcc8u5P1ED+dd1gsH8FWruxl+l2CyTj//spe5z33u6pu62ZbP6lyDO/tKfY76htPPtvay406PPBdf627/9zY88/4/etlxf4gFZzY83Ms6fc+M6qPqPfuNfWcSmQTs5uDH+3Sy05d3s/c/2p698Eov7J/wb9/HE6vCWOU9NGIN3nR75Nfnr+hmHw/Zp8H2/oe97MiTukF58uDjUQ7ZVkE+qwLrsHfg9cu5XnbORb3sP3frZjfc1h1KE559Z3MvW35JNwSp3Xpnr9Z9ZyK3AaekcEJ4by4EsPDlCMmB58uBOsnFKMzoY8r0GqT3AT4e2prGx2lepKVgBhF8ymWmwCanAidLmh6bEdMm8/C4SPkm4U4nFX5gfO6kqKCFTTDrG8x8rpizjWnNvdEc4t1JYKvqNqBP8+xUS9vHD4yp7LmXd2rY8nB5ThDDORfHYC2J9GmJXM8/N+3fNCJgQOM7Pl/EMUwblkH9JXplruTa4HAjBY/r8J/e8TsEQM37EdYZAGWeigZsgQc+mfFE59NiM+/l4Q1j2srnMabmWX5ZJ+A+P540rml9S+F289qY+UCgzbsf7TQ38oel3bQ2uRfQZk8LrlH9wBcNBw22NDtM2YJVvmzPZQ8/Gd2LBILw7U+akFHtTXqvjNvApH0txPuJV6ETZukTz4w5ovENNE0bKNONbAl8ebl1DctIMA34zbm1e8Z50Ydf1SNjAKv+0Y/7LCPcuARr2b+bdvnTZ9K8opmquDA+mss/Xd7OUvCf3NL7HhIrJ7II2zertl/lPbhFD/xe05qUyaHfXUPb3GP4Ids7aTjFKOT3/Cr91/EOuoA3mVekrVPSWbuDXKU8Zz8S9CxwlPUnPJvbmyaBaWLhFZGoOCR5MfMqc5SNMm36opqddAQ8CChqmvjHIQNCEa4IbURNdc8sb1LAbCy33hWF15PPVjpvcCGDcf3UeR9cFjXfL751KkCB2WLwAbuE40xRxoTJ2HAnhWES4TXBZf5VcVFW0KLNM8gEnw2fzxUzjzGs27gwAToJnl3p2/rL4+7u5JOZYxDog+BywRUxAO3ya+uL3keXZYRXdPHBZzG4RfT48kuj8Jr8oMAqpQwXCBlBuCQZY3hvSgfc/vnHs1QFlOLmqFM7mSoz6Nhzl14TcWoc6qun6/1tLMR/ygOH718fEaPKpZji5sWPlBmPK4QNHs7NSZMwfteFV/hDo/ICq/vOdUBeYD6KhJO3PxAA2gkBdAK6BqWVbBL//W2bc3sIk66MA8subgcFQqJf3wKGVuerO72w89DW315d/+sSXsFj3TowUJz84GdRg2lO3h0R5V/XOIa148DCpQEvoSBz4IXrPH8zN/DgYOmZo07uhP19kJA7rJ+mroMNvFzVxIMIohxUKdF4wHvHfe1gFZR2lCLT9fxYJ4FzYuE1EXmqRmXTIUghHIxSWgWLQ6Ld5Dg9CcCTvusEDK4Vq6I2mBO6srE2SKciTtGcvJ14LGxaWvcm7XeS923siNnCow0+6/x2tunVSEQJ/5Lpc6A+9g+xCEQdhD6R8Dp/erehowlCtdO9w0OeeBOR02DlfRzrJPJJcL/Y3zX/aIFfGoboMAZ3QSCZF/bCM6+I3o+5liWXNq78M1XHWVZ41U/SZH5/j16IYA6lEucZOFilhFEyU6S5YE/X8jRTFdaq7+ELIfjQIezYmC4owcS/nL+rcqV1rLmqMA56L78JiipHHyecEelEoJac0XxKB71b97XvvPA6HxOAv8VMNZ3sN0d2swf+HAU+GQbsg2iaZU/MQt04LtNeWvv3PNgOLnQCcFTaQuvasedRQvH5B7egUAedpvfCOoXXxAcFlQv2g3djS2Mvg6+6nsUjBKmedGbM9LH6rnigxE9SH3BMwcbHmBxi/xxWDTS9M63vhFNBtCw3tKq084kfJjg85/CsMps4C2P4YEhwWnqn7PfEwmvaVDifq0tNc0bb9mVnLkTFn7ciOoRLCKwEYNPEPw4BkJw/UTqVSdGE6UC23wcf1QnBOVTeCD2NcVzbTd1Pi+3eh9th88RoLEYw+yB0+HVKq7MIxCTCK1zAG2aI8SFgtADeNJ70DLxbqCJwEbn5yT/TFF6/C+3CkwhguGX5kLsT3vP4s+bkOxTsFzTbG+pj4lWEV/MtX+4+B/WCq0s6uYPZ4VIQwAGHd0Iqp7++9O9jWYg5gz+pu86+IB7EZSuBY8GnhGx4p5ldSDPwMLyAHayS/zNZC+xjCQmR+3JcNqxxTXAtBeHVWOGatpXigwuXzf3iq2LKsgN+2wmpmphYk6Uh4Wfa3+D0eeH1VkjxJohJyreUxjLsKx/EfLSi9qUutD7zfKUJmOsUXhN81gBlWgpyTtcX4hssr74bSyHbr+W69h++Ezz2TBmFWFo9c9VNrUWhRAMfmkEDiuNIDfjr33aCdjXxmTQGz7Fiy5Lw41/0ssuurd/9a2LhFbAEQlHOzL7/8/O4CHpZNGeK0uYy4ATq2aaJPyFv2DekuueUyZfHZs4HjF+rCVj/aDQDEsSZLxeDNgXMPjTaBBAVwkS8gw2h02jTbDsh33TnzijKYTgoer0O4RXTENmpLjZ/Qa4jaTzg8BvDuuAKEa3d7NKrYxLshaaTojha6OcC/j5lhue7FsuTgil/kscYuZLIs8f3Ua5Dz9SB4yrCK7q15vhBqVPvsAsegitYmeJlqJAWjlZ2kD/VNPEOx+Cy5vgrOjzKuXj1zVGLecofoyvBtLSYZcduntED/kGDTOjWhnGVbavq80tFeIUftMJfUclgGm6uJvJ0r5lP0G6fqYrHOt8LdPHPuWBpZAWRf9l+kuhdHlKWBgcePrrT8LlsQnitE2eTtgXn3DXWboha1eNPj3tiXs6wZ/71pcivVSWlyYeXOvj1pPCjDXCQ95TCFvTpoIbmEz9Jzzz9/FzISsAH/LZ76nf/qk14hRTJ0gVtWbTU3Kol8Xc1SFL4Yli0CbEChGxCu+/fzdZtaGVSaTAvOCEwzQsU4SdoUiad8DreT4RLM4nRXHNrLEKA0OFable4psKvKxfipMKrccMfwUn+WemR1j+2M6AozcXfXo65D+Fd+UFCTFoIdeDuu94GMzz3HCVMJRKHuyS8+k3jsPa+WAnPaXlQbtWqOKoivKKJVKrW4VZQH4aOPzBV8qP64Z7d7NrVsazwYqAFmzqhj7+iQ6KUSAooYMwCEfLMuyoum3wPDuHXOHxPG6dLSXg1j/g1HLMi8bG0TqzJaeN9FE2BES0QPn72q+gDvSNxvrReT8YAM8FafDPtNaPaq+Ped114Nf/WoBSd9jsfB+E8bmm/KdcUfsJf/vbKTneOOnA8aRvGQNi+/Lq455Dv0HaSUdz3n8vX4cfGwxtLT930X4vwClgfp3oRfXyrJKSFeFH9CN/9NLhJkTfp+5CoDVVcEIhgM6Z3m7rUITTFd9zf2pEHbtL+6ngf7myQihXIOMBMjDFiPoJ8XUMAAAwrSURBVNwbnNC4OwgmYZato886hFe4ZhbmR4wuOHonWvDtvlM9TTctnN91E3kduFjMbZhvJj/abdYPhxm4TR+MkZ/rT/fthUBFtF7XWqwivDqcyJ163uWxzvcVqzo7hFdRtUef1gnFIPhBB03QAgVq9c85WB75S4wA/sGeseqT/MXvfRTXYf/zs/87+dBSE17NfeJz1pqP/4uJJhJ8Avn4L9IQ20sIJu98FA/EfKVPXdYNgU/ov2n4v+vCK/xRLr345lyQlQSlcqFyHY3Y+xzkaellY2FpdaBYaB/p/LyjGzQis8aev+oF9y4BiK4Hmpq3VHEFlG5UBTf8vq49J8FSi/CqMUATrmj+aNm+t3s32+vAbiay2T2Tkjpd6O+EZP6t0ksJJhLw5HTg90G/V1UrmjE9u9Dw6t/E2/RvXRfNDTRs/PAEn3GK5tiNSCQQrovJ1CG8Jvzxyf2fveWHi6VWk4AKVoFctMYyQFjUdRP5Ypi/JmEgnK5/pJUd+NvoY+ckr79E5zSzl69qZ//xv72QogrjqQvHVYRXfWPQAhCZ4c++YKfwunZ99M20LmVRcDhrEndl2gaLSlXKZaq8x73h5bfrW29lYNnVnl2KwutinyP8wVpkBeHSxb9SGkYudG9snssuvCIeLi+9WrD1dNbiUhBeyUkh+8vKGBguTiEFw7mHp1x0ZZwP2k3FFRYTH0Q34FRdS5pAPvQOPWm/QVN+S4f433v0QhwGlyrX6lwTtQmvgAIcYcTmed2adkh5JI9ZGlSdgE/aFgSbAMSxx/7dUNZPtRG1wF1bbNoUOATz05tivlfVfvjgEcD/7+io1ZRjF148Nyl+vF+H8KodgSyYovQx8mFauGD0UeVEFRGaLAIu+qmbyOvAxWJugzCaouEPOaabiSC2CSQcM8Vzg9mdf9IN9foeVRFeE03c9UAr+5+9Y6UthzAMju8ubcS5Uk+9vbgOveBOPI72pM5DwGKmrzpgmwmv9fDkOuYi3wZ6ViWOO8x//ywG1mzbPpe9/BYrakwvJXVh2n/y7zbxeykIrxQ3+J0MFKy84lVYfe19PqynJ57VzVQBXWwW4DTnhGnZGyjRjOG2e6Kcl5RS7rG+k1Oky8Ir697XaxVe8wMDLOFwMWlcE3y+IRJsT2+Kpc5UgaK9lPLLYq5LAMz3OfHv+WTXtK98ZUQPEwblWyOcOC0j/on7mTfT1iW8gonryDGnWZCd7LZ7Y6omC0AgH009oWv9YzPhtcrcWWcYnrRNGEnyIUXf6JiGnh8pOpHSCd7rYiRVhVfaYvkOf39ydNPh9iAtndKJNPTX3xZpoQo+Zu/UxwPqwuVMeF18c2Ju8QFrkYn3x/v0stOWdUKw0C3rotaVG5KSpvbzumhhVDtLQXjFk+H9sWfmQulmEfuPPRuDxil6HnqqFXi1YHJCYHp+FN6mfQ9MlFByF6csN2BIGuLb74upO086Kwa3put1wtmI8ArAujbHOgc7qC1w0l6uXd8KZkqTstBpTAbBma6BzwJXhUqS9+/v0Q3Vlf72UhTG68R7XcIrmMB987pW0HIzUdEGYojSyEjFwkzCJOu5NNbZdzFcYAx8ilSTcai5/DpVoOZCtScC7CNPxZROhx47vFBEVVxXFV7TPN9xf9S0/vYENNAOhxuHHL6vdQUeVh3b7L1i9FcETzPhtT5cFsF3mWfsd6+8PRe0r1Jm/e7EeKBMwYjaSuu1TLtVnl0Kwiu8UDgIEBcT9JN9upm8qWIX8Lw71keLlDR89kTPVsFl0+/Yv69f3Q4B5Fz+7DWu2e8vvjJatC9ucF9vTHhtGnF1tQ/RNn9IRyR1Cn91wdjfDlhp06TqufSaTrbh8XrdBVJ/dQmv2rMwVfs54sROJsL8rgfaoXqZk72MD3yOv6ihKliCfSl923wwuWRyl1uPWQo9YyhykKpwNiyh9CS4qiq86pPGh1ZH9RW+5j8/sBsi+KWGoa3fFdbiJLhbSu/OhNfFKYAkGhThzgrJkkchImvQmRfEQOZpBgstJeEVzxanovwrzbexC5TjPsd1Sp5XfLwJrWWa90m+aYnvXB8VUoJsBQqDVUAwlwGpL1UrrSuAvB/WJS+89iNkV/nvJEwwSbkxm9jo6xRewWohqgDFfO1UqTzlfod155PRx3RDuwr+FxOc5h5+mfrk3VNXnWabAIiZSKO1z0ExIE6KuDq1KJMIr2AWuKWkLWa9237dIIC/sXlGC4uJvuqAZSa8Lm7h9cNPo8+5oGXpGFdcHzPXxPU9PdiXivCK90mhdvOd7ZCV6YSzovAnP7DcwBQ83OvwR8/WsQbrboNyRO5oWlf7OAFcBiSWPpXkDj0mFqyipKi7b+3NhNdFkoanyuQSWpoQWhMsdQqv2kTEgvnkexXZKn+gIDkuG7OqWpMtcFprGlaBb1KOOf3S0BNeaWQlGucXLd9ynUn/JxFe0QRB+v2PI11wFXDAWazMOq2L2Xd5Wp0Jr+VxNm06s5dYj4QS5uuF0PgtFeE18T4B7QRX/HnlDe0QmU/rLX7h1XcXaezNvMyEXtCKgCwws6IqmMSVgPsa5dQLrzWniJgJr7uw8No0c6tbeMUYCSfPvBDrTNMCEloJK00K4U3jaTG0zzSjGITqa4cd2w0mQFp5AqyUJf/54162YlU7ZH6oE9eTCq9wBx5w+tSpFV4M8zKDIQptM+F18QuvYS0ucLzKUhNe8buU53yPA7ohJiRVHbQvLnZ+SCFlPye4ygm8/NJ20LhKkypXLfibGsNMeJ0Jr0NV+nULr0lQYc5OJu2mCHupCQ2YyOPPqGjSDSWPU969tz9sZacv74STsUIFNCqLTXhdanO1FMc7E153DeF1oWlzKQmvcG3/o+G+7LoYuCzvtWDsLVubE/rqnGPws5zJcCPlqNSH3AJX3dbO3v6g2dzAM+F1JrxOVXitc+HM2tq5IdJaSpclk4P8gKmO+vOvtkKVFqVM77y/HSq1zITXnXib0dB0cDETXqeD512dnpea8Gq+CICvvTcXMqwImquzAuI06IEi6sU35rILr2yHIkT3PNgKwWfydjfZ/0x4nQmvQwmsCc1rk8S8lNt2esf0VFtz8lXJTN7UJ/46F1Lf8DPe+EQ7+CjViac63AbqhGfWVrMbRlX8zoTXxTkvVeezqfeWovAKl1wEkuvUrujzL47CHgR2frB1KkiG0dpMeJ0JrzPh9TtCA9LdSHYtafRBR3Yzkau339vKfnV4N1RCkfC67iCMmfA6E0qGbS756zPhdUYneXoY9nupCq/D8LErXSewTkNoTTiZCa/fEcElTWid3zPN66614fB7JbDKsffr33aza25tB0d6SbCvX1NvZa1EZzPhddeikTRv0/6eCa8zOilCczPhdUYnRejEMzPhdSa8zjSv3xEa+GhrLFYgl+4Bh8V0ZL84qBvK8irPSzNblDEUfW4mvNaP06K435WemwmvMzopQq8z4XVGJ0XoxDNBeP14azt7b8u24GSLeGafGQ7QAJr4utXLWp3tIVnyjC4WN11Y0NwC+Lnuf1gsO6h62U13trPN8ylw6p5DSbQ/+LSV9bZ/k332VWfGR2b8c+D+gZegD3SCXtBN3bQ4a2/Xxym6sN/Yd2Yyya4/n02uySC8/vMrdWlb2ZbP27PPDAc7aABNzLW3Z+3uN9nHM7zswMtiXidb59rZG++1sz8s62a/PKSXHX1qN3v27+3sq3YzaxtdfLK1nW3/5pvsi23dGR+ZrZOB6wQvQR/oBL3M+Ekz63Ex86YisKEL+419ZyaTzGhkFM0E4XVbe3v25bZu9tVcb/aZ4WAHDaCJbu+brLf9X9mX22a0sausj61f97LX3+lmTz7byV58vZt99kVzc5fo4pt//StoTGZ8pDlc7yr0NwhOdEGjhk7cT3Qz6NnZtaVLQ+jCfmPfmfGSpUsHRXhAdBv4vJ29u+XrjF/S7DPDQaIBNPHVvNsAE066Pvte3LjY/Mm27KPPt+0oBPHBp83BG0x7yW3gy86Mj8x46EA+gZd89mV0G9j8aSuYhGd8pLl1uaviFj9xyLHvzGSSGX2MouMgvG7Z2g4Mp6ij7Oy5peFUjXCSzyvfldm8z3DQTwPo4sPPos8r9yM00//M7P+MbtAF+uDzil5m/GRGE4P4ArpIPq8zXjKjkUE0kq79fzYX/TznN/q1AAAAAElFTkSuQmCC;" vertex="1" parent="1">
          <mxGeometry x="170" y="436.95" width="657" height="371.05" as="geometry" />
        </mxCell>
        <mxCell id="Pqy_H1DcKUiUlErftP3T-6" value="&lt;p style=&quot;margin-top: 0pt ; margin-bottom: 0pt ; margin-left: 0in ; text-align: left ; direction: ltr ; unicode-bidi: embed ; word-break: normal&quot;&gt;&lt;span style=&quot;color: rgb(33 , 33 , 33) ; font-weight: normal ; font-style: normal&quot;&gt;&lt;font style=&quot;font-size: 14px&quot; face=&quot;Times New Roman&quot;&gt;Frame rate: 35 (FPS)&lt;/font&gt;&lt;/span&gt;&lt;/p&gt;&lt;p style=&quot;margin-top: 0pt ; margin-bottom: 0pt ; margin-left: 0in ; text-align: left ; direction: ltr ; unicode-bidi: embed ; word-break: normal&quot;&gt;&lt;font face=&quot;Times New Roman&quot; style=&quot;font-size: 14px&quot;&gt;&lt;span style=&quot;color: rgb(33 , 33 , 33) ; font-weight: normal ; font-style: normal&quot;&gt;Codec:&amp;nbsp;&lt;/span&gt;&lt;span style=&quot;color: rgb(33 , 33 , 33) ; font-weight: normal ; font-style: normal&quot;&gt;mjpeg&lt;/span&gt;&lt;/font&gt;&lt;/p&gt;&lt;font color=&quot;#212121&quot; face=&quot;Times New Roman&quot;&gt;&lt;span style=&quot;font-size: 14px&quot;&gt;Resolution:&amp;nbsp;&lt;/span&gt;&lt;/font&gt;&lt;span style=&quot;font-size: 14px ; font-family: &amp;#34;times new roman&amp;#34; ; color: rgb(33 , 33 , 33)&quot;&gt;1024 x1024&lt;/span&gt;&lt;font color=&quot;#212121&quot; face=&quot;Times New Roman&quot;&gt;&lt;span style=&quot;font-size: 14px&quot;&gt;&lt;br&gt;&lt;/span&gt;&lt;/font&gt;" style="text;whiteSpace=wrap;html=1;" vertex="1" parent="1">
          <mxGeometry x="20" y="440" width="200" height="60" as="geometry" />
        </mxCell>
      </root>
    </mxGraphModel>
  </diagram>
</mxfile>
